<svg width="1541" height="340" viewBox="0 0 1541 340" fill="none" xmlns="http://www.w3.org/2000/svg">
<rect x="3" y="3" width="1535" height="334" rx="14" fill="#FCFCFC" stroke="#C3A7FF" stroke-width="6"/>
<path d="M142.719 230V126.735L154.013 138.03H120.129V117.054H168.858V230H142.719Z" fill="#E4A355"/>
<path d="M343.913 158V115.549H359.802C363.4 115.549 366.493 116.135 369.081 117.308C371.668 118.44 373.649 120.098 375.024 122.281C376.439 124.423 377.146 127.031 377.146 130.104C377.146 133.096 376.439 135.683 375.024 137.866C373.649 140.009 371.668 141.667 369.081 142.839C366.493 144.011 363.4 144.598 359.802 144.598H346.4L348.401 142.475V158H343.913ZM348.401 142.839L346.4 140.656H359.681C363.926 140.656 367.14 139.746 369.323 137.927C371.547 136.067 372.659 133.459 372.659 130.104C372.659 126.708 371.547 124.08 369.323 122.22C367.14 120.36 363.926 119.43 359.681 119.43H346.4L348.401 117.308V142.839ZM399.286 158.303C395.971 158.303 393.06 157.616 390.553 156.241C388.047 154.826 386.086 152.906 384.671 150.48C383.256 148.014 382.548 145.204 382.548 142.051C382.548 138.897 383.215 136.108 384.55 133.682C385.924 131.256 387.784 129.356 390.129 127.981C392.514 126.566 395.182 125.859 398.134 125.859C401.126 125.859 403.774 126.546 406.078 127.921C408.423 129.255 410.263 131.155 411.597 133.621C412.931 136.047 413.598 138.857 413.598 142.051C413.598 142.253 413.578 142.475 413.537 142.718C413.537 142.92 413.537 143.142 413.537 143.385H385.823V140.171H411.233L409.535 141.444C409.535 139.14 409.029 137.098 408.019 135.319C407.048 133.5 405.714 132.085 404.016 131.074C402.318 130.063 400.357 129.558 398.134 129.558C395.951 129.558 393.99 130.063 392.251 131.074C390.513 132.085 389.158 133.5 388.188 135.319C387.218 137.138 386.733 139.221 386.733 141.566V142.233C386.733 144.658 387.258 146.801 388.309 148.661C389.401 150.48 390.897 151.915 392.797 152.967C394.738 153.977 396.941 154.483 399.407 154.483C401.348 154.483 403.147 154.139 404.805 153.452C406.503 152.764 407.958 151.713 409.171 150.298L411.597 153.088C410.182 154.786 408.403 156.08 406.26 156.969C404.158 157.858 401.833 158.303 399.286 158.303ZM430.913 158.303C428.285 158.303 425.798 157.939 423.454 157.212C421.109 156.443 419.269 155.493 417.935 154.361L419.876 150.965C421.169 151.936 422.827 152.785 424.848 153.512C426.87 154.2 428.992 154.543 431.216 154.543C434.248 154.543 436.431 154.078 437.766 153.148C439.1 152.178 439.767 150.905 439.767 149.328C439.767 148.155 439.383 147.246 438.615 146.599C437.887 145.912 436.917 145.406 435.704 145.083C434.491 144.719 433.136 144.416 431.64 144.173C430.145 143.931 428.649 143.648 427.153 143.324C425.697 143.001 424.363 142.536 423.15 141.929C421.937 141.282 420.947 140.413 420.179 139.322C419.451 138.23 419.087 136.775 419.087 134.955C419.087 133.217 419.572 131.66 420.543 130.286C421.513 128.911 422.928 127.84 424.788 127.072C426.688 126.263 428.992 125.859 431.701 125.859C433.763 125.859 435.825 126.142 437.887 126.708C439.949 127.233 441.647 127.941 442.981 128.83L441.101 132.287C439.686 131.317 438.17 130.629 436.553 130.225C434.935 129.78 433.318 129.558 431.701 129.558C428.831 129.558 426.708 130.063 425.334 131.074C423.999 132.044 423.332 133.298 423.332 134.834C423.332 136.047 423.696 136.997 424.424 137.684C425.192 138.372 426.183 138.917 427.395 139.322C428.649 139.686 430.003 139.989 431.459 140.231C432.954 140.474 434.43 140.777 435.886 141.141C437.381 141.464 438.736 141.929 439.949 142.536C441.202 143.102 442.193 143.931 442.92 145.022C443.688 146.073 444.072 147.468 444.072 149.207C444.072 151.066 443.547 152.684 442.496 154.058C441.485 155.392 439.989 156.443 438.008 157.212C436.067 157.939 433.702 158.303 430.913 158.303ZM465.497 158.303C462.182 158.303 459.271 157.616 456.764 156.241C454.258 154.826 452.297 152.906 450.882 150.48C449.467 148.014 448.759 145.204 448.759 142.051C448.759 138.897 449.426 136.108 450.76 133.682C452.135 131.256 453.995 129.356 456.34 127.981C458.725 126.566 461.393 125.859 464.345 125.859C467.336 125.859 469.984 126.546 472.289 127.921C474.634 129.255 476.473 131.155 477.808 133.621C479.142 136.047 479.809 138.857 479.809 142.051C479.809 142.253 479.789 142.475 479.748 142.718C479.748 142.92 479.748 143.142 479.748 143.385H452.034V140.171H477.444L475.746 141.444C475.746 139.14 475.24 137.098 474.23 135.319C473.259 133.5 471.925 132.085 470.227 131.074C468.529 130.063 466.568 129.558 464.345 129.558C462.161 129.558 460.201 130.063 458.462 131.074C456.724 132.085 455.369 133.5 454.399 135.319C453.429 137.138 452.944 139.221 452.944 141.566V142.233C452.944 144.658 453.469 146.801 454.52 148.661C455.612 150.48 457.108 151.915 459.008 152.967C460.949 153.977 463.152 154.483 465.618 154.483C467.559 154.483 469.358 154.139 471.015 153.452C472.713 152.764 474.169 151.713 475.382 150.298L477.808 153.088C476.393 154.786 474.614 156.08 472.471 156.969C470.369 157.858 468.044 158.303 465.497 158.303ZM488.573 158V126.162H492.697V134.834L492.272 133.318C493.162 130.892 494.657 129.053 496.76 127.799C498.862 126.506 501.47 125.859 504.583 125.859V130.043C504.421 130.043 504.259 130.043 504.098 130.043C503.936 130.003 503.774 129.983 503.612 129.983C500.257 129.983 497.629 131.013 495.729 133.075C493.829 135.097 492.879 137.988 492.879 141.747V158H488.573ZM523.869 158.303C520.877 158.303 518.572 157.495 516.955 155.877C515.338 154.26 514.529 151.976 514.529 149.025V119.127H518.835V148.782C518.835 150.642 519.3 152.077 520.23 153.088C521.2 154.099 522.575 154.604 524.354 154.604C526.254 154.604 527.831 154.058 529.084 152.967L530.6 156.059C529.751 156.828 528.72 157.394 527.507 157.757C526.335 158.121 525.122 158.303 523.869 158.303ZM508.829 129.74V126.162H528.538V129.74H508.829ZM558.39 158V150.965L558.208 149.813V138.048C558.208 135.339 557.44 133.257 555.904 131.802C554.408 130.346 552.164 129.619 549.172 129.619C547.11 129.619 545.149 129.962 543.29 130.65C541.43 131.337 539.853 132.247 538.559 133.379L536.619 130.164C538.236 128.79 540.177 127.739 542.441 127.011C544.705 126.243 547.09 125.859 549.597 125.859C553.72 125.859 556.894 126.89 559.118 128.952C561.382 130.973 562.514 134.066 562.514 138.23V158H558.39ZM547.413 158.303C545.028 158.303 542.946 157.919 541.167 157.151C539.429 156.342 538.095 155.251 537.165 153.876C536.235 152.461 535.77 150.844 535.77 149.025C535.77 147.367 536.154 145.871 536.922 144.537C537.731 143.162 539.024 142.071 540.803 141.262C542.623 140.413 545.048 139.989 548.081 139.989H559.057V143.203H548.202C545.129 143.203 542.986 143.749 541.774 144.84C540.601 145.932 540.015 147.286 540.015 148.903C540.015 150.723 540.722 152.178 542.137 153.27C543.552 154.361 545.534 154.907 548.081 154.907C550.506 154.907 552.588 154.361 554.327 153.27C556.106 152.138 557.4 150.521 558.208 148.418L559.178 151.39C558.37 153.492 556.955 155.17 554.933 156.423C552.952 157.677 550.446 158.303 547.413 158.303ZM608.82 158V113.002H613.126V158H608.82ZM638.084 158.303C635.011 158.303 632.242 157.616 629.776 156.241C627.35 154.826 625.43 152.906 624.015 150.48C622.6 148.014 621.892 145.204 621.892 142.051C621.892 138.857 622.6 136.047 624.015 133.621C625.43 131.195 627.35 129.295 629.776 127.921C632.202 126.546 634.971 125.859 638.084 125.859C641.238 125.859 644.027 126.546 646.453 127.921C648.919 129.295 650.84 131.195 652.214 133.621C653.629 136.047 654.337 138.857 654.337 142.051C654.337 145.204 653.629 148.014 652.214 150.48C650.84 152.906 648.919 154.826 646.453 156.241C643.987 157.616 641.197 158.303 638.084 158.303ZM638.084 154.483C640.389 154.483 642.43 153.977 644.209 152.967C645.988 151.915 647.383 150.46 648.394 148.6C649.445 146.7 649.97 144.517 649.97 142.051C649.97 139.544 649.445 137.361 648.394 135.501C647.383 133.641 645.988 132.206 644.209 131.195C642.43 130.144 640.409 129.619 638.145 129.619C635.881 129.619 633.859 130.144 632.08 131.195C630.301 132.206 628.886 133.641 627.835 135.501C626.784 137.361 626.259 139.544 626.259 142.051C626.259 144.517 626.784 146.7 627.835 148.6C628.886 150.46 630.301 151.915 632.08 152.967C633.859 153.977 635.86 154.483 638.084 154.483ZM702.91 125.859C705.497 125.859 707.741 126.364 709.641 127.375C711.582 128.345 713.078 129.841 714.129 131.862C715.22 133.884 715.766 136.431 715.766 139.504V158H711.46V139.928C711.46 136.572 710.652 134.046 709.035 132.348C707.458 130.609 705.214 129.74 702.303 129.74C700.12 129.74 698.22 130.205 696.603 131.135C695.026 132.024 693.793 133.338 692.903 135.077C692.054 136.775 691.63 138.837 691.63 141.262V158H687.324V139.928C687.324 136.572 686.515 134.046 684.898 132.348C683.281 130.609 681.017 129.74 678.106 129.74C675.963 129.74 674.083 130.205 672.466 131.135C670.849 132.024 669.596 133.338 668.706 135.077C667.857 136.775 667.433 138.837 667.433 141.262V158H663.127V126.162H667.251V134.773L666.584 133.257C667.554 130.953 669.111 129.154 671.253 127.86C673.437 126.526 676.004 125.859 678.955 125.859C682.068 125.859 684.716 126.647 686.9 128.224C689.083 129.76 690.498 132.085 691.145 135.198L689.447 134.531C690.376 131.943 692.014 129.861 694.359 128.284C696.744 126.667 699.594 125.859 702.91 125.859ZM743.877 158.303C741.088 158.303 738.581 157.677 736.358 156.423C734.134 155.13 732.375 153.27 731.081 150.844C729.788 148.418 729.141 145.487 729.141 142.051C729.141 138.574 729.788 135.643 731.081 133.257C732.416 130.832 734.195 128.992 736.418 127.739C738.642 126.485 741.128 125.859 743.877 125.859C746.91 125.859 749.618 126.546 752.004 127.921C754.429 129.255 756.33 131.135 757.704 133.561C759.079 135.986 759.766 138.816 759.766 142.051C759.766 145.245 759.079 148.075 757.704 150.541C756.33 152.967 754.429 154.867 752.004 156.241C749.618 157.616 746.91 158.303 743.877 158.303ZM727.443 158V113.002H731.749V135.562L731.142 141.99L731.567 148.418V158H727.443ZM743.574 154.483C745.838 154.483 747.86 153.977 749.639 152.967C751.417 151.915 752.832 150.46 753.884 148.6C754.935 146.7 755.46 144.517 755.46 142.051C755.46 139.544 754.935 137.361 753.884 135.501C752.832 133.641 751.417 132.206 749.639 131.195C747.86 130.144 745.838 129.619 743.574 129.619C741.31 129.619 739.268 130.144 737.449 131.195C735.67 132.206 734.255 133.641 733.204 135.501C732.193 137.361 731.688 139.544 731.688 142.051C731.688 144.517 732.193 146.7 733.204 148.6C734.255 150.46 735.67 151.915 737.449 152.967C739.268 153.977 741.31 154.483 743.574 154.483ZM788.317 158V150.965L788.136 149.813V138.048C788.136 135.339 787.367 133.257 785.831 131.802C784.335 130.346 782.091 129.619 779.1 129.619C777.038 129.619 775.077 129.962 773.217 130.65C771.357 131.337 769.781 132.247 768.487 133.379L766.546 130.164C768.164 128.79 770.104 127.739 772.368 127.011C774.632 126.243 777.018 125.859 779.524 125.859C783.648 125.859 786.822 126.89 789.045 128.952C791.309 130.973 792.441 134.066 792.441 138.23V158H788.317ZM777.341 158.303C774.956 158.303 772.874 157.919 771.095 157.151C769.356 156.342 768.022 155.251 767.092 153.876C766.162 152.461 765.697 150.844 765.697 149.025C765.697 147.367 766.081 145.871 766.85 144.537C767.658 143.162 768.952 142.071 770.731 141.262C772.55 140.413 774.976 139.989 778.008 139.989H788.985V143.203H778.129C775.057 143.203 772.914 143.749 771.701 144.84C770.529 145.932 769.942 147.286 769.942 148.903C769.942 150.723 770.65 152.178 772.065 153.27C773.48 154.361 775.461 154.907 778.008 154.907C780.434 154.907 782.516 154.361 784.254 153.27C786.033 152.138 787.327 150.521 788.136 148.418L789.106 151.39C788.297 153.492 786.882 155.17 784.861 156.423C782.88 157.677 780.373 158.303 777.341 158.303ZM855 125.859C857.588 125.859 859.852 126.364 861.792 127.375C863.773 128.345 865.31 129.841 866.401 131.862C867.533 133.884 868.099 136.431 868.099 139.504V158H863.793V139.928C863.793 136.572 862.944 134.046 861.246 132.348C859.589 130.609 857.244 129.74 854.212 129.74C851.948 129.74 849.967 130.205 848.269 131.135C846.611 132.024 845.317 133.338 844.387 135.077C843.498 136.775 843.053 138.837 843.053 141.262V158H838.748V113.002H843.053V134.895L842.204 133.257C843.215 130.953 844.832 129.154 847.056 127.86C849.279 126.526 851.927 125.859 855 125.859ZM899.681 158V150.965L899.499 149.813V138.048C899.499 135.339 898.731 133.257 897.195 131.802C895.699 130.346 893.455 129.619 890.464 129.619C888.402 129.619 886.441 129.962 884.581 130.65C882.721 131.337 881.145 132.247 879.851 133.379L877.91 130.164C879.527 128.79 881.468 127.739 883.732 127.011C885.996 126.243 888.381 125.859 890.888 125.859C895.012 125.859 898.186 126.89 900.409 128.952C902.673 130.973 903.805 134.066 903.805 138.23V158H899.681ZM888.705 158.303C886.32 158.303 884.237 157.919 882.459 157.151C880.72 156.342 879.386 155.251 878.456 153.876C877.526 152.461 877.061 150.844 877.061 149.025C877.061 147.367 877.445 145.871 878.213 144.537C879.022 143.162 880.316 142.071 882.095 141.262C883.914 140.413 886.34 139.989 889.372 139.989H900.349V143.203H889.493C886.421 143.203 884.278 143.749 883.065 144.84C881.893 145.932 881.306 147.286 881.306 148.903C881.306 150.723 882.014 152.178 883.429 153.27C884.844 154.361 886.825 154.907 889.372 154.907C891.798 154.907 893.88 154.361 895.618 153.27C897.397 152.138 898.691 150.521 899.499 148.418L900.47 151.39C899.661 153.492 898.246 155.17 896.225 156.423C894.244 157.677 891.737 158.303 888.705 158.303ZM915.5 158V126.162H919.624V134.834L919.199 133.318C920.089 130.892 921.585 129.053 923.687 127.799C925.789 126.506 928.397 125.859 931.51 125.859V130.043C931.348 130.043 931.187 130.043 931.025 130.043C930.863 130.003 930.701 129.983 930.54 129.983C927.184 129.983 924.556 131.013 922.656 133.075C920.756 135.097 919.806 137.988 919.806 141.747V158H915.5ZM953 158.303C950.291 158.303 947.926 157.798 945.905 156.787C943.883 155.776 942.307 154.26 941.175 152.239C940.083 150.217 939.537 147.691 939.537 144.658V126.162H943.843V144.173C943.843 147.569 944.672 150.137 946.329 151.875C948.027 153.573 950.393 154.422 953.425 154.422C955.648 154.422 957.569 153.977 959.186 153.088C960.843 152.158 962.097 150.824 962.946 149.085C963.835 147.347 964.28 145.265 964.28 142.839V126.162H968.586V158H964.462V149.267L965.129 150.844C964.118 153.189 962.542 155.028 960.399 156.363C958.296 157.656 955.83 158.303 953 158.303ZM989.136 158.303C986.508 158.303 984.022 157.939 981.677 157.212C979.332 156.443 977.493 155.493 976.159 154.361L978.099 150.965C979.393 151.936 981.051 152.785 983.072 153.512C985.093 154.2 987.216 154.543 989.44 154.543C992.472 154.543 994.655 154.078 995.989 153.148C997.323 152.178 997.99 150.905 997.99 149.328C997.99 148.155 997.606 147.246 996.838 146.599C996.11 145.912 995.14 145.406 993.927 145.083C992.714 144.719 991.36 144.416 989.864 144.173C988.368 143.931 986.872 143.648 985.376 143.324C983.921 143.001 982.587 142.536 981.374 141.929C980.161 141.282 979.171 140.413 978.402 139.322C977.675 138.23 977.311 136.775 977.311 134.955C977.311 133.217 977.796 131.66 978.766 130.286C979.737 128.911 981.152 127.84 983.011 127.072C984.912 126.263 987.216 125.859 989.925 125.859C991.987 125.859 994.049 126.142 996.11 126.708C998.172 127.233 999.87 127.941 1001.2 128.83L999.325 132.287C997.91 131.317 996.393 130.629 994.776 130.225C993.159 129.78 991.542 129.558 989.925 129.558C987.054 129.558 984.932 130.063 983.557 131.074C982.223 132.044 981.556 133.298 981.556 134.834C981.556 136.047 981.92 136.997 982.647 137.684C983.416 138.372 984.406 138.917 985.619 139.322C986.872 139.686 988.227 139.989 989.682 140.231C991.178 140.474 992.654 140.777 994.109 141.141C995.605 141.464 996.959 141.929 998.172 142.536C999.426 143.102 1000.42 143.931 1001.14 145.022C1001.91 146.073 1002.3 147.468 1002.3 149.207C1002.3 151.066 1001.77 152.684 1000.72 154.058C999.709 155.392 998.213 156.443 996.232 157.212C994.291 157.939 991.926 158.303 989.136 158.303ZM1061.24 158.303C1058.45 158.303 1055.95 157.677 1053.72 156.423C1051.5 155.13 1049.74 153.27 1048.45 150.844C1047.15 148.418 1046.51 145.487 1046.51 142.051C1046.51 138.574 1047.15 135.643 1048.45 133.257C1049.78 130.832 1051.56 128.992 1053.78 127.739C1056.01 126.485 1058.49 125.859 1061.24 125.859C1064.28 125.859 1066.98 126.546 1069.37 127.921C1071.79 129.255 1073.7 131.135 1075.07 133.561C1076.44 135.986 1077.13 138.816 1077.13 142.051C1077.13 145.245 1076.44 148.075 1075.07 150.541C1073.7 152.967 1071.79 154.867 1069.37 156.241C1066.98 157.616 1064.28 158.303 1061.24 158.303ZM1044.81 158V113.002H1049.11V135.562L1048.51 141.99L1048.93 148.418V158H1044.81ZM1060.94 154.483C1063.2 154.483 1065.23 153.977 1067 152.967C1068.78 151.915 1070.2 150.46 1071.25 148.6C1072.3 146.7 1072.83 144.517 1072.83 142.051C1072.83 139.544 1072.3 137.361 1071.25 135.501C1070.2 133.641 1068.78 132.206 1067 131.195C1065.23 130.144 1063.2 129.619 1060.94 129.619C1058.68 129.619 1056.63 130.144 1054.81 131.195C1053.04 132.206 1051.62 133.641 1050.57 135.501C1049.56 137.361 1049.05 139.544 1049.05 142.051C1049.05 144.517 1049.56 146.7 1050.57 148.6C1051.62 150.46 1053.04 151.915 1054.81 152.967C1056.63 153.977 1058.68 154.483 1060.94 154.483ZM1099.43 158.303C1096.12 158.303 1093.21 157.616 1090.7 156.241C1088.19 154.826 1086.23 152.906 1084.82 150.48C1083.4 148.014 1082.69 145.204 1082.69 142.051C1082.69 138.897 1083.36 136.108 1084.7 133.682C1086.07 131.256 1087.93 129.356 1090.28 127.981C1092.66 126.566 1095.33 125.859 1098.28 125.859C1101.27 125.859 1103.92 126.546 1106.22 127.921C1108.57 129.255 1110.41 131.155 1111.74 133.621C1113.08 136.047 1113.74 138.857 1113.74 142.051C1113.74 142.253 1113.72 142.475 1113.68 142.718C1113.68 142.92 1113.68 143.142 1113.68 143.385H1085.97V140.171H1111.38L1109.68 141.444C1109.68 139.14 1109.18 137.098 1108.17 135.319C1107.19 133.5 1105.86 132.085 1104.16 131.074C1102.46 130.063 1100.5 129.558 1098.28 129.558C1096.1 129.558 1094.14 130.063 1092.4 131.074C1090.66 132.085 1089.3 133.5 1088.33 135.319C1087.36 137.138 1086.88 139.221 1086.88 141.566V142.233C1086.88 144.658 1087.4 146.801 1088.46 148.661C1089.55 150.48 1091.04 151.915 1092.94 152.967C1094.88 153.977 1097.09 154.483 1099.55 154.483C1101.49 154.483 1103.29 154.139 1104.95 153.452C1106.65 152.764 1108.1 151.713 1109.32 150.298L1111.74 153.088C1110.33 154.786 1108.55 156.08 1106.41 156.969C1104.3 157.858 1101.98 158.303 1099.43 158.303ZM1122.51 158V126.162H1126.63V134.834L1126.21 133.318C1127.1 130.892 1128.59 129.053 1130.7 127.799C1132.8 126.506 1135.41 125.859 1138.52 125.859V130.043C1138.36 130.043 1138.19 130.043 1138.03 130.043C1137.87 130.003 1137.71 129.983 1137.55 129.983C1134.19 129.983 1131.56 131.013 1129.66 133.075C1127.76 135.097 1126.81 137.988 1126.81 141.747V158H1122.51ZM1160.01 158.303C1157.3 158.303 1154.93 157.798 1152.91 156.787C1150.89 155.776 1149.31 154.26 1148.18 152.239C1147.09 150.217 1146.55 147.691 1146.55 144.658V126.162H1150.85V144.173C1150.85 147.569 1151.68 150.137 1153.34 151.875C1155.04 153.573 1157.4 154.422 1160.43 154.422C1162.66 154.422 1164.58 153.977 1166.19 153.088C1167.85 152.158 1169.11 150.824 1169.95 149.085C1170.84 147.347 1171.29 145.265 1171.29 142.839V126.162H1175.59V158H1171.47V149.267L1172.14 150.844C1171.13 153.189 1169.55 155.028 1167.41 156.363C1165.3 157.656 1162.84 158.303 1160.01 158.303ZM1196.14 158.303C1193.52 158.303 1191.03 157.939 1188.69 157.212C1186.34 156.443 1184.5 155.493 1183.17 154.361L1185.11 150.965C1186.4 151.936 1188.06 152.785 1190.08 153.512C1192.1 154.2 1194.22 154.543 1196.45 154.543C1199.48 154.543 1201.66 154.078 1203 153.148C1204.33 152.178 1205 150.905 1205 149.328C1205 148.155 1204.61 147.246 1203.85 146.599C1203.12 145.912 1202.15 145.406 1200.94 145.083C1199.72 144.719 1198.37 144.416 1196.87 144.173C1195.38 143.931 1193.88 143.648 1192.38 143.324C1190.93 143.001 1189.6 142.536 1188.38 141.929C1187.17 141.282 1186.18 140.413 1185.41 139.322C1184.68 138.23 1184.32 136.775 1184.32 134.955C1184.32 133.217 1184.8 131.66 1185.77 130.286C1186.74 128.911 1188.16 127.84 1190.02 127.072C1191.92 126.263 1194.22 125.859 1196.93 125.859C1198.99 125.859 1201.06 126.142 1203.12 126.708C1205.18 127.233 1206.88 127.941 1208.21 128.83L1206.33 132.287C1204.92 131.317 1203.4 130.629 1201.78 130.225C1200.17 129.78 1198.55 129.558 1196.93 129.558C1194.06 129.558 1191.94 130.063 1190.57 131.074C1189.23 132.044 1188.56 133.298 1188.56 134.834C1188.56 136.047 1188.93 136.997 1189.66 137.684C1190.42 138.372 1191.41 138.917 1192.63 139.322C1193.88 139.686 1195.24 139.989 1196.69 140.231C1198.19 140.474 1199.66 140.777 1201.12 141.141C1202.61 141.464 1203.97 141.929 1205.18 142.536C1206.43 143.102 1207.42 143.931 1208.15 145.022C1208.92 146.073 1209.3 147.468 1209.3 149.207C1209.3 151.066 1208.78 152.684 1207.73 154.058C1206.72 155.392 1205.22 156.443 1203.24 157.212C1201.3 157.939 1198.93 158.303 1196.14 158.303ZM1217.21 158V126.162H1221.51V158H1217.21ZM1219.39 119.127C1218.5 119.127 1217.75 118.824 1217.14 118.218C1216.54 117.611 1216.23 116.883 1216.23 116.034C1216.23 115.185 1216.54 114.478 1217.14 113.912C1217.75 113.305 1218.5 113.002 1219.39 113.002C1220.28 113.002 1221.03 113.285 1221.63 113.851C1222.24 114.417 1222.54 115.125 1222.54 115.974C1222.54 116.863 1222.24 117.611 1221.63 118.218C1221.07 118.824 1220.32 119.127 1219.39 119.127ZM1253.44 158V150.965L1253.26 149.813V138.048C1253.26 135.339 1252.49 133.257 1250.96 131.802C1249.46 130.346 1247.22 129.619 1244.23 129.619C1242.16 129.619 1240.2 129.962 1238.34 130.65C1236.48 131.337 1234.91 132.247 1233.61 133.379L1231.67 130.164C1233.29 128.79 1235.23 127.739 1237.49 127.011C1239.76 126.243 1242.14 125.859 1244.65 125.859C1248.77 125.859 1251.95 126.89 1254.17 128.952C1256.43 130.973 1257.57 134.066 1257.57 138.23V158H1253.44ZM1242.47 158.303C1240.08 158.303 1238 157.919 1236.22 157.151C1234.48 156.342 1233.15 155.251 1232.22 153.876C1231.29 152.461 1230.82 150.844 1230.82 149.025C1230.82 147.367 1231.21 145.871 1231.98 144.537C1232.78 143.162 1234.08 142.071 1235.86 141.262C1237.68 140.413 1240.1 139.989 1243.13 139.989H1254.11V143.203H1243.26C1240.18 143.203 1238.04 143.749 1236.83 144.84C1235.65 145.932 1235.07 147.286 1235.07 148.903C1235.07 150.723 1235.78 152.178 1237.19 153.27C1238.61 154.361 1240.59 154.907 1243.13 154.907C1245.56 154.907 1247.64 154.361 1249.38 153.27C1251.16 152.138 1252.45 150.521 1253.26 148.418L1254.23 151.39C1253.42 153.492 1252.01 155.17 1249.99 156.423C1248.01 157.677 1245.5 158.303 1242.47 158.303ZM1299.75 149.085V142.475L1319.76 115.549H1330.07L1310.48 142.475L1305.69 141.08H1339.11V149.085H1299.75ZM1322.61 158V149.085L1322.92 141.08V133.136H1332.19V158H1322.61ZM1343.43 144.719V137.138H1360.59V144.719H1343.43ZM1371.28 158V119.188L1375.52 123.433H1362.79V115.549H1381.1V158H1371.28ZM1402.24 158.728C1399.29 158.728 1396.36 158.344 1393.45 157.575C1390.54 156.767 1388.07 155.635 1386.05 154.179L1389.87 146.66C1391.49 147.832 1393.37 148.762 1395.51 149.449C1397.65 150.137 1399.82 150.48 1402 150.48C1404.47 150.48 1406.41 149.995 1407.82 149.025C1409.24 148.054 1409.94 146.72 1409.94 145.022C1409.94 143.405 1409.32 142.132 1408.06 141.202C1406.81 140.272 1404.79 139.807 1402 139.807H1397.51V133.318L1409.34 119.916L1410.43 123.433H1388.17V115.549H1417.89V121.917L1406.12 135.319L1401.15 132.469H1404C1409.22 132.469 1413.16 133.641 1415.83 135.986C1418.49 138.331 1419.83 141.343 1419.83 145.022C1419.83 147.408 1419.2 149.651 1417.95 151.754C1416.7 153.816 1414.78 155.493 1412.19 156.787C1409.6 158.081 1406.29 158.728 1402.24 158.728ZM354.708 232.485C350.867 232.485 347.875 231.515 345.733 229.574C343.59 227.593 342.519 224.662 342.519 220.781V192.157H351.979V220.66C351.979 222.034 352.343 223.106 353.071 223.874C353.798 224.601 354.789 224.965 356.042 224.965C357.538 224.965 358.812 224.561 359.863 223.752L362.41 230.423C361.439 231.111 360.267 231.636 358.892 232C357.558 232.323 356.163 232.485 354.708 232.485ZM337.485 207.379V200.101H360.105V207.379H337.485ZM387.733 232V225.632L387.126 224.238V212.837C387.126 210.815 386.5 209.238 385.246 208.106C384.034 206.974 382.154 206.408 379.607 206.408C377.868 206.408 376.15 206.691 374.452 207.257C372.794 207.783 371.379 208.511 370.207 209.44L366.811 202.83C368.59 201.577 370.732 200.607 373.239 199.919C375.746 199.232 378.293 198.888 380.88 198.888C385.853 198.888 389.714 200.061 392.463 202.406C395.212 204.751 396.587 208.41 396.587 213.382V232H387.733ZM377.787 232.485C375.24 232.485 373.057 232.061 371.238 231.212C369.418 230.322 368.024 229.13 367.053 227.634C366.083 226.138 365.598 224.46 365.598 222.6C365.598 220.66 366.063 218.962 366.993 217.506C367.963 216.051 369.479 214.919 371.541 214.11C373.603 213.261 376.291 212.837 379.607 212.837H388.279V218.355H380.638C378.414 218.355 376.878 218.719 376.029 219.447C375.22 220.174 374.816 221.084 374.816 222.176C374.816 223.389 375.281 224.359 376.211 225.087C377.181 225.774 378.495 226.118 380.152 226.118C381.729 226.118 383.144 225.754 384.397 225.026C385.651 224.258 386.56 223.146 387.126 221.691L388.582 226.057C387.895 228.159 386.641 229.756 384.822 230.848C383.003 231.939 380.658 232.485 377.787 232.485ZM424.98 198.888C427.567 198.888 429.872 199.414 431.893 200.465C433.955 201.476 435.572 203.053 436.745 205.195C437.917 207.298 438.503 210.006 438.503 213.322V232H429.043V214.777C429.043 212.149 428.457 210.209 427.284 208.955C426.152 207.702 424.535 207.075 422.433 207.075C420.937 207.075 419.582 207.399 418.369 208.046C417.197 208.652 416.267 209.602 415.58 210.896C414.933 212.19 414.61 213.847 414.61 215.869V232H405.149V187.002H414.61V208.41L412.487 205.681C413.659 203.497 415.337 201.82 417.52 200.647C419.704 199.475 422.19 198.888 424.98 198.888ZM460.845 232.485C458.136 232.485 455.71 231.96 453.568 230.908C451.465 229.857 449.828 228.26 448.655 226.118C447.483 223.934 446.897 221.165 446.897 217.809V199.374H456.357V216.415C456.357 219.123 456.923 221.125 458.055 222.418C459.228 223.672 460.865 224.298 462.967 224.298C464.423 224.298 465.717 223.995 466.849 223.389C467.981 222.742 468.87 221.771 469.517 220.478C470.164 219.143 470.487 217.486 470.487 215.505V199.374H479.948V232H470.972V223.025L472.61 225.632C471.518 227.896 469.901 229.615 467.758 230.787C465.656 231.919 463.351 232.485 460.845 232.485ZM508.543 198.888C511.13 198.888 513.435 199.414 515.456 200.465C517.518 201.476 519.135 203.053 520.308 205.195C521.48 207.298 522.066 210.006 522.066 213.322V232H512.606V214.777C512.606 212.149 512.02 210.209 510.847 208.955C509.715 207.702 508.098 207.075 505.996 207.075C504.5 207.075 503.145 207.399 501.932 208.046C500.76 208.652 499.83 209.602 499.143 210.896C498.496 212.19 498.173 213.847 498.173 215.869V232H488.712V199.374H497.748V208.41L496.05 205.681C497.222 203.497 498.9 201.82 501.083 200.647C503.267 199.475 505.753 198.888 508.543 198.888ZM564.585 232.303C561.836 232.303 559.35 231.677 557.126 230.423C554.902 229.13 553.124 227.29 551.789 224.905C550.496 222.479 549.849 219.528 549.849 216.051C549.849 212.574 550.496 209.643 551.789 207.257C553.083 204.832 554.842 202.992 557.065 201.739C559.289 200.485 561.796 199.859 564.585 199.859C567.617 199.859 570.326 200.546 572.711 201.921C575.137 203.255 577.037 205.155 578.412 207.621C579.787 210.047 580.474 212.857 580.474 216.051C580.474 219.285 579.787 222.115 578.412 224.541C577.037 226.967 575.137 228.867 572.711 230.241C570.326 231.616 567.617 232.303 564.585 232.303ZM548.151 243.765V200.162H552.274V209.744L551.85 216.111L552.456 222.54V243.765H548.151ZM564.282 228.483C566.546 228.483 568.567 227.977 570.346 226.967C572.125 225.915 573.54 224.46 574.591 222.6C575.643 220.7 576.168 218.517 576.168 216.051C576.168 213.584 575.643 211.422 574.591 209.562C573.54 207.702 572.125 206.247 570.346 205.195C568.567 204.144 566.546 203.619 564.282 203.619C562.018 203.619 559.976 204.144 558.157 205.195C556.378 206.247 554.963 207.702 553.912 209.562C552.901 211.422 552.396 213.584 552.396 216.051C552.396 218.517 552.901 220.7 553.912 222.6C554.963 224.46 556.378 225.915 558.157 226.967C559.976 227.977 562.018 228.483 564.282 228.483ZM609.025 232V224.965L608.843 223.813V212.048C608.843 209.339 608.075 207.257 606.539 205.802C605.043 204.346 602.799 203.619 599.807 203.619C597.746 203.619 595.785 203.962 593.925 204.65C592.065 205.337 590.489 206.247 589.195 207.379L587.254 204.164C588.871 202.79 590.812 201.739 593.076 201.011C595.34 200.243 597.725 199.859 600.232 199.859C604.356 199.859 607.529 200.89 609.753 202.952C612.017 204.973 613.149 208.066 613.149 212.23V232H609.025ZM598.049 232.303C595.663 232.303 593.581 231.919 591.802 231.151C590.064 230.342 588.73 229.251 587.8 227.876C586.87 226.461 586.405 224.844 586.405 223.025C586.405 221.367 586.789 219.871 587.557 218.537C588.366 217.162 589.66 216.071 591.439 215.262C593.258 214.413 595.684 213.989 598.716 213.989H609.692V217.203H598.837C595.765 217.203 593.622 217.749 592.409 218.84C591.236 219.932 590.65 221.286 590.65 222.903C590.65 224.723 591.358 226.178 592.773 227.27C594.188 228.361 596.169 228.907 598.716 228.907C601.142 228.907 603.224 228.361 604.962 227.27C606.741 226.138 608.035 224.521 608.843 222.418L609.814 225.39C609.005 227.492 607.59 229.17 605.569 230.423C603.588 231.677 601.081 232.303 598.049 232.303ZM637.519 232.303C634.486 232.303 631.757 231.616 629.332 230.241C626.946 228.867 625.066 226.967 623.692 224.541C622.317 222.075 621.63 219.245 621.63 216.051C621.63 212.816 622.317 209.986 623.692 207.561C625.066 205.135 626.946 203.255 629.332 201.921C631.757 200.546 634.486 199.859 637.519 199.859C640.308 199.859 642.795 200.485 644.978 201.739C647.201 202.992 648.96 204.832 650.254 207.257C651.588 209.643 652.255 212.574 652.255 216.051C652.255 219.487 651.608 222.418 650.314 224.844C649.021 227.27 647.262 229.13 645.038 230.423C642.855 231.677 640.349 232.303 637.519 232.303ZM637.822 228.483C640.086 228.483 642.107 227.977 643.886 226.967C645.705 225.915 647.12 224.46 648.131 222.6C649.182 220.7 649.708 218.517 649.708 216.051C649.708 213.544 649.182 211.361 648.131 209.501C647.12 207.641 645.705 206.206 643.886 205.195C642.107 204.144 640.086 203.619 637.822 203.619C635.598 203.619 633.597 204.144 631.818 205.195C630.039 206.206 628.624 207.641 627.573 209.501C626.522 211.361 625.996 213.544 625.996 216.051C625.996 218.517 626.522 220.7 627.573 222.6C628.624 224.46 630.039 225.915 631.818 226.967C633.597 227.977 635.598 228.483 637.822 228.483ZM649.829 232V222.418L650.254 215.99L649.647 209.562V187.002H653.953V232H649.829ZM685.896 232V224.965L685.714 223.813V212.048C685.714 209.339 684.946 207.257 683.41 205.802C681.914 204.346 679.67 203.619 676.678 203.619C674.616 203.619 672.656 203.962 670.796 204.65C668.936 205.337 667.359 206.247 666.066 207.379L664.125 204.164C665.742 202.79 667.683 201.739 669.947 201.011C672.211 200.243 674.596 199.859 677.103 199.859C681.227 199.859 684.4 200.89 686.624 202.952C688.888 204.973 690.02 208.066 690.02 212.23V232H685.896ZM674.92 232.303C672.534 232.303 670.452 231.919 668.673 231.151C666.935 230.342 665.601 229.251 664.671 227.876C663.741 226.461 663.276 224.844 663.276 223.025C663.276 221.367 663.66 219.871 664.428 218.537C665.237 217.162 666.531 216.071 668.309 215.262C670.129 214.413 672.555 213.989 675.587 213.989H686.563V217.203H675.708C672.635 217.203 670.493 217.749 669.28 218.84C668.107 219.932 667.521 221.286 667.521 222.903C667.521 224.723 668.229 226.178 669.644 227.27C671.059 228.361 673.04 228.907 675.587 228.907C678.012 228.907 680.095 228.361 681.833 227.27C683.612 226.138 684.906 224.521 685.714 222.418L686.685 225.39C685.876 227.492 684.461 229.17 682.44 230.423C680.458 231.677 677.952 232.303 674.92 232.303ZM727.653 232.303C724.662 232.303 722.357 231.495 720.74 229.877C719.123 228.26 718.314 225.976 718.314 223.025V193.127H722.62V222.782C722.62 224.642 723.085 226.077 724.015 227.088C724.985 228.099 726.36 228.604 728.138 228.604C730.039 228.604 731.615 228.058 732.869 226.967L734.385 230.059C733.536 230.828 732.505 231.394 731.292 231.757C730.12 232.121 728.907 232.303 727.653 232.303ZM712.614 203.74V200.162H732.323V203.74H712.614ZM762.175 232V224.965L761.993 223.813V212.048C761.993 209.339 761.225 207.257 759.688 205.802C758.193 204.346 755.949 203.619 752.957 203.619C750.895 203.619 748.934 203.962 747.075 204.65C745.215 205.337 743.638 206.247 742.344 207.379L740.404 204.164C742.021 202.79 743.962 201.739 746.226 201.011C748.49 200.243 750.875 199.859 753.382 199.859C757.505 199.859 760.679 200.89 762.903 202.952C765.167 204.973 766.299 208.066 766.299 212.23V232H762.175ZM751.198 232.303C748.813 232.303 746.731 231.919 744.952 231.151C743.214 230.342 741.879 229.251 740.95 227.876C740.02 226.461 739.555 224.844 739.555 223.025C739.555 221.367 739.939 219.871 740.707 218.537C741.516 217.162 742.809 216.071 744.588 215.262C746.407 214.413 748.833 213.989 751.865 213.989H762.842V217.203H751.987C748.914 217.203 746.771 217.749 745.558 218.84C744.386 219.932 743.8 221.286 743.8 222.903C743.8 224.723 744.507 226.178 745.922 227.27C747.337 228.361 749.318 228.907 751.865 228.907C754.291 228.907 756.373 228.361 758.112 227.27C759.891 226.138 761.184 224.521 761.993 222.418L762.963 225.39C762.155 227.492 760.74 229.17 758.718 230.423C756.737 231.677 754.231 232.303 751.198 232.303ZM794.246 199.859C796.834 199.859 799.098 200.364 801.038 201.375C803.019 202.345 804.555 203.841 805.647 205.862C806.779 207.884 807.345 210.431 807.345 213.504V232H803.039V213.928C803.039 210.572 802.19 208.046 800.492 206.348C798.835 204.609 796.49 203.74 793.458 203.74C791.194 203.74 789.213 204.205 787.515 205.135C785.857 206.024 784.563 207.338 783.633 209.077C782.744 210.775 782.299 212.837 782.299 215.262V232H777.993V200.162H782.117V208.895L781.45 207.257C782.461 204.953 784.078 203.154 786.302 201.86C788.525 200.526 791.173 199.859 794.246 199.859ZM832.56 244.068C829.649 244.068 826.859 243.644 824.191 242.795C821.523 241.946 819.36 240.733 817.702 239.156L819.885 235.881C821.381 237.215 823.221 238.267 825.404 239.035C827.627 239.843 829.972 240.248 832.438 240.248C836.481 240.248 839.453 239.297 841.353 237.397C843.253 235.538 844.203 232.627 844.203 228.665V220.72L844.81 215.262L844.385 209.804V200.162H848.509V228.119C848.509 233.617 847.155 237.64 844.446 240.187C841.778 242.774 837.815 244.068 832.56 244.068ZM831.771 230.787C828.739 230.787 826.01 230.14 823.584 228.847C821.159 227.512 819.238 225.673 817.823 223.328C816.449 220.983 815.761 218.294 815.761 215.262C815.761 212.23 816.449 209.562 817.823 207.257C819.238 204.912 821.159 203.093 823.584 201.799C826.01 200.506 828.739 199.859 831.771 199.859C834.601 199.859 837.148 200.445 839.412 201.617C841.676 202.79 843.476 204.528 844.81 206.833C846.144 209.137 846.811 211.947 846.811 215.262C846.811 218.577 846.144 221.387 844.81 223.692C843.476 225.996 841.676 227.755 839.412 228.968C837.148 230.181 834.601 230.787 831.771 230.787ZM832.196 226.967C834.541 226.967 836.623 226.481 838.442 225.511C840.261 224.5 841.697 223.126 842.748 221.387C843.799 219.608 844.325 217.567 844.325 215.262C844.325 212.958 843.799 210.936 842.748 209.198C841.697 207.459 840.261 206.105 838.442 205.135C836.623 204.124 834.541 203.619 832.196 203.619C829.891 203.619 827.809 204.124 825.95 205.135C824.13 206.105 822.695 207.459 821.644 209.198C820.633 210.936 820.128 212.958 820.128 215.262C820.128 217.567 820.633 219.608 821.644 221.387C822.695 223.126 824.13 224.5 825.95 225.511C827.809 226.481 829.891 226.967 832.196 226.967ZM874.075 244.068C871.164 244.068 868.374 243.644 865.706 242.795C863.038 241.946 860.875 240.733 859.217 239.156L861.4 235.881C862.896 237.215 864.736 238.267 866.919 239.035C869.142 239.843 871.487 240.248 873.953 240.248C877.996 240.248 880.968 239.297 882.868 237.397C884.768 235.538 885.718 232.627 885.718 228.665V220.72L886.325 215.262L885.9 209.804V200.162H890.024V228.119C890.024 233.617 888.67 237.64 885.961 240.187C883.293 242.774 879.331 244.068 874.075 244.068ZM873.286 230.787C870.254 230.787 867.525 230.14 865.099 228.847C862.674 227.512 860.753 225.673 859.338 223.328C857.964 220.983 857.276 218.294 857.276 215.262C857.276 212.23 857.964 209.562 859.338 207.257C860.753 204.912 862.674 203.093 865.099 201.799C867.525 200.506 870.254 199.859 873.286 199.859C876.116 199.859 878.663 200.445 880.927 201.617C883.192 202.79 884.991 204.528 886.325 206.833C887.659 209.137 888.326 211.947 888.326 215.262C888.326 218.577 887.659 221.387 886.325 223.692C884.991 225.996 883.192 227.755 880.927 228.968C878.663 230.181 876.116 230.787 873.286 230.787ZM873.711 226.967C876.056 226.967 878.138 226.481 879.957 225.511C881.777 224.5 883.212 223.126 884.263 221.387C885.314 219.608 885.84 217.567 885.84 215.262C885.84 212.958 885.314 210.936 884.263 209.198C883.212 207.459 881.777 206.105 879.957 205.135C878.138 204.124 876.056 203.619 873.711 203.619C871.406 203.619 869.324 204.124 867.465 205.135C865.645 206.105 864.21 207.459 863.159 209.198C862.148 210.936 861.643 212.958 861.643 215.262C861.643 217.567 862.148 219.608 863.159 221.387C864.21 223.126 865.645 224.5 867.465 225.511C869.324 226.481 871.406 226.967 873.711 226.967ZM921.957 232V224.965L921.775 223.813V212.048C921.775 209.339 921.007 207.257 919.471 205.802C917.975 204.346 915.731 203.619 912.739 203.619C910.678 203.619 908.717 203.962 906.857 204.65C904.997 205.337 903.421 206.247 902.127 207.379L900.186 204.164C901.803 202.79 903.744 201.739 906.008 201.011C908.272 200.243 910.657 199.859 913.164 199.859C917.288 199.859 920.461 200.89 922.685 202.952C924.949 204.973 926.081 208.066 926.081 212.23V232H921.957ZM910.981 232.303C908.595 232.303 906.513 231.919 904.734 231.151C902.996 230.342 901.662 229.251 900.732 227.876C899.802 226.461 899.337 224.844 899.337 223.025C899.337 221.367 899.721 219.871 900.489 218.537C901.298 217.162 902.592 216.071 904.371 215.262C906.19 214.413 908.616 213.989 911.648 213.989H922.624V217.203H911.769C908.697 217.203 906.554 217.749 905.341 218.84C904.168 219.932 903.582 221.286 903.582 222.903C903.582 224.723 904.29 226.178 905.705 227.27C907.12 228.361 909.101 228.907 911.648 228.907C914.074 228.907 916.156 228.361 917.894 227.27C919.673 226.138 920.967 224.521 921.775 222.418L922.746 225.39C921.937 227.492 920.522 229.17 918.501 230.423C916.52 231.677 914.013 232.303 910.981 232.303ZM937.776 232V187.002H942.082V232H937.776ZM986.368 232.303C983.619 232.303 981.133 231.677 978.909 230.423C976.685 229.13 974.907 227.29 973.572 224.905C972.279 222.479 971.632 219.528 971.632 216.051C971.632 212.574 972.279 209.643 973.572 207.257C974.866 204.832 976.625 202.992 978.848 201.739C981.072 200.485 983.579 199.859 986.368 199.859C989.4 199.859 992.109 200.546 994.495 201.921C996.92 203.255 998.821 205.155 1000.2 207.621C1001.57 210.047 1002.26 212.857 1002.26 216.051C1002.26 219.285 1001.57 222.115 1000.2 224.541C998.821 226.967 996.92 228.867 994.495 230.241C992.109 231.616 989.4 232.303 986.368 232.303ZM969.934 243.765V200.162H974.058V209.744L973.633 216.111L974.24 222.54V243.765H969.934ZM986.065 228.483C988.329 228.483 990.351 227.977 992.129 226.967C993.908 225.915 995.323 224.46 996.375 222.6C997.426 220.7 997.951 218.517 997.951 216.051C997.951 213.584 997.426 211.422 996.375 209.562C995.323 207.702 993.908 206.247 992.129 205.195C990.351 204.144 988.329 203.619 986.065 203.619C983.801 203.619 981.759 204.144 979.94 205.195C978.161 206.247 976.746 207.702 975.695 209.562C974.684 211.422 974.179 213.584 974.179 216.051C974.179 218.517 974.684 220.7 975.695 222.6C976.746 224.46 978.161 225.915 979.94 226.967C981.759 227.977 983.801 228.483 986.065 228.483ZM1024.56 232.303C1021.24 232.303 1018.33 231.616 1015.83 230.241C1013.32 228.826 1011.36 226.906 1009.94 224.48C1008.53 222.014 1007.82 219.204 1007.82 216.051C1007.82 212.897 1008.49 210.108 1009.82 207.682C1011.2 205.256 1013.06 203.356 1015.4 201.981C1017.79 200.566 1020.45 199.859 1023.41 199.859C1026.4 199.859 1029.05 200.546 1031.35 201.921C1033.69 203.255 1035.53 205.155 1036.87 207.621C1038.2 210.047 1038.87 212.857 1038.87 216.051C1038.87 216.253 1038.85 216.475 1038.81 216.718C1038.81 216.92 1038.81 217.142 1038.81 217.385H1011.09V214.171H1036.5L1034.81 215.444C1034.81 213.14 1034.3 211.098 1033.29 209.319C1032.32 207.5 1030.99 206.085 1029.29 205.074C1027.59 204.063 1025.63 203.558 1023.41 203.558C1021.22 203.558 1019.26 204.063 1017.52 205.074C1015.78 206.085 1014.43 207.5 1013.46 209.319C1012.49 211.138 1012 213.221 1012 215.566V216.233C1012 218.658 1012.53 220.801 1013.58 222.661C1014.67 224.48 1016.17 225.915 1018.07 226.967C1020.01 227.977 1022.21 228.483 1024.68 228.483C1026.62 228.483 1028.42 228.139 1030.08 227.452C1031.77 226.764 1033.23 225.713 1034.44 224.298L1036.87 227.088C1035.45 228.786 1033.67 230.08 1031.53 230.969C1029.43 231.858 1027.1 232.303 1024.56 232.303ZM1063.89 199.859C1066.47 199.859 1068.74 200.364 1070.68 201.375C1072.66 202.345 1074.2 203.841 1075.29 205.862C1076.42 207.884 1076.99 210.431 1076.99 213.504V232H1072.68V213.928C1072.68 210.572 1071.83 208.046 1070.13 206.348C1068.48 204.609 1066.13 203.74 1063.1 203.74C1060.83 203.74 1058.85 204.205 1057.15 205.135C1055.5 206.024 1054.2 207.338 1053.27 209.077C1052.38 210.775 1051.94 212.837 1051.94 215.262V232H1047.63V200.162H1051.76V208.895L1051.09 207.257C1052.1 204.953 1053.72 203.154 1055.94 201.86C1058.17 200.526 1060.81 199.859 1063.89 199.859ZM1101.29 232.303C1098.26 232.303 1095.53 231.616 1093.1 230.241C1090.72 228.867 1088.84 226.967 1087.46 224.541C1086.09 222.075 1085.4 219.245 1085.4 216.051C1085.4 212.816 1086.09 209.986 1087.46 207.561C1088.84 205.135 1090.72 203.255 1093.1 201.921C1095.53 200.546 1098.26 199.859 1101.29 199.859C1104.08 199.859 1106.57 200.485 1108.75 201.739C1110.97 202.992 1112.73 204.832 1114.03 207.257C1115.36 209.643 1116.03 212.574 1116.03 216.051C1116.03 219.487 1115.38 222.418 1114.09 224.844C1112.79 227.27 1111.03 229.13 1108.81 230.423C1106.63 231.677 1104.12 232.303 1101.29 232.303ZM1101.59 228.483C1103.86 228.483 1105.88 227.977 1107.66 226.967C1109.48 225.915 1110.89 224.46 1111.9 222.6C1112.95 220.7 1113.48 218.517 1113.48 216.051C1113.48 213.544 1112.95 211.361 1111.9 209.501C1110.89 207.641 1109.48 206.206 1107.66 205.195C1105.88 204.144 1103.86 203.619 1101.59 203.619C1099.37 203.619 1097.37 204.144 1095.59 205.195C1093.81 206.206 1092.4 207.641 1091.34 209.501C1090.29 211.361 1089.77 213.544 1089.77 216.051C1089.77 218.517 1090.29 220.7 1091.34 222.6C1092.4 224.46 1093.81 225.915 1095.59 226.967C1097.37 227.977 1099.37 228.483 1101.59 228.483ZM1113.6 232V222.418L1114.03 215.99L1113.42 209.562V187.002H1117.72V232H1113.6ZM1149.67 232V224.965L1149.49 223.813V212.048C1149.49 209.339 1148.72 207.257 1147.18 205.802C1145.69 204.346 1143.44 203.619 1140.45 203.619C1138.39 203.619 1136.43 203.962 1134.57 204.65C1132.71 205.337 1131.13 206.247 1129.84 207.379L1127.9 204.164C1129.51 202.79 1131.45 201.739 1133.72 201.011C1135.98 200.243 1138.37 199.859 1140.87 199.859C1145 199.859 1148.17 200.89 1150.4 202.952C1152.66 204.973 1153.79 208.066 1153.79 212.23V232H1149.67ZM1138.69 232.303C1136.31 232.303 1134.22 231.919 1132.45 231.151C1130.71 230.342 1129.37 229.251 1128.44 227.876C1127.51 226.461 1127.05 224.844 1127.05 223.025C1127.05 221.367 1127.43 219.871 1128.2 218.537C1129.01 217.162 1130.3 216.071 1132.08 215.262C1133.9 214.413 1136.33 213.989 1139.36 213.989H1150.34V217.203H1139.48C1136.41 217.203 1134.26 217.749 1133.05 218.84C1131.88 219.932 1131.29 221.286 1131.29 222.903C1131.29 224.723 1132 226.178 1133.42 227.27C1134.83 228.361 1136.81 228.907 1139.36 228.907C1141.78 228.907 1143.87 228.361 1145.6 227.27C1147.38 226.138 1148.68 224.521 1149.49 222.418L1150.46 225.39C1149.65 227.492 1148.23 229.17 1146.21 230.423C1144.23 231.677 1141.72 232.303 1138.69 232.303ZM1166.21 232V196.159C1166.21 193.329 1167.04 191.045 1168.7 189.307C1170.36 187.568 1172.74 186.699 1175.86 186.699C1177.07 186.699 1178.24 186.861 1179.37 187.184C1180.51 187.508 1181.46 188.013 1182.22 188.7L1180.77 191.914C1180.16 191.389 1179.45 191.005 1178.65 190.762C1177.84 190.479 1176.97 190.338 1176.04 190.338C1174.22 190.338 1172.82 190.843 1171.85 191.854C1170.88 192.864 1170.4 194.36 1170.4 196.341V201.193L1170.52 203.194V232H1166.21ZM1160.51 203.74V200.162H1180.22V203.74H1160.51ZM1196.1 232.303C1193.11 232.303 1190.81 231.495 1189.19 229.877C1187.57 228.26 1186.76 225.976 1186.76 223.025V193.127H1191.07V222.782C1191.07 224.642 1191.54 226.077 1192.47 227.088C1193.44 228.099 1194.81 228.604 1196.59 228.604C1198.49 228.604 1200.07 228.058 1201.32 226.967L1202.84 230.059C1201.99 230.828 1200.96 231.394 1199.74 231.757C1198.57 232.121 1197.36 232.303 1196.1 232.303ZM1181.06 203.74V200.162H1200.77V203.74H1181.06ZM1230.63 232V224.965L1230.44 223.813V212.048C1230.44 209.339 1229.68 207.257 1228.14 205.802C1226.64 204.346 1224.4 203.619 1221.41 203.619C1219.35 203.619 1217.38 203.962 1215.52 204.65C1213.67 205.337 1212.09 206.247 1210.79 207.379L1208.85 204.164C1210.47 202.79 1212.41 201.739 1214.68 201.011C1216.94 200.243 1219.33 199.859 1221.83 199.859C1225.96 199.859 1229.13 200.89 1231.35 202.952C1233.62 204.973 1234.75 208.066 1234.75 212.23V232H1230.63ZM1219.65 232.303C1217.26 232.303 1215.18 231.919 1213.4 231.151C1211.66 230.342 1210.33 229.251 1209.4 227.876C1208.47 226.461 1208.01 224.844 1208.01 223.025C1208.01 221.367 1208.39 219.871 1209.16 218.537C1209.97 217.162 1211.26 216.071 1213.04 215.262C1214.86 214.413 1217.28 213.989 1220.32 213.989H1231.29V217.203H1220.44C1217.36 217.203 1215.22 217.749 1214.01 218.84C1212.84 219.932 1212.25 221.286 1212.25 222.903C1212.25 224.723 1212.96 226.178 1214.37 227.27C1215.79 228.361 1217.77 228.907 1220.32 228.907C1222.74 228.907 1224.82 228.361 1226.56 227.27C1228.34 226.138 1229.63 224.521 1230.44 222.418L1231.41 225.39C1230.61 227.492 1229.19 229.17 1227.17 230.423C1225.19 231.677 1222.68 232.303 1219.65 232.303ZM1246.44 232V200.162H1250.57V208.834L1250.14 207.318C1251.03 204.892 1252.53 203.053 1254.63 201.799C1256.73 200.506 1259.34 199.859 1262.45 199.859V204.043C1262.29 204.043 1262.13 204.043 1261.97 204.043C1261.81 204.003 1261.65 203.983 1261.48 203.983C1258.13 203.983 1255.5 205.013 1253.6 207.075C1251.7 209.097 1250.75 211.988 1250.75 215.747V232H1246.44ZM1287.89 232V224.965L1287.71 223.813V212.048C1287.71 209.339 1286.94 207.257 1285.41 205.802C1283.91 204.346 1281.67 203.619 1278.68 203.619C1276.61 203.619 1274.65 203.962 1272.79 204.65C1270.93 205.337 1269.36 206.247 1268.06 207.379L1266.12 204.164C1267.74 202.79 1269.68 201.739 1271.94 201.011C1274.21 200.243 1276.59 199.859 1279.1 199.859C1283.22 199.859 1286.4 200.89 1288.62 202.952C1290.89 204.973 1292.02 208.066 1292.02 212.23V232H1287.89ZM1276.92 232.303C1274.53 232.303 1272.45 231.919 1270.67 231.151C1268.93 230.342 1267.6 229.251 1266.67 227.876C1265.74 226.461 1265.27 224.844 1265.27 223.025C1265.27 221.367 1265.66 219.871 1266.43 218.537C1267.23 217.162 1268.53 216.071 1270.31 215.262C1272.13 214.413 1274.55 213.989 1277.58 213.989H1288.56V217.203H1277.71C1274.63 217.203 1272.49 217.749 1271.28 218.84C1270.1 219.932 1269.52 221.286 1269.52 222.903C1269.52 224.723 1270.23 226.178 1271.64 227.27C1273.06 228.361 1275.04 228.907 1277.58 228.907C1280.01 228.907 1282.09 228.361 1283.83 227.27C1285.61 226.138 1286.9 224.521 1287.71 222.418L1288.68 225.39C1287.87 227.492 1286.46 229.17 1284.44 230.423C1282.46 231.677 1279.95 232.303 1276.92 232.303ZM1319.96 199.859C1322.55 199.859 1324.82 200.364 1326.76 201.375C1328.74 202.345 1330.27 203.841 1331.37 205.862C1332.5 207.884 1333.06 210.431 1333.06 213.504V232H1328.76V213.928C1328.76 210.572 1327.91 208.046 1326.21 206.348C1324.55 204.609 1322.21 203.74 1319.18 203.74C1316.91 203.74 1314.93 204.205 1313.23 205.135C1311.58 206.024 1310.28 207.338 1309.35 209.077C1308.46 210.775 1308.02 212.837 1308.02 215.262V232H1303.71V200.162H1307.84V208.895L1307.17 207.257C1308.18 204.953 1309.8 203.154 1312.02 201.86C1314.24 200.526 1316.89 199.859 1319.96 199.859ZM1345.12 232.303C1344.23 232.303 1343.46 231.98 1342.81 231.333C1342.21 230.686 1341.9 229.898 1341.9 228.968C1341.9 227.998 1342.21 227.209 1342.81 226.603C1343.46 225.996 1344.23 225.693 1345.12 225.693C1346.01 225.693 1346.76 225.996 1347.36 226.603C1348.01 227.209 1348.33 227.998 1348.33 228.968C1348.33 229.898 1348.01 230.686 1347.36 231.333C1346.76 231.98 1346.01 232.303 1345.12 232.303Z" fill="#F85DCD"/>
</svg>
