<svg width="1541" height="340" viewBox="0 0 1541 340" fill="none" xmlns="http://www.w3.org/2000/svg">
<rect x="3" y="3" width="1535" height="334" rx="14" fill="#FCFCFC" stroke="#C3A7FF" stroke-width="6"/>
<path d="M124.325 230V213.058L167.889 171.914C171.332 168.794 173.859 165.997 175.473 163.523C177.086 161.049 178.162 158.79 178.7 156.747C179.345 154.703 179.668 152.82 179.668 151.099C179.668 146.581 178.108 143.139 174.989 140.773C171.977 138.299 167.513 137.062 161.597 137.062C156.864 137.062 152.453 137.976 148.366 139.805C144.386 141.633 140.998 144.484 138.201 148.356L119.161 136.094C123.464 129.64 129.488 124.53 137.233 120.765C144.978 117 153.906 115.118 164.017 115.118C172.407 115.118 179.722 116.516 185.961 119.313C192.307 122.002 197.202 125.821 200.644 130.769C204.193 135.717 205.968 141.633 205.968 148.518C205.968 152.175 205.484 155.832 204.516 159.49C203.656 163.039 201.827 166.804 199.03 170.784C196.341 174.764 192.361 179.228 187.09 184.176L150.948 218.221L145.946 208.702H209.679V230H124.325Z" fill="#E4A355"/>
<path d="M343.913 118V75.5493H359.802C363.4 75.5493 366.493 76.1355 369.081 77.3079C371.668 78.44 373.649 80.0976 375.024 82.2807C376.439 84.4235 377.146 87.0312 377.146 90.1038C377.146 93.0956 376.439 95.683 375.024 97.8662C373.649 100.009 371.668 101.667 369.081 102.839C366.493 104.011 363.4 104.598 359.802 104.598H346.4L348.401 102.475V118H343.913ZM348.401 102.839L346.4 100.656H359.681C363.926 100.656 367.14 99.7462 369.323 97.9269C371.547 96.0671 372.659 93.4594 372.659 90.1038C372.659 86.7077 371.547 84.0798 369.323 82.2201C367.14 80.3603 363.926 79.4305 359.681 79.4305H346.4L348.401 77.3079V102.839ZM399.286 118.303C395.971 118.303 393.06 117.616 390.553 116.241C388.047 114.826 386.086 112.906 384.671 110.48C383.256 108.014 382.548 105.204 382.548 102.051C382.548 98.8972 383.215 96.1076 384.55 93.6818C385.924 91.256 387.784 89.3559 390.129 87.9813C392.514 86.5662 395.182 85.8587 398.134 85.8587C401.126 85.8587 403.774 86.546 406.078 87.9206C408.423 89.2548 410.263 91.155 411.597 93.6212C412.931 96.0469 413.598 98.8567 413.598 102.051C413.598 102.253 413.578 102.475 413.537 102.718C413.537 102.92 413.537 103.142 413.537 103.385H385.823V100.171H411.233L409.535 101.444C409.535 99.1397 409.029 97.0981 408.019 95.3192C407.048 93.4999 405.714 92.0848 404.016 91.0741C402.318 90.0634 400.357 89.558 398.134 89.558C395.951 89.558 393.99 90.0634 392.251 91.0741C390.513 92.0848 389.158 93.4999 388.188 95.3192C387.218 97.1385 386.733 99.2206 386.733 101.566V102.233C386.733 104.658 387.258 106.801 388.309 108.661C389.401 110.48 390.897 111.915 392.797 112.967C394.738 113.977 396.941 114.483 399.407 114.483C401.348 114.483 403.147 114.139 404.805 113.452C406.503 112.764 407.958 111.713 409.171 110.298L411.597 113.088C410.182 114.786 408.403 116.08 406.26 116.969C404.158 117.858 401.833 118.303 399.286 118.303ZM430.913 118.303C428.285 118.303 425.798 117.939 423.454 117.212C421.109 116.443 419.269 115.493 417.935 114.361L419.876 110.965C421.169 111.936 422.827 112.785 424.848 113.512C426.87 114.2 428.992 114.543 431.216 114.543C434.248 114.543 436.431 114.078 437.766 113.148C439.1 112.178 439.767 110.905 439.767 109.328C439.767 108.155 439.383 107.246 438.615 106.599C437.887 105.912 436.917 105.406 435.704 105.083C434.491 104.719 433.136 104.416 431.64 104.173C430.145 103.931 428.649 103.648 427.153 103.324C425.697 103.001 424.363 102.536 423.15 101.929C421.937 101.282 420.947 100.413 420.179 99.3217C419.451 98.2301 419.087 96.7746 419.087 94.9553C419.087 93.2169 419.572 91.6603 420.543 90.2857C421.513 88.9111 422.928 87.8398 424.788 87.0716C426.688 86.263 428.992 85.8587 431.701 85.8587C433.763 85.8587 435.825 86.1417 437.887 86.7077C439.949 87.2333 441.647 87.9408 442.981 88.8303L441.101 92.287C439.686 91.3167 438.17 90.6294 436.553 90.2251C434.935 89.7804 433.318 89.558 431.701 89.558C428.831 89.558 426.708 90.0634 425.334 91.0741C423.999 92.0444 423.332 93.2977 423.332 94.834C423.332 96.0469 423.696 96.997 424.424 97.6843C425.192 98.3716 426.183 98.9174 427.395 99.3217C428.649 99.6855 430.003 99.9888 431.459 100.231C432.954 100.474 434.43 100.777 435.886 101.141C437.381 101.464 438.736 101.929 439.949 102.536C441.202 103.102 442.193 103.931 442.92 105.022C443.688 106.073 444.072 107.468 444.072 109.207C444.072 111.066 443.547 112.684 442.496 114.058C441.485 115.392 439.989 116.443 438.008 117.212C436.067 117.939 433.702 118.303 430.913 118.303ZM465.497 118.303C462.182 118.303 459.271 117.616 456.764 116.241C454.258 114.826 452.297 112.906 450.882 110.48C449.467 108.014 448.759 105.204 448.759 102.051C448.759 98.8972 449.426 96.1076 450.76 93.6818C452.135 91.256 453.995 89.3559 456.34 87.9813C458.725 86.5662 461.393 85.8587 464.345 85.8587C467.336 85.8587 469.984 86.546 472.289 87.9206C474.634 89.2548 476.473 91.155 477.808 93.6212C479.142 96.0469 479.809 98.8567 479.809 102.051C479.809 102.253 479.789 102.475 479.748 102.718C479.748 102.92 479.748 103.142 479.748 103.385H452.034V100.171H477.444L475.746 101.444C475.746 99.1397 475.24 97.0981 474.23 95.3192C473.259 93.4999 471.925 92.0848 470.227 91.0741C468.529 90.0634 466.568 89.558 464.345 89.558C462.161 89.558 460.201 90.0634 458.462 91.0741C456.724 92.0848 455.369 93.4999 454.399 95.3192C453.429 97.1385 452.944 99.2206 452.944 101.566V102.233C452.944 104.658 453.469 106.801 454.52 108.661C455.612 110.48 457.108 111.915 459.008 112.967C460.949 113.977 463.152 114.483 465.618 114.483C467.559 114.483 469.358 114.139 471.015 113.452C472.713 112.764 474.169 111.713 475.382 110.298L477.808 113.088C476.393 114.786 474.614 116.08 472.471 116.969C470.369 117.858 468.044 118.303 465.497 118.303ZM488.573 118V86.1619H492.697V94.834L492.272 93.3179C493.162 90.8922 494.657 89.0526 496.76 87.7993C498.862 86.5056 501.47 85.8587 504.583 85.8587V90.0432C504.421 90.0432 504.259 90.0432 504.098 90.0432C503.936 90.0027 503.774 89.9825 503.612 89.9825C500.257 89.9825 497.629 91.0135 495.729 93.0754C493.829 95.0968 492.879 97.9875 492.879 101.747V118H488.573ZM523.869 118.303C520.877 118.303 518.572 117.495 516.955 115.877C515.338 114.26 514.529 111.976 514.529 109.025V79.1273H518.835V108.782C518.835 110.642 519.3 112.077 520.23 113.088C521.2 114.099 522.575 114.604 524.354 114.604C526.254 114.604 527.831 114.058 529.084 112.967L530.6 116.059C529.751 116.828 528.72 117.394 527.507 117.757C526.335 118.121 525.122 118.303 523.869 118.303ZM508.829 89.7399V86.1619H528.538V89.7399H508.829ZM558.39 118V110.965L558.208 109.813V98.0482C558.208 95.3394 557.44 93.2573 555.904 91.8018C554.408 90.3464 552.164 89.6187 549.172 89.6187C547.11 89.6187 545.149 89.9623 543.29 90.6496C541.43 91.3369 539.853 92.2466 538.559 93.3786L536.619 90.1644C538.236 88.7899 540.177 87.7387 542.441 87.011C544.705 86.2428 547.09 85.8587 549.597 85.8587C553.72 85.8587 556.894 86.8897 559.118 88.9516C561.382 90.973 562.514 94.0659 562.514 98.2301V118H558.39ZM547.413 118.303C545.028 118.303 542.946 117.919 541.167 117.151C539.429 116.342 538.095 115.251 537.165 113.876C536.235 112.461 535.77 110.844 535.77 109.025C535.77 107.367 536.154 105.871 536.922 104.537C537.731 103.162 539.024 102.071 540.803 101.262C542.623 100.413 545.048 99.9888 548.081 99.9888H559.057V103.203H548.202C545.129 103.203 542.986 103.749 541.774 104.84C540.601 105.932 540.015 107.286 540.015 108.903C540.015 110.723 540.722 112.178 542.137 113.27C543.552 114.361 545.534 114.907 548.081 114.907C550.506 114.907 552.588 114.361 554.327 113.27C556.106 112.138 557.4 110.521 558.208 108.418L559.178 111.39C558.37 113.492 556.955 115.17 554.933 116.423C552.952 117.677 550.446 118.303 547.413 118.303ZM613.434 85.8587C616.022 85.8587 618.286 86.3641 620.226 87.3748C622.207 88.3451 623.743 89.841 624.835 91.8625C625.967 93.8839 626.533 96.431 626.533 99.5036V118H622.227V99.9281C622.227 96.5725 621.378 94.0457 619.68 92.3476C618.023 90.6092 615.678 89.7399 612.646 89.7399C610.382 89.7399 608.401 90.2049 606.703 91.1348C605.045 92.0242 603.751 93.3381 602.821 95.0766C601.932 96.7746 601.487 98.8365 601.487 101.262V118H597.181V73.0022H601.487V94.8947L600.638 93.2573C601.649 90.9528 603.266 89.1537 605.49 87.86C607.713 86.5258 610.361 85.8587 613.434 85.8587ZM658.115 118V110.965L657.933 109.813V98.0482C657.933 95.3394 657.165 93.2573 655.629 91.8018C654.133 90.3464 651.889 89.6187 648.897 89.6187C646.836 89.6187 644.875 89.9623 643.015 90.6496C641.155 91.3369 639.578 92.2466 638.285 93.3786L636.344 90.1644C637.961 88.7899 639.902 87.7387 642.166 87.011C644.43 86.2428 646.815 85.8587 649.322 85.8587C653.446 85.8587 656.619 86.8897 658.843 88.9516C661.107 90.973 662.239 94.0659 662.239 98.2301V118H658.115ZM647.139 118.303C644.753 118.303 642.671 117.919 640.892 117.151C639.154 116.342 637.82 115.251 636.89 113.876C635.96 112.461 635.495 110.844 635.495 109.025C635.495 107.367 635.879 105.871 636.647 104.537C637.456 103.162 638.75 102.071 640.529 101.262C642.348 100.413 644.774 99.9888 647.806 99.9888H658.782V103.203H647.927C644.855 103.203 642.712 103.749 641.499 104.84C640.326 105.932 639.74 107.286 639.74 108.903C639.74 110.723 640.448 112.178 641.863 113.27C643.278 114.361 645.259 114.907 647.806 114.907C650.232 114.907 652.314 114.361 654.052 113.27C655.831 112.138 657.125 110.521 657.933 108.418L658.904 111.39C658.095 113.492 656.68 115.17 654.659 116.423C652.678 117.677 650.171 118.303 647.139 118.303ZM673.934 118V86.1619H678.058V94.834L677.633 93.3179C678.523 90.8922 680.018 89.0526 682.121 87.7993C684.223 86.5056 686.831 85.8587 689.944 85.8587V90.0432C689.782 90.0432 689.62 90.0432 689.459 90.0432C689.297 90.0027 689.135 89.9825 688.974 89.9825C685.618 89.9825 682.99 91.0135 681.09 93.0754C679.19 95.0968 678.24 97.9875 678.24 101.747V118H673.934ZM711.434 118.303C708.725 118.303 706.36 117.798 704.339 116.787C702.317 115.776 700.741 114.26 699.609 112.239C698.517 110.217 697.971 107.691 697.971 104.658V86.1619H702.277V104.173C702.277 107.569 703.106 110.137 704.763 111.875C706.461 113.573 708.826 114.422 711.859 114.422C714.082 114.422 716.003 113.977 717.62 113.088C719.277 112.158 720.531 110.824 721.38 109.085C722.269 107.347 722.714 105.265 722.714 102.839V86.1619H727.02V118H722.896V109.267L723.563 110.844C722.552 113.189 720.975 115.028 718.833 116.363C716.73 117.656 714.264 118.303 711.434 118.303ZM747.57 118.303C744.942 118.303 742.456 117.939 740.111 117.212C737.766 116.443 735.927 115.493 734.592 114.361L736.533 110.965C737.827 111.936 739.484 112.785 741.506 113.512C743.527 114.2 745.65 114.543 747.874 114.543C750.906 114.543 753.089 114.078 754.423 113.148C755.757 112.178 756.424 110.905 756.424 109.328C756.424 108.155 756.04 107.246 755.272 106.599C754.544 105.912 753.574 105.406 752.361 105.083C751.148 104.719 749.794 104.416 748.298 104.173C746.802 103.931 745.306 103.648 743.81 103.324C742.355 103.001 741.021 102.536 739.808 101.929C738.595 101.282 737.604 100.413 736.836 99.3217C736.109 98.2301 735.745 96.7746 735.745 94.9553C735.745 93.2169 736.23 91.6603 737.2 90.2857C738.17 88.9111 739.586 87.8398 741.445 87.0716C743.345 86.263 745.65 85.8587 748.359 85.8587C750.421 85.8587 752.482 86.1417 754.544 86.7077C756.606 87.2333 758.304 87.9408 759.638 88.8303L757.758 92.287C756.343 91.3167 754.827 90.6294 753.21 90.2251C751.593 89.7804 749.976 89.558 748.359 89.558C745.488 89.558 743.366 90.0634 741.991 91.0741C740.657 92.0444 739.99 93.2977 739.99 94.834C739.99 96.0469 740.354 96.997 741.081 97.6843C741.85 98.3716 742.84 98.9174 744.053 99.3217C745.306 99.6855 746.661 99.9888 748.116 100.231C749.612 100.474 751.088 100.777 752.543 101.141C754.039 101.464 755.393 101.929 756.606 102.536C757.86 103.102 758.85 103.931 759.578 105.022C760.346 106.073 760.73 107.468 760.73 109.207C760.73 111.066 760.204 112.684 759.153 114.058C758.143 115.392 756.647 116.443 754.666 117.212C752.725 117.939 750.36 118.303 747.57 118.303ZM831.386 85.8587C833.974 85.8587 836.217 86.3641 838.118 87.3748C840.058 88.3451 841.554 89.841 842.605 91.8625C843.697 93.8839 844.243 96.431 844.243 99.5036V118H839.937V99.9281C839.937 96.5725 839.128 94.0457 837.511 92.3476C835.934 90.6092 833.691 89.7399 830.78 89.7399C828.596 89.7399 826.696 90.2049 825.079 91.1348C823.502 92.0242 822.269 93.3381 821.38 95.0766C820.531 96.7746 820.106 98.8365 820.106 101.262V118H815.801V99.9281C815.801 96.5725 814.992 94.0457 813.375 92.3476C811.758 90.6092 809.494 89.7399 806.583 89.7399C804.44 89.7399 802.56 90.2049 800.943 91.1348C799.326 92.0242 798.072 93.3381 797.183 95.0766C796.334 96.7746 795.909 98.8365 795.909 101.262V118H791.604V86.1619H795.727V94.7734L795.06 93.2573C796.031 90.9528 797.587 89.1537 799.73 87.86C801.913 86.5258 804.48 85.8587 807.432 85.8587C810.545 85.8587 813.193 86.6471 815.376 88.2238C817.559 89.7602 818.974 92.0848 819.621 95.1979L817.923 94.5308C818.853 91.9433 820.49 89.8612 822.835 88.2845C825.221 86.6673 828.071 85.8587 831.386 85.8587ZM869.443 118.303C866.128 118.303 863.217 117.616 860.71 116.241C858.204 114.826 856.243 112.906 854.828 110.48C853.413 108.014 852.705 105.204 852.705 102.051C852.705 98.8972 853.372 96.1076 854.706 93.6818C856.081 91.256 857.941 89.3559 860.286 87.9813C862.671 86.5662 865.339 85.8587 868.291 85.8587C871.282 85.8587 873.931 86.546 876.235 87.9206C878.58 89.2548 880.419 91.155 881.754 93.6212C883.088 96.0469 883.755 98.8567 883.755 102.051C883.755 102.253 883.735 102.475 883.694 102.718C883.694 102.92 883.694 103.142 883.694 103.385H855.98V100.171H881.39L879.692 101.444C879.692 99.1397 879.186 97.0981 878.176 95.3192C877.205 93.4999 875.871 92.0848 874.173 91.0741C872.475 90.0634 870.514 89.558 868.291 89.558C866.108 89.558 864.147 90.0634 862.408 91.0741C860.67 92.0848 859.315 93.4999 858.345 95.3192C857.375 97.1385 856.89 99.2206 856.89 101.566V102.233C856.89 104.658 857.415 106.801 858.466 108.661C859.558 110.48 861.054 111.915 862.954 112.967C864.895 113.977 867.098 114.483 869.564 114.483C871.505 114.483 873.304 114.139 874.962 113.452C876.66 112.764 878.115 111.713 879.328 110.298L881.754 113.088C880.339 114.786 878.56 116.08 876.417 116.969C874.315 117.858 871.99 118.303 869.443 118.303ZM908.771 85.8587C911.359 85.8587 913.623 86.3641 915.564 87.3748C917.545 88.3451 919.081 89.841 920.173 91.8625C921.305 93.8839 921.871 96.431 921.871 99.5036V118H917.565V99.9281C917.565 96.5725 916.716 94.0457 915.018 92.3476C913.36 90.6092 911.015 89.7399 907.983 89.7399C905.719 89.7399 903.738 90.2049 902.04 91.1348C900.382 92.0242 899.089 93.3381 898.159 95.0766C897.269 96.7746 896.825 98.8365 896.825 101.262V118H892.519V86.1619H896.643V94.8947L895.976 93.2573C896.986 90.9528 898.603 89.1537 900.827 87.86C903.051 86.5258 905.699 85.8587 908.771 85.8587ZM947.085 130.068C944.174 130.068 941.385 129.644 938.716 128.795C936.048 127.946 933.885 126.733 932.227 125.156L934.411 121.881C935.906 123.215 937.746 124.267 939.929 125.035C942.153 125.843 944.498 126.248 946.964 126.248C951.007 126.248 953.978 125.297 955.878 123.397C957.779 121.538 958.729 118.627 958.729 114.665V106.72L959.335 101.262L958.911 95.8043V86.1619H963.034V114.119C963.034 119.617 961.68 123.64 958.971 126.187C956.303 128.774 952.341 130.068 947.085 130.068ZM946.297 116.787C943.265 116.787 940.536 116.14 938.11 114.847C935.684 113.512 933.764 111.673 932.349 109.328C930.974 106.983 930.287 104.294 930.287 101.262C930.287 98.2301 930.974 95.5618 932.349 93.2573C933.764 90.9124 935.684 89.0931 938.11 87.7993C940.536 86.5056 943.265 85.8587 946.297 85.8587C949.127 85.8587 951.674 86.445 953.938 87.6174C956.202 88.7899 958.001 90.5283 959.335 92.8328C960.669 95.1372 961.336 97.9471 961.336 101.262C961.336 104.577 960.669 107.387 959.335 109.692C958.001 111.996 956.202 113.755 953.938 114.968C951.674 116.181 949.127 116.787 946.297 116.787ZM946.721 112.967C949.066 112.967 951.148 112.481 952.968 111.511C954.787 110.5 956.222 109.126 957.273 107.387C958.324 105.608 958.85 103.567 958.85 101.262C958.85 98.9578 958.324 96.9364 957.273 95.1979C956.222 93.4594 954.787 92.1051 952.968 91.1348C951.148 90.124 949.066 89.6187 946.721 89.6187C944.417 89.6187 942.335 90.124 940.475 91.1348C938.656 92.1051 937.22 93.4594 936.169 95.1979C935.158 96.9364 934.653 98.9578 934.653 101.262C934.653 103.567 935.158 105.608 936.169 107.387C937.22 109.126 938.656 110.5 940.475 111.511C942.335 112.481 944.417 112.967 946.721 112.967ZM988.6 130.068C985.689 130.068 982.9 129.644 980.231 128.795C977.563 127.946 975.4 126.733 973.742 125.156L975.926 121.881C977.421 123.215 979.261 124.267 981.444 125.035C983.668 125.843 986.013 126.248 988.479 126.248C992.522 126.248 995.493 125.297 997.393 123.397C999.294 121.538 1000.24 118.627 1000.24 114.665V106.72L1000.85 101.262L1000.43 95.8043V86.1619H1004.55V114.119C1004.55 119.617 1003.2 123.64 1000.49 126.187C997.818 128.774 993.856 130.068 988.6 130.068ZM987.812 116.787C984.78 116.787 982.051 116.14 979.625 114.847C977.199 113.512 975.279 111.673 973.864 109.328C972.489 106.983 971.802 104.294 971.802 101.262C971.802 98.2301 972.489 95.5618 973.864 93.2573C975.279 90.9124 977.199 89.0931 979.625 87.7993C982.051 86.5056 984.78 85.8587 987.812 85.8587C990.642 85.8587 993.189 86.445 995.453 87.6174C997.717 88.7899 999.516 90.5283 1000.85 92.8328C1002.18 95.1372 1002.85 97.9471 1002.85 101.262C1002.85 104.577 1002.18 107.387 1000.85 109.692C999.516 111.996 997.717 113.755 995.453 114.968C993.189 116.181 990.642 116.787 987.812 116.787ZM988.236 112.967C990.581 112.967 992.663 112.481 994.483 111.511C996.302 110.5 997.737 109.126 998.788 107.387C999.839 105.608 1000.37 103.567 1000.37 101.262C1000.37 98.9578 999.839 96.9364 998.788 95.1979C997.737 93.4594 996.302 92.1051 994.483 91.1348C992.663 90.124 990.581 89.6187 988.236 89.6187C985.932 89.6187 983.85 90.124 981.99 91.1348C980.171 92.1051 978.735 93.4594 977.684 95.1979C976.673 96.9364 976.168 98.9578 976.168 101.262C976.168 103.567 976.673 105.608 977.684 107.387C978.735 109.126 980.171 110.5 981.99 111.511C983.85 112.481 985.932 112.967 988.236 112.967ZM1029.69 118.303C1026.98 118.303 1024.62 117.798 1022.6 116.787C1020.57 115.776 1019 114.26 1017.87 112.239C1016.77 110.217 1016.23 107.691 1016.23 104.658V86.1619H1020.53V104.173C1020.53 107.569 1021.36 110.137 1023.02 111.875C1024.72 113.573 1027.08 114.422 1030.12 114.422C1032.34 114.422 1034.26 113.977 1035.88 113.088C1037.53 112.158 1038.79 110.824 1039.64 109.085C1040.53 107.347 1040.97 105.265 1040.97 102.839V86.1619H1045.28V118H1041.15V109.267L1041.82 110.844C1040.81 113.189 1039.23 115.028 1037.09 116.363C1034.99 117.656 1032.52 118.303 1029.69 118.303ZM1073.53 85.8587C1076.12 85.8587 1078.38 86.3641 1080.32 87.3748C1082.3 88.3451 1083.84 89.841 1084.93 91.8625C1086.06 93.8839 1086.63 96.431 1086.63 99.5036V118H1082.32V99.9281C1082.32 96.5725 1081.47 94.0457 1079.77 92.3476C1078.12 90.6092 1075.77 89.7399 1072.74 89.7399C1070.48 89.7399 1068.5 90.2049 1066.8 91.1348C1065.14 92.0242 1063.85 93.3381 1062.92 95.0766C1062.03 96.7746 1061.58 98.8365 1061.58 101.262V118H1057.28V86.1619H1061.4V94.8947L1060.73 93.2573C1061.74 90.9528 1063.36 89.1537 1065.58 87.86C1067.81 86.5258 1070.46 85.8587 1073.53 85.8587ZM1118.21 118V110.965L1118.03 109.813V98.0482C1118.03 95.3394 1117.26 93.2573 1115.72 91.8018C1114.23 90.3464 1111.98 89.6187 1108.99 89.6187C1106.93 89.6187 1104.97 89.9623 1103.11 90.6496C1101.25 91.3369 1099.67 92.2466 1098.38 93.3786L1096.44 90.1644C1098.06 88.7899 1100 87.7387 1102.26 87.011C1104.52 86.2428 1106.91 85.8587 1109.42 85.8587C1113.54 85.8587 1116.71 86.8897 1118.94 88.9516C1121.2 90.973 1122.33 94.0659 1122.33 98.2301V118H1118.21ZM1107.23 118.303C1104.85 118.303 1102.77 117.919 1100.99 117.151C1099.25 116.342 1097.91 115.251 1096.98 113.876C1096.05 112.461 1095.59 110.844 1095.59 109.025C1095.59 107.367 1095.97 105.871 1096.74 104.537C1097.55 103.162 1098.84 102.071 1100.62 101.262C1102.44 100.413 1104.87 99.9888 1107.9 99.9888H1118.88V103.203H1108.02C1104.95 103.203 1102.81 103.749 1101.59 104.84C1100.42 105.932 1099.83 107.286 1099.83 108.903C1099.83 110.723 1100.54 112.178 1101.96 113.27C1103.37 114.361 1105.35 114.907 1107.9 114.907C1110.33 114.907 1112.41 114.361 1114.15 113.27C1115.93 112.138 1117.22 110.521 1118.03 108.418L1119 111.39C1118.19 113.492 1116.77 115.17 1114.75 116.423C1112.77 117.677 1110.27 118.303 1107.23 118.303ZM1137.42 109.752L1137.55 104.234L1157.38 86.1619H1162.65L1148.64 99.5643L1146.22 101.626L1137.42 109.752ZM1134.03 118V73.0022H1138.33V118H1134.03ZM1158.71 118L1145.43 101.444L1148.22 98.1088L1163.99 118H1158.71ZM1189.81 118V110.965L1189.63 109.813V98.0482C1189.63 95.3394 1188.86 93.2573 1187.32 91.8018C1185.83 90.3464 1183.58 89.6187 1180.59 89.6187C1178.53 89.6187 1176.57 89.9623 1174.71 90.6496C1172.85 91.3369 1171.27 92.2466 1169.98 93.3786L1168.04 90.1644C1169.66 88.7899 1171.6 87.7387 1173.86 87.011C1176.12 86.2428 1178.51 85.8587 1181.02 85.8587C1185.14 85.8587 1188.31 86.8897 1190.54 88.9516C1192.8 90.973 1193.93 94.0659 1193.93 98.2301V118H1189.81ZM1178.83 118.303C1176.45 118.303 1174.37 117.919 1172.59 117.151C1170.85 116.342 1169.51 115.251 1168.58 113.876C1167.65 112.461 1167.19 110.844 1167.19 109.025C1167.19 107.367 1167.57 105.871 1168.34 104.537C1169.15 103.162 1170.44 102.071 1172.22 101.262C1174.04 100.413 1176.47 99.9888 1179.5 99.9888H1190.48V103.203H1179.62C1176.55 103.203 1174.41 103.749 1173.19 104.84C1172.02 105.932 1171.43 107.286 1171.43 108.903C1171.43 110.723 1172.14 112.178 1173.56 113.27C1174.97 114.361 1176.95 114.907 1179.5 114.907C1181.93 114.907 1184.01 114.361 1185.75 113.27C1187.53 112.138 1188.82 110.521 1189.63 108.418L1190.6 111.39C1189.79 113.492 1188.37 115.17 1186.35 116.423C1184.37 117.677 1181.87 118.303 1178.83 118.303ZM1221.88 85.8587C1224.47 85.8587 1226.73 86.3641 1228.67 87.3748C1230.65 88.3451 1232.19 89.841 1233.28 91.8625C1234.41 93.8839 1234.98 96.431 1234.98 99.5036V118H1230.67V99.9281C1230.67 96.5725 1229.83 94.0457 1228.13 92.3476C1226.47 90.6092 1224.12 89.7399 1221.09 89.7399C1218.83 89.7399 1216.85 90.2049 1215.15 91.1348C1213.49 92.0242 1212.2 93.3381 1211.27 95.0766C1210.38 96.7746 1209.93 98.8365 1209.93 101.262V118H1205.63V86.1619H1209.75V94.8947L1209.09 93.2573C1210.1 90.9528 1211.71 89.1537 1213.94 87.86C1216.16 86.5258 1218.81 85.8587 1221.88 85.8587ZM1286.02 118.303C1283.23 118.303 1280.72 117.677 1278.5 116.423C1276.27 115.13 1274.52 113.27 1273.22 110.844C1271.93 108.418 1271.28 105.487 1271.28 102.051C1271.28 98.5737 1271.93 95.6426 1273.22 93.2573C1274.56 90.8315 1276.34 88.992 1278.56 87.7387C1280.78 86.4854 1283.27 85.8587 1286.02 85.8587C1289.05 85.8587 1291.76 86.546 1294.14 87.9206C1296.57 89.2548 1298.47 91.1347 1299.84 93.5605C1301.22 95.9863 1301.91 98.8163 1301.91 102.051C1301.91 105.245 1301.22 108.075 1299.84 110.541C1298.47 112.967 1296.57 114.867 1294.14 116.241C1291.76 117.616 1289.05 118.303 1286.02 118.303ZM1269.58 118V73.0022H1273.89V95.5618L1273.28 101.99L1273.71 108.418V118H1269.58ZM1285.71 114.483C1287.98 114.483 1290 113.977 1291.78 112.967C1293.56 111.915 1294.97 110.46 1296.02 108.6C1297.08 106.7 1297.6 104.517 1297.6 102.051C1297.6 99.544 1297.08 97.3609 1296.02 95.5011C1294.97 93.6414 1293.56 92.2061 1291.78 91.1954C1290 90.1442 1287.98 89.6187 1285.71 89.6187C1283.45 89.6187 1281.41 90.1442 1279.59 91.1954C1277.81 92.2061 1276.4 93.6414 1275.34 95.5011C1274.33 97.3609 1273.83 99.544 1273.83 102.051C1273.83 104.517 1274.33 106.7 1275.34 108.6C1276.4 110.46 1277.81 111.915 1279.59 112.967C1281.41 113.977 1283.45 114.483 1285.71 114.483ZM1323.84 118.303C1321.13 118.303 1318.77 117.798 1316.75 116.787C1314.73 115.776 1313.15 114.26 1312.02 112.239C1310.93 110.217 1310.38 107.691 1310.38 104.658V86.1619H1314.69V104.173C1314.69 107.569 1315.52 110.137 1317.17 111.875C1318.87 113.573 1321.24 114.422 1324.27 114.422C1326.49 114.422 1328.41 113.977 1330.03 113.088C1331.69 112.158 1332.94 110.824 1333.79 109.085C1334.68 107.347 1335.12 105.265 1335.12 102.839V86.1619H1339.43V118H1335.31V109.267L1335.97 110.844C1334.96 113.189 1333.38 115.028 1331.24 116.363C1329.14 117.656 1326.67 118.303 1323.84 118.303ZM1354.83 109.752L1354.95 104.234L1374.78 86.1619H1380.05L1366.04 99.5643L1363.62 101.626L1354.83 109.752ZM1351.43 118V73.0022H1355.73V118H1351.43ZM1376.11 118L1362.83 101.444L1365.62 98.1088L1381.39 118H1376.11ZM1400.42 118.303C1397.71 118.303 1395.34 117.798 1393.32 116.787C1391.3 115.776 1389.72 114.26 1388.59 112.239C1387.5 110.217 1386.96 107.691 1386.96 104.658V86.1619H1391.26V104.173C1391.26 107.569 1392.09 110.137 1393.75 111.875C1395.45 113.573 1397.81 114.422 1400.84 114.422C1403.07 114.422 1404.99 113.977 1406.6 113.088C1408.26 112.158 1409.51 110.824 1410.36 109.085C1411.25 107.347 1411.7 105.265 1411.7 102.839V86.1619H1416V118H1411.88V109.267L1412.55 110.844C1411.54 113.189 1409.96 115.028 1407.82 116.363C1405.71 117.656 1403.25 118.303 1400.42 118.303ZM355.678 192.303C352.646 192.303 349.917 191.616 347.491 190.241C345.106 188.867 343.226 186.967 341.852 184.541C340.477 182.075 339.79 179.245 339.79 176.051C339.79 172.816 340.477 169.986 341.852 167.561C343.226 165.135 345.106 163.255 347.491 161.921C349.917 160.546 352.646 159.859 355.678 159.859C358.468 159.859 360.954 160.485 363.138 161.739C365.361 162.992 367.12 164.832 368.414 167.257C369.748 169.643 370.415 172.574 370.415 176.051C370.415 179.487 369.768 182.418 368.474 184.844C367.18 187.27 365.422 189.13 363.198 190.423C361.015 191.677 358.508 192.303 355.678 192.303ZM355.982 188.483C358.246 188.483 360.267 187.977 362.046 186.967C363.865 185.915 365.28 184.46 366.291 182.6C367.342 180.7 367.868 178.517 367.868 176.051C367.868 173.544 367.342 171.361 366.291 169.501C365.28 167.641 363.865 166.206 362.046 165.195C360.267 164.144 358.246 163.619 355.982 163.619C353.758 163.619 351.757 164.144 349.978 165.195C348.199 166.206 346.784 167.641 345.733 169.501C344.682 171.361 344.156 173.544 344.156 176.051C344.156 178.517 344.682 180.7 345.733 182.6C346.784 184.46 348.199 185.915 349.978 186.967C351.757 187.977 353.758 188.483 355.982 188.483ZM367.989 192V182.418L368.414 175.99L367.807 169.562V147.002H372.113V192H367.989ZM397.628 192.303C394.313 192.303 391.402 191.616 388.895 190.241C386.388 188.826 384.428 186.906 383.013 184.48C381.598 182.014 380.89 179.204 380.89 176.051C380.89 172.897 381.557 170.108 382.891 167.682C384.266 165.256 386.126 163.356 388.471 161.981C390.856 160.566 393.524 159.859 396.476 159.859C399.467 159.859 402.115 160.546 404.42 161.921C406.765 163.255 408.604 165.155 409.939 167.621C411.273 170.047 411.94 172.857 411.94 176.051C411.94 176.253 411.92 176.475 411.879 176.718C411.879 176.92 411.879 177.142 411.879 177.385H384.165V174.171H409.575L407.877 175.444C407.877 173.14 407.371 171.098 406.361 169.319C405.39 167.5 404.056 166.085 402.358 165.074C400.66 164.063 398.699 163.558 396.476 163.558C394.292 163.558 392.332 164.063 390.593 165.074C388.855 166.085 387.5 167.5 386.53 169.319C385.56 171.138 385.075 173.221 385.075 175.566V176.233C385.075 178.658 385.6 180.801 386.651 182.661C387.743 184.48 389.239 185.915 391.139 186.967C393.08 187.977 395.283 188.483 397.749 188.483C399.69 188.483 401.489 188.139 403.146 187.452C404.844 186.764 406.3 185.713 407.513 184.298L409.939 187.088C408.523 188.786 406.745 190.08 404.602 190.969C402.5 191.858 400.175 192.303 397.628 192.303ZM436.956 159.859C439.544 159.859 441.808 160.364 443.748 161.375C445.729 162.345 447.266 163.841 448.357 165.862C449.489 167.884 450.055 170.431 450.055 173.504V192H445.75V173.928C445.75 170.572 444.901 168.046 443.203 166.348C441.545 164.609 439.2 163.74 436.168 163.74C433.904 163.74 431.923 164.205 430.225 165.135C428.567 166.024 427.273 167.338 426.344 169.077C425.454 170.775 425.009 172.837 425.009 175.262V192H420.704V160.162H424.828V168.895L424.16 167.257C425.171 164.953 426.788 163.154 429.012 161.86C431.236 160.526 433.884 159.859 436.956 159.859ZM475.27 204.068C472.359 204.068 469.569 203.644 466.901 202.795C464.233 201.946 462.07 200.733 460.412 199.156L462.595 195.881C464.091 197.215 465.931 198.267 468.114 199.035C470.338 199.843 472.683 200.248 475.149 200.248C479.192 200.248 482.163 199.297 484.063 197.397C485.964 195.538 486.914 192.627 486.914 188.665V180.72L487.52 175.262L487.096 169.804V160.162H491.219V188.119C491.219 193.617 489.865 197.64 487.156 200.187C484.488 202.774 480.526 204.068 475.27 204.068ZM474.482 190.787C471.449 190.787 468.72 190.14 466.295 188.847C463.869 187.512 461.949 185.673 460.534 183.328C459.159 180.983 458.472 178.294 458.472 175.262C458.472 172.23 459.159 169.562 460.534 167.257C461.949 164.912 463.869 163.093 466.295 161.799C468.72 160.506 471.449 159.859 474.482 159.859C477.312 159.859 479.859 160.445 482.123 161.617C484.387 162.79 486.186 164.528 487.52 166.833C488.854 169.137 489.521 171.947 489.521 175.262C489.521 178.577 488.854 181.387 487.52 183.692C486.186 185.996 484.387 187.755 482.123 188.968C479.859 190.181 477.312 190.787 474.482 190.787ZM474.906 186.967C477.251 186.967 479.333 186.481 481.152 185.511C482.972 184.5 484.407 183.126 485.458 181.387C486.509 179.608 487.035 177.567 487.035 175.262C487.035 172.958 486.509 170.936 485.458 169.198C484.407 167.459 482.972 166.105 481.152 165.135C479.333 164.124 477.251 163.619 474.906 163.619C472.602 163.619 470.52 164.124 468.66 165.135C466.84 166.105 465.405 167.459 464.354 169.198C463.343 170.936 462.838 172.958 462.838 175.262C462.838 177.567 463.343 179.608 464.354 181.387C465.405 183.126 466.84 184.5 468.66 185.511C470.52 186.481 472.602 186.967 474.906 186.967ZM523.153 192V184.965L522.971 183.813V172.048C522.971 169.339 522.203 167.257 520.666 165.802C519.17 164.346 516.927 163.619 513.935 163.619C511.873 163.619 509.912 163.962 508.052 164.65C506.193 165.337 504.616 166.247 503.322 167.379L501.381 164.164C502.999 162.79 504.939 161.739 507.203 161.011C509.467 160.243 511.853 159.859 514.359 159.859C518.483 159.859 521.657 160.89 523.88 162.952C526.144 164.973 527.276 168.066 527.276 172.23V192H523.153ZM512.176 192.303C509.791 192.303 507.709 191.919 505.93 191.151C504.191 190.342 502.857 189.251 501.927 187.876C500.997 186.461 500.532 184.844 500.532 183.025C500.532 181.367 500.917 179.871 501.685 178.537C502.493 177.162 503.787 176.071 505.566 175.262C507.385 174.413 509.811 173.989 512.843 173.989H523.82V177.203H512.964C509.892 177.203 507.749 177.749 506.536 178.84C505.364 179.932 504.778 181.286 504.778 182.903C504.778 184.723 505.485 186.178 506.9 187.27C508.315 188.361 510.296 188.907 512.843 188.907C515.269 188.907 517.351 188.361 519.089 187.27C520.868 186.138 522.162 184.521 522.971 182.418L523.941 185.39C523.132 187.492 521.717 189.17 519.696 190.423C517.715 191.677 515.208 192.303 512.176 192.303ZM555.224 159.859C557.811 159.859 560.075 160.364 562.016 161.375C563.997 162.345 565.533 163.841 566.625 165.862C567.757 167.884 568.323 170.431 568.323 173.504V192H564.017V173.928C564.017 170.572 563.168 168.046 561.47 166.348C559.812 164.609 557.468 163.74 554.435 163.74C552.171 163.74 550.19 164.205 548.492 165.135C546.835 166.024 545.541 167.338 544.611 169.077C543.722 170.775 543.277 172.837 543.277 175.262V192H538.971V160.162H543.095V168.895L542.428 167.257C543.439 164.953 545.056 163.154 547.279 161.86C549.503 160.526 552.151 159.859 555.224 159.859ZM621.067 192.485C618.196 192.485 615.73 191.879 613.668 190.666C611.607 189.453 610.03 187.613 608.938 185.147C607.847 182.641 607.301 179.487 607.301 175.687C607.301 171.846 607.867 168.693 608.999 166.226C610.171 163.76 611.788 161.921 613.85 160.708C615.912 159.495 618.318 158.888 621.067 158.888C624.14 158.888 626.889 159.576 629.315 160.95C631.781 162.325 633.721 164.266 635.136 166.772C636.592 169.279 637.32 172.25 637.32 175.687C637.32 179.083 636.592 182.034 635.136 184.541C633.721 187.047 631.781 189.008 629.315 190.423C626.889 191.798 624.14 192.485 621.067 192.485ZM601.782 192V147.002H611.243V165.984L610.636 175.626L610.818 185.329V192H601.782ZM619.43 184.723C621.006 184.723 622.401 184.359 623.614 183.631C624.867 182.903 625.858 181.872 626.586 180.538C627.354 179.164 627.738 177.547 627.738 175.687C627.738 173.787 627.354 172.169 626.586 170.835C625.858 169.501 624.867 168.47 623.614 167.742C622.401 167.015 621.006 166.651 619.43 166.651C617.853 166.651 616.438 167.015 615.184 167.742C613.931 168.47 612.941 169.501 612.213 170.835C611.485 172.169 611.121 173.787 611.121 175.687C611.121 177.547 611.485 179.164 612.213 180.538C612.941 181.872 613.931 182.903 615.184 183.631C616.438 184.359 617.853 184.723 619.43 184.723ZM663.132 192V185.632L662.526 184.238V172.837C662.526 170.815 661.899 169.238 660.646 168.106C659.433 166.974 657.553 166.408 655.006 166.408C653.267 166.408 651.549 166.691 649.851 167.257C648.193 167.783 646.778 168.511 645.606 169.44L642.21 162.83C643.989 161.577 646.132 160.607 648.638 159.919C651.145 159.232 653.692 158.888 656.279 158.888C661.252 158.888 665.113 160.061 667.862 162.406C670.611 164.751 671.986 168.41 671.986 173.382V192H663.132ZM653.186 192.485C650.639 192.485 648.456 192.061 646.637 191.212C644.818 190.322 643.423 189.13 642.452 187.634C641.482 186.138 640.997 184.46 640.997 182.6C640.997 180.66 641.462 178.962 642.392 177.506C643.362 176.051 644.878 174.919 646.94 174.11C649.002 173.261 651.691 172.837 655.006 172.837H663.678V178.355H656.037C653.813 178.355 652.277 178.719 651.428 179.447C650.619 180.174 650.215 181.084 650.215 182.176C650.215 183.389 650.68 184.359 651.61 185.087C652.58 185.774 653.894 186.118 655.552 186.118C657.128 186.118 658.543 185.754 659.797 185.026C661.05 184.258 661.96 183.146 662.526 181.691L663.981 186.057C663.294 188.159 662.04 189.756 660.221 190.848C658.402 191.939 656.057 192.485 653.186 192.485ZM700.379 158.888C702.966 158.888 705.271 159.414 707.292 160.465C709.354 161.476 710.971 163.053 712.144 165.195C713.316 167.298 713.902 170.006 713.902 173.322V192H704.442V174.777C704.442 172.149 703.856 170.209 702.683 168.955C701.551 167.702 699.934 167.075 697.832 167.075C696.336 167.075 694.981 167.399 693.769 168.046C692.596 168.652 691.666 169.602 690.979 170.896C690.332 172.19 690.009 173.847 690.009 175.869V192H680.548V147.002H690.009V168.41L687.886 165.681C689.059 163.497 690.736 161.82 692.92 160.647C695.103 159.475 697.589 158.888 700.379 158.888ZM742.49 192V185.632L741.884 184.238V172.837C741.884 170.815 741.257 169.238 740.004 168.106C738.791 166.974 736.911 166.408 734.364 166.408C732.626 166.408 730.907 166.691 729.209 167.257C727.552 167.783 726.137 168.511 724.964 169.44L721.568 162.83C723.347 161.577 725.49 160.607 727.996 159.919C730.503 159.232 733.05 158.888 735.638 158.888C740.61 158.888 744.471 160.061 747.22 162.406C749.97 164.751 751.344 168.41 751.344 173.382V192H742.49ZM732.545 192.485C729.998 192.485 727.814 192.061 725.995 191.212C724.176 190.322 722.781 189.13 721.811 187.634C720.84 186.138 720.355 184.46 720.355 182.6C720.355 180.66 720.82 178.962 721.75 177.506C722.72 176.051 724.236 174.919 726.298 174.11C728.36 173.261 731.049 172.837 734.364 172.837H743.036V178.355H735.395C733.171 178.355 731.635 178.719 730.786 179.447C729.977 180.174 729.573 181.084 729.573 182.176C729.573 183.389 730.038 184.359 730.968 185.087C731.938 185.774 733.252 186.118 734.91 186.118C736.487 186.118 737.902 185.754 739.155 185.026C740.408 184.258 741.318 183.146 741.884 181.691L743.339 186.057C742.652 188.159 741.399 189.756 739.579 190.848C737.76 191.939 735.415 192.485 732.545 192.485ZM770.883 192.485C768.093 192.485 765.405 192.162 762.817 191.515C760.27 190.828 758.249 189.979 756.753 188.968L759.906 182.176C761.402 183.106 763.161 183.874 765.182 184.48C767.244 185.046 769.266 185.329 771.247 185.329C773.43 185.329 774.966 185.066 775.856 184.541C776.786 184.015 777.251 183.287 777.251 182.358C777.251 181.589 776.887 181.023 776.159 180.66C775.472 180.255 774.542 179.952 773.369 179.75C772.197 179.548 770.903 179.346 769.488 179.143C768.114 178.941 766.719 178.679 765.304 178.355C763.889 177.991 762.595 177.466 761.423 176.778C760.25 176.091 759.3 175.161 758.572 173.989C757.885 172.816 757.541 171.3 757.541 169.44C757.541 167.379 758.128 165.559 759.3 163.983C760.513 162.406 762.251 161.173 764.515 160.283C766.779 159.353 769.488 158.888 772.642 158.888C774.865 158.888 777.129 159.131 779.434 159.616C781.738 160.101 783.659 160.809 785.195 161.739L782.041 168.47C780.465 167.54 778.868 166.914 777.251 166.59C775.674 166.226 774.138 166.044 772.642 166.044C770.539 166.044 769.003 166.327 768.033 166.893C767.062 167.459 766.577 168.187 766.577 169.077C766.577 169.885 766.921 170.492 767.608 170.896C768.336 171.3 769.286 171.624 770.458 171.866C771.631 172.109 772.904 172.331 774.279 172.533C775.694 172.695 777.109 172.958 778.524 173.322C779.939 173.686 781.213 174.211 782.345 174.898C783.517 175.545 784.467 176.455 785.195 177.627C785.923 178.759 786.287 180.255 786.287 182.115C786.287 184.137 785.68 185.936 784.467 187.512C783.254 189.049 781.496 190.262 779.191 191.151C776.927 192.04 774.158 192.485 770.883 192.485ZM812.136 192V185.632L811.53 184.238V172.837C811.53 170.815 810.903 169.238 809.65 168.106C808.437 166.974 806.557 166.408 804.01 166.408C802.271 166.408 800.553 166.691 798.855 167.257C797.197 167.783 795.782 168.511 794.61 169.44L791.214 162.83C792.993 161.577 795.135 160.607 797.642 159.919C800.149 159.232 802.696 158.888 805.283 158.888C810.256 158.888 814.117 160.061 816.866 162.406C819.615 164.751 820.99 168.41 820.99 173.382V192H812.136ZM802.19 192.485C799.643 192.485 797.46 192.061 795.641 191.212C793.822 190.322 792.427 189.13 791.456 187.634C790.486 186.138 790.001 184.46 790.001 182.6C790.001 180.66 790.466 178.962 791.396 177.506C792.366 176.051 793.882 174.919 795.944 174.11C798.006 173.261 800.695 172.837 804.01 172.837H812.682V178.355H805.041C802.817 178.355 801.281 178.719 800.432 179.447C799.623 180.174 799.219 181.084 799.219 182.176C799.219 183.389 799.684 184.359 800.614 185.087C801.584 185.774 802.898 186.118 804.556 186.118C806.132 186.118 807.547 185.754 808.801 185.026C810.054 184.258 810.964 183.146 811.53 181.691L812.985 186.057C812.298 188.159 811.044 189.756 809.225 190.848C807.406 191.939 805.061 192.485 802.19 192.485ZM854.989 192V149.549H864.813V192H854.989ZM894.051 158.888C896.638 158.888 898.943 159.414 900.964 160.465C903.026 161.476 904.643 163.053 905.816 165.195C906.988 167.298 907.574 170.006 907.574 173.322V192H898.114V174.777C898.114 172.149 897.528 170.209 896.355 168.955C895.223 167.702 893.606 167.075 891.504 167.075C890.008 167.075 888.653 167.399 887.441 168.046C886.268 168.652 885.338 169.602 884.651 170.896C884.004 172.19 883.681 173.847 883.681 175.869V192H874.22V159.374H883.256V168.41L881.558 165.681C882.731 163.497 884.408 161.82 886.592 160.647C888.775 159.475 891.261 158.888 894.051 158.888ZM930.395 192.485C927.323 192.485 924.553 191.798 922.087 190.423C919.621 189.008 917.66 187.047 916.205 184.541C914.79 182.034 914.082 179.083 914.082 175.687C914.082 172.25 914.79 169.279 916.205 166.772C917.66 164.266 919.621 162.325 922.087 160.95C924.553 159.576 927.323 158.888 930.395 158.888C933.145 158.888 935.55 159.495 937.612 160.708C939.674 161.921 941.271 163.76 942.403 166.226C943.535 168.693 944.101 171.846 944.101 175.687C944.101 179.487 943.555 182.641 942.464 185.147C941.372 187.613 939.795 189.453 937.733 190.666C935.712 191.879 933.266 192.485 930.395 192.485ZM932.033 184.723C933.569 184.723 934.964 184.359 936.217 183.631C937.471 182.903 938.461 181.872 939.189 180.538C939.957 179.164 940.341 177.547 940.341 175.687C940.341 173.787 939.957 172.169 939.189 170.835C938.461 169.501 937.471 168.47 936.217 167.742C934.964 167.015 933.569 166.651 932.033 166.651C930.456 166.651 929.041 167.015 927.788 167.742C926.534 168.47 925.524 169.501 924.756 170.835C924.028 172.169 923.664 173.787 923.664 175.687C923.664 177.547 924.028 179.164 924.756 180.538C925.524 181.872 926.534 182.903 927.788 183.631C929.041 184.359 930.456 184.723 932.033 184.723ZM940.584 192V185.329L940.766 175.626L940.159 165.984V147.002H949.62V192H940.584ZM973.9 192.485C970.423 192.485 967.331 191.757 964.622 190.302C961.953 188.847 959.831 186.865 958.254 184.359C956.718 181.812 955.95 178.921 955.95 175.687C955.95 172.412 956.718 169.521 958.254 167.015C959.831 164.468 961.953 162.487 964.622 161.072C967.331 159.616 970.423 158.888 973.9 158.888C977.337 158.888 980.409 159.616 983.118 161.072C985.827 162.487 987.949 164.447 989.486 166.954C991.022 169.461 991.79 172.372 991.79 175.687C991.79 178.921 991.022 181.812 989.486 184.359C987.949 186.865 985.827 188.847 983.118 190.302C980.409 191.757 977.337 192.485 973.9 192.485ZM973.9 184.723C975.477 184.723 976.892 184.359 978.145 183.631C979.399 182.903 980.389 181.872 981.117 180.538C981.845 179.164 982.209 177.547 982.209 175.687C982.209 173.787 981.845 172.169 981.117 170.835C980.389 169.501 979.399 168.47 978.145 167.742C976.892 167.015 975.477 166.651 973.9 166.651C972.324 166.651 970.909 167.015 969.655 167.742C968.402 168.47 967.391 169.501 966.623 170.835C965.895 172.169 965.531 173.787 965.531 175.687C965.531 177.547 965.895 179.164 966.623 180.538C967.391 181.872 968.402 182.903 969.655 183.631C970.909 184.359 972.324 184.723 973.9 184.723ZM1017.94 158.888C1020.53 158.888 1022.84 159.414 1024.86 160.465C1026.92 161.476 1028.54 163.053 1029.71 165.195C1030.88 167.298 1031.47 170.006 1031.47 173.322V192H1022.01V174.777C1022.01 172.149 1021.42 170.209 1020.25 168.955C1019.12 167.702 1017.5 167.075 1015.4 167.075C1013.9 167.075 1012.55 167.399 1011.33 168.046C1010.16 168.652 1009.23 169.602 1008.54 170.896C1007.9 172.19 1007.57 173.847 1007.57 175.869V192H998.114V159.374H1007.15V168.41L1005.45 165.681C1006.62 163.497 1008.3 161.82 1010.49 160.647C1012.67 159.475 1015.15 158.888 1017.94 158.888ZM1056.47 192.485C1052.75 192.485 1049.48 191.757 1046.65 190.302C1043.86 188.847 1041.7 186.865 1040.16 184.359C1038.62 181.812 1037.85 178.921 1037.85 175.687C1037.85 172.412 1038.6 169.521 1040.1 167.015C1041.63 164.468 1043.72 162.487 1046.34 161.072C1048.97 159.616 1051.94 158.888 1055.26 158.888C1058.45 158.888 1061.32 159.576 1063.87 160.95C1066.46 162.284 1068.5 164.225 1070 166.772C1071.49 169.279 1072.24 172.291 1072.24 175.808C1072.24 176.172 1072.22 176.596 1072.18 177.082C1072.14 177.526 1072.1 177.951 1072.06 178.355H1045.56V172.837H1067.08L1063.45 174.474C1063.45 172.776 1063.1 171.3 1062.42 170.047C1061.73 168.794 1060.78 167.823 1059.57 167.136C1058.35 166.408 1056.94 166.044 1055.32 166.044C1053.7 166.044 1052.27 166.408 1051.01 167.136C1049.8 167.823 1048.85 168.814 1048.16 170.108C1047.48 171.361 1047.13 172.857 1047.13 174.595V176.051C1047.13 177.83 1047.52 179.406 1048.29 180.781C1049.09 182.115 1050.21 183.146 1051.62 183.874C1053.08 184.561 1054.77 184.905 1056.71 184.905C1058.45 184.905 1059.97 184.642 1061.26 184.116C1062.6 183.591 1063.81 182.802 1064.9 181.751L1069.94 187.209C1068.44 188.907 1066.56 190.221 1064.3 191.151C1062.03 192.04 1059.42 192.485 1056.47 192.485ZM1089.51 192.485C1086.72 192.485 1084.04 192.162 1081.45 191.515C1078.9 190.828 1076.88 189.979 1075.38 188.968L1078.54 182.176C1080.03 183.106 1081.79 183.874 1083.81 184.48C1085.88 185.046 1087.9 185.329 1089.88 185.329C1092.06 185.329 1093.6 185.066 1094.49 184.541C1095.42 184.015 1095.88 183.287 1095.88 182.358C1095.88 181.589 1095.52 181.023 1094.79 180.66C1094.1 180.255 1093.17 179.952 1092 179.75C1090.83 179.548 1089.53 179.346 1088.12 179.143C1086.75 178.941 1085.35 178.679 1083.94 178.355C1082.52 177.991 1081.23 177.466 1080.05 176.778C1078.88 176.091 1077.93 175.161 1077.2 173.989C1076.52 172.816 1076.17 171.3 1076.17 169.44C1076.17 167.379 1076.76 165.559 1077.93 163.983C1079.14 162.406 1080.88 161.173 1083.15 160.283C1085.41 159.353 1088.12 158.888 1091.27 158.888C1093.5 158.888 1095.76 159.131 1098.07 159.616C1100.37 160.101 1102.29 160.809 1103.83 161.739L1100.67 168.47C1099.1 167.54 1097.5 166.914 1095.88 166.59C1094.31 166.226 1092.77 166.044 1091.27 166.044C1089.17 166.044 1087.63 166.327 1086.66 166.893C1085.69 167.459 1085.21 168.187 1085.21 169.077C1085.21 169.885 1085.55 170.492 1086.24 170.896C1086.97 171.3 1087.92 171.624 1089.09 171.866C1090.26 172.109 1091.54 172.331 1092.91 172.533C1094.33 172.695 1095.74 172.958 1097.16 173.322C1098.57 173.686 1099.84 174.211 1100.98 174.898C1102.15 175.545 1103.1 176.455 1103.83 177.627C1104.55 178.759 1104.92 180.255 1104.92 182.115C1104.92 184.137 1104.31 185.936 1103.1 187.512C1101.89 189.049 1100.13 190.262 1097.82 191.151C1095.56 192.04 1092.79 192.485 1089.51 192.485ZM1110.76 192V159.374H1120.22V192H1110.76ZM1115.49 154.825C1113.75 154.825 1112.33 154.32 1111.24 153.309C1110.15 152.298 1109.6 151.045 1109.6 149.549C1109.6 148.053 1110.15 146.8 1111.24 145.789C1112.33 144.779 1113.75 144.273 1115.49 144.273C1117.22 144.273 1118.64 144.758 1119.73 145.729C1120.82 146.659 1121.37 147.871 1121.37 149.367C1121.37 150.944 1120.82 152.258 1119.73 153.309C1118.68 154.32 1117.26 154.825 1115.49 154.825ZM1149.01 192V185.632L1148.4 184.238V172.837C1148.4 170.815 1147.78 169.238 1146.52 168.106C1145.31 166.974 1143.43 166.408 1140.88 166.408C1139.14 166.408 1137.43 166.691 1135.73 167.257C1134.07 167.783 1132.65 168.511 1131.48 169.44L1128.09 162.83C1129.86 161.577 1132.01 160.607 1134.51 159.919C1137.02 159.232 1139.57 158.888 1142.16 158.888C1147.13 158.888 1150.99 160.061 1153.74 162.406C1156.49 164.751 1157.86 168.41 1157.86 173.382V192H1149.01ZM1139.06 192.485C1136.52 192.485 1134.33 192.061 1132.51 191.212C1130.69 190.322 1129.3 189.13 1128.33 187.634C1127.36 186.138 1126.87 184.46 1126.87 182.6C1126.87 180.66 1127.34 178.962 1128.27 177.506C1129.24 176.051 1130.75 174.919 1132.82 174.11C1134.88 173.261 1137.57 172.837 1140.88 172.837H1149.55V178.355H1141.91C1139.69 178.355 1138.15 178.719 1137.3 179.447C1136.5 180.174 1136.09 181.084 1136.09 182.176C1136.09 183.389 1136.56 184.359 1137.49 185.087C1138.46 185.774 1139.77 186.118 1141.43 186.118C1143 186.118 1144.42 185.754 1145.67 185.026C1146.93 184.258 1147.84 183.146 1148.4 181.691L1149.86 186.057C1149.17 188.159 1147.92 189.756 1146.1 190.848C1144.28 191.939 1141.93 192.485 1139.06 192.485ZM1200.08 192.303C1197.45 192.303 1194.96 191.939 1192.62 191.212C1190.27 190.443 1188.44 189.493 1187.1 188.361L1189.04 184.965C1190.34 185.936 1191.99 186.785 1194.01 187.512C1196.04 188.2 1198.16 188.543 1200.38 188.543C1203.41 188.543 1205.6 188.078 1206.93 187.148C1208.27 186.178 1208.93 184.905 1208.93 183.328C1208.93 182.155 1208.55 181.246 1207.78 180.599C1207.05 179.912 1206.08 179.406 1204.87 179.083C1203.66 178.719 1202.3 178.416 1200.81 178.173C1199.31 177.931 1197.81 177.648 1196.32 177.324C1194.86 177.001 1193.53 176.536 1192.32 175.929C1191.1 175.282 1190.11 174.413 1189.34 173.322C1188.62 172.23 1188.25 170.775 1188.25 168.955C1188.25 167.217 1188.74 165.66 1189.71 164.286C1190.68 162.911 1192.09 161.84 1193.95 161.072C1195.85 160.263 1198.16 159.859 1200.87 159.859C1202.93 159.859 1204.99 160.142 1207.05 160.708C1209.11 161.233 1210.81 161.941 1212.15 162.83L1210.27 166.287C1208.85 165.317 1207.34 164.629 1205.72 164.225C1204.1 163.78 1202.48 163.558 1200.87 163.558C1198 163.558 1195.87 164.063 1194.5 165.074C1193.17 166.044 1192.5 167.298 1192.5 168.834C1192.5 170.047 1192.86 170.997 1193.59 171.684C1194.36 172.372 1195.35 172.917 1196.56 173.322C1197.81 173.686 1199.17 173.989 1200.62 174.231C1202.12 174.474 1203.6 174.777 1205.05 175.141C1206.55 175.464 1207.9 175.929 1209.11 176.536C1210.37 177.102 1211.36 177.931 1212.09 179.022C1212.85 180.073 1213.24 181.468 1213.24 183.207C1213.24 185.066 1212.71 186.684 1211.66 188.058C1210.65 189.392 1209.16 190.443 1207.17 191.212C1205.23 191.939 1202.87 192.303 1200.08 192.303ZM1234.66 192.303C1231.35 192.303 1228.44 191.616 1225.93 190.241C1223.42 188.826 1221.46 186.906 1220.05 184.48C1218.63 182.014 1217.93 179.204 1217.93 176.051C1217.93 172.897 1218.59 170.108 1219.93 167.682C1221.3 165.256 1223.16 163.356 1225.51 161.981C1227.89 160.566 1230.56 159.859 1233.51 159.859C1236.5 159.859 1239.15 160.546 1241.46 161.921C1243.8 163.255 1245.64 165.155 1246.97 167.621C1248.31 170.047 1248.97 172.857 1248.97 176.051C1248.97 176.253 1248.95 176.475 1248.91 176.718C1248.91 176.92 1248.91 177.142 1248.91 177.385H1221.2V174.171H1246.61L1244.91 175.444C1244.91 173.14 1244.41 171.098 1243.4 169.319C1242.43 167.5 1241.09 166.085 1239.39 165.074C1237.7 164.063 1235.73 163.558 1233.51 163.558C1231.33 163.558 1229.37 164.063 1227.63 165.074C1225.89 166.085 1224.54 167.5 1223.57 169.319C1222.59 171.138 1222.11 173.221 1222.11 175.566V176.233C1222.11 178.658 1222.64 180.801 1223.69 182.661C1224.78 184.48 1226.27 185.915 1228.17 186.967C1230.11 187.977 1232.32 188.483 1234.78 188.483C1236.72 188.483 1238.52 188.139 1240.18 187.452C1241.88 186.764 1243.34 185.713 1244.55 184.298L1246.97 187.088C1245.56 188.786 1243.78 190.08 1241.64 190.969C1239.53 191.858 1237.21 192.303 1234.66 192.303ZM1274.17 192.303C1271.38 192.303 1268.88 191.677 1266.65 190.423C1264.43 189.13 1262.67 187.27 1261.38 184.844C1260.08 182.418 1259.44 179.487 1259.44 176.051C1259.44 172.574 1260.08 169.643 1261.38 167.257C1262.71 164.832 1264.49 162.992 1266.71 161.739C1268.94 160.485 1271.42 159.859 1274.17 159.859C1277.21 159.859 1279.91 160.546 1282.3 161.921C1284.73 163.255 1286.63 165.135 1288 167.561C1289.37 169.986 1290.06 172.816 1290.06 176.051C1290.06 179.245 1289.37 182.075 1288 184.541C1286.63 186.967 1284.73 188.867 1282.3 190.241C1279.91 191.616 1277.21 192.303 1274.17 192.303ZM1257.74 192V147.002H1262.04V169.562L1261.44 175.99L1261.86 182.418V192H1257.74ZM1273.87 188.483C1276.13 188.483 1278.16 187.977 1279.93 186.967C1281.71 185.915 1283.13 184.46 1284.18 182.6C1285.23 180.7 1285.76 178.517 1285.76 176.051C1285.76 173.544 1285.23 171.361 1284.18 169.501C1283.13 167.641 1281.71 166.206 1279.93 165.195C1278.16 164.144 1276.13 163.619 1273.87 163.619C1271.61 163.619 1269.56 164.144 1267.75 165.195C1265.97 166.206 1264.55 167.641 1263.5 169.501C1262.49 171.361 1261.98 173.544 1261.98 176.051C1261.98 178.517 1262.49 180.7 1263.5 182.6C1264.55 184.46 1265.97 185.915 1267.75 186.967C1269.56 187.977 1271.61 188.483 1273.87 188.483ZM1318.61 192V184.965L1318.43 183.813V172.048C1318.43 169.339 1317.66 167.257 1316.13 165.802C1314.63 164.346 1312.39 163.619 1309.4 163.619C1307.33 163.619 1305.37 163.962 1303.51 164.65C1301.65 165.337 1300.08 166.247 1298.78 167.379L1296.84 164.164C1298.46 162.79 1300.4 161.739 1302.66 161.011C1304.93 160.243 1307.31 159.859 1309.82 159.859C1313.94 159.859 1317.12 160.89 1319.34 162.952C1321.61 164.973 1322.74 168.066 1322.74 172.23V192H1318.61ZM1307.64 192.303C1305.25 192.303 1303.17 191.919 1301.39 191.151C1299.65 190.342 1298.32 189.251 1297.39 187.876C1296.46 186.461 1295.99 184.844 1295.99 183.025C1295.99 181.367 1296.38 179.871 1297.15 178.537C1297.95 177.162 1299.25 176.071 1301.03 175.262C1302.85 174.413 1305.27 173.989 1308.3 173.989H1319.28V177.203H1308.43C1305.35 177.203 1303.21 177.749 1302 178.84C1300.82 179.932 1300.24 181.286 1300.24 182.903C1300.24 184.723 1300.95 186.178 1302.36 187.27C1303.78 188.361 1305.76 188.907 1308.3 188.907C1310.73 188.907 1312.81 188.361 1314.55 187.27C1316.33 186.138 1317.62 184.521 1318.43 182.418L1319.4 185.39C1318.59 187.492 1317.18 189.17 1315.16 190.423C1313.18 191.677 1310.67 192.303 1307.64 192.303ZM1348.02 204.068C1345.11 204.068 1342.32 203.644 1339.65 202.795C1336.98 201.946 1334.82 200.733 1333.16 199.156L1335.34 195.881C1336.84 197.215 1338.68 198.267 1340.86 199.035C1343.08 199.843 1345.43 200.248 1347.9 200.248C1351.94 200.248 1354.91 199.297 1356.81 197.397C1358.71 195.538 1359.66 192.627 1359.66 188.665V180.72L1360.27 175.262L1359.84 169.804V160.162H1363.97V188.119C1363.97 193.617 1362.61 197.64 1359.9 200.187C1357.23 202.774 1353.27 204.068 1348.02 204.068ZM1347.23 190.787C1344.2 190.787 1341.47 190.14 1339.04 188.847C1336.62 187.512 1334.69 185.673 1333.28 183.328C1331.91 180.983 1331.22 178.294 1331.22 175.262C1331.22 172.23 1331.91 169.562 1333.28 167.257C1334.69 164.912 1336.62 163.093 1339.04 161.799C1341.47 160.506 1344.2 159.859 1347.23 159.859C1350.06 159.859 1352.61 160.445 1354.87 161.617C1357.13 162.79 1358.93 164.528 1360.27 166.833C1361.6 169.137 1362.27 171.947 1362.27 175.262C1362.27 178.577 1361.6 181.387 1360.27 183.692C1358.93 185.996 1357.13 187.755 1354.87 188.968C1352.61 190.181 1350.06 190.787 1347.23 190.787ZM1347.65 186.967C1350 186.967 1352.08 186.481 1353.9 185.511C1355.72 184.5 1357.15 183.126 1358.2 181.387C1359.26 179.608 1359.78 177.567 1359.78 175.262C1359.78 172.958 1359.26 170.936 1358.2 169.198C1357.15 167.459 1355.72 166.105 1353.9 165.135C1352.08 164.124 1350 163.619 1347.65 163.619C1345.35 163.619 1343.27 164.124 1341.41 165.135C1339.59 166.105 1338.15 167.459 1337.1 169.198C1336.09 170.936 1335.58 172.958 1335.58 175.262C1335.58 177.567 1336.09 179.608 1337.1 181.387C1338.15 183.126 1339.59 184.5 1341.41 185.511C1343.27 186.481 1345.35 186.967 1347.65 186.967ZM1395.9 192V184.965L1395.72 183.813V172.048C1395.72 169.339 1394.95 167.257 1393.41 165.802C1391.92 164.346 1389.67 163.619 1386.68 163.619C1384.62 163.619 1382.66 163.962 1380.8 164.65C1378.94 165.337 1377.36 166.247 1376.07 167.379L1374.13 164.164C1375.74 162.79 1377.69 161.739 1379.95 161.011C1382.21 160.243 1384.6 159.859 1387.11 159.859C1391.23 159.859 1394.4 160.89 1396.63 162.952C1398.89 164.973 1400.02 168.066 1400.02 172.23V192H1395.9ZM1384.92 192.303C1382.54 192.303 1380.45 191.919 1378.68 191.151C1376.94 190.342 1375.6 189.251 1374.67 187.876C1373.74 186.461 1373.28 184.844 1373.28 183.025C1373.28 181.367 1373.66 179.871 1374.43 178.537C1375.24 177.162 1376.53 176.071 1378.31 175.262C1380.13 174.413 1382.56 173.989 1385.59 173.989H1396.57V177.203H1385.71C1382.64 177.203 1380.5 177.749 1379.28 178.84C1378.11 179.932 1377.52 181.286 1377.52 182.903C1377.52 184.723 1378.23 186.178 1379.65 187.27C1381.06 188.361 1383.04 188.907 1385.59 188.907C1388.02 188.907 1390.1 188.361 1391.84 187.27C1393.61 186.138 1394.91 184.521 1395.72 182.418L1396.69 185.39C1395.88 187.492 1394.46 189.17 1392.44 190.423C1390.46 191.677 1387.95 192.303 1384.92 192.303ZM1411.72 192V160.162H1416.02V192H1411.72ZM1413.9 153.127C1413.01 153.127 1412.26 152.824 1411.66 152.218C1411.05 151.611 1410.75 150.883 1410.75 150.034C1410.75 149.185 1411.05 148.478 1411.66 147.912C1412.26 147.305 1413.01 147.002 1413.9 147.002C1414.79 147.002 1415.54 147.285 1416.14 147.851C1416.75 148.417 1417.05 149.125 1417.05 149.974C1417.05 150.863 1416.75 151.611 1416.14 152.218C1415.58 152.824 1414.83 153.127 1413.9 153.127ZM359.438 266.303C356.649 266.303 354.142 265.677 351.918 264.423C349.695 263.13 347.936 261.27 346.642 258.844C345.349 256.418 344.702 253.487 344.702 250.051C344.702 246.574 345.349 243.643 346.642 241.257C347.977 238.832 349.755 236.992 351.979 235.739C354.203 234.485 356.689 233.859 359.438 233.859C362.47 233.859 365.179 234.546 367.565 235.921C369.99 237.255 371.89 239.135 373.265 241.561C374.64 243.986 375.327 246.816 375.327 250.051C375.327 253.245 374.64 256.075 373.265 258.541C371.89 260.967 369.99 262.867 367.565 264.241C365.179 265.616 362.47 266.303 359.438 266.303ZM343.004 266V221.002H347.309V243.562L346.703 249.99L347.128 256.418V266H343.004ZM359.135 262.483C361.399 262.483 363.421 261.977 365.199 260.967C366.978 259.915 368.393 258.46 369.444 256.6C370.496 254.7 371.021 252.517 371.021 250.051C371.021 247.544 370.496 245.361 369.444 243.501C368.393 241.641 366.978 240.206 365.199 239.195C363.421 238.144 361.399 237.619 359.135 237.619C356.871 237.619 354.829 238.144 353.01 239.195C351.231 240.206 349.816 241.641 348.765 243.501C347.754 245.361 347.249 247.544 347.249 250.051C347.249 252.517 347.754 254.7 348.765 256.6C349.816 258.46 351.231 259.915 353.01 260.967C354.829 261.977 356.871 262.483 359.135 262.483ZM403.878 266V258.965L403.696 257.813V246.048C403.696 243.339 402.928 241.257 401.392 239.802C399.896 238.346 397.652 237.619 394.661 237.619C392.599 237.619 390.638 237.962 388.778 238.65C386.918 239.337 385.342 240.247 384.048 241.379L382.107 238.164C383.724 236.79 385.665 235.739 387.929 235.011C390.193 234.243 392.578 233.859 395.085 233.859C399.209 233.859 402.382 234.89 404.606 236.952C406.87 238.973 408.002 242.066 408.002 246.23V266H403.878ZM392.902 266.303C390.517 266.303 388.434 265.919 386.656 265.151C384.917 264.342 383.583 263.251 382.653 261.876C381.723 260.461 381.258 258.844 381.258 257.025C381.258 255.367 381.642 253.871 382.41 252.537C383.219 251.162 384.513 250.071 386.292 249.262C388.111 248.413 390.537 247.989 393.569 247.989H404.545V251.203H393.69C390.618 251.203 388.475 251.749 387.262 252.84C386.09 253.932 385.503 255.286 385.503 256.903C385.503 258.723 386.211 260.178 387.626 261.27C389.041 262.361 391.022 262.907 393.569 262.907C395.995 262.907 398.077 262.361 399.815 261.27C401.594 260.138 402.888 258.521 403.696 256.418L404.667 259.39C403.858 261.492 402.443 263.17 400.422 264.423C398.441 265.677 395.934 266.303 392.902 266.303ZM435.95 233.859C438.537 233.859 440.801 234.364 442.742 235.375C444.723 236.345 446.259 237.841 447.351 239.862C448.483 241.884 449.049 244.431 449.049 247.504V266H444.743V247.928C444.743 244.572 443.894 242.046 442.196 240.348C440.538 238.609 438.193 237.74 435.161 237.74C432.897 237.74 430.916 238.205 429.218 239.135C427.56 240.024 426.267 241.338 425.337 243.077C424.447 244.775 424.003 246.837 424.003 249.262V266H419.697V221.002H424.003V242.895L423.154 241.257C424.164 238.953 425.782 237.154 428.005 235.86C430.229 234.526 432.877 233.859 435.95 233.859ZM480.631 266V258.965L480.449 257.813V246.048C480.449 243.339 479.681 241.257 478.144 239.802C476.649 238.346 474.405 237.619 471.413 237.619C469.351 237.619 467.39 237.962 465.53 238.65C463.671 239.337 462.094 240.247 460.8 241.379L458.86 238.164C460.477 236.79 462.417 235.739 464.681 235.011C466.946 234.243 469.331 233.859 471.837 233.859C475.961 233.859 479.135 234.89 481.359 236.952C483.623 238.973 484.755 242.066 484.755 246.23V266H480.631ZM469.654 266.303C467.269 266.303 465.187 265.919 463.408 265.151C461.669 264.342 460.335 263.251 459.405 261.876C458.476 260.461 458.011 258.844 458.011 257.025C458.011 255.367 458.395 253.871 459.163 252.537C459.971 251.162 461.265 250.071 463.044 249.262C464.863 248.413 467.289 247.989 470.321 247.989H481.298V251.203H470.443C467.37 251.203 465.227 251.749 464.014 252.84C462.842 253.932 462.256 255.286 462.256 256.903C462.256 258.723 462.963 260.178 464.378 261.27C465.793 262.361 467.774 262.907 470.321 262.907C472.747 262.907 474.829 262.361 476.568 261.27C478.347 260.138 479.64 258.521 480.449 256.418L481.419 259.39C480.611 261.492 479.196 263.17 477.174 264.423C475.193 265.677 472.686 266.303 469.654 266.303ZM512.702 233.859C515.289 233.859 517.553 234.364 519.494 235.375C521.475 236.345 523.011 237.841 524.103 239.862C525.235 241.884 525.801 244.431 525.801 247.504V266H521.495V247.928C521.495 244.572 520.646 242.046 518.948 240.348C517.291 238.609 514.946 237.74 511.914 237.74C509.65 237.74 507.669 238.205 505.97 239.135C504.313 240.024 503.019 241.338 502.089 243.077C501.2 244.775 500.755 246.837 500.755 249.262V266H496.449V234.162H500.573V242.895L499.906 241.257C500.917 238.953 502.534 237.154 504.758 235.86C506.981 234.526 509.629 233.859 512.702 233.859ZM569.738 266.303C566.948 266.303 564.441 265.677 562.218 264.423C559.994 263.13 558.235 261.27 556.942 258.844C555.648 256.418 555.001 253.487 555.001 250.051C555.001 246.574 555.648 243.643 556.942 241.257C558.276 238.832 560.055 236.992 562.278 235.739C564.502 234.485 566.988 233.859 569.738 233.859C572.77 233.859 575.479 234.546 577.864 235.921C580.29 237.255 582.19 239.135 583.564 241.561C584.939 243.986 585.626 246.816 585.626 250.051C585.626 253.245 584.939 256.075 583.564 258.541C582.19 260.967 580.29 262.867 577.864 264.241C575.479 265.616 572.77 266.303 569.738 266.303ZM553.303 266V221.002H557.609V243.562L557.002 249.99L557.427 256.418V266H553.303ZM569.434 262.483C571.698 262.483 573.72 261.977 575.499 260.967C577.278 259.915 578.693 258.46 579.744 256.6C580.795 254.7 581.321 252.517 581.321 250.051C581.321 247.544 580.795 245.361 579.744 243.501C578.693 241.641 577.278 240.206 575.499 239.195C573.72 238.144 571.698 237.619 569.434 237.619C567.17 237.619 565.129 238.144 563.309 239.195C561.53 240.206 560.115 241.641 559.064 243.501C558.054 245.361 557.548 247.544 557.548 250.051C557.548 252.517 558.054 254.7 559.064 256.6C560.115 258.46 561.53 259.915 563.309 260.967C565.129 261.977 567.17 262.483 569.434 262.483ZM614.178 266V258.965L613.996 257.813V246.048C613.996 243.339 613.228 241.257 611.691 239.802C610.195 238.346 607.952 237.619 604.96 237.619C602.898 237.619 600.937 237.962 599.077 238.65C597.218 239.337 595.641 240.247 594.347 241.379L592.407 238.164C594.024 236.79 595.964 235.739 598.228 235.011C600.492 234.243 602.878 233.859 605.384 233.859C609.508 233.859 612.682 234.89 614.905 236.952C617.169 238.973 618.301 242.066 618.301 246.23V266H614.178ZM603.201 266.303C600.816 266.303 598.734 265.919 596.955 265.151C595.216 264.342 593.882 263.251 592.952 261.876C592.022 260.461 591.558 258.844 591.558 257.025C591.558 255.367 591.942 253.871 592.71 252.537C593.518 251.162 594.812 250.071 596.591 249.262C598.41 248.413 600.836 247.989 603.868 247.989H614.845V251.203H603.99C600.917 251.203 598.774 251.749 597.561 252.84C596.389 253.932 595.803 255.286 595.803 256.903C595.803 258.723 596.51 260.178 597.925 261.27C599.34 262.361 601.321 262.907 603.868 262.907C606.294 262.907 608.376 262.361 610.115 261.27C611.893 260.138 613.187 258.521 613.996 256.418L614.966 259.39C614.157 261.492 612.742 263.17 610.721 264.423C608.74 265.677 606.233 266.303 603.201 266.303ZM643.217 266.303C640.063 266.303 637.233 265.616 634.726 264.241C632.26 262.826 630.32 260.906 628.905 258.48C627.49 256.014 626.782 253.204 626.782 250.051C626.782 246.857 627.49 244.047 628.905 241.621C630.32 239.195 632.26 237.295 634.726 235.921C637.233 234.546 640.063 233.859 643.217 233.859C645.925 233.859 648.371 234.384 650.555 235.435C652.738 236.487 654.456 238.063 655.709 240.166L652.495 242.349C651.404 240.732 650.049 239.539 648.432 238.771C646.815 238.003 645.056 237.619 643.156 237.619C640.892 237.619 638.85 238.144 637.031 239.195C635.212 240.206 633.776 241.641 632.725 243.501C631.674 245.361 631.149 247.544 631.149 250.051C631.149 252.557 631.674 254.74 632.725 256.6C633.776 258.46 635.212 259.915 637.031 260.967C638.85 261.977 640.892 262.483 643.156 262.483C645.056 262.483 646.815 262.099 648.432 261.33C650.049 260.562 651.404 259.39 652.495 257.813L655.709 259.996C654.456 262.058 652.738 263.635 650.555 264.726C648.371 265.778 645.925 266.303 643.217 266.303ZM684.12 266V258.965L683.938 257.813V246.048C683.938 243.339 683.169 241.257 681.633 239.802C680.137 238.346 677.893 237.619 674.902 237.619C672.84 237.619 670.879 237.962 669.019 238.65C667.159 239.337 665.583 240.247 664.289 241.379L662.348 238.164C663.966 236.79 665.906 235.739 668.17 235.011C670.434 234.243 672.82 233.859 675.326 233.859C679.45 233.859 682.624 234.89 684.847 236.952C687.111 238.973 688.243 242.066 688.243 246.23V266H684.12ZM673.143 266.303C670.758 266.303 668.676 265.919 666.897 265.151C665.158 264.342 663.824 263.251 662.894 261.876C661.964 260.461 661.499 258.844 661.499 257.025C661.499 255.367 661.883 253.871 662.652 252.537C663.46 251.162 664.754 250.071 666.533 249.262C668.352 248.413 670.778 247.989 673.81 247.989H684.787V251.203H673.931C670.859 251.203 668.716 251.749 667.503 252.84C666.331 253.932 665.744 255.286 665.744 256.903C665.744 258.723 666.452 260.178 667.867 261.27C669.282 262.361 671.263 262.907 673.81 262.907C676.236 262.907 678.318 262.361 680.056 261.27C681.835 260.138 683.129 258.521 683.938 256.418L684.908 259.39C684.099 261.492 682.684 263.17 680.663 264.423C678.682 265.677 676.175 266.303 673.143 266.303ZM719.89 266V258.965L719.708 257.813V246.048C719.708 243.339 718.94 241.257 717.404 239.802C715.908 238.346 713.664 237.619 710.672 237.619C708.61 237.619 706.649 237.962 704.79 238.65C702.93 239.337 701.353 240.247 700.059 241.379L698.119 238.164C699.736 236.79 701.677 235.739 703.941 235.011C706.205 234.243 708.59 233.859 711.097 233.859C715.22 233.859 718.394 234.89 720.618 236.952C722.882 238.973 724.014 242.066 724.014 246.23V266H719.89ZM708.913 266.303C706.528 266.303 704.446 265.919 702.667 265.151C700.929 264.342 699.594 263.251 698.665 261.876C697.735 260.461 697.27 258.844 697.27 257.025C697.27 255.367 697.654 253.871 698.422 252.537C699.231 251.162 700.524 250.071 702.303 249.262C704.123 248.413 706.548 247.989 709.581 247.989H720.557V251.203H709.702C706.629 251.203 704.486 251.749 703.274 252.84C702.101 253.932 701.515 255.286 701.515 256.903C701.515 258.723 702.222 260.178 703.637 261.27C705.052 262.361 707.033 262.907 709.581 262.907C712.006 262.907 714.088 262.361 715.827 261.27C717.606 260.138 718.899 258.521 719.708 256.418L720.678 259.39C719.87 261.492 718.455 263.17 716.433 264.423C714.452 265.677 711.946 266.303 708.913 266.303ZM751.961 233.859C754.549 233.859 756.813 234.364 758.753 235.375C760.734 236.345 762.271 237.841 763.362 239.862C764.494 241.884 765.06 244.431 765.06 247.504V266H760.754V247.928C760.754 244.572 759.905 242.046 758.207 240.348C756.55 238.609 754.205 237.74 751.173 237.74C748.909 237.74 746.928 238.205 745.23 239.135C743.572 240.024 742.278 241.338 741.348 243.077C740.459 244.775 740.014 246.837 740.014 249.262V266H735.709V234.162H739.832V242.895L739.165 241.257C740.176 238.953 741.793 237.154 744.017 235.86C746.24 234.526 748.888 233.859 751.961 233.859ZM777.115 266.303C776.226 266.303 775.457 265.98 774.811 265.333C774.204 264.686 773.901 263.898 773.901 262.968C773.901 261.998 774.204 261.209 774.811 260.603C775.457 259.996 776.226 259.693 777.115 259.693C778.004 259.693 778.752 259.996 779.359 260.603C780.006 261.209 780.329 261.998 780.329 262.968C780.329 263.898 780.006 264.686 779.359 265.333C778.752 265.98 778.004 266.303 777.115 266.303Z" fill="#F85DCD"/>
</svg>
