<svg width="1541" height="340" viewBox="0 0 1541 340" fill="none" xmlns="http://www.w3.org/2000/svg">
<rect x="3" y="3" width="1535" height="334" rx="14" fill="#FCFCFC" stroke="#C3A7FF" stroke-width="6"/>
<path d="M161.919 231.936C154.067 231.936 146.268 230.914 138.523 228.871C130.779 226.719 124.217 223.707 118.839 219.835L129.004 199.827C133.306 202.947 138.308 205.421 144.009 207.249C149.71 209.078 155.465 209.992 161.274 209.992C167.836 209.992 172.999 208.702 176.764 206.12C180.529 203.538 182.411 199.989 182.411 195.471C182.411 191.168 180.744 187.78 177.409 185.306C174.075 182.832 168.696 181.595 161.274 181.595H149.334V164.33L180.797 128.671L183.702 138.03H124.486V117.054H203.548V133.996L172.246 169.655L159.015 162.071H166.599C180.475 162.071 190.963 165.191 198.062 171.43C205.162 177.668 208.711 185.682 208.711 195.471C208.711 201.817 207.044 207.787 203.709 213.381C200.375 218.867 195.265 223.331 188.381 226.773C181.497 230.215 172.676 231.936 161.919 231.936Z" fill="#E4A355"/>
<path d="M347.916 96.1075H370.354V99.9888H347.916V96.1075ZM348.401 118H343.913V75.5493H373.022V79.4305H348.401V118ZM381.38 118V86.1619H385.686V118H381.38ZM383.563 79.1273C382.674 79.1273 381.926 78.824 381.319 78.2176C380.713 77.6112 380.41 76.8834 380.41 76.0344C380.41 75.1854 380.713 74.4779 381.319 73.9119C381.926 73.3054 382.674 73.0022 383.563 73.0022C384.453 73.0022 385.201 73.2852 385.807 73.8512C386.413 74.4172 386.717 75.1248 386.717 75.9738C386.717 76.8632 386.413 77.6112 385.807 78.2176C385.241 78.824 384.493 79.1273 383.563 79.1273ZM397.666 118V73.0022H401.972V118H397.666ZM427.476 118.303C424.161 118.303 421.25 117.616 418.743 116.241C416.237 114.826 414.276 112.906 412.861 110.48C411.446 108.014 410.738 105.204 410.738 102.051C410.738 98.8972 411.405 96.1076 412.739 93.6818C414.114 91.256 415.974 89.3559 418.319 87.9813C420.704 86.5662 423.372 85.8587 426.324 85.8587C429.315 85.8587 431.964 86.546 434.268 87.9206C436.613 89.2548 438.453 91.155 439.787 93.6212C441.121 96.0469 441.788 98.8567 441.788 102.051C441.788 102.253 441.768 102.475 441.727 102.718C441.727 102.92 441.727 103.142 441.727 103.385H414.013V100.171H439.423L437.725 101.444C437.725 99.1397 437.219 97.0981 436.209 95.3192C435.238 93.4999 433.904 92.0848 432.206 91.0741C430.508 90.0634 428.547 89.558 426.324 89.558C424.141 89.558 422.18 90.0634 420.441 91.0741C418.703 92.0848 417.348 93.4999 416.378 95.3192C415.408 97.1385 414.923 99.2206 414.923 101.566V102.233C414.923 104.658 415.448 106.801 416.499 108.661C417.591 110.48 419.087 111.915 420.987 112.967C422.928 113.977 425.131 114.483 427.597 114.483C429.538 114.483 431.337 114.139 432.995 113.452C434.693 112.764 436.148 111.713 437.361 110.298L439.787 113.088C438.372 114.786 436.593 116.08 434.45 116.969C432.348 117.858 430.023 118.303 427.476 118.303ZM495.166 118V110.965L494.984 109.813V98.0482C494.984 95.3394 494.216 93.2573 492.679 91.8018C491.184 90.3464 488.94 89.6187 485.948 89.6187C483.886 89.6187 481.925 89.9623 480.065 90.6496C478.206 91.3369 476.629 92.2466 475.335 93.3786L473.395 90.1644C475.012 88.7899 476.952 87.7387 479.216 87.011C481.481 86.2428 483.866 85.8587 486.372 85.8587C490.496 85.8587 493.67 86.8897 495.894 88.9516C498.158 90.973 499.29 94.0659 499.29 98.2301V118H495.166ZM484.189 118.303C481.804 118.303 479.722 117.919 477.943 117.151C476.204 116.342 474.87 115.251 473.94 113.876C473.011 112.461 472.546 110.844 472.546 109.025C472.546 107.367 472.93 105.871 473.698 104.537C474.506 103.162 475.8 102.071 477.579 101.262C479.398 100.413 481.824 99.9888 484.856 99.9888H495.833V103.203H484.978C481.905 103.203 479.762 103.749 478.549 104.84C477.377 105.932 476.791 107.286 476.791 108.903C476.791 110.723 477.498 112.178 478.913 113.27C480.328 114.361 482.309 114.907 484.856 114.907C487.282 114.907 489.364 114.361 491.103 113.27C492.882 112.138 494.175 110.521 494.984 108.418L495.954 111.39C495.146 113.492 493.731 115.17 491.709 116.423C489.728 117.677 487.221 118.303 484.189 118.303ZM524.144 118.303C521.435 118.303 519.07 117.798 517.049 116.787C515.027 115.776 513.451 114.26 512.319 112.239C511.227 110.217 510.681 107.691 510.681 104.658V86.1619H514.987V104.173C514.987 107.569 515.816 110.137 517.473 111.875C519.171 113.573 521.536 114.422 524.569 114.422C526.792 114.422 528.713 113.977 530.33 113.088C531.987 112.158 533.241 110.824 534.09 109.085C534.979 107.347 535.424 105.265 535.424 102.839V86.1619H539.73V118H535.606V109.267L536.273 110.844C535.262 113.189 533.685 115.028 531.543 116.363C529.44 117.656 526.974 118.303 524.144 118.303ZM564.404 118.303C561.372 118.303 558.643 117.616 556.217 116.241C553.832 114.867 551.952 112.967 550.577 110.541C549.203 108.075 548.515 105.245 548.515 102.051C548.515 98.8163 549.203 95.9863 550.577 93.5605C551.952 91.1347 553.832 89.2548 556.217 87.9206C558.643 86.546 561.372 85.8587 564.404 85.8587C567.194 85.8587 569.68 86.4854 571.863 87.7387C574.087 88.992 575.846 90.8315 577.139 93.2573C578.473 95.6426 579.141 98.5737 579.141 102.051C579.141 105.487 578.494 108.418 577.2 110.844C575.906 113.27 574.148 115.13 571.924 116.423C569.741 117.677 567.234 118.303 564.404 118.303ZM564.707 114.483C566.971 114.483 568.993 113.977 570.772 112.967C572.591 111.915 574.006 110.46 575.017 108.6C576.068 106.7 576.594 104.517 576.594 102.051C576.594 99.544 576.068 97.3609 575.017 95.5011C574.006 93.6414 572.591 92.2061 570.772 91.1954C568.993 90.1442 566.971 89.6187 564.707 89.6187C562.484 89.6187 560.482 90.1442 558.704 91.1954C556.925 92.2061 555.51 93.6414 554.458 95.5011C553.407 97.3609 552.882 99.544 552.882 102.051C552.882 104.517 553.407 106.7 554.458 108.6C555.51 110.46 556.925 111.915 558.704 112.967C560.482 113.977 562.484 114.483 564.707 114.483ZM576.715 118V108.418L577.139 101.99L576.533 95.5618V73.0022H580.839V118H576.715ZM592.83 118V86.1619H597.136V118H592.83ZM595.013 79.1273C594.124 79.1273 593.376 78.824 592.769 78.2176C592.163 77.6112 591.86 76.8834 591.86 76.0344C591.86 75.1854 592.163 74.4779 592.769 73.9119C593.376 73.3054 594.124 73.0022 595.013 73.0022C595.903 73.0022 596.651 73.2852 597.257 73.8512C597.863 74.4172 598.167 75.1248 598.167 75.9738C598.167 76.8632 597.863 77.6112 597.257 78.2176C596.691 78.824 595.943 79.1273 595.013 79.1273ZM622.094 118.303C619.021 118.303 616.252 117.616 613.786 116.241C611.36 114.826 609.44 112.906 608.025 110.48C606.61 108.014 605.902 105.204 605.902 102.051C605.902 98.8567 606.61 96.0469 608.025 93.6212C609.44 91.1954 611.36 89.2952 613.786 87.9206C616.212 86.546 618.981 85.8587 622.094 85.8587C625.247 85.8587 628.037 86.546 630.463 87.9206C632.929 89.2952 634.849 91.1954 636.224 93.6212C637.639 96.0469 638.347 98.8567 638.347 102.051C638.347 105.204 637.639 108.014 636.224 110.48C634.849 112.906 632.929 114.826 630.463 116.241C627.997 117.616 625.207 118.303 622.094 118.303ZM622.094 114.483C624.398 114.483 626.44 113.977 628.219 112.967C629.998 111.915 631.393 110.46 632.403 108.6C633.455 106.7 633.98 104.517 633.98 102.051C633.98 99.544 633.455 97.3609 632.403 95.5011C631.393 93.6414 629.998 92.2061 628.219 91.1954C626.44 90.1442 624.419 89.6187 622.155 89.6187C619.891 89.6187 617.869 90.1442 616.09 91.1954C614.311 92.2061 612.896 93.6414 611.845 95.5011C610.794 97.3609 610.268 99.544 610.268 102.051C610.268 104.517 610.794 106.7 611.845 108.6C612.896 110.46 614.311 111.915 616.09 112.967C617.869 113.977 619.87 114.483 622.094 114.483ZM672.042 130.068C670.546 130.068 669.111 129.826 667.736 129.34C666.402 128.855 665.25 128.128 664.279 127.157L666.281 123.943C667.089 124.711 667.958 125.297 668.888 125.702C669.858 126.146 670.93 126.369 672.102 126.369C673.517 126.369 674.73 125.965 675.741 125.156C676.792 124.388 677.783 123.013 678.713 121.032L680.774 116.363L681.26 115.696L694.359 86.1619H698.604L682.654 121.821C681.765 123.882 680.774 125.52 679.683 126.733C678.632 127.946 677.479 128.795 676.226 129.28C674.973 129.805 673.578 130.068 672.042 130.068ZM680.532 118.91L665.856 86.1619H670.344L683.321 115.392L680.532 118.91ZM723.672 118V110.965L723.49 109.813V98.0482C723.49 95.3394 722.722 93.2573 721.186 91.8018C719.69 90.3464 717.446 89.6187 714.454 89.6187C712.392 89.6187 710.431 89.9623 708.572 90.6496C706.712 91.3369 705.135 92.2466 703.841 93.3786L701.901 90.1644C703.518 88.7899 705.459 87.7387 707.723 87.011C709.987 86.2428 712.372 85.8587 714.879 85.8587C719.002 85.8587 722.176 86.8897 724.4 88.9516C726.664 90.973 727.796 94.0659 727.796 98.2301V118H723.672ZM712.695 118.303C710.31 118.303 708.228 117.919 706.449 117.151C704.711 116.342 703.376 115.251 702.447 113.876C701.517 112.461 701.052 110.844 701.052 109.025C701.052 107.367 701.436 105.871 702.204 104.537C703.013 103.162 704.306 102.071 706.085 101.262C707.904 100.413 710.33 99.9888 713.362 99.9888H724.339V103.203H713.484C710.411 103.203 708.268 103.749 707.055 104.84C705.883 105.932 705.297 107.286 705.297 108.903C705.297 110.723 706.004 112.178 707.419 113.27C708.834 114.361 710.815 114.907 713.362 114.907C715.788 114.907 717.87 114.361 719.609 113.27C721.388 112.138 722.681 110.521 723.49 108.418L724.46 111.39C723.652 113.492 722.237 115.17 720.215 116.423C718.234 117.677 715.728 118.303 712.695 118.303ZM755.743 85.8587C758.331 85.8587 760.595 86.3641 762.535 87.3748C764.516 88.3451 766.053 89.841 767.144 91.8625C768.276 93.8839 768.842 96.431 768.842 99.5036V118H764.536V99.9281C764.536 96.5725 763.687 94.0457 761.989 92.3476C760.332 90.6092 757.987 89.7399 754.955 89.7399C752.691 89.7399 750.71 90.2049 749.012 91.1348C747.354 92.0242 746.06 93.3381 745.13 95.0766C744.241 96.7746 743.796 98.8365 743.796 101.262V118H739.491V86.1619H743.614V94.8947L742.947 93.2573C743.958 90.9528 745.575 89.1537 747.799 87.86C750.022 86.5258 752.67 85.8587 755.743 85.8587ZM794.057 130.068C791.146 130.068 788.356 129.644 785.688 128.795C783.02 127.946 780.857 126.733 779.199 125.156L781.382 121.881C782.878 123.215 784.718 124.267 786.901 125.035C789.124 125.843 791.469 126.248 793.935 126.248C797.978 126.248 800.95 125.297 802.85 123.397C804.75 121.538 805.7 118.627 805.7 114.665V106.72L806.307 101.262L805.882 95.8043V86.1619H810.006V114.119C810.006 119.617 808.652 123.64 805.943 126.187C803.275 128.774 799.313 130.068 794.057 130.068ZM793.268 116.787C790.236 116.787 787.507 116.14 785.081 114.847C782.656 113.512 780.735 111.673 779.32 109.328C777.946 106.983 777.258 104.294 777.258 101.262C777.258 98.2301 777.946 95.5618 779.32 93.2573C780.735 90.9124 782.656 89.0931 785.081 87.7993C787.507 86.5056 790.236 85.8587 793.268 85.8587C796.098 85.8587 798.645 86.445 800.909 87.6174C803.174 88.7899 804.973 90.5283 806.307 92.8328C807.641 95.1372 808.308 97.9471 808.308 101.262C808.308 104.577 807.641 107.387 806.307 109.692C804.973 111.996 803.174 113.755 800.909 114.968C798.645 116.181 796.098 116.787 793.268 116.787ZM793.693 112.967C796.038 112.967 798.12 112.481 799.939 111.511C801.759 110.5 803.194 109.126 804.245 107.387C805.296 105.608 805.822 103.567 805.822 101.262C805.822 98.9578 805.296 96.9364 804.245 95.1979C803.194 93.4594 801.759 92.1051 799.939 91.1348C798.12 90.124 796.038 89.6187 793.693 89.6187C791.388 89.6187 789.306 90.124 787.447 91.1348C785.627 92.1051 784.192 93.4594 783.141 95.1979C782.13 96.9364 781.625 98.9578 781.625 101.262C781.625 103.567 782.13 105.608 783.141 107.387C784.192 109.126 785.627 110.5 787.447 111.511C789.306 112.481 791.388 112.967 793.693 112.967ZM859.324 118.303C856.292 118.303 853.563 117.616 851.137 116.241C848.752 114.867 846.872 112.967 845.497 110.541C844.123 108.075 843.435 105.245 843.435 102.051C843.435 98.8163 844.123 95.9863 845.497 93.5605C846.872 91.1347 848.752 89.2548 851.137 87.9206C853.563 86.546 856.292 85.8587 859.324 85.8587C862.114 85.8587 864.6 86.4854 866.783 87.7387C869.007 88.992 870.766 90.8315 872.059 93.2573C873.394 95.6426 874.061 98.5737 874.061 102.051C874.061 105.487 873.414 108.418 872.12 110.844C870.826 113.27 869.068 115.13 866.844 116.423C864.661 117.677 862.154 118.303 859.324 118.303ZM859.627 114.483C861.891 114.483 863.913 113.977 865.692 112.967C867.511 111.915 868.926 110.46 869.937 108.6C870.988 106.7 871.514 104.517 871.514 102.051C871.514 99.544 870.988 97.3609 869.937 95.5011C868.926 93.6414 867.511 92.2061 865.692 91.1954C863.913 90.1442 861.891 89.6187 859.627 89.6187C857.404 89.6187 855.402 90.1442 853.624 91.1954C851.845 92.2061 850.43 93.6414 849.379 95.5011C848.327 97.3609 847.802 99.544 847.802 102.051C847.802 104.517 848.327 106.7 849.379 108.6C850.43 110.46 851.845 111.915 853.624 112.967C855.402 113.977 857.404 114.483 859.627 114.483ZM871.635 118V108.418L872.059 101.99L871.453 95.5618V73.0022H875.759V118H871.635ZM887.75 118V86.1619H892.056V118H887.75ZM889.933 79.1273C889.044 79.1273 888.296 78.824 887.689 78.2176C887.083 77.6112 886.78 76.8834 886.78 76.0344C886.78 75.1854 887.083 74.4779 887.689 73.9119C888.296 73.3054 889.044 73.0022 889.933 73.0022C890.823 73.0022 891.571 73.2852 892.177 73.8512C892.783 74.4172 893.087 75.1248 893.087 75.9738C893.087 76.8632 892.783 77.6112 892.177 78.2176C891.611 78.824 890.863 79.1273 889.933 79.1273ZM907.432 109.752L907.554 104.234L927.384 86.1619H932.66L918.651 99.5643L916.226 101.626L907.432 109.752ZM904.036 118V73.0022H908.342V118H904.036ZM928.718 118L915.437 101.444L918.227 98.1088L933.994 118H928.718ZM940.458 118V86.1619H944.764V118H940.458ZM942.641 79.1273C941.752 79.1273 941.004 78.824 940.397 78.2176C939.791 77.6112 939.488 76.8834 939.488 76.0344C939.488 75.1854 939.791 74.4779 940.397 73.9119C941.004 73.3054 941.752 73.0022 942.641 73.0022C943.531 73.0022 944.279 73.2852 944.885 73.8512C945.492 74.4172 945.795 75.1248 945.795 75.9738C945.795 76.8632 945.492 77.6112 944.885 78.2176C944.319 78.824 943.571 79.1273 942.641 79.1273ZM956.744 118V86.1619H960.868V94.834L960.444 93.3179C961.333 90.8922 962.829 89.0526 964.931 87.7993C967.034 86.5056 969.641 85.8587 972.754 85.8587V90.0432C972.593 90.0432 972.431 90.0432 972.269 90.0432C972.107 90.0027 971.946 89.9825 971.784 89.9825C968.428 89.9825 965.8 91.0135 963.9 93.0754C962 95.0968 961.05 97.9875 961.05 101.747V118H956.744ZM980.611 118V86.1619H984.917V118H980.611ZM982.794 79.1273C981.905 79.1273 981.157 78.824 980.55 78.2176C979.944 77.6112 979.641 76.8834 979.641 76.0344C979.641 75.1854 979.944 74.4779 980.55 73.9119C981.157 73.3054 981.905 73.0022 982.794 73.0022C983.684 73.0022 984.432 73.2852 985.038 73.8512C985.644 74.4172 985.948 75.1248 985.948 75.9738C985.948 76.8632 985.644 77.6112 985.038 78.2176C984.472 78.824 983.724 79.1273 982.794 79.1273ZM1036.68 85.8587C1039.27 85.8587 1041.51 86.3641 1043.41 87.3748C1045.35 88.3451 1046.85 89.841 1047.9 91.8625C1048.99 93.8839 1049.54 96.431 1049.54 99.5036V118H1045.23V99.9281C1045.23 96.5725 1044.42 94.0457 1042.8 92.3476C1041.23 90.6092 1038.98 89.7399 1036.07 89.7399C1033.89 89.7399 1031.99 90.2049 1030.37 91.1348C1028.8 92.0242 1027.56 93.3381 1026.67 95.0766C1025.82 96.7746 1025.4 98.8365 1025.4 101.262V118H1021.09V99.9281C1021.09 96.5725 1020.29 94.0457 1018.67 92.3476C1017.05 90.6092 1014.79 89.7399 1011.88 89.7399C1009.73 89.7399 1007.85 90.2049 1006.24 91.1348C1004.62 92.0242 1003.37 93.3381 1002.48 95.0766C1001.63 96.7746 1001.2 98.8365 1001.2 101.262V118H996.897V86.1619H1001.02V94.7734L1000.35 93.2573C1001.32 90.9528 1002.88 89.1537 1005.02 87.86C1007.21 86.5258 1009.77 85.8587 1012.73 85.8587C1015.84 85.8587 1018.49 86.6471 1020.67 88.2238C1022.85 89.7602 1024.27 92.0848 1024.91 95.1979L1023.22 94.5308C1024.15 91.9433 1025.78 89.8612 1028.13 88.2845C1030.51 86.6673 1033.36 85.8587 1036.68 85.8587ZM1064.61 109.752L1064.73 104.234L1084.56 86.1619H1089.84L1075.83 99.5643L1073.4 101.626L1064.61 109.752ZM1061.21 118V73.0022H1065.52V118H1061.21ZM1085.89 118L1072.61 101.444L1075.4 98.1088L1091.17 118H1085.89ZM1116.99 118V110.965L1116.81 109.813V98.0482C1116.81 95.3394 1116.04 93.2573 1114.51 91.8018C1113.01 90.3464 1110.77 89.6187 1107.78 89.6187C1105.71 89.6187 1103.75 89.9623 1101.89 90.6496C1100.03 91.3369 1098.46 92.2466 1097.16 93.3786L1095.22 90.1644C1096.84 88.7899 1098.78 87.7387 1101.05 87.011C1103.31 86.2428 1105.69 85.8587 1108.2 85.8587C1112.32 85.8587 1115.5 86.8897 1117.72 88.9516C1119.99 90.973 1121.12 94.0659 1121.12 98.2301V118H1116.99ZM1106.02 118.303C1103.63 118.303 1101.55 117.919 1099.77 117.151C1098.03 116.342 1096.7 115.251 1095.77 113.876C1094.84 112.461 1094.37 110.844 1094.37 109.025C1094.37 107.367 1094.76 105.871 1095.53 104.537C1096.34 103.162 1097.63 102.071 1099.41 101.262C1101.23 100.413 1103.65 99.9888 1106.68 99.9888H1117.66V103.203H1106.81C1103.73 103.203 1101.59 103.749 1100.38 104.84C1099.21 105.932 1098.62 107.286 1098.62 108.903C1098.62 110.723 1099.33 112.178 1100.74 113.27C1102.16 114.361 1104.14 114.907 1106.68 114.907C1109.11 114.907 1111.19 114.361 1112.93 113.27C1114.71 112.138 1116 110.521 1116.81 108.418L1117.78 111.39C1116.97 113.492 1115.56 115.17 1113.54 116.423C1111.56 117.677 1109.05 118.303 1106.02 118.303ZM1149.07 85.8587C1151.65 85.8587 1153.92 86.3641 1155.86 87.3748C1157.84 88.3451 1159.38 89.841 1160.47 91.8625C1161.6 93.8839 1162.16 96.431 1162.16 99.5036V118H1157.86V99.9281C1157.86 96.5725 1157.01 94.0457 1155.31 92.3476C1153.65 90.6092 1151.31 89.7399 1148.28 89.7399C1146.01 89.7399 1144.03 90.2049 1142.33 91.1348C1140.68 92.0242 1139.38 93.3381 1138.45 95.0766C1137.56 96.7746 1137.12 98.8365 1137.12 101.262V118H1132.81V86.1619H1136.94V94.8947L1136.27 93.2573C1137.28 90.9528 1138.9 89.1537 1141.12 87.86C1143.34 86.5258 1145.99 85.8587 1149.07 85.8587ZM1214.89 118.303C1212.14 118.303 1209.66 117.677 1207.43 116.423C1205.21 115.13 1203.43 113.29 1202.1 110.905C1200.8 108.479 1200.16 105.528 1200.16 102.051C1200.16 98.5737 1200.8 95.6426 1202.1 93.2573C1203.39 90.8315 1205.15 88.992 1207.37 87.7387C1209.6 86.4854 1212.1 85.8587 1214.89 85.8587C1217.92 85.8587 1220.63 86.546 1223.02 87.9206C1225.44 89.2548 1227.34 91.155 1228.72 93.6212C1230.09 96.0469 1230.78 98.8567 1230.78 102.051C1230.78 105.285 1230.09 108.115 1228.72 110.541C1227.34 112.967 1225.44 114.867 1223.02 116.241C1220.63 117.616 1217.92 118.303 1214.89 118.303ZM1198.46 129.765V86.1619H1202.58V95.7437L1202.16 102.111L1202.76 108.54V129.765H1198.46ZM1214.59 114.483C1216.85 114.483 1218.87 113.977 1220.65 112.967C1222.43 111.915 1223.85 110.46 1224.9 108.6C1225.95 106.7 1226.47 104.517 1226.47 102.051C1226.47 99.5845 1225.95 97.4215 1224.9 95.5618C1223.85 93.702 1222.43 92.2466 1220.65 91.1954C1218.87 90.1442 1216.85 89.6187 1214.59 89.6187C1212.32 89.6187 1210.28 90.1442 1208.46 91.1954C1206.68 92.2466 1205.27 93.702 1204.22 95.5618C1203.21 97.4215 1202.7 99.5845 1202.7 102.051C1202.7 104.517 1203.21 106.7 1204.22 108.6C1205.27 110.46 1206.68 111.915 1208.46 112.967C1210.28 113.977 1212.32 114.483 1214.59 114.483ZM1253.08 118.303C1249.77 118.303 1246.86 117.616 1244.35 116.241C1241.84 114.826 1239.88 112.906 1238.47 110.48C1237.05 108.014 1236.34 105.204 1236.34 102.051C1236.34 98.8972 1237.01 96.1076 1238.34 93.6818C1239.72 91.256 1241.58 89.3559 1243.92 87.9813C1246.31 86.5662 1248.98 85.8587 1251.93 85.8587C1254.92 85.8587 1257.57 86.546 1259.87 87.9206C1262.22 89.2548 1264.06 91.155 1265.39 93.6212C1266.73 96.0469 1267.39 98.8567 1267.39 102.051C1267.39 102.253 1267.37 102.475 1267.33 102.718C1267.33 102.92 1267.33 103.142 1267.33 103.385H1239.62V100.171H1265.03L1263.33 101.444C1263.33 99.1397 1262.82 97.0981 1261.81 95.3192C1260.84 93.4999 1259.51 92.0848 1257.81 91.0741C1256.11 90.0634 1254.15 89.558 1251.93 89.558C1249.75 89.558 1247.78 90.0634 1246.05 91.0741C1244.31 92.0848 1242.95 93.4999 1241.98 95.3192C1241.01 97.1385 1240.53 99.2206 1240.53 101.566V102.233C1240.53 104.658 1241.05 106.801 1242.1 108.661C1243.2 110.48 1244.69 111.915 1246.59 112.967C1248.53 113.977 1250.74 114.483 1253.2 114.483C1255.14 114.483 1256.94 114.139 1258.6 113.452C1260.3 112.764 1261.75 111.713 1262.97 110.298L1265.39 113.088C1263.98 114.786 1262.2 116.08 1260.06 116.969C1257.95 117.858 1255.63 118.303 1253.08 118.303ZM1284.71 118.303C1282.08 118.303 1279.59 117.939 1277.25 117.212C1274.9 116.443 1273.06 115.493 1271.73 114.361L1273.67 110.965C1274.96 111.936 1276.62 112.785 1278.64 113.512C1280.66 114.2 1282.79 114.543 1285.01 114.543C1288.04 114.543 1290.23 114.078 1291.56 113.148C1292.89 112.178 1293.56 110.905 1293.56 109.328C1293.56 108.155 1293.18 107.246 1292.41 106.599C1291.68 105.912 1290.71 105.406 1289.5 105.083C1288.29 104.719 1286.93 104.416 1285.44 104.173C1283.94 103.931 1282.44 103.648 1280.95 103.324C1279.49 103.001 1278.16 102.536 1276.95 101.929C1275.73 101.282 1274.74 100.413 1273.97 99.3217C1273.25 98.2301 1272.88 96.7746 1272.88 94.9553C1272.88 93.2169 1273.37 91.6603 1274.34 90.2857C1275.31 88.9111 1276.72 87.8398 1278.58 87.0716C1280.48 86.263 1282.79 85.8587 1285.5 85.8587C1287.56 85.8587 1289.62 86.1417 1291.68 86.7077C1293.74 87.2333 1295.44 87.9408 1296.78 88.8303L1294.9 92.287C1293.48 91.3167 1291.96 90.6294 1290.35 90.2251C1288.73 89.7804 1287.11 89.558 1285.5 89.558C1282.63 89.558 1280.5 90.0634 1279.13 91.0741C1277.79 92.0444 1277.13 93.2977 1277.13 94.834C1277.13 96.0469 1277.49 96.997 1278.22 97.6843C1278.99 98.3716 1279.98 98.9174 1281.19 99.3217C1282.44 99.6855 1283.8 99.9888 1285.25 100.231C1286.75 100.474 1288.23 100.777 1289.68 101.141C1291.18 101.464 1292.53 101.929 1293.74 102.536C1295 103.102 1295.99 103.931 1296.72 105.022C1297.48 106.073 1297.87 107.468 1297.87 109.207C1297.87 111.066 1297.34 112.684 1296.29 114.058C1295.28 115.392 1293.78 116.443 1291.8 117.212C1289.86 117.939 1287.5 118.303 1284.71 118.303ZM1319.29 118.303C1315.98 118.303 1313.07 117.616 1310.56 116.241C1308.05 114.826 1306.09 112.906 1304.68 110.48C1303.26 108.014 1302.55 105.204 1302.55 102.051C1302.55 98.8972 1303.22 96.1076 1304.56 93.6818C1305.93 91.256 1307.79 89.3559 1310.13 87.9813C1312.52 86.5662 1315.19 85.8587 1318.14 85.8587C1321.13 85.8587 1323.78 86.546 1326.08 87.9206C1328.43 89.2548 1330.27 91.155 1331.6 93.6212C1332.94 96.0469 1333.6 98.8567 1333.6 102.051C1333.6 102.253 1333.58 102.475 1333.54 102.718C1333.54 102.92 1333.54 103.142 1333.54 103.385H1305.83V100.171H1331.24L1329.54 101.444C1329.54 99.1397 1329.04 97.0981 1328.02 95.3192C1327.05 93.4999 1325.72 92.0848 1324.02 91.0741C1322.32 90.0634 1320.36 89.558 1318.14 89.558C1315.96 89.558 1314 90.0634 1312.26 91.0741C1310.52 92.0848 1309.16 93.4999 1308.19 95.3192C1307.22 97.1385 1306.74 99.2206 1306.74 101.566V102.233C1306.74 104.658 1307.26 106.801 1308.32 108.661C1309.41 110.48 1310.9 111.915 1312.8 112.967C1314.74 113.977 1316.95 114.483 1319.41 114.483C1321.35 114.483 1323.15 114.139 1324.81 113.452C1326.51 112.764 1327.96 111.713 1329.18 110.298L1331.6 113.088C1330.19 114.786 1328.41 116.08 1326.27 116.969C1324.16 117.858 1321.84 118.303 1319.29 118.303ZM1342.37 118V86.1619H1346.49V94.834L1346.07 93.3179C1346.96 90.8922 1348.45 89.0526 1350.55 87.7993C1352.66 86.5056 1355.26 85.8587 1358.38 85.8587V90.0432C1358.22 90.0432 1358.05 90.0432 1357.89 90.0432C1357.73 90.0027 1357.57 89.9825 1357.41 89.9825C1354.05 89.9825 1351.42 91.0135 1349.52 93.0754C1347.62 95.0968 1346.67 97.9875 1346.67 101.747V118H1342.37ZM1377.66 118.303C1374.67 118.303 1372.37 117.495 1370.75 115.877C1369.13 114.26 1368.32 111.976 1368.32 109.025V79.1273H1372.63V108.782C1372.63 110.642 1373.1 112.077 1374.03 113.088C1375 114.099 1376.37 114.604 1378.15 114.604C1380.05 114.604 1381.63 114.058 1382.88 112.967L1384.4 116.059C1383.55 116.828 1382.52 117.394 1381.3 117.757C1380.13 118.121 1378.92 118.303 1377.66 118.303ZM1362.62 89.7399V86.1619H1382.33V89.7399H1362.62ZM1412.19 118V110.965L1412 109.813V98.0482C1412 95.3394 1411.23 93.2573 1409.7 91.8018C1408.2 90.3464 1405.96 89.6187 1402.97 89.6187C1400.91 89.6187 1398.94 89.9623 1397.08 90.6496C1395.23 91.3369 1393.65 92.2466 1392.35 93.3786L1390.41 90.1644C1392.03 88.7899 1393.97 87.7387 1396.24 87.011C1398.5 86.2428 1400.89 85.8587 1403.39 85.8587C1407.52 85.8587 1410.69 86.8897 1412.91 88.9516C1415.18 90.973 1416.31 94.0659 1416.31 98.2301V118H1412.19ZM1401.21 118.303C1398.82 118.303 1396.74 117.919 1394.96 117.151C1393.22 116.342 1391.89 115.251 1390.96 113.876C1390.03 112.461 1389.56 110.844 1389.56 109.025C1389.56 107.367 1389.95 105.871 1390.72 104.537C1391.53 103.162 1392.82 102.071 1394.6 101.262C1396.42 100.413 1398.84 99.9888 1401.88 99.9888H1412.85V103.203H1402C1398.92 103.203 1396.78 103.749 1395.57 104.84C1394.4 105.932 1393.81 107.286 1393.81 108.903C1393.81 110.723 1394.52 112.178 1395.93 113.27C1397.35 114.361 1399.33 114.907 1401.88 114.907C1404.3 114.907 1406.38 114.361 1408.12 113.27C1409.9 112.138 1411.19 110.521 1412 108.418L1412.97 111.39C1412.16 113.492 1410.75 115.17 1408.73 116.423C1406.75 117.677 1404.24 118.303 1401.21 118.303ZM359.256 159.859C361.844 159.859 364.108 160.364 366.048 161.375C368.029 162.345 369.566 163.841 370.657 165.862C371.789 167.884 372.355 170.431 372.355 173.504V192H368.05V173.928C368.05 170.572 367.201 168.046 365.503 166.348C363.845 164.609 361.5 163.74 358.468 163.74C356.204 163.74 354.223 164.205 352.525 165.135C350.867 166.024 349.574 167.338 348.644 169.077C347.754 170.775 347.309 172.837 347.309 175.262V192H343.004V147.002H347.309V168.895L346.46 167.257C347.471 164.953 349.088 163.154 351.312 161.86C353.536 160.526 356.184 159.859 359.256 159.859ZM403.938 192V184.965L403.756 183.813V172.048C403.756 169.339 402.988 167.257 401.451 165.802C399.955 164.346 397.711 163.619 394.72 163.619C392.658 163.619 390.697 163.962 388.837 164.65C386.978 165.337 385.401 166.247 384.107 167.379L382.166 164.164C383.784 162.79 385.724 161.739 387.988 161.011C390.252 160.243 392.638 159.859 395.144 159.859C399.268 159.859 402.442 160.89 404.665 162.952C406.929 164.973 408.061 168.066 408.061 172.23V192H403.938ZM392.961 192.303C390.576 192.303 388.494 191.919 386.715 191.151C384.976 190.342 383.642 189.251 382.712 187.876C381.782 186.461 381.317 184.844 381.317 183.025C381.317 181.367 381.702 179.871 382.47 178.537C383.278 177.162 384.572 176.071 386.351 175.262C388.17 174.413 390.596 173.989 393.628 173.989H404.605V177.203H393.749C390.677 177.203 388.534 177.749 387.321 178.84C386.149 179.932 385.562 181.286 385.562 182.903C385.562 184.723 386.27 186.178 387.685 187.27C389.1 188.361 391.081 188.907 393.628 188.907C396.054 188.907 398.136 188.361 399.874 187.27C401.653 186.138 402.947 184.521 403.756 182.418L404.726 185.39C403.917 187.492 402.502 189.17 400.481 190.423C398.5 191.677 395.993 192.303 392.961 192.303ZM419.756 192V160.162H423.88V168.834L423.455 167.318C424.345 164.892 425.841 163.053 427.943 161.799C430.045 160.506 432.653 159.859 435.766 159.859V164.043C435.604 164.043 435.443 164.043 435.281 164.043C435.119 164.003 434.958 163.983 434.796 163.983C431.44 163.983 428.812 165.013 426.912 167.075C425.012 169.097 424.062 171.988 424.062 175.747V192H419.756ZM457.256 192.303C454.548 192.303 452.183 191.798 450.161 190.787C448.14 189.776 446.563 188.26 445.431 186.239C444.339 184.217 443.793 181.691 443.793 178.658V160.162H448.099V178.173C448.099 181.569 448.928 184.137 450.586 185.875C452.284 187.573 454.649 188.422 457.681 188.422C459.905 188.422 461.825 187.977 463.442 187.088C465.1 186.158 466.353 184.824 467.202 183.085C468.091 181.347 468.536 179.265 468.536 176.839V160.162H472.842V192H468.718V183.267L469.385 184.844C468.374 187.189 466.798 189.028 464.655 190.363C462.553 191.656 460.086 192.303 457.256 192.303ZM493.393 192.303C490.765 192.303 488.278 191.939 485.933 191.212C483.588 190.443 481.749 189.493 480.415 188.361L482.355 184.965C483.649 185.936 485.307 186.785 487.328 187.512C489.35 188.2 491.472 188.543 493.696 188.543C496.728 188.543 498.911 188.078 500.245 187.148C501.579 186.178 502.247 184.905 502.247 183.328C502.247 182.155 501.862 181.246 501.094 180.599C500.367 179.912 499.396 179.406 498.183 179.083C496.971 178.719 495.616 178.416 494.12 178.173C492.624 177.931 491.129 177.648 489.633 177.324C488.177 177.001 486.843 176.536 485.63 175.929C484.417 175.282 483.427 174.413 482.659 173.322C481.931 172.23 481.567 170.775 481.567 168.955C481.567 167.217 482.052 165.66 483.022 164.286C483.993 162.911 485.408 161.84 487.268 161.072C489.168 160.263 491.472 159.859 494.181 159.859C496.243 159.859 498.305 160.142 500.367 160.708C502.429 161.233 504.127 161.941 505.461 162.83L503.581 166.287C502.166 165.317 500.65 164.629 499.032 164.225C497.415 163.78 495.798 163.558 494.181 163.558C491.31 163.558 489.188 164.063 487.813 165.074C486.479 166.044 485.812 167.298 485.812 168.834C485.812 170.047 486.176 170.997 486.904 171.684C487.672 172.372 488.662 172.917 489.875 173.322C491.129 173.686 492.483 173.989 493.938 174.231C495.434 174.474 496.91 174.777 498.365 175.141C499.861 175.464 501.216 175.929 502.429 176.536C503.682 177.102 504.672 177.931 505.4 179.022C506.168 180.073 506.552 181.468 506.552 183.207C506.552 185.066 506.027 186.684 504.976 188.058C503.965 189.392 502.469 190.443 500.488 191.212C498.547 191.939 496.182 192.303 493.393 192.303ZM595.006 159.859C597.594 159.859 599.837 160.364 601.738 161.375C603.678 162.345 605.174 163.841 606.225 165.862C607.317 167.884 607.863 170.431 607.863 173.504V192H603.557V173.928C603.557 170.572 602.748 168.046 601.131 166.348C599.554 164.609 597.311 163.74 594.4 163.74C592.216 163.74 590.316 164.205 588.699 165.135C587.122 166.024 585.889 167.338 585 169.077C584.151 170.775 583.726 172.837 583.726 175.262V192H579.421V173.928C579.421 170.572 578.612 168.046 576.995 166.348C575.378 164.609 573.114 163.74 570.203 163.74C568.06 163.74 566.18 164.205 564.563 165.135C562.946 166.024 561.692 167.338 560.803 169.077C559.954 170.775 559.529 172.837 559.529 175.262V192H555.224V160.162H559.347V168.773L558.68 167.257C559.651 164.953 561.207 163.154 563.35 161.86C565.533 160.526 568.1 159.859 571.052 159.859C574.165 159.859 576.813 160.647 578.996 162.224C581.179 163.76 582.594 166.085 583.241 169.198L581.543 168.531C582.473 165.943 584.11 163.861 586.455 162.284C588.841 160.667 591.691 159.859 595.006 159.859ZM633.063 192.303C629.748 192.303 626.837 191.616 624.33 190.241C621.824 188.826 619.863 186.906 618.448 184.48C617.033 182.014 616.325 179.204 616.325 176.051C616.325 172.897 616.992 170.108 618.326 167.682C619.701 165.256 621.561 163.356 623.906 161.981C626.291 160.566 628.959 159.859 631.911 159.859C634.902 159.859 637.551 160.546 639.855 161.921C642.2 163.255 644.039 165.155 645.374 167.621C646.708 170.047 647.375 172.857 647.375 176.051C647.375 176.253 647.355 176.475 647.314 176.718C647.314 176.92 647.314 177.142 647.314 177.385H619.6V174.171H645.01L643.312 175.444C643.312 173.14 642.806 171.098 641.796 169.319C640.825 167.5 639.491 166.085 637.793 165.074C636.095 164.063 634.134 163.558 631.911 163.558C629.728 163.558 627.767 164.063 626.028 165.074C624.29 166.085 622.935 167.5 621.965 169.319C620.995 171.138 620.51 173.221 620.51 175.566V176.233C620.51 178.658 621.035 180.801 622.086 182.661C623.178 184.48 624.674 185.915 626.574 186.967C628.515 187.977 630.718 188.483 633.184 188.483C635.125 188.483 636.924 188.139 638.582 187.452C640.28 186.764 641.735 185.713 642.948 184.298L645.374 187.088C643.959 188.786 642.18 190.08 640.037 190.969C637.935 191.858 635.61 192.303 633.063 192.303ZM695.921 159.859C698.509 159.859 700.753 160.364 702.653 161.375C704.593 162.345 706.089 163.841 707.14 165.862C708.232 167.884 708.778 170.431 708.778 173.504V192H704.472V173.928C704.472 170.572 703.664 168.046 702.046 166.348C700.47 164.609 698.226 163.74 695.315 163.74C693.132 163.74 691.232 164.205 689.614 165.135C688.038 166.024 686.805 167.338 685.915 169.077C685.066 170.775 684.642 172.837 684.642 175.262V192H680.336V173.928C680.336 170.572 679.527 168.046 677.91 166.348C676.293 164.609 674.029 163.74 671.118 163.74C668.975 163.74 667.095 164.205 665.478 165.135C663.861 166.024 662.608 167.338 661.718 169.077C660.869 170.775 660.445 172.837 660.445 175.262V192H656.139V160.162H660.263V168.773L659.596 167.257C660.566 164.953 662.122 163.154 664.265 161.86C666.448 160.526 669.016 159.859 671.967 159.859C675.08 159.859 677.728 160.647 679.911 162.224C682.094 163.76 683.51 166.085 684.156 169.198L682.458 168.531C683.388 165.943 685.026 163.861 687.371 162.284C689.756 160.667 692.606 159.859 695.921 159.859ZM720.455 192V160.162H724.76V192H720.455ZM722.638 153.127C721.748 153.127 721 152.824 720.394 152.218C719.788 151.611 719.484 150.883 719.484 150.034C719.484 149.185 719.788 148.478 720.394 147.912C721 147.305 721.748 147.002 722.638 147.002C723.527 147.002 724.275 147.285 724.882 147.851C725.488 148.417 725.791 149.125 725.791 149.974C725.791 150.863 725.488 151.611 724.882 152.218C724.316 152.824 723.568 153.127 722.638 153.127ZM736.741 192V147.002H741.047V192H736.741ZM753.027 192V160.162H757.333V192H753.027ZM755.21 153.127C754.321 153.127 753.573 152.824 752.966 152.218C752.36 151.611 752.057 150.883 752.057 150.034C752.057 149.185 752.36 148.478 752.966 147.912C753.573 147.305 754.321 147.002 755.21 147.002C756.1 147.002 756.848 147.285 757.454 147.851C758.06 148.417 758.364 149.125 758.364 149.974C758.364 150.863 758.06 151.611 757.454 152.218C756.888 152.824 756.14 153.127 755.21 153.127ZM772.709 183.752L772.831 178.234L792.661 160.162H797.937L783.928 173.564L781.503 175.626L772.709 183.752ZM769.313 192V147.002H773.619V192H769.313ZM793.995 192L780.714 175.444L783.504 172.109L799.271 192H793.995ZM805.735 192V160.162H810.041V192H805.735ZM807.918 153.127C807.029 153.127 806.281 152.824 805.674 152.218C805.068 151.611 804.765 150.883 804.765 150.034C804.765 149.185 805.068 148.478 805.674 147.912C806.281 147.305 807.029 147.002 807.918 147.002C808.808 147.002 809.556 147.285 810.162 147.851C810.769 148.417 811.072 149.125 811.072 149.974C811.072 150.863 810.769 151.611 810.162 152.218C809.596 152.824 808.848 153.127 807.918 153.127ZM875.466 192.303C872.434 192.303 869.705 191.616 867.28 190.241C864.894 188.867 863.014 186.967 861.64 184.541C860.265 182.075 859.578 179.245 859.578 176.051C859.578 172.816 860.265 169.986 861.64 167.561C863.014 165.135 864.894 163.255 867.28 161.921C869.705 160.546 872.434 159.859 875.466 159.859C878.256 159.859 880.742 160.485 882.926 161.739C885.149 162.992 886.908 164.832 888.202 167.257C889.536 169.643 890.203 172.574 890.203 176.051C890.203 179.487 889.556 182.418 888.262 184.844C886.969 187.27 885.21 189.13 882.986 190.423C880.803 191.677 878.297 192.303 875.466 192.303ZM875.77 188.483C878.034 188.483 880.055 187.977 881.834 186.967C883.653 185.915 885.068 184.46 886.079 182.6C887.13 180.7 887.656 178.517 887.656 176.051C887.656 173.544 887.13 171.361 886.079 169.501C885.068 167.641 883.653 166.206 881.834 165.195C880.055 164.144 878.034 163.619 875.77 163.619C873.546 163.619 871.545 164.144 869.766 165.195C867.987 166.206 866.572 167.641 865.521 169.501C864.47 171.361 863.944 173.544 863.944 176.051C863.944 178.517 864.47 180.7 865.521 182.6C866.572 184.46 867.987 185.915 869.766 186.967C871.545 187.977 873.546 188.483 875.77 188.483ZM887.777 192V182.418L888.202 175.99L887.595 169.562V147.002H891.901V192H887.777ZM917.052 192.303C914.343 192.303 911.978 191.798 909.957 190.787C907.935 189.776 906.359 188.26 905.227 186.239C904.135 184.217 903.589 181.691 903.589 178.658V160.162H907.895V178.173C907.895 181.569 908.724 184.137 910.381 185.875C912.079 187.573 914.444 188.422 917.477 188.422C919.7 188.422 921.621 187.977 923.238 187.088C924.895 186.158 926.149 184.824 926.998 183.085C927.887 181.347 928.332 179.265 928.332 176.839V160.162H932.638V192H928.514V183.267L929.181 184.844C928.17 187.189 926.593 189.028 924.451 190.363C922.348 191.656 919.882 192.303 917.052 192.303ZM944.637 192V160.162H948.761V168.834L948.337 167.318C949.226 164.892 950.722 163.053 952.824 161.799C954.927 160.506 957.534 159.859 960.647 159.859V164.043C960.486 164.043 960.324 164.043 960.162 164.043C960.001 164.003 959.839 163.983 959.677 163.983C956.322 163.983 953.694 165.013 951.793 167.075C949.893 169.097 948.943 171.988 948.943 175.747V192H944.637ZM986.087 192V184.965L985.905 183.813V172.048C985.905 169.339 985.137 167.257 983.601 165.802C982.105 164.346 979.861 163.619 976.869 163.619C974.807 163.619 972.847 163.962 970.987 164.65C969.127 165.337 967.55 166.247 966.257 167.379L964.316 164.164C965.933 162.79 967.874 161.739 970.138 161.011C972.402 160.243 974.787 159.859 977.294 159.859C981.418 159.859 984.591 160.89 986.815 162.952C989.079 164.973 990.211 168.066 990.211 172.23V192H986.087ZM975.111 192.303C972.725 192.303 970.643 191.919 968.864 191.151C967.126 190.342 965.792 189.251 964.862 187.876C963.932 186.461 963.467 184.844 963.467 183.025C963.467 181.367 963.851 179.871 964.619 178.537C965.428 177.162 966.722 176.071 968.5 175.262C970.32 174.413 972.745 173.989 975.778 173.989H986.754V177.203H975.899C972.826 177.203 970.684 177.749 969.471 178.84C968.298 179.932 967.712 181.286 967.712 182.903C967.712 184.723 968.42 186.178 969.835 187.27C971.25 188.361 973.231 188.907 975.778 188.907C978.203 188.907 980.286 188.361 982.024 187.27C983.803 186.138 985.097 184.521 985.905 182.418L986.875 185.39C986.067 187.492 984.652 189.17 982.63 190.423C980.649 191.677 978.143 192.303 975.111 192.303ZM1010.46 192.303C1007.83 192.303 1005.34 191.939 1003 191.212C1000.65 190.443 998.813 189.493 997.479 188.361L999.419 184.965C1000.71 185.936 1002.37 186.785 1004.39 187.512C1006.41 188.2 1008.54 188.543 1010.76 188.543C1013.79 188.543 1015.98 188.078 1017.31 187.148C1018.64 186.178 1019.31 184.905 1019.31 183.328C1019.31 182.155 1018.93 181.246 1018.16 180.599C1017.43 179.912 1016.46 179.406 1015.25 179.083C1014.03 178.719 1012.68 178.416 1011.18 178.173C1009.69 177.931 1008.19 177.648 1006.7 177.324C1005.24 177.001 1003.91 176.536 1002.69 175.929C1001.48 175.282 1000.49 174.413 999.723 173.322C998.995 172.23 998.631 170.775 998.631 168.955C998.631 167.217 999.116 165.66 1000.09 164.286C1001.06 162.911 1002.47 161.84 1004.33 161.072C1006.23 160.263 1008.54 159.859 1011.24 159.859C1013.31 159.859 1015.37 160.142 1017.43 160.708C1019.49 161.233 1021.19 161.941 1022.52 162.83L1020.64 166.287C1019.23 165.317 1017.71 164.629 1016.1 164.225C1014.48 163.78 1012.86 163.558 1011.24 163.558C1008.37 163.558 1006.25 164.063 1004.88 165.074C1003.54 166.044 1002.88 167.298 1002.88 168.834C1002.88 170.047 1003.24 170.997 1003.97 171.684C1004.74 172.372 1005.73 172.917 1006.94 173.322C1008.19 173.686 1009.55 173.989 1011 174.231C1012.5 174.474 1013.97 174.777 1015.43 175.141C1016.93 175.464 1018.28 175.929 1019.49 176.536C1020.75 177.102 1021.74 177.931 1022.46 179.022C1023.23 180.073 1023.62 181.468 1023.62 183.207C1023.62 185.066 1023.09 186.684 1022.04 188.058C1021.03 189.392 1019.53 190.443 1017.55 191.212C1015.61 191.939 1013.25 192.303 1010.46 192.303ZM1031.52 192V160.162H1035.82V192H1031.52ZM1033.7 153.127C1032.81 153.127 1032.06 152.824 1031.46 152.218C1030.85 151.611 1030.55 150.883 1030.55 150.034C1030.55 149.185 1030.85 148.478 1031.46 147.912C1032.06 147.305 1032.81 147.002 1033.7 147.002C1034.59 147.002 1035.34 147.285 1035.94 147.851C1036.55 148.417 1036.85 149.125 1036.85 149.974C1036.85 150.863 1036.55 151.611 1035.94 152.218C1035.38 152.824 1034.63 153.127 1033.7 153.127ZM1128.72 158.888C1131.31 158.888 1133.59 159.414 1135.57 160.465C1137.59 161.476 1139.17 163.053 1140.3 165.195C1141.48 167.298 1142.06 170.006 1142.06 173.322V192H1132.6V174.777C1132.6 172.149 1132.06 170.209 1130.96 168.955C1129.87 167.702 1128.34 167.075 1126.35 167.075C1124.98 167.075 1123.75 167.399 1122.66 168.046C1121.56 168.652 1120.72 169.582 1120.11 170.835C1119.5 172.089 1119.2 173.686 1119.2 175.626V192H1109.74V174.777C1109.74 172.149 1109.19 170.209 1108.1 168.955C1107.05 167.702 1105.53 167.075 1103.55 167.075C1102.18 167.075 1100.95 167.399 1099.85 168.046C1098.76 168.652 1097.91 169.582 1097.31 170.835C1096.7 172.089 1096.4 173.686 1096.4 175.626V192H1086.94V159.374H1095.97V168.288L1094.27 165.681C1095.41 163.457 1097 161.779 1099.07 160.647C1101.17 159.475 1103.55 158.888 1106.22 158.888C1109.21 158.888 1111.82 159.657 1114.04 161.193C1116.31 162.689 1117.8 164.993 1118.53 168.106L1115.2 167.197C1116.29 164.65 1118.03 162.628 1120.41 161.132C1122.84 159.636 1125.61 158.888 1128.72 158.888ZM1150.54 192V159.374H1160V192H1150.54ZM1155.27 154.825C1153.53 154.825 1152.12 154.32 1151.03 153.309C1149.93 152.298 1149.39 151.045 1149.39 149.549C1149.39 148.053 1149.93 146.8 1151.03 145.789C1152.12 144.779 1153.53 144.273 1155.27 144.273C1157.01 144.273 1158.43 144.758 1159.52 145.729C1160.61 146.659 1161.15 147.871 1161.15 149.367C1161.15 150.944 1160.61 152.258 1159.52 153.309C1158.47 154.32 1157.05 154.825 1155.27 154.825ZM1188.61 158.888C1191.2 158.888 1193.5 159.414 1195.53 160.465C1197.59 161.476 1199.21 163.053 1200.38 165.195C1201.55 167.298 1202.14 170.006 1202.14 173.322V192H1192.68V174.777C1192.68 172.149 1192.09 170.209 1190.92 168.955C1189.79 167.702 1188.17 167.075 1186.07 167.075C1184.57 167.075 1183.22 167.399 1182 168.046C1180.83 168.652 1179.9 169.602 1179.21 170.896C1178.57 172.19 1178.24 173.847 1178.24 175.869V192H1168.78V159.374H1177.82V168.41L1176.12 165.681C1177.29 163.497 1178.97 161.82 1181.15 160.647C1183.34 159.475 1185.82 158.888 1188.61 158.888ZM1210.71 192V159.374H1220.17V192H1210.71ZM1215.44 154.825C1213.7 154.825 1212.29 154.32 1211.2 153.309C1210.11 152.298 1209.56 151.045 1209.56 149.549C1209.56 148.053 1210.11 146.8 1211.2 145.789C1212.29 144.779 1213.7 144.273 1215.44 144.273C1217.18 144.273 1218.6 144.758 1219.69 145.729C1220.78 146.659 1221.32 147.871 1221.32 149.367C1221.32 150.944 1220.78 152.258 1219.69 153.309C1218.64 154.32 1217.22 154.825 1215.44 154.825ZM1270.74 158.888C1273.32 158.888 1275.61 159.414 1277.59 160.465C1279.61 161.476 1281.19 163.053 1282.32 165.195C1283.49 167.298 1284.08 170.006 1284.08 173.322V192H1274.62V174.777C1274.62 172.149 1274.07 170.209 1272.98 168.955C1271.89 167.702 1270.35 167.075 1268.37 167.075C1267 167.075 1265.76 167.399 1264.67 168.046C1263.58 168.652 1262.73 169.582 1262.12 170.835C1261.52 172.089 1261.21 173.686 1261.21 175.626V192H1251.75V174.777C1251.75 172.149 1251.21 170.209 1250.12 168.955C1249.07 167.702 1247.55 167.075 1245.57 167.075C1244.19 167.075 1242.96 167.399 1241.87 168.046C1240.78 168.652 1239.93 169.582 1239.32 170.835C1238.72 172.089 1238.41 173.686 1238.41 175.626V192H1228.95V159.374H1237.99V168.288L1236.29 165.681C1237.42 163.457 1239.02 161.779 1241.08 160.647C1243.18 159.475 1245.57 158.888 1248.24 158.888C1251.23 158.888 1253.84 159.657 1256.06 161.193C1258.32 162.689 1259.82 164.993 1260.55 168.106L1257.21 167.197C1258.3 164.65 1260.04 162.628 1262.43 161.132C1264.85 159.636 1267.62 158.888 1270.74 158.888ZM1312.57 192V185.632L1311.96 184.238V172.837C1311.96 170.815 1311.34 169.238 1310.08 168.106C1308.87 166.974 1306.99 166.408 1304.44 166.408C1302.7 166.408 1300.99 166.691 1299.29 167.257C1297.63 167.783 1296.22 168.511 1295.04 169.44L1291.65 162.83C1293.43 161.577 1295.57 160.607 1298.08 159.919C1300.58 159.232 1303.13 158.888 1305.72 158.888C1310.69 158.888 1314.55 160.061 1317.3 162.406C1320.05 164.751 1321.42 168.41 1321.42 173.382V192H1312.57ZM1302.62 192.485C1300.08 192.485 1297.89 192.061 1296.07 191.212C1294.26 190.322 1292.86 189.13 1291.89 187.634C1290.92 186.138 1290.43 184.46 1290.43 182.6C1290.43 180.66 1290.9 178.962 1291.83 177.506C1292.8 176.051 1294.32 174.919 1296.38 174.11C1298.44 173.261 1301.13 172.837 1304.44 172.837H1313.12V178.355H1305.47C1303.25 178.355 1301.71 178.719 1300.87 179.447C1300.06 180.174 1299.65 181.084 1299.65 182.176C1299.65 183.389 1300.12 184.359 1301.05 185.087C1302.02 185.774 1303.33 186.118 1304.99 186.118C1306.57 186.118 1307.98 185.754 1309.23 185.026C1310.49 184.258 1311.4 183.146 1311.96 181.691L1313.42 186.057C1312.73 188.159 1311.48 189.756 1309.66 190.848C1307.84 191.939 1305.49 192.485 1302.62 192.485ZM1329.99 192V147.002H1339.45V192H1329.99ZM1402.73 192.728C1399.78 192.728 1396.85 192.344 1393.94 191.575C1391.07 190.767 1388.6 189.635 1386.54 188.179L1390.42 180.66C1392.04 181.832 1393.9 182.762 1396 183.449C1398.14 184.137 1400.31 184.48 1402.49 184.48C1404.96 184.48 1406.9 183.995 1408.31 183.025C1409.73 182.054 1410.43 180.7 1410.43 178.962C1410.43 177.87 1410.15 176.9 1409.58 176.051C1409.02 175.202 1408.01 174.555 1406.55 174.11C1405.14 173.665 1403.14 173.443 1400.55 173.443H1389.69L1391.88 149.549H1417.77V157.433H1395.39L1400.49 152.945L1398.97 169.986L1393.88 165.499H1402.85C1407.06 165.499 1410.43 166.085 1412.98 167.257C1415.57 168.389 1417.45 169.946 1418.62 171.927C1419.79 173.908 1420.38 176.152 1420.38 178.658C1420.38 181.165 1419.75 183.49 1418.5 185.632C1417.25 187.735 1415.31 189.453 1412.68 190.787C1410.09 192.081 1406.77 192.728 1402.73 192.728ZM383.15 232.888C385.737 232.888 388.022 233.414 390.003 234.465C392.024 235.476 393.601 237.053 394.733 239.195C395.905 241.298 396.492 244.006 396.492 247.322V266H387.031V248.777C387.031 246.149 386.485 244.209 385.394 242.955C384.302 241.702 382.766 241.075 380.785 241.075C379.41 241.075 378.177 241.399 377.086 242.046C375.994 242.652 375.145 243.582 374.539 244.835C373.932 246.089 373.629 247.686 373.629 249.626V266H364.168V248.777C364.168 246.149 363.623 244.209 362.531 242.955C361.48 241.702 359.964 241.075 357.983 241.075C356.608 241.075 355.375 241.399 354.284 242.046C353.192 242.652 352.343 243.582 351.736 244.835C351.13 246.089 350.827 247.686 350.827 249.626V266H341.366V233.374H350.402V242.288L348.704 239.681C349.836 237.457 351.433 235.779 353.495 234.647C355.597 233.475 357.983 232.888 360.651 232.888C363.643 232.888 366.251 233.657 368.474 235.193C370.738 236.689 372.234 238.993 372.962 242.106L369.626 241.197C370.718 238.65 372.456 236.628 374.842 235.132C377.268 233.636 380.037 232.888 383.15 232.888ZM421.4 266.485C417.681 266.485 414.406 265.757 411.576 264.302C408.786 262.847 406.623 260.865 405.087 258.359C403.551 255.812 402.783 252.921 402.783 249.687C402.783 246.412 403.53 243.521 405.026 241.015C406.563 238.468 408.645 236.487 411.273 235.072C413.901 233.616 416.872 232.888 420.187 232.888C423.381 232.888 426.252 233.576 428.799 234.95C431.386 236.284 433.428 238.225 434.924 240.772C436.42 243.279 437.168 246.291 437.168 249.808C437.168 250.172 437.147 250.596 437.107 251.082C437.067 251.526 437.026 251.951 436.986 252.355H410.484V246.837H432.013L428.374 248.474C428.374 246.776 428.031 245.3 427.343 244.047C426.656 242.794 425.706 241.823 424.493 241.136C423.28 240.408 421.865 240.044 420.248 240.044C418.631 240.044 417.196 240.408 415.942 241.136C414.729 241.823 413.779 242.814 413.092 244.108C412.405 245.361 412.061 246.857 412.061 248.595V250.051C412.061 251.83 412.445 253.406 413.213 254.781C414.022 256.115 415.134 257.146 416.549 257.874C418.004 258.561 419.702 258.905 421.643 258.905C423.381 258.905 424.897 258.642 426.191 258.116C427.525 257.591 428.738 256.802 429.83 255.751L434.863 261.209C433.367 262.907 431.487 264.221 429.223 265.151C426.959 266.04 424.352 266.485 421.4 266.485ZM463.297 232.888C465.884 232.888 468.189 233.414 470.21 234.465C472.272 235.476 473.889 237.053 475.062 239.195C476.234 241.298 476.82 244.006 476.82 247.322V266H467.36V248.777C467.36 246.149 466.774 244.209 465.601 242.955C464.469 241.702 462.852 241.075 460.75 241.075C459.254 241.075 457.899 241.399 456.686 242.046C455.514 242.652 454.584 243.602 453.897 244.896C453.25 246.19 452.927 247.847 452.927 249.869V266H443.466V233.374H452.502V242.41L450.804 239.681C451.976 237.497 453.654 235.82 455.837 234.647C458.021 233.475 460.507 232.888 463.297 232.888ZM485.396 266V233.374H494.856V266H485.396ZM490.126 228.825C488.387 228.825 486.972 228.32 485.881 227.309C484.789 226.298 484.243 225.045 484.243 223.549C484.243 222.053 484.789 220.8 485.881 219.789C486.972 218.779 488.387 218.273 490.126 218.273C491.864 218.273 493.279 218.758 494.371 219.729C495.463 220.659 496.008 221.871 496.008 223.367C496.008 224.944 495.463 226.258 494.371 227.309C493.32 228.32 491.905 228.825 490.126 228.825ZM516.978 266.485C513.137 266.485 510.145 265.515 508.003 263.574C505.86 261.593 504.788 258.662 504.788 254.781V226.157H514.249V254.66C514.249 256.034 514.613 257.106 515.34 257.874C516.068 258.601 517.059 258.965 518.312 258.965C519.808 258.965 521.081 258.561 522.133 257.752L524.68 264.423C523.709 265.111 522.537 265.636 521.162 266C519.828 266.323 518.433 266.485 516.978 266.485ZM499.755 241.379V234.101H522.375V241.379H499.755ZM561.174 266.485C558.101 266.485 555.331 265.798 552.865 264.423C550.399 263.008 548.438 261.047 546.983 258.541C545.568 256.034 544.86 253.083 544.86 249.687C544.86 246.25 545.568 243.279 546.983 240.772C548.438 238.266 550.399 236.325 552.865 234.95C555.331 233.576 558.101 232.888 561.174 232.888C563.923 232.888 566.328 233.495 568.39 234.708C570.452 235.921 572.049 237.76 573.181 240.226C574.313 242.693 574.879 245.846 574.879 249.687C574.879 253.487 574.333 256.641 573.242 259.147C572.15 261.613 570.573 263.453 568.511 264.666C566.49 265.879 564.044 266.485 561.174 266.485ZM562.811 258.723C564.347 258.723 565.742 258.359 566.995 257.631C568.249 256.903 569.239 255.872 569.967 254.538C570.735 253.164 571.119 251.547 571.119 249.687C571.119 247.787 570.735 246.169 569.967 244.835C569.239 243.501 568.249 242.47 566.995 241.742C565.742 241.015 564.347 240.651 562.811 240.651C561.234 240.651 559.819 241.015 558.566 241.742C557.313 242.47 556.302 243.501 555.534 244.835C554.806 246.169 554.442 247.787 554.442 249.687C554.442 251.547 554.806 253.164 555.534 254.538C556.302 255.872 557.313 256.903 558.566 257.631C559.819 258.359 561.234 258.723 562.811 258.723ZM571.362 266V259.329L571.544 249.626L570.937 239.984V221.002H580.398V266H571.362ZM609.166 266V259.632L608.56 258.238V246.837C608.56 244.815 607.933 243.238 606.68 242.106C605.467 240.974 603.587 240.408 601.04 240.408C599.301 240.408 597.583 240.691 595.885 241.257C594.227 241.783 592.812 242.511 591.64 243.44L588.244 236.83C590.023 235.577 592.166 234.607 594.672 233.919C597.179 233.232 599.726 232.888 602.313 232.888C607.286 232.888 611.147 234.061 613.896 236.406C616.645 238.751 618.02 242.41 618.02 247.382V266H609.166ZM599.22 266.485C596.673 266.485 594.49 266.061 592.671 265.212C590.852 264.322 589.457 263.13 588.486 261.634C587.516 260.138 587.031 258.46 587.031 256.6C587.031 254.66 587.496 252.962 588.426 251.506C589.396 250.051 590.912 248.919 592.974 248.11C595.036 247.261 597.725 246.837 601.04 246.837H609.712V252.355H602.071C599.847 252.355 598.311 252.719 597.462 253.447C596.653 254.174 596.249 255.084 596.249 256.176C596.249 257.389 596.714 258.359 597.644 259.087C598.614 259.774 599.928 260.118 601.586 260.118C603.162 260.118 604.577 259.754 605.831 259.026C607.084 258.258 607.994 257.146 608.56 255.691L610.015 260.057C609.328 262.159 608.074 263.756 606.255 264.848C604.436 265.939 602.091 266.485 599.22 266.485ZM646.413 232.888C649 232.888 651.305 233.414 653.326 234.465C655.388 235.476 657.005 237.053 658.178 239.195C659.35 241.298 659.936 244.006 659.936 247.322V266H650.476V248.777C650.476 246.149 649.89 244.209 648.717 242.955C647.585 241.702 645.968 241.075 643.866 241.075C642.37 241.075 641.015 241.399 639.803 242.046C638.63 242.652 637.7 243.602 637.013 244.896C636.366 246.19 636.043 247.847 636.043 249.869V266H626.582V233.374H635.618V242.41L633.92 239.681C635.093 237.497 636.77 235.82 638.954 234.647C641.137 233.475 643.623 232.888 646.413 232.888ZM727.47 232.888C730.057 232.888 732.342 233.414 734.323 234.465C736.344 235.476 737.921 237.053 739.053 239.195C740.225 241.298 740.812 244.006 740.812 247.322V266H731.351V248.777C731.351 246.149 730.805 244.209 729.714 242.955C728.622 241.702 727.086 241.075 725.105 241.075C723.73 241.075 722.497 241.399 721.406 242.046C720.314 242.652 719.465 243.582 718.859 244.835C718.252 246.089 717.949 247.686 717.949 249.626V266H708.488V248.777C708.488 246.149 707.943 244.209 706.851 242.955C705.8 241.702 704.284 241.075 702.303 241.075C700.928 241.075 699.695 241.399 698.603 242.046C697.512 242.652 696.663 243.582 696.056 244.835C695.45 246.089 695.147 247.686 695.147 249.626V266H685.686V233.374H694.722V242.288L693.024 239.681C694.156 237.457 695.753 235.779 697.815 234.647C699.917 233.475 702.303 232.888 704.971 232.888C707.963 232.888 710.571 233.657 712.794 235.193C715.058 236.689 716.554 238.993 717.282 242.106L713.946 241.197C715.038 238.65 716.776 236.628 719.162 235.132C721.588 233.636 724.357 232.888 727.47 232.888ZM769.304 266V259.632L768.697 258.238V246.837C768.697 244.815 768.071 243.238 766.817 242.106C765.605 240.974 763.725 240.408 761.178 240.408C759.439 240.408 757.721 240.691 756.023 241.257C754.365 241.783 752.95 242.511 751.778 243.44L748.382 236.83C750.161 235.577 752.303 234.607 754.81 233.919C757.317 233.232 759.864 232.888 762.451 232.888C767.424 232.888 771.285 234.061 774.034 236.406C776.783 238.751 778.158 242.41 778.158 247.382V266H769.304ZM759.358 266.485C756.811 266.485 754.628 266.061 752.809 265.212C750.989 264.322 749.595 263.13 748.624 261.634C747.654 260.138 747.169 258.46 747.169 256.6C747.169 254.66 747.634 252.962 748.564 251.506C749.534 250.051 751.05 248.919 753.112 248.11C755.174 247.261 757.862 246.837 761.178 246.837H769.85V252.355H762.209C759.985 252.355 758.449 252.719 757.6 253.447C756.791 254.174 756.387 255.084 756.387 256.176C756.387 257.389 756.852 258.359 757.781 259.087C758.752 259.774 760.066 260.118 761.723 260.118C763.3 260.118 764.715 259.754 765.968 259.026C767.222 258.258 768.131 257.146 768.697 255.691L770.153 260.057C769.466 262.159 768.212 263.756 766.393 264.848C764.574 265.939 762.229 266.485 759.358 266.485ZM794.543 259.329L794.786 247.807L810.007 233.374H821.287L806.672 248.231L801.76 252.234L794.543 259.329ZM786.72 266V221.002H796.18V266H786.72ZM811.038 266L800.001 252.294L805.944 244.957L822.5 266H811.038ZM836.665 266.485C833.875 266.485 831.187 266.162 828.599 265.515C826.052 264.828 824.031 263.979 822.535 262.968L825.688 256.176C827.184 257.106 828.943 257.874 830.964 258.48C833.026 259.046 835.048 259.329 837.029 259.329C839.212 259.329 840.748 259.066 841.638 258.541C842.568 258.015 843.033 257.287 843.033 256.358C843.033 255.589 842.669 255.023 841.941 254.66C841.254 254.255 840.324 253.952 839.151 253.75C837.979 253.548 836.685 253.346 835.27 253.143C833.896 252.941 832.501 252.679 831.086 252.355C829.671 251.991 828.377 251.466 827.205 250.778C826.032 250.091 825.082 249.161 824.354 247.989C823.667 246.816 823.323 245.3 823.323 243.44C823.323 241.379 823.91 239.559 825.082 237.983C826.295 236.406 828.033 235.173 830.297 234.283C832.561 233.353 835.27 232.888 838.424 232.888C840.647 232.888 842.911 233.131 845.216 233.616C847.52 234.101 849.441 234.809 850.977 235.739L847.823 242.47C846.247 241.54 844.65 240.914 843.033 240.59C841.456 240.226 839.92 240.044 838.424 240.044C836.321 240.044 834.785 240.327 833.815 240.893C832.844 241.459 832.359 242.187 832.359 243.077C832.359 243.885 832.703 244.492 833.39 244.896C834.118 245.3 835.068 245.624 836.241 245.866C837.413 246.109 838.686 246.331 840.061 246.533C841.476 246.695 842.891 246.958 844.306 247.322C845.721 247.686 846.995 248.211 848.127 248.898C849.299 249.545 850.249 250.455 850.977 251.627C851.705 252.759 852.069 254.255 852.069 256.115C852.069 258.137 851.462 259.936 850.249 261.512C849.036 263.049 847.278 264.262 844.973 265.151C842.709 266.04 839.94 266.485 836.665 266.485ZM857.906 266V233.374H867.366V266H857.906ZM862.636 228.825C860.897 228.825 859.482 228.32 858.391 227.309C857.299 226.298 856.753 225.045 856.753 223.549C856.753 222.053 857.299 220.8 858.391 219.789C859.482 218.779 860.897 218.273 862.636 218.273C864.374 218.273 865.789 218.758 866.881 219.729C867.972 220.659 868.518 221.871 868.518 223.367C868.518 224.944 867.972 226.258 866.881 227.309C865.83 228.32 864.415 228.825 862.636 228.825ZM917.93 232.888C920.517 232.888 922.801 233.414 924.782 234.465C926.804 235.476 928.381 237.053 929.513 239.195C930.685 241.298 931.271 244.006 931.271 247.322V266H921.811V248.777C921.811 246.149 921.265 244.209 920.174 242.955C919.082 241.702 917.546 241.075 915.565 241.075C914.19 241.075 912.957 241.399 911.865 242.046C910.774 242.652 909.925 243.582 909.318 244.835C908.712 246.089 908.409 247.686 908.409 249.626V266H898.948V248.777C898.948 246.149 898.402 244.209 897.311 242.955C896.26 241.702 894.744 241.075 892.763 241.075C891.388 241.075 890.155 241.399 889.063 242.046C887.972 242.652 887.123 243.582 886.516 244.835C885.91 246.089 885.607 247.686 885.607 249.626V266H876.146V233.374H885.182V242.288L883.484 239.681C884.616 237.457 886.213 235.779 888.275 234.647C890.377 233.475 892.763 232.888 895.431 232.888C898.423 232.888 901.03 233.657 903.254 235.193C905.518 236.689 907.014 238.993 907.742 242.106L904.406 241.197C905.498 238.65 907.236 236.628 909.622 235.132C912.047 233.636 914.817 232.888 917.93 232.888ZM959.764 266V259.632L959.157 258.238V246.837C959.157 244.815 958.531 243.238 957.277 242.106C956.064 240.974 954.184 240.408 951.637 240.408C949.899 240.408 948.181 240.691 946.483 241.257C944.825 241.783 943.41 242.511 942.238 243.44L938.841 236.83C940.62 235.577 942.763 234.607 945.27 233.919C947.776 233.232 950.323 232.888 952.911 232.888C957.884 232.888 961.745 234.061 964.494 236.406C967.243 238.751 968.618 242.41 968.618 247.382V266H959.764ZM949.818 266.485C947.271 266.485 945.088 266.061 943.268 265.212C941.449 264.322 940.054 263.13 939.084 261.634C938.114 260.138 937.629 258.46 937.629 256.6C937.629 254.66 938.094 252.962 939.023 251.506C939.994 250.051 941.51 248.919 943.572 248.11C945.634 247.261 948.322 246.837 951.637 246.837H960.309V252.355H952.668C950.445 252.355 948.908 252.719 948.059 253.447C947.251 254.174 946.846 255.084 946.846 256.176C946.846 257.389 947.311 258.359 948.241 259.087C949.212 259.774 950.526 260.118 952.183 260.118C953.76 260.118 955.175 259.754 956.428 259.026C957.682 258.258 958.591 257.146 959.157 255.691L960.613 260.057C959.925 262.159 958.672 263.756 956.853 264.848C955.033 265.939 952.688 266.485 949.818 266.485ZM977.18 266V221.002H986.64V266H977.18ZM1017.14 266V227.188L1021.39 231.433H1008.65V223.549H1026.97V266H1017.14ZM1052.54 266.728C1049.06 266.728 1045.95 265.879 1043.2 264.181C1040.45 262.442 1038.28 259.936 1036.71 256.661C1035.13 253.386 1034.34 249.424 1034.34 244.775C1034.34 240.125 1035.13 236.163 1036.71 232.888C1038.28 229.614 1040.45 227.127 1043.2 225.429C1045.95 223.691 1049.06 222.822 1052.54 222.822C1056.05 222.822 1059.17 223.691 1061.87 225.429C1064.62 227.127 1066.79 229.614 1068.36 232.888C1069.94 236.163 1070.73 240.125 1070.73 244.775C1070.73 249.424 1069.94 253.386 1068.36 256.661C1066.79 259.936 1064.62 262.442 1061.87 264.181C1059.17 265.879 1056.05 266.728 1052.54 266.728ZM1052.54 258.42C1054.19 258.42 1055.63 257.955 1056.84 257.025C1058.09 256.095 1059.06 254.619 1059.75 252.598C1060.48 250.576 1060.84 247.969 1060.84 244.775C1060.84 241.581 1060.48 238.973 1059.75 236.952C1059.06 234.93 1058.09 233.454 1056.84 232.525C1055.63 231.595 1054.19 231.13 1052.54 231.13C1050.92 231.13 1049.48 231.595 1048.23 232.525C1047.02 233.454 1046.05 234.93 1045.32 236.952C1044.63 238.973 1044.29 241.581 1044.29 244.775C1044.29 247.969 1044.63 250.576 1045.32 252.598C1046.05 254.619 1047.02 256.095 1048.23 257.025C1049.48 257.955 1050.92 258.42 1052.54 258.42ZM1136.46 232.888C1139.05 232.888 1141.33 233.414 1143.31 234.465C1145.34 235.476 1146.91 237.053 1148.04 239.195C1149.22 241.298 1149.8 244.006 1149.8 247.322V266H1140.34V248.777C1140.34 246.149 1139.8 244.209 1138.7 242.955C1137.61 241.702 1136.08 241.075 1134.1 241.075C1132.72 241.075 1131.49 241.399 1130.4 242.046C1129.31 242.652 1128.46 243.582 1127.85 244.835C1127.24 246.089 1126.94 247.686 1126.94 249.626V266H1117.48V248.777C1117.48 246.149 1116.93 244.209 1115.84 242.955C1114.79 241.702 1113.27 241.075 1111.29 241.075C1109.92 241.075 1108.69 241.399 1107.59 242.046C1106.5 242.652 1105.65 243.582 1105.05 244.835C1104.44 246.089 1104.14 247.686 1104.14 249.626V266H1094.68V233.374H1103.71V242.288L1102.02 239.681C1103.15 237.457 1104.74 235.779 1106.81 234.647C1108.91 233.475 1111.29 232.888 1113.96 232.888C1116.95 232.888 1119.56 233.657 1121.79 235.193C1124.05 236.689 1125.55 238.993 1126.27 242.106L1122.94 241.197C1124.03 238.65 1125.77 236.628 1128.15 235.132C1130.58 233.636 1133.35 232.888 1136.46 232.888ZM1174.71 266.485C1170.99 266.485 1167.72 265.757 1164.89 264.302C1162.1 262.847 1159.93 260.865 1158.4 258.359C1156.86 255.812 1156.09 252.921 1156.09 249.687C1156.09 246.412 1156.84 243.521 1158.34 241.015C1159.87 238.468 1161.96 236.487 1164.58 235.072C1167.21 233.616 1170.18 232.888 1173.5 232.888C1176.69 232.888 1179.56 233.576 1182.11 234.95C1184.7 236.284 1186.74 238.225 1188.23 240.772C1189.73 243.279 1190.48 246.291 1190.48 249.808C1190.48 250.172 1190.46 250.596 1190.42 251.082C1190.38 251.526 1190.34 251.951 1190.3 252.355H1163.8V246.837H1185.32L1181.69 248.474C1181.69 246.776 1181.34 245.3 1180.65 244.047C1179.97 242.794 1179.02 241.823 1177.8 241.136C1176.59 240.408 1175.18 240.044 1173.56 240.044C1171.94 240.044 1170.51 240.408 1169.25 241.136C1168.04 241.823 1167.09 242.814 1166.4 244.108C1165.72 245.361 1165.37 246.857 1165.37 248.595V250.051C1165.37 251.83 1165.76 253.406 1166.52 254.781C1167.33 256.115 1168.44 257.146 1169.86 257.874C1171.32 258.561 1173.01 258.905 1174.95 258.905C1176.69 258.905 1178.21 258.642 1179.5 258.116C1180.84 257.591 1182.05 256.802 1183.14 255.751L1188.17 261.209C1186.68 262.907 1184.8 264.221 1182.53 265.151C1180.27 266.04 1177.66 266.485 1174.71 266.485ZM1216.61 232.888C1219.2 232.888 1221.5 233.414 1223.52 234.465C1225.58 235.476 1227.2 237.053 1228.37 239.195C1229.54 241.298 1230.13 244.006 1230.13 247.322V266H1220.67V248.777C1220.67 246.149 1220.08 244.209 1218.91 242.955C1217.78 241.702 1216.16 241.075 1214.06 241.075C1212.56 241.075 1211.21 241.399 1210 242.046C1208.82 242.652 1207.9 243.602 1207.21 244.896C1206.56 246.19 1206.24 247.847 1206.24 249.869V266H1196.78V233.374H1205.81V242.41L1204.11 239.681C1205.29 237.497 1206.97 235.82 1209.15 234.647C1211.33 233.475 1213.82 232.888 1216.61 232.888ZM1238.71 266V233.374H1248.17V266H1238.71ZM1243.44 228.825C1241.7 228.825 1240.28 228.32 1239.19 227.309C1238.1 226.298 1237.55 225.045 1237.55 223.549C1237.55 222.053 1238.1 220.8 1239.19 219.789C1240.28 218.779 1241.7 218.273 1243.44 218.273C1245.18 218.273 1246.59 218.758 1247.68 219.729C1248.77 220.659 1249.32 221.871 1249.32 223.367C1249.32 224.944 1248.77 226.258 1247.68 227.309C1246.63 228.32 1245.22 228.825 1243.44 228.825ZM1270.29 266.485C1266.45 266.485 1263.46 265.515 1261.31 263.574C1259.17 261.593 1258.1 258.662 1258.1 254.781V226.157H1267.56V254.66C1267.56 256.034 1267.92 257.106 1268.65 257.874C1269.38 258.601 1270.37 258.965 1271.62 258.965C1273.12 258.965 1274.39 258.561 1275.44 257.752L1277.99 264.423C1277.02 265.111 1275.85 265.636 1274.47 266C1273.14 266.323 1271.74 266.485 1270.29 266.485ZM1253.07 241.379V234.101H1275.69V241.379H1253.07ZM1287.47 266.485C1285.85 266.485 1284.46 265.939 1283.29 264.848C1282.15 263.716 1281.59 262.281 1281.59 260.542C1281.59 258.804 1282.15 257.409 1283.29 256.358C1284.46 255.266 1285.85 254.72 1287.47 254.72C1289.13 254.72 1290.52 255.266 1291.66 256.358C1292.79 257.409 1293.35 258.804 1293.35 260.542C1293.35 262.281 1292.79 263.716 1291.66 264.848C1290.52 265.939 1289.13 266.485 1287.47 266.485Z" fill="#F85DCD"/>
</svg>
