<svg width="1541" height="340" viewBox="0 0 1541 340" fill="none" xmlns="http://www.w3.org/2000/svg">
<rect x="3" y="3" width="1535" height="334" rx="14" fill="#FCFCFC" stroke="#C3A7FF" stroke-width="6"/>
<path d="M124.002 206.281V188.694L177.248 117.054H204.677L152.561 188.694L139.814 184.983H228.719V206.281H124.002ZM184.831 230V206.281L185.638 184.983V163.846H210.325V230H184.831Z" fill="#E4A355"/>
<path d="M342.814 122V86.3H356.176C359.202 86.3 361.803 86.793 363.979 87.779C366.155 88.731 367.821 90.125 368.977 91.961C370.167 93.763 370.762 95.956 370.762 98.54C370.762 101.056 370.167 103.232 368.977 105.068C367.821 106.87 366.155 108.264 363.979 109.25C361.803 110.236 359.202 110.729 356.176 110.729H344.905L346.588 108.944V122H342.814ZM346.588 109.25L344.905 107.414H356.074C359.644 107.414 362.347 106.649 364.183 105.119C366.053 103.555 366.988 101.362 366.988 98.54C366.988 95.684 366.053 93.474 364.183 91.91C362.347 90.346 359.644 89.564 356.074 89.564H344.905L346.588 87.779V109.25ZM389.381 122.255C386.593 122.255 384.145 121.677 382.037 120.521C379.929 119.331 378.28 117.716 377.09 115.676C375.9 113.602 375.305 111.239 375.305 108.587C375.305 105.935 375.866 103.589 376.988 101.549C378.144 99.509 379.708 97.911 381.68 96.755C383.686 95.565 385.93 94.97 388.412 94.97C390.928 94.97 393.155 95.548 395.093 96.704C397.065 97.826 398.612 99.424 399.734 101.498C400.856 103.538 401.417 105.901 401.417 108.587C401.417 108.757 401.4 108.944 401.366 109.148C401.366 109.318 401.366 109.505 401.366 109.709H378.059V107.006H399.428L398 108.077C398 106.139 397.575 104.422 396.725 102.926C395.909 101.396 394.787 100.206 393.359 99.356C391.931 98.506 390.282 98.081 388.412 98.081C386.576 98.081 384.927 98.506 383.465 99.356C382.003 100.206 380.864 101.396 380.048 102.926C379.232 104.456 378.824 106.207 378.824 108.179V108.74C378.824 110.78 379.266 112.582 380.15 114.146C381.068 115.676 382.326 116.883 383.924 117.767C385.556 118.617 387.409 119.042 389.483 119.042C391.115 119.042 392.628 118.753 394.022 118.175C395.45 117.597 396.674 116.713 397.694 115.523L399.734 117.869C398.544 119.297 397.048 120.385 395.246 121.133C393.478 121.881 391.523 122.255 389.381 122.255ZM415.978 122.255C413.768 122.255 411.677 121.949 409.705 121.337C407.733 120.691 406.186 119.892 405.064 118.94L406.696 116.084C407.784 116.9 409.178 117.614 410.878 118.226C412.578 118.804 414.363 119.093 416.233 119.093C418.783 119.093 420.619 118.702 421.741 117.92C422.863 117.104 423.424 116.033 423.424 114.707C423.424 113.721 423.101 112.956 422.455 112.412C421.843 111.834 421.027 111.409 420.007 111.137C418.987 110.831 417.848 110.576 416.59 110.372C415.332 110.168 414.074 109.93 412.816 109.658C411.592 109.386 410.47 108.995 409.45 108.485C408.43 107.941 407.597 107.21 406.951 106.292C406.339 105.374 406.033 104.15 406.033 102.62C406.033 101.158 406.441 99.849 407.257 98.693C408.073 97.537 409.263 96.636 410.827 95.99C412.425 95.31 414.363 94.97 416.641 94.97C418.375 94.97 420.109 95.208 421.843 95.684C423.577 96.126 425.005 96.721 426.127 97.469L424.546 100.376C423.356 99.56 422.081 98.982 420.721 98.642C419.361 98.268 418.001 98.081 416.641 98.081C414.227 98.081 412.442 98.506 411.286 99.356C410.164 100.172 409.603 101.226 409.603 102.518C409.603 103.538 409.909 104.337 410.521 104.915C411.167 105.493 412 105.952 413.02 106.292C414.074 106.598 415.213 106.853 416.437 107.057C417.695 107.261 418.936 107.516 420.16 107.822C421.418 108.094 422.557 108.485 423.577 108.995C424.631 109.471 425.464 110.168 426.076 111.086C426.722 111.97 427.045 113.143 427.045 114.605C427.045 116.169 426.603 117.529 425.719 118.685C424.869 119.807 423.611 120.691 421.945 121.337C420.313 121.949 418.324 122.255 415.978 122.255ZM445.063 122.255C442.275 122.255 439.827 121.677 437.719 120.521C435.611 119.331 433.962 117.716 432.772 115.676C431.582 113.602 430.987 111.239 430.987 108.587C430.987 105.935 431.548 103.589 432.67 101.549C433.826 99.509 435.39 97.911 437.362 96.755C439.368 95.565 441.612 94.97 444.094 94.97C446.61 94.97 448.837 95.548 450.775 96.704C452.747 97.826 454.294 99.424 455.416 101.498C456.538 103.538 457.099 105.901 457.099 108.587C457.099 108.757 457.082 108.944 457.048 109.148C457.048 109.318 457.048 109.505 457.048 109.709H433.741V107.006H455.11L453.682 108.077C453.682 106.139 453.257 104.422 452.407 102.926C451.591 101.396 450.469 100.206 449.041 99.356C447.613 98.506 445.964 98.081 444.094 98.081C442.258 98.081 440.609 98.506 439.147 99.356C437.685 100.206 436.546 101.396 435.73 102.926C434.914 104.456 434.506 106.207 434.506 108.179V108.74C434.506 110.78 434.948 112.582 435.832 114.146C436.75 115.676 438.008 116.883 439.606 117.767C441.238 118.617 443.091 119.042 445.165 119.042C446.797 119.042 448.31 118.753 449.704 118.175C451.132 117.597 452.356 116.713 453.376 115.523L455.416 117.869C454.226 119.297 452.73 120.385 450.928 121.133C449.16 121.881 447.205 122.255 445.063 122.255ZM464.469 122V95.225H467.937V102.518L467.58 101.243C468.328 99.203 469.586 97.656 471.354 96.602C473.122 95.514 475.315 94.97 477.933 94.97V98.489C477.797 98.489 477.661 98.489 477.525 98.489C477.389 98.455 477.253 98.438 477.117 98.438C474.295 98.438 472.085 99.305 470.487 101.039C468.889 102.739 468.09 105.17 468.09 108.332V122H464.469ZM494.152 122.255C491.636 122.255 489.698 121.575 488.338 120.215C486.978 118.855 486.298 116.934 486.298 114.452V89.309H489.919V114.248C489.919 115.812 490.31 117.019 491.092 117.869C491.908 118.719 493.064 119.144 494.56 119.144C496.158 119.144 497.484 118.685 498.538 117.767L499.813 120.368C499.099 121.014 498.232 121.49 497.212 121.796C496.226 122.102 495.206 122.255 494.152 122.255ZM481.504 98.234V95.225H498.079V98.234H481.504ZM523.183 122V116.084L523.03 115.115V105.221C523.03 102.943 522.384 101.192 521.092 99.968C519.834 98.744 517.947 98.132 515.431 98.132C513.697 98.132 512.048 98.421 510.484 98.999C508.92 99.577 507.594 100.342 506.506 101.294L504.874 98.591C506.234 97.435 507.866 96.551 509.77 95.939C511.674 95.293 513.68 94.97 515.788 94.97C519.256 94.97 521.925 95.837 523.795 97.571C525.699 99.271 526.651 101.872 526.651 105.374V122H523.183ZM513.952 122.255C511.946 122.255 510.195 121.932 508.699 121.286C507.237 120.606 506.115 119.688 505.333 118.532C504.551 117.342 504.16 115.982 504.16 114.452C504.16 113.058 504.483 111.8 505.129 110.678C505.809 109.522 506.897 108.604 508.393 107.924C509.923 107.21 511.963 106.853 514.513 106.853H523.744V109.556H514.615C512.031 109.556 510.229 110.015 509.209 110.933C508.223 111.851 507.73 112.99 507.73 114.35C507.73 115.88 508.325 117.104 509.515 118.022C510.705 118.94 512.371 119.399 514.513 119.399C516.553 119.399 518.304 118.94 519.766 118.022C521.262 117.07 522.35 115.71 523.03 113.942L523.846 116.441C523.166 118.209 521.976 119.62 520.276 120.674C518.61 121.728 516.502 122.255 513.952 122.255ZM568.231 122.255C565.681 122.255 563.386 121.677 561.346 120.521C559.34 119.365 557.759 117.767 556.603 115.727C555.447 113.653 554.869 111.273 554.869 108.587C554.869 105.867 555.447 103.487 556.603 101.447C557.759 99.407 559.34 97.826 561.346 96.704C563.386 95.548 565.681 94.97 568.231 94.97C570.577 94.97 572.668 95.497 574.504 96.551C576.374 97.605 577.853 99.152 578.941 101.192C580.063 103.198 580.624 105.663 580.624 108.587C580.624 111.477 580.08 113.942 578.992 115.982C577.904 118.022 576.425 119.586 574.555 120.674C572.719 121.728 570.611 122.255 568.231 122.255ZM568.486 119.042C570.39 119.042 572.09 118.617 573.586 117.767C575.116 116.883 576.306 115.659 577.156 114.095C578.04 112.497 578.482 110.661 578.482 108.587C578.482 106.479 578.04 104.643 577.156 103.079C576.306 101.515 575.116 100.308 573.586 99.458C572.09 98.574 570.39 98.132 568.486 98.132C566.616 98.132 564.933 98.574 563.437 99.458C561.941 100.308 560.751 101.515 559.867 103.079C558.983 104.643 558.541 106.479 558.541 108.587C558.541 110.661 558.983 112.497 559.867 114.095C560.751 115.659 561.941 116.883 563.437 117.767C564.933 118.617 566.616 119.042 568.486 119.042ZM578.584 122V113.942L578.941 108.536L578.431 103.13V84.158H582.052V122H578.584ZM592.136 122V95.225H595.757V122H592.136ZM593.972 89.309C593.224 89.309 592.595 89.054 592.085 88.544C591.575 88.034 591.32 87.422 591.32 86.708C591.32 85.994 591.575 85.399 592.085 84.923C592.595 84.413 593.224 84.158 593.972 84.158C594.72 84.158 595.349 84.396 595.859 84.872C596.369 85.348 596.624 85.943 596.624 86.657C596.624 87.405 596.369 88.034 595.859 88.544C595.383 89.054 594.754 89.309 593.972 89.309ZM611.289 122L601.191 95.225H604.659L613.839 120.062H612.258L621.693 95.225H624.804L634.137 120.062H632.556L641.889 95.225H645.204L635.055 122H631.638L622.662 98.642H623.733L614.706 122H611.289ZM666.639 122V116.084L666.486 115.115V105.221C666.486 102.943 665.84 101.192 664.548 99.968C663.29 98.744 661.403 98.132 658.887 98.132C657.153 98.132 655.504 98.421 653.94 98.999C652.376 99.577 651.05 100.342 649.962 101.294L648.33 98.591C649.69 97.435 651.322 96.551 653.226 95.939C655.13 95.293 657.136 94.97 659.244 94.97C662.712 94.97 665.381 95.837 667.251 97.571C669.155 99.271 670.107 101.872 670.107 105.374V122H666.639ZM657.408 122.255C655.402 122.255 653.651 121.932 652.155 121.286C650.693 120.606 649.571 119.688 648.789 118.532C648.007 117.342 647.616 115.982 647.616 114.452C647.616 113.058 647.939 111.8 648.585 110.678C649.265 109.522 650.353 108.604 651.849 107.924C653.379 107.21 655.419 106.853 657.969 106.853H667.2V109.556H658.071C655.487 109.556 653.685 110.015 652.665 110.933C651.679 111.851 651.186 112.99 651.186 114.35C651.186 115.88 651.781 117.104 652.971 118.022C654.161 118.94 655.827 119.399 657.969 119.399C660.009 119.399 661.76 118.94 663.222 118.022C664.718 117.07 665.806 115.71 666.486 113.942L667.302 116.441C666.622 118.209 665.432 119.62 663.732 120.674C662.066 121.728 659.958 122.255 657.408 122.255ZM675.964 132.149C674.876 132.149 673.839 131.996 672.853 131.69C671.833 131.418 670.983 130.993 670.303 130.415L671.578 127.661C672.666 128.579 674.06 129.038 675.76 129.038C677.188 129.038 678.276 128.613 679.024 127.763C679.806 126.913 680.197 125.655 680.197 123.989V95.225H683.818V123.989C683.818 126.471 683.138 128.443 681.778 129.905C680.452 131.401 678.514 132.149 675.964 132.149ZM682.033 89.309C681.285 89.309 680.656 89.054 680.146 88.544C679.636 88.034 679.381 87.422 679.381 86.708C679.381 85.994 679.636 85.399 680.146 84.923C680.656 84.413 681.285 84.158 682.033 84.158C682.781 84.158 683.41 84.396 683.92 84.872C684.43 85.348 684.685 85.943 684.685 86.657C684.685 87.405 684.43 88.034 683.92 88.544C683.444 89.054 682.815 89.309 682.033 89.309ZM693.937 122V95.225H697.558V122H693.937ZM695.773 89.309C695.025 89.309 694.396 89.054 693.886 88.544C693.376 88.034 693.121 87.422 693.121 86.708C693.121 85.994 693.376 85.399 693.886 84.923C694.396 84.413 695.025 84.158 695.773 84.158C696.521 84.158 697.15 84.396 697.66 84.872C698.17 85.348 698.425 85.943 698.425 86.657C698.425 87.405 698.17 88.034 697.66 88.544C697.184 89.054 696.555 89.309 695.773 89.309ZM721.454 122.255C719.108 122.255 717 121.728 715.13 120.674C713.26 119.586 711.781 118.022 710.693 115.982C709.605 113.942 709.061 111.477 709.061 108.587C709.061 105.663 709.605 103.198 710.693 101.192C711.815 99.152 713.311 97.605 715.181 96.551C717.051 95.497 719.142 94.97 721.454 94.97C724.004 94.97 726.282 95.548 728.288 96.704C730.328 97.826 731.926 99.407 733.082 101.447C734.238 103.487 734.816 105.867 734.816 108.587C734.816 111.273 734.238 113.653 733.082 115.727C731.926 117.767 730.328 119.365 728.288 120.521C726.282 121.677 724.004 122.255 721.454 122.255ZM707.633 122V84.158H711.254V103.13L710.744 108.536L711.101 113.942V122H707.633ZM721.199 119.042C723.103 119.042 724.803 118.617 726.299 117.767C727.795 116.883 728.985 115.659 729.869 114.095C730.753 112.497 731.195 110.661 731.195 108.587C731.195 106.479 730.753 104.643 729.869 103.079C728.985 101.515 727.795 100.308 726.299 99.458C724.803 98.574 723.103 98.132 721.199 98.132C719.295 98.132 717.578 98.574 716.048 99.458C714.552 100.308 713.362 101.515 712.478 103.079C711.628 104.643 711.203 106.479 711.203 108.587C711.203 110.661 711.628 112.497 712.478 114.095C713.362 115.659 714.552 116.883 716.048 117.767C717.578 118.617 719.295 119.042 721.199 119.042ZM745.054 115.064L745.156 110.423L761.833 95.225H766.27L754.489 106.496L752.449 108.23L745.054 115.064ZM742.198 122V84.158H745.819V122H742.198ZM762.955 122L751.786 108.077L754.132 105.272L767.392 122H762.955ZM789.109 122V116.084L788.956 115.115V105.221C788.956 102.943 788.31 101.192 787.018 99.968C785.76 98.744 783.873 98.132 781.357 98.132C779.623 98.132 777.974 98.421 776.41 98.999C774.846 99.577 773.52 100.342 772.432 101.294L770.8 98.591C772.16 97.435 773.792 96.551 775.696 95.939C777.6 95.293 779.606 94.97 781.714 94.97C785.182 94.97 787.851 95.837 789.721 97.571C791.625 99.271 792.577 101.872 792.577 105.374V122H789.109ZM779.878 122.255C777.872 122.255 776.121 121.932 774.625 121.286C773.163 120.606 772.041 119.688 771.259 118.532C770.477 117.342 770.086 115.982 770.086 114.452C770.086 113.058 770.409 111.8 771.055 110.678C771.735 109.522 772.823 108.604 774.319 107.924C775.849 107.21 777.889 106.853 780.439 106.853H789.67V109.556H780.541C777.957 109.556 776.155 110.015 775.135 110.933C774.149 111.851 773.656 112.99 773.656 114.35C773.656 115.88 774.251 117.104 775.441 118.022C776.631 118.94 778.297 119.399 780.439 119.399C782.479 119.399 784.23 118.94 785.692 118.022C787.188 117.07 788.276 115.71 788.956 113.942L789.772 116.441C789.092 118.209 787.902 119.62 786.202 120.674C784.536 121.728 782.428 122.255 779.878 122.255ZM816.08 94.97C818.256 94.97 820.16 95.395 821.792 96.245C823.458 97.061 824.75 98.319 825.668 100.019C826.62 101.719 827.096 103.861 827.096 106.445V122H823.475V106.802C823.475 103.98 822.761 101.855 821.333 100.427C819.939 98.965 817.967 98.234 815.417 98.234C813.513 98.234 811.847 98.625 810.419 99.407C809.025 100.155 807.937 101.26 807.155 102.722C806.407 104.15 806.033 105.884 806.033 107.924V122H802.412V95.225H805.88V102.569L805.319 101.192C806.169 99.254 807.529 97.741 809.399 96.653C811.269 95.531 813.496 94.97 816.08 94.97ZM892.819 94.154C894.995 94.154 896.916 94.596 898.582 95.48C900.282 96.33 901.608 97.656 902.56 99.458C903.546 101.226 904.039 103.504 904.039 106.292V122H896.083V107.516C896.083 105.306 895.624 103.674 894.706 102.62C893.788 101.566 892.496 101.039 890.83 101.039C889.674 101.039 888.637 101.311 887.719 101.855C886.801 102.365 886.087 103.147 885.577 104.201C885.067 105.255 884.812 106.598 884.812 108.23V122H876.856V107.516C876.856 105.306 876.397 103.674 875.479 102.62C874.595 101.566 873.32 101.039 871.654 101.039C870.498 101.039 869.461 101.311 868.543 101.855C867.625 102.365 866.911 103.147 866.401 104.201C865.891 105.255 865.636 106.598 865.636 108.23V122H857.68V94.562H865.279V102.059L863.851 99.866C864.803 97.996 866.146 96.585 867.88 95.633C869.648 94.647 871.654 94.154 873.898 94.154C876.414 94.154 878.607 94.8 880.477 96.092C882.381 97.35 883.639 99.288 884.251 101.906L881.446 101.141C882.364 98.999 883.826 97.299 885.832 96.041C887.872 94.783 890.201 94.154 892.819 94.154ZM924.987 122.408C921.859 122.408 919.105 121.796 916.725 120.572C914.379 119.348 912.56 117.682 911.268 115.574C909.976 113.432 909.33 111.001 909.33 108.281C909.33 105.527 909.959 103.096 911.217 100.988C912.509 98.846 914.26 97.18 916.47 95.99C918.68 94.766 921.179 94.154 923.967 94.154C926.653 94.154 929.067 94.732 931.209 95.888C933.385 97.01 935.102 98.642 936.36 100.784C937.618 102.892 938.247 105.425 938.247 108.383C938.247 108.689 938.23 109.046 938.196 109.454C938.162 109.828 938.128 110.185 938.094 110.525H915.807V105.884H933.912L930.852 107.261C930.852 105.833 930.563 104.592 929.985 103.538C929.407 102.484 928.608 101.668 927.588 101.09C926.568 100.478 925.378 100.172 924.018 100.172C922.658 100.172 921.451 100.478 920.397 101.09C919.377 101.668 918.578 102.501 918 103.589C917.422 104.643 917.133 105.901 917.133 107.363V108.587C917.133 110.083 917.456 111.409 918.102 112.565C918.782 113.687 919.717 114.554 920.907 115.166C922.131 115.744 923.559 116.033 925.191 116.033C926.653 116.033 927.928 115.812 929.016 115.37C930.138 114.928 931.158 114.265 932.076 113.381L936.309 117.971C935.051 119.399 933.47 120.504 931.566 121.286C929.662 122.034 927.469 122.408 924.987 122.408ZM960.221 94.154C962.397 94.154 964.335 94.596 966.035 95.48C967.769 96.33 969.129 97.656 970.115 99.458C971.101 101.226 971.594 103.504 971.594 106.292V122H963.638V107.516C963.638 105.306 963.145 103.674 962.159 102.62C961.207 101.566 959.847 101.039 958.079 101.039C956.821 101.039 955.682 101.311 954.662 101.855C953.676 102.365 952.894 103.164 952.316 104.252C951.772 105.34 951.5 106.734 951.5 108.434V122H943.544V94.562H951.143V102.161L949.715 99.866C950.701 98.03 952.112 96.619 953.948 95.633C955.784 94.647 957.875 94.154 960.221 94.154ZM991.908 132.302C989.324 132.302 986.825 131.979 984.411 131.333C982.031 130.721 980.042 129.786 978.444 128.528L981.606 122.816C982.762 123.768 984.224 124.516 985.992 125.06C987.794 125.638 989.562 125.927 991.296 125.927C994.118 125.927 996.158 125.298 997.416 124.04C998.708 122.782 999.354 120.912 999.354 118.43V114.299L999.864 107.414L999.762 100.478V94.562H1007.31V117.41C1007.31 122.51 1005.98 126.267 1003.33 128.681C1000.68 131.095 996.872 132.302 991.908 132.302ZM990.684 120.674C988.134 120.674 985.822 120.13 983.748 119.042C981.708 117.92 980.059 116.373 978.801 114.401C977.577 112.395 976.965 110.066 976.965 107.414C976.965 104.728 977.577 102.399 978.801 100.427C980.059 98.421 981.708 96.874 983.748 95.786C985.822 94.698 988.134 94.154 990.684 94.154C992.996 94.154 995.036 94.63 996.804 95.582C998.572 96.5 999.949 97.945 1000.93 99.917C1001.92 101.855 1002.41 104.354 1002.41 107.414C1002.41 110.44 1001.92 112.939 1000.93 114.911C999.949 116.849 998.572 118.294 996.804 119.246C995.036 120.198 992.996 120.674 990.684 120.674ZM992.265 114.146C993.659 114.146 994.9 113.874 995.988 113.33C997.076 112.752 997.926 111.953 998.538 110.933C999.15 109.913 999.456 108.74 999.456 107.414C999.456 106.054 999.15 104.881 998.538 103.895C997.926 102.875 997.076 102.093 995.988 101.549C994.9 100.971 993.659 100.682 992.265 100.682C990.871 100.682 989.63 100.971 988.542 101.549C987.454 102.093 986.587 102.875 985.941 103.895C985.329 104.881 985.023 106.054 985.023 107.414C985.023 108.74 985.329 109.913 985.941 110.933C986.587 111.953 987.454 112.752 988.542 113.33C989.63 113.874 990.871 114.146 992.265 114.146ZM1014.71 122V94.562H1022.67V122H1014.71ZM1018.69 90.737C1017.23 90.737 1016.04 90.312 1015.12 89.462C1014.2 88.612 1013.75 87.558 1013.75 86.3C1013.75 85.042 1014.2 83.988 1015.12 83.138C1016.04 82.288 1017.23 81.863 1018.69 81.863C1020.15 81.863 1021.34 82.271 1022.26 83.087C1023.18 83.869 1023.64 84.889 1023.64 86.147C1023.64 87.473 1023.18 88.578 1022.26 89.462C1021.38 90.312 1020.19 90.737 1018.69 90.737ZM1039.29 122.408C1036.94 122.408 1034.68 122.136 1032.5 121.592C1030.36 121.014 1028.66 120.3 1027.4 119.45L1030.05 113.738C1031.31 114.52 1032.79 115.166 1034.49 115.676C1036.23 116.152 1037.93 116.39 1039.59 116.39C1041.43 116.39 1042.72 116.169 1043.47 115.727C1044.25 115.285 1044.64 114.673 1044.64 113.891C1044.64 113.245 1044.33 112.769 1043.72 112.463C1043.14 112.123 1042.36 111.868 1041.38 111.698C1040.39 111.528 1039.3 111.358 1038.11 111.188C1036.96 111.018 1035.78 110.797 1034.59 110.525C1033.4 110.219 1032.32 109.777 1031.33 109.199C1030.34 108.621 1029.54 107.839 1028.93 106.853C1028.35 105.867 1028.07 104.592 1028.07 103.028C1028.07 101.294 1028.56 99.764 1029.54 98.438C1030.56 97.112 1032.03 96.075 1033.93 95.327C1035.83 94.545 1038.11 94.154 1040.76 94.154C1042.63 94.154 1044.54 94.358 1046.48 94.766C1048.41 95.174 1050.03 95.769 1051.32 96.551L1048.67 102.212C1047.34 101.43 1046 100.903 1044.64 100.631C1043.31 100.325 1042.02 100.172 1040.76 100.172C1039 100.172 1037.7 100.41 1036.89 100.886C1036.07 101.362 1035.66 101.974 1035.66 102.722C1035.66 103.402 1035.95 103.912 1036.53 104.252C1037.14 104.592 1037.94 104.864 1038.93 105.068C1039.91 105.272 1040.99 105.459 1042.14 105.629C1043.33 105.765 1044.52 105.986 1045.71 106.292C1046.9 106.598 1047.97 107.04 1048.92 107.618C1049.91 108.162 1050.71 108.927 1051.32 109.913C1051.93 110.865 1052.24 112.123 1052.24 113.687C1052.24 115.387 1051.73 116.9 1050.71 118.226C1049.69 119.518 1048.21 120.538 1046.27 121.286C1044.37 122.034 1042.04 122.408 1039.29 122.408ZM1057.15 122V94.562H1065.1V122H1057.15ZM1061.13 90.737C1059.66 90.737 1058.47 90.312 1057.56 89.462C1056.64 88.612 1056.18 87.558 1056.18 86.3C1056.18 85.042 1056.64 83.988 1057.56 83.138C1058.47 82.288 1059.66 81.863 1061.13 81.863C1062.59 81.863 1063.78 82.271 1064.7 83.087C1065.61 83.869 1066.07 84.889 1066.07 86.147C1066.07 87.473 1065.61 88.578 1064.7 89.462C1063.81 90.312 1062.62 90.737 1061.13 90.737ZM1106.45 122.408C1103.87 122.408 1101.54 121.83 1099.46 120.674C1097.39 119.484 1095.74 117.835 1094.52 115.727C1093.33 113.619 1092.73 111.137 1092.73 108.281C1092.73 105.391 1093.33 102.892 1094.52 100.784C1095.74 98.676 1097.39 97.044 1099.46 95.888C1101.54 94.732 1103.87 94.154 1106.45 94.154C1108.76 94.154 1110.78 94.664 1112.52 95.684C1114.25 96.704 1115.6 98.251 1116.55 100.325C1117.5 102.399 1117.98 105.051 1117.98 108.281C1117.98 111.477 1117.52 114.129 1116.6 116.237C1115.68 118.311 1114.35 119.858 1112.62 120.878C1110.92 121.898 1108.86 122.408 1106.45 122.408ZM1107.83 115.88C1109.12 115.88 1110.29 115.574 1111.35 114.962C1112.4 114.35 1113.23 113.483 1113.84 112.361C1114.49 111.205 1114.81 109.845 1114.81 108.281C1114.81 106.683 1114.49 105.323 1113.84 104.201C1113.23 103.079 1112.4 102.212 1111.35 101.6C1110.29 100.988 1109.12 100.682 1107.83 100.682C1106.5 100.682 1105.31 100.988 1104.26 101.6C1103.2 102.212 1102.35 103.079 1101.71 104.201C1101.09 105.323 1100.79 106.683 1100.79 108.281C1100.79 109.845 1101.09 111.205 1101.71 112.361C1102.35 113.483 1103.2 114.35 1104.26 114.962C1105.31 115.574 1106.5 115.88 1107.83 115.88ZM1115.02 122V116.39L1115.17 108.23L1114.66 100.121V84.158H1122.62V122H1115.02ZM1146.81 122V116.645L1146.3 115.472V105.884C1146.3 104.184 1145.77 102.858 1144.72 101.906C1143.7 100.954 1142.12 100.478 1139.98 100.478C1138.51 100.478 1137.07 100.716 1135.64 101.192C1134.25 101.634 1133.06 102.246 1132.07 103.028L1129.22 97.469C1130.71 96.415 1132.51 95.599 1134.62 95.021C1136.73 94.443 1138.87 94.154 1141.05 94.154C1145.23 94.154 1148.48 95.14 1150.79 97.112C1153.1 99.084 1154.26 102.161 1154.26 106.343V122H1146.81ZM1138.45 122.408C1136.3 122.408 1134.47 122.051 1132.94 121.337C1131.41 120.589 1130.24 119.586 1129.42 118.328C1128.6 117.07 1128.2 115.659 1128.2 114.095C1128.2 112.463 1128.59 111.035 1129.37 109.811C1130.18 108.587 1131.46 107.635 1133.19 106.955C1134.93 106.241 1137.19 105.884 1139.98 105.884H1147.27V110.525H1140.84C1138.97 110.525 1137.68 110.831 1136.97 111.443C1136.29 112.055 1135.95 112.82 1135.95 113.738C1135.95 114.758 1136.34 115.574 1137.12 116.186C1137.94 116.764 1139.04 117.053 1140.44 117.053C1141.76 117.053 1142.95 116.747 1144.01 116.135C1145.06 115.489 1145.82 114.554 1146.3 113.33L1147.52 117.002C1146.95 118.77 1145.89 120.113 1144.36 121.031C1142.83 121.949 1140.86 122.408 1138.45 122.408ZM1172.68 122.408C1169.45 122.408 1166.93 121.592 1165.13 119.96C1163.33 118.294 1162.43 115.829 1162.43 112.565V88.493H1170.38V112.463C1170.38 113.619 1170.69 114.52 1171.3 115.166C1171.91 115.778 1172.74 116.084 1173.8 116.084C1175.06 116.084 1176.13 115.744 1177.01 115.064L1179.15 120.674C1178.34 121.252 1177.35 121.694 1176.2 122C1175.07 122.272 1173.9 122.408 1172.68 122.408ZM1158.19 101.294V95.174H1177.22V101.294H1158.19ZM1200.45 122V116.645L1199.94 115.472V105.884C1199.94 104.184 1199.41 102.858 1198.36 101.906C1197.34 100.954 1195.76 100.478 1193.62 100.478C1192.15 100.478 1190.71 100.716 1189.28 101.192C1187.89 101.634 1186.7 102.246 1185.71 103.028L1182.85 97.469C1184.35 96.415 1186.15 95.599 1188.26 95.021C1190.37 94.443 1192.51 94.154 1194.69 94.154C1198.87 94.154 1202.12 95.14 1204.43 97.112C1206.74 99.084 1207.9 102.161 1207.9 106.343V122H1200.45ZM1192.09 122.408C1189.94 122.408 1188.11 122.051 1186.58 121.337C1185.05 120.589 1183.87 119.586 1183.06 118.328C1182.24 117.07 1181.83 115.659 1181.83 114.095C1181.83 112.463 1182.23 111.035 1183.01 109.811C1183.82 108.587 1185.1 107.635 1186.83 106.955C1188.57 106.241 1190.83 105.884 1193.62 105.884H1200.91V110.525H1194.48C1192.61 110.525 1191.32 110.831 1190.61 111.443C1189.93 112.055 1189.59 112.82 1189.59 113.738C1189.59 114.758 1189.98 115.574 1190.76 116.186C1191.58 116.764 1192.68 117.053 1194.07 117.053C1195.4 117.053 1196.59 116.747 1197.64 116.135C1198.7 115.489 1199.46 114.554 1199.94 113.33L1201.16 117.002C1200.59 118.77 1199.53 120.113 1198 121.031C1196.47 121.949 1194.5 122.408 1192.09 122.408ZM1249.06 122.408C1246.47 122.408 1244.15 121.83 1242.07 120.674C1240 119.484 1238.35 117.835 1237.12 115.727C1235.93 113.619 1235.34 111.137 1235.34 108.281C1235.34 105.391 1235.93 102.892 1237.12 100.784C1238.35 98.676 1240 97.044 1242.07 95.888C1244.15 94.732 1246.47 94.154 1249.06 94.154C1251.37 94.154 1253.39 94.664 1255.13 95.684C1256.86 96.704 1258.2 98.251 1259.16 100.325C1260.11 102.399 1260.58 105.051 1260.58 108.281C1260.58 111.477 1260.13 114.129 1259.21 116.237C1258.29 118.311 1256.96 119.858 1255.23 120.878C1253.53 121.898 1251.47 122.408 1249.06 122.408ZM1250.44 115.88C1251.73 115.88 1252.9 115.574 1253.95 114.962C1255.01 114.35 1255.84 113.483 1256.45 112.361C1257.1 111.205 1257.42 109.845 1257.42 108.281C1257.42 106.683 1257.1 105.323 1256.45 104.201C1255.84 103.079 1255.01 102.212 1253.95 101.6C1252.9 100.988 1251.73 100.682 1250.44 100.682C1249.11 100.682 1247.92 100.988 1246.87 101.6C1245.81 102.212 1244.96 103.079 1244.32 104.201C1243.7 105.323 1243.4 106.683 1243.4 108.281C1243.4 109.845 1243.7 111.205 1244.32 112.361C1244.96 113.483 1245.81 114.35 1246.87 114.962C1247.92 115.574 1249.11 115.88 1250.44 115.88ZM1257.63 122V116.39L1257.78 108.23L1257.27 100.121V84.158H1265.23V122H1257.63ZM1286.21 122.408C1283.08 122.408 1280.32 121.796 1277.94 120.572C1275.6 119.348 1273.78 117.682 1272.49 115.574C1271.19 113.432 1270.55 111.001 1270.55 108.281C1270.55 105.527 1271.18 103.096 1272.44 100.988C1273.73 98.846 1275.48 97.18 1277.69 95.99C1279.9 94.766 1282.4 94.154 1285.19 94.154C1287.87 94.154 1290.29 94.732 1292.43 95.888C1294.6 97.01 1296.32 98.642 1297.58 100.784C1298.84 102.892 1299.47 105.425 1299.47 108.383C1299.47 108.689 1299.45 109.046 1299.41 109.454C1299.38 109.828 1299.35 110.185 1299.31 110.525H1277.03V105.884H1295.13L1292.07 107.261C1292.07 105.833 1291.78 104.592 1291.2 103.538C1290.63 102.484 1289.83 101.668 1288.81 101.09C1287.79 100.478 1286.6 100.172 1285.24 100.172C1283.88 100.172 1282.67 100.478 1281.62 101.09C1280.6 101.668 1279.8 102.501 1279.22 103.589C1278.64 104.643 1278.35 105.901 1278.35 107.363V108.587C1278.35 110.083 1278.67 111.409 1279.32 112.565C1280 113.687 1280.94 114.554 1282.13 115.166C1283.35 115.744 1284.78 116.033 1286.41 116.033C1287.87 116.033 1289.15 115.812 1290.23 115.37C1291.36 114.928 1292.38 114.265 1293.29 113.381L1297.53 117.971C1296.27 119.399 1294.69 120.504 1292.78 121.286C1290.88 122.034 1288.69 122.408 1286.21 122.408ZM1321.44 94.154C1323.62 94.154 1325.55 94.596 1327.25 95.48C1328.99 96.33 1330.35 97.656 1331.33 99.458C1332.32 101.226 1332.81 103.504 1332.81 106.292V122H1324.86V107.516C1324.86 105.306 1324.36 103.674 1323.38 102.62C1322.43 101.566 1321.07 101.039 1319.3 101.039C1318.04 101.039 1316.9 101.311 1315.88 101.855C1314.89 102.365 1314.11 103.164 1313.53 104.252C1312.99 105.34 1312.72 106.734 1312.72 108.434V122H1304.76V94.562H1312.36V102.161L1310.93 99.866C1311.92 98.03 1313.33 96.619 1315.17 95.633C1317 94.647 1319.09 94.154 1321.44 94.154ZM1353.13 132.302C1350.54 132.302 1348.04 131.979 1345.63 131.333C1343.25 130.721 1341.26 129.786 1339.66 128.528L1342.82 122.816C1343.98 123.768 1345.44 124.516 1347.21 125.06C1349.01 125.638 1350.78 125.927 1352.51 125.927C1355.34 125.927 1357.38 125.298 1358.63 124.04C1359.93 122.782 1360.57 120.912 1360.57 118.43V114.299L1361.08 107.414L1360.98 100.478V94.562H1368.53V117.41C1368.53 122.51 1367.2 126.267 1364.55 128.681C1361.9 131.095 1358.09 132.302 1353.13 132.302ZM1351.9 120.674C1349.35 120.674 1347.04 120.13 1344.97 119.042C1342.93 117.92 1341.28 116.373 1340.02 114.401C1338.8 112.395 1338.18 110.066 1338.18 107.414C1338.18 104.728 1338.8 102.399 1340.02 100.427C1341.28 98.421 1342.93 96.874 1344.97 95.786C1347.04 94.698 1349.35 94.154 1351.9 94.154C1354.21 94.154 1356.25 94.63 1358.02 95.582C1359.79 96.5 1361.17 97.945 1362.15 99.917C1363.14 101.855 1363.63 104.354 1363.63 107.414C1363.63 110.44 1363.14 112.939 1362.15 114.911C1361.17 116.849 1359.79 118.294 1358.02 119.246C1356.25 120.198 1354.21 120.674 1351.9 120.674ZM1353.48 114.146C1354.88 114.146 1356.12 113.874 1357.21 113.33C1358.29 112.752 1359.14 111.953 1359.76 110.933C1360.37 109.913 1360.67 108.74 1360.67 107.414C1360.67 106.054 1360.37 104.881 1359.76 103.895C1359.14 102.875 1358.29 102.093 1357.21 101.549C1356.12 100.971 1354.88 100.682 1353.48 100.682C1352.09 100.682 1350.85 100.971 1349.76 101.549C1348.67 102.093 1347.81 102.875 1347.16 103.895C1346.55 104.881 1346.24 106.054 1346.24 107.414C1346.24 108.74 1346.55 109.913 1347.16 110.933C1347.81 111.953 1348.67 112.752 1349.76 113.33C1350.85 113.874 1352.09 114.146 1353.48 114.146ZM1392.76 122V116.645L1392.25 115.472V105.884C1392.25 104.184 1391.73 102.858 1390.67 101.906C1389.65 100.954 1388.07 100.478 1385.93 100.478C1384.47 100.478 1383.02 100.716 1381.59 101.192C1380.2 101.634 1379.01 102.246 1378.02 103.028L1375.17 97.469C1376.66 96.415 1378.47 95.599 1380.57 95.021C1382.68 94.443 1384.82 94.154 1387 94.154C1391.18 94.154 1394.43 95.14 1396.74 97.112C1399.05 99.084 1400.21 102.161 1400.21 106.343V122H1392.76ZM1384.4 122.408C1382.26 122.408 1380.42 122.051 1378.89 121.337C1377.36 120.589 1376.19 119.586 1375.37 118.328C1374.56 117.07 1374.15 115.659 1374.15 114.095C1374.15 112.463 1374.54 111.035 1375.32 109.811C1376.14 108.587 1377.41 107.635 1379.15 106.955C1380.88 106.241 1383.14 105.884 1385.93 105.884H1393.22V110.525H1386.8C1384.93 110.525 1383.63 110.831 1382.92 111.443C1382.24 112.055 1381.9 112.82 1381.9 113.738C1381.9 114.758 1382.29 115.574 1383.07 116.186C1383.89 116.764 1384.99 117.053 1386.39 117.053C1387.71 117.053 1388.9 116.747 1389.96 116.135C1391.01 115.489 1391.78 114.554 1392.25 113.33L1393.48 117.002C1392.9 118.77 1391.85 120.113 1390.32 121.031C1388.79 121.949 1386.81 122.408 1384.4 122.408ZM1424.09 94.154C1426.26 94.154 1428.2 94.596 1429.9 95.48C1431.64 96.33 1433 97.656 1433.98 99.458C1434.97 101.226 1435.46 103.504 1435.46 106.292V122H1427.5V107.516C1427.5 105.306 1427.01 103.674 1426.03 102.62C1425.07 101.566 1423.71 101.039 1421.95 101.039C1420.69 101.039 1419.55 101.311 1418.53 101.855C1417.54 102.365 1416.76 103.164 1416.18 104.252C1415.64 105.34 1415.37 106.734 1415.37 108.434V122H1407.41V94.562H1415.01V102.161L1413.58 99.866C1414.57 98.03 1415.98 96.619 1417.81 95.633C1419.65 94.647 1421.74 94.154 1424.09 94.154ZM338.632 194.302C337.408 194.302 336.235 194.166 335.113 193.894C333.991 193.656 333.039 193.282 332.257 192.772L334.399 187.009C335.317 187.655 336.439 187.978 337.765 187.978C338.751 187.978 339.533 187.638 340.111 186.958C340.723 186.312 341.029 185.326 341.029 184V156.562H348.985V183.949C348.985 187.111 348.084 189.627 346.282 191.497C344.48 193.367 341.93 194.302 338.632 194.302ZM345.007 152.737C343.545 152.737 342.355 152.312 341.437 151.462C340.519 150.612 340.06 149.558 340.06 148.3C340.06 147.042 340.519 145.988 341.437 145.138C342.355 144.288 343.545 143.863 345.007 143.863C346.469 143.863 347.659 144.271 348.577 145.087C349.495 145.869 349.954 146.889 349.954 148.147C349.954 149.473 349.495 150.578 348.577 151.462C347.693 152.312 346.503 152.737 345.007 152.737ZM367.888 184.408C365.61 184.408 363.57 183.966 361.768 183.082C360 182.198 358.623 180.855 357.637 179.053C356.651 177.217 356.158 174.888 356.158 172.066V156.562H364.114V170.893C364.114 173.171 364.59 174.854 365.542 175.942C366.528 176.996 367.905 177.523 369.673 177.523C370.897 177.523 371.985 177.268 372.937 176.758C373.889 176.214 374.637 175.398 375.181 174.31C375.725 173.188 375.997 171.794 375.997 170.128V156.562H383.953V184H376.405V176.452L377.782 178.645C376.864 180.549 375.504 181.994 373.702 182.98C371.934 183.932 369.996 184.408 367.888 184.408ZM389.283 194.302C388.059 194.302 386.886 194.166 385.764 193.894C384.642 193.656 383.69 193.282 382.908 192.772L385.05 187.009C385.968 187.655 387.09 187.978 388.416 187.978C389.402 187.978 390.184 187.638 390.762 186.958C391.374 186.312 391.68 185.326 391.68 184V156.562H399.636V183.949C399.636 187.111 398.735 189.627 396.933 191.497C395.131 193.367 392.581 194.302 389.283 194.302ZM395.658 152.737C394.196 152.737 393.006 152.312 392.088 151.462C391.17 150.612 390.711 149.558 390.711 148.3C390.711 147.042 391.17 145.988 392.088 145.138C393.006 144.288 394.196 143.863 395.658 143.863C397.12 143.863 398.31 144.271 399.228 145.087C400.146 145.869 400.605 146.889 400.605 148.147C400.605 149.473 400.146 150.578 399.228 151.462C398.344 152.312 397.154 152.737 395.658 152.737ZM418.539 184.408C416.261 184.408 414.221 183.966 412.419 183.082C410.651 182.198 409.274 180.855 408.288 179.053C407.302 177.217 406.809 174.888 406.809 172.066V156.562H414.765V170.893C414.765 173.171 415.241 174.854 416.193 175.942C417.179 176.996 418.556 177.523 420.324 177.523C421.548 177.523 422.636 177.268 423.588 176.758C424.54 176.214 425.288 175.398 425.832 174.31C426.376 173.188 426.648 171.794 426.648 170.128V156.562H434.604V184H427.056V176.452L428.433 178.645C427.515 180.549 426.155 181.994 424.353 182.98C422.585 183.932 420.647 184.408 418.539 184.408ZM441.975 184V156.562H449.574V164.314L448.503 162.07C449.319 160.132 450.628 158.67 452.43 157.684C454.232 156.664 456.425 156.154 459.009 156.154V163.498C458.669 163.464 458.363 163.447 458.091 163.447C457.819 163.413 457.53 163.396 457.224 163.396C455.048 163.396 453.28 164.025 451.92 165.283C450.594 166.507 449.931 168.428 449.931 171.046V184H441.975ZM465.673 184.255C464.925 184.255 464.279 183.983 463.735 183.439C463.225 182.895 462.97 182.232 462.97 181.45C462.97 180.634 463.225 179.971 463.735 179.461C464.279 178.951 464.925 178.696 465.673 178.696C466.421 178.696 467.05 178.951 467.56 179.461C468.104 179.971 468.376 180.634 468.376 181.45C468.376 182.232 468.104 182.895 467.56 183.439C467.05 183.983 466.421 184.255 465.673 184.255ZM512.208 184.306C510.202 184.306 508.315 183.864 506.547 182.98C504.813 182.096 503.419 180.838 502.365 179.206L504.558 176.656C505.544 178.084 506.683 179.172 507.975 179.92C509.267 180.668 510.695 181.042 512.259 181.042C516.679 181.042 518.889 178.424 518.889 173.188V151.564H505.833V148.3H522.612V173.035C522.612 176.809 521.728 179.631 519.96 181.501C518.226 183.371 515.642 184.306 512.208 184.306ZM533.167 184V157.225H536.788V184H533.167ZM535.003 151.309C534.255 151.309 533.626 151.054 533.116 150.544C532.606 150.034 532.351 149.422 532.351 148.708C532.351 147.994 532.606 147.399 533.116 146.923C533.626 146.413 534.255 146.158 535.003 146.158C535.751 146.158 536.38 146.396 536.89 146.872C537.4 147.348 537.655 147.943 537.655 148.657C537.655 149.405 537.4 150.034 536.89 150.544C536.414 151.054 535.785 151.309 535.003 151.309ZM549.72 177.064L549.822 172.423L566.499 157.225H570.936L559.155 168.496L557.115 170.23L549.72 177.064ZM546.864 184V146.158H550.485V184H546.864ZM567.621 184L556.452 170.077L558.798 167.272L572.058 184H567.621ZM593.775 184V178.084L593.622 177.115V167.221C593.622 164.943 592.976 163.192 591.684 161.968C590.426 160.744 588.539 160.132 586.023 160.132C584.289 160.132 582.64 160.421 581.076 160.999C579.512 161.577 578.186 162.342 577.098 163.294L575.466 160.591C576.826 159.435 578.458 158.551 580.362 157.939C582.266 157.293 584.272 156.97 586.38 156.97C589.848 156.97 592.517 157.837 594.387 159.571C596.291 161.271 597.243 163.872 597.243 167.374V184H593.775ZM584.544 184.255C582.538 184.255 580.787 183.932 579.291 183.286C577.829 182.606 576.707 181.688 575.925 180.532C575.143 179.342 574.752 177.982 574.752 176.452C574.752 175.058 575.075 173.8 575.721 172.678C576.401 171.522 577.489 170.604 578.985 169.924C580.515 169.21 582.555 168.853 585.105 168.853H594.336V171.556H585.207C582.623 171.556 580.821 172.015 579.801 172.933C578.815 173.851 578.322 174.99 578.322 176.35C578.322 177.88 578.917 179.104 580.107 180.022C581.297 180.94 582.963 181.399 585.105 181.399C587.145 181.399 588.896 180.94 590.358 180.022C591.854 179.07 592.942 177.71 593.622 175.942L594.438 178.441C593.758 180.209 592.568 181.62 590.868 182.674C589.202 183.728 587.094 184.255 584.544 184.255ZM649.231 184.255C646.681 184.255 644.386 183.677 642.346 182.521C640.34 181.365 638.759 179.767 637.603 177.727C636.447 175.653 635.869 173.273 635.869 170.587C635.869 167.867 636.447 165.487 637.603 163.447C638.759 161.407 640.34 159.826 642.346 158.704C644.386 157.548 646.681 156.97 649.231 156.97C651.577 156.97 653.668 157.497 655.504 158.551C657.374 159.605 658.853 161.152 659.941 163.192C661.063 165.198 661.624 167.663 661.624 170.587C661.624 173.477 661.08 175.942 659.992 177.982C658.904 180.022 657.425 181.586 655.555 182.674C653.719 183.728 651.611 184.255 649.231 184.255ZM649.486 181.042C651.39 181.042 653.09 180.617 654.586 179.767C656.116 178.883 657.306 177.659 658.156 176.095C659.04 174.497 659.482 172.661 659.482 170.587C659.482 168.479 659.04 166.643 658.156 165.079C657.306 163.515 656.116 162.308 654.586 161.458C653.09 160.574 651.39 160.132 649.486 160.132C647.616 160.132 645.933 160.574 644.437 161.458C642.941 162.308 641.751 163.515 640.867 165.079C639.983 166.643 639.541 168.479 639.541 170.587C639.541 172.661 639.983 174.497 640.867 176.095C641.751 177.659 642.941 178.883 644.437 179.767C645.933 180.617 647.616 181.042 649.486 181.042ZM659.584 184V175.942L659.941 170.536L659.431 165.13V146.158H663.052V184H659.584ZM673.136 184V157.225H676.757V184H673.136ZM674.972 151.309C674.224 151.309 673.595 151.054 673.085 150.544C672.575 150.034 672.32 149.422 672.32 148.708C672.32 147.994 672.575 147.399 673.085 146.923C673.595 146.413 674.224 146.158 674.972 146.158C675.72 146.158 676.349 146.396 676.859 146.872C677.369 147.348 677.624 147.943 677.624 148.657C677.624 149.405 677.369 150.034 676.859 150.544C676.383 151.054 675.754 151.309 674.972 151.309ZM695.299 184.255C692.783 184.255 690.845 183.575 689.485 182.215C688.125 180.855 687.445 178.934 687.445 176.452V151.309H691.066V176.248C691.066 177.812 691.457 179.019 692.239 179.869C693.055 180.719 694.211 181.144 695.707 181.144C697.305 181.144 698.631 180.685 699.685 179.767L700.96 182.368C700.246 183.014 699.379 183.49 698.359 183.796C697.373 184.102 696.353 184.255 695.299 184.255ZM682.651 160.234V157.225H699.226V160.234H682.651ZM717.978 184.255C715.19 184.255 712.742 183.677 710.634 182.521C708.526 181.331 706.877 179.716 705.687 177.676C704.497 175.602 703.902 173.239 703.902 170.587C703.902 167.935 704.463 165.589 705.585 163.549C706.741 161.509 708.305 159.911 710.277 158.755C712.283 157.565 714.527 156.97 717.009 156.97C719.525 156.97 721.752 157.548 723.69 158.704C725.662 159.826 727.209 161.424 728.331 163.498C729.453 165.538 730.014 167.901 730.014 170.587C730.014 170.757 729.997 170.944 729.963 171.148C729.963 171.318 729.963 171.505 729.963 171.709H706.656V169.006H728.025L726.597 170.077C726.597 168.139 726.172 166.422 725.322 164.926C724.506 163.396 723.384 162.206 721.956 161.356C720.528 160.506 718.879 160.081 717.009 160.081C715.173 160.081 713.524 160.506 712.062 161.356C710.6 162.206 709.461 163.396 708.645 164.926C707.829 166.456 707.421 168.207 707.421 170.179V170.74C707.421 172.78 707.863 174.582 708.747 176.146C709.665 177.676 710.923 178.883 712.521 179.767C714.153 180.617 716.006 181.042 718.08 181.042C719.712 181.042 721.225 180.753 722.619 180.175C724.047 179.597 725.271 178.713 726.291 177.523L728.331 179.869C727.141 181.297 725.645 182.385 723.843 183.133C722.075 183.881 720.12 184.255 717.978 184.255ZM770.84 156.97C773.016 156.97 774.903 157.395 776.501 158.245C778.133 159.061 779.391 160.319 780.275 162.019C781.193 163.719 781.652 165.861 781.652 168.445V184H778.031V168.802C778.031 165.98 777.351 163.855 775.991 162.427C774.665 160.965 772.778 160.234 770.33 160.234C768.494 160.234 766.896 160.625 765.536 161.407C764.21 162.155 763.173 163.26 762.425 164.722C761.711 166.15 761.354 167.884 761.354 169.924V184H757.733V168.802C757.733 165.98 757.053 163.855 755.693 162.427C754.333 160.965 752.429 160.234 749.981 160.234C748.179 160.234 746.598 160.625 745.238 161.407C743.878 162.155 742.824 163.26 742.076 164.722C741.362 166.15 741.005 167.884 741.005 169.924V184H737.384V157.225H740.852V164.467L740.291 163.192C741.107 161.254 742.416 159.741 744.218 158.653C746.054 157.531 748.213 156.97 750.695 156.97C753.313 156.97 755.54 157.633 757.376 158.959C759.212 160.251 760.402 162.206 760.946 164.824L759.518 164.263C760.3 162.087 761.677 160.336 763.649 159.01C765.655 157.65 768.052 156.97 770.84 156.97ZM802.539 184.255C800.261 184.255 798.272 183.83 796.572 182.98C794.872 182.13 793.546 180.855 792.594 179.155C791.676 177.455 791.217 175.33 791.217 172.78V157.225H794.838V172.372C794.838 175.228 795.535 177.387 796.929 178.849C798.357 180.277 800.346 180.991 802.896 180.991C804.766 180.991 806.381 180.617 807.741 179.869C809.135 179.087 810.189 177.965 810.903 176.503C811.651 175.041 812.025 173.29 812.025 171.25V157.225H815.646V184H812.178V176.656L812.739 177.982C811.889 179.954 810.563 181.501 808.761 182.623C806.993 183.711 804.919 184.255 802.539 184.255ZM828.594 177.064L828.696 172.423L845.373 157.225H849.81L838.029 168.496L835.989 170.23L828.594 177.064ZM825.738 184V146.158H829.359V184H825.738ZM846.495 184L835.326 170.077L837.672 167.272L850.932 184H846.495ZM872.649 184V178.084L872.496 177.115V167.221C872.496 164.943 871.85 163.192 870.558 161.968C869.3 160.744 867.413 160.132 864.897 160.132C863.163 160.132 861.514 160.421 859.95 160.999C858.386 161.577 857.06 162.342 855.972 163.294L854.34 160.591C855.7 159.435 857.332 158.551 859.236 157.939C861.14 157.293 863.146 156.97 865.254 156.97C868.722 156.97 871.391 157.837 873.261 159.571C875.165 161.271 876.117 163.872 876.117 167.374V184H872.649ZM863.418 184.255C861.412 184.255 859.661 183.932 858.165 183.286C856.703 182.606 855.581 181.688 854.799 180.532C854.017 179.342 853.626 177.982 853.626 176.452C853.626 175.058 853.949 173.8 854.595 172.678C855.275 171.522 856.363 170.604 857.859 169.924C859.389 169.21 861.429 168.853 863.979 168.853H873.21V171.556H864.081C861.497 171.556 859.695 172.015 858.675 172.933C857.689 173.851 857.196 174.99 857.196 176.35C857.196 177.88 857.791 179.104 858.981 180.022C860.171 180.94 861.837 181.399 863.979 181.399C866.019 181.399 867.77 180.94 869.232 180.022C870.728 179.07 871.816 177.71 872.496 175.942L873.312 178.441C872.632 180.209 871.442 181.62 869.742 182.674C868.076 183.728 865.968 184.255 863.418 184.255ZM899.62 156.97C901.796 156.97 903.7 157.395 905.332 158.245C906.998 159.061 908.29 160.319 909.208 162.019C910.16 163.719 910.636 165.861 910.636 168.445V184H907.015V168.802C907.015 165.98 906.301 163.855 904.873 162.427C903.479 160.965 901.507 160.234 898.957 160.234C897.053 160.234 895.387 160.625 893.959 161.407C892.565 162.155 891.477 163.26 890.695 164.722C889.947 166.15 889.573 167.884 889.573 169.924V184H885.952V157.225H889.42V164.569L888.859 163.192C889.709 161.254 891.069 159.741 892.939 158.653C894.809 157.531 897.036 156.97 899.62 156.97ZM954.767 177.064L954.869 172.423L971.546 157.225H975.983L964.202 168.496L962.162 170.23L954.767 177.064ZM951.911 184V146.158H955.532V184H951.911ZM972.668 184L961.499 170.077L963.845 167.272L977.105 184H972.668ZM992.868 184.255C990.08 184.255 987.632 183.677 985.524 182.521C983.416 181.331 981.767 179.716 980.577 177.676C979.387 175.602 978.792 173.239 978.792 170.587C978.792 167.935 979.353 165.589 980.475 163.549C981.631 161.509 983.195 159.911 985.167 158.755C987.173 157.565 989.417 156.97 991.899 156.97C994.415 156.97 996.642 157.548 998.58 158.704C1000.55 159.826 1002.1 161.424 1003.22 163.498C1004.34 165.538 1004.9 167.901 1004.9 170.587C1004.9 170.757 1004.89 170.944 1004.85 171.148C1004.85 171.318 1004.85 171.505 1004.85 171.709H981.546V169.006H1002.92L1001.49 170.077C1001.49 168.139 1001.06 166.422 1000.21 164.926C999.396 163.396 998.274 162.206 996.846 161.356C995.418 160.506 993.769 160.081 991.899 160.081C990.063 160.081 988.414 160.506 986.952 161.356C985.49 162.206 984.351 163.396 983.535 164.926C982.719 166.456 982.311 168.207 982.311 170.179V170.74C982.311 172.78 982.753 174.582 983.637 176.146C984.555 177.676 985.813 178.883 987.411 179.767C989.043 180.617 990.896 181.042 992.97 181.042C994.602 181.042 996.115 180.753 997.509 180.175C998.937 179.597 1000.16 178.713 1001.18 177.523L1003.22 179.869C1002.03 181.297 1000.54 182.385 998.733 183.133C996.965 183.881 995.01 184.255 992.868 184.255ZM1023.39 184.255C1020.74 184.255 1018.36 183.677 1016.25 182.521C1014.18 181.331 1012.55 179.716 1011.36 177.676C1010.17 175.602 1009.57 173.239 1009.57 170.587C1009.57 167.901 1010.17 165.538 1011.36 163.498C1012.55 161.458 1014.18 159.86 1016.25 158.704C1018.36 157.548 1020.74 156.97 1023.39 156.97C1025.67 156.97 1027.73 157.412 1029.56 158.296C1031.4 159.18 1032.84 160.506 1033.9 162.274L1031.2 164.11C1030.28 162.75 1029.14 161.747 1027.78 161.101C1026.42 160.455 1024.94 160.132 1023.34 160.132C1021.44 160.132 1019.72 160.574 1018.19 161.458C1016.66 162.308 1015.45 163.515 1014.57 165.079C1013.69 166.643 1013.24 168.479 1013.24 170.587C1013.24 172.695 1013.69 174.531 1014.57 176.095C1015.45 177.659 1016.66 178.883 1018.19 179.767C1019.72 180.617 1021.44 181.042 1023.34 181.042C1024.94 181.042 1026.42 180.719 1027.78 180.073C1029.14 179.427 1030.28 178.441 1031.2 177.115L1033.9 178.951C1032.84 180.685 1031.4 182.011 1029.56 182.929C1027.73 183.813 1025.67 184.255 1023.39 184.255ZM1052.08 184.255C1049.8 184.255 1047.81 183.83 1046.11 182.98C1044.41 182.13 1043.09 180.855 1042.13 179.155C1041.22 177.455 1040.76 175.33 1040.76 172.78V157.225H1044.38V172.372C1044.38 175.228 1045.07 177.387 1046.47 178.849C1047.9 180.277 1049.89 180.991 1052.44 180.991C1054.31 180.991 1055.92 180.617 1057.28 179.869C1058.67 179.087 1059.73 177.965 1060.44 176.503C1061.19 175.041 1061.56 173.29 1061.56 171.25V157.225H1065.19V184H1061.72V176.656L1062.28 177.982C1061.43 179.954 1060.1 181.501 1058.3 182.623C1056.53 183.711 1054.46 184.255 1052.08 184.255ZM1075.28 184V157.225H1078.75V164.518L1078.39 163.243C1079.14 161.203 1080.39 159.656 1082.16 158.602C1083.93 157.514 1086.12 156.97 1088.74 156.97V160.489C1088.61 160.489 1088.47 160.489 1088.33 160.489C1088.2 160.455 1088.06 160.438 1087.93 160.438C1085.1 160.438 1082.89 161.305 1081.3 163.039C1079.7 164.739 1078.9 167.17 1078.9 170.332V184H1075.28ZM1110.14 184V178.084L1109.98 177.115V167.221C1109.98 164.943 1109.34 163.192 1108.04 161.968C1106.79 160.744 1104.9 160.132 1102.38 160.132C1100.65 160.132 1099 160.421 1097.44 160.999C1095.87 161.577 1094.55 162.342 1093.46 163.294L1091.83 160.591C1093.19 159.435 1094.82 158.551 1096.72 157.939C1098.63 157.293 1100.63 156.97 1102.74 156.97C1106.21 156.97 1108.88 157.837 1110.75 159.571C1112.65 161.271 1113.6 163.872 1113.6 167.374V184H1110.14ZM1100.9 184.255C1098.9 184.255 1097.15 183.932 1095.65 183.286C1094.19 182.606 1093.07 181.688 1092.29 180.532C1091.5 179.342 1091.11 177.982 1091.11 176.452C1091.11 175.058 1091.44 173.8 1092.08 172.678C1092.76 171.522 1093.85 170.604 1095.35 169.924C1096.88 169.21 1098.92 168.853 1101.47 168.853H1110.7V171.556H1101.57C1098.98 171.556 1097.18 172.015 1096.16 172.933C1095.18 173.851 1094.68 174.99 1094.68 176.35C1094.68 177.88 1095.28 179.104 1096.47 180.022C1097.66 180.94 1099.32 181.399 1101.47 181.399C1103.51 181.399 1105.26 180.94 1106.72 180.022C1108.21 179.07 1109.3 177.71 1109.98 175.942L1110.8 178.441C1110.12 180.209 1108.93 181.62 1107.23 182.674C1105.56 183.728 1103.45 184.255 1100.9 184.255ZM1137.11 156.97C1139.28 156.97 1141.19 157.395 1142.82 158.245C1144.48 159.061 1145.78 160.319 1146.69 162.019C1147.65 163.719 1148.12 165.861 1148.12 168.445V184H1144.5V168.802C1144.5 165.98 1143.79 163.855 1142.36 162.427C1140.97 160.965 1138.99 160.234 1136.44 160.234C1134.54 160.234 1132.87 160.625 1131.45 161.407C1130.05 162.155 1128.96 163.26 1128.18 164.722C1127.43 166.15 1127.06 167.884 1127.06 169.924V184H1123.44V157.225H1126.91V164.569L1126.35 163.192C1127.2 161.254 1128.56 159.741 1130.43 158.653C1132.3 157.531 1134.52 156.97 1137.11 156.97ZM1169.33 194.149C1166.88 194.149 1164.53 193.792 1162.29 193.078C1160.05 192.364 1158.23 191.344 1156.83 190.018L1158.67 187.264C1159.93 188.386 1161.47 189.27 1163.31 189.916C1165.18 190.596 1167.15 190.936 1169.23 190.936C1172.63 190.936 1175.12 190.137 1176.72 188.539C1178.32 186.975 1179.12 184.527 1179.12 181.195V174.514L1179.63 169.924L1179.27 165.334V157.225H1182.74V180.736C1182.74 185.36 1181.6 188.743 1179.32 190.885C1177.08 193.061 1173.75 194.149 1169.33 194.149ZM1168.66 182.98C1166.11 182.98 1163.82 182.436 1161.78 181.348C1159.74 180.226 1158.12 178.679 1156.93 176.707C1155.78 174.735 1155.2 172.474 1155.2 169.924C1155.2 167.374 1155.78 165.13 1156.93 163.192C1158.12 161.22 1159.74 159.69 1161.78 158.602C1163.82 157.514 1166.11 156.97 1168.66 156.97C1171.04 156.97 1173.19 157.463 1175.09 158.449C1176.99 159.435 1178.51 160.897 1179.63 162.835C1180.75 164.773 1181.31 167.136 1181.31 169.924C1181.31 172.712 1180.75 175.075 1179.63 177.013C1178.51 178.951 1176.99 180.43 1175.09 181.45C1173.19 182.47 1171.04 182.98 1168.66 182.98ZM1169.02 179.767C1170.99 179.767 1172.74 179.359 1174.27 178.543C1175.8 177.693 1177.01 176.537 1177.9 175.075C1178.78 173.579 1179.22 171.862 1179.22 169.924C1179.22 167.986 1178.78 166.286 1177.9 164.824C1177.01 163.362 1175.8 162.223 1174.27 161.407C1172.74 160.557 1170.99 160.132 1169.02 160.132C1167.08 160.132 1165.33 160.557 1163.77 161.407C1162.24 162.223 1161.03 163.362 1160.15 164.824C1159.3 166.286 1158.87 167.986 1158.87 169.924C1158.87 171.862 1159.3 173.579 1160.15 175.075C1161.03 176.537 1162.24 177.693 1163.77 178.543C1165.33 179.359 1167.08 179.767 1169.02 179.767ZM1209.6 184V178.084L1209.44 177.115V167.221C1209.44 164.943 1208.8 163.192 1207.5 161.968C1206.25 160.744 1204.36 160.132 1201.84 160.132C1200.11 160.132 1198.46 160.421 1196.9 160.999C1195.33 161.577 1194.01 162.342 1192.92 163.294L1191.29 160.591C1192.65 159.435 1194.28 158.551 1196.18 157.939C1198.09 157.293 1200.09 156.97 1202.2 156.97C1205.67 156.97 1208.34 157.837 1210.21 159.571C1212.11 161.271 1213.06 163.872 1213.06 167.374V184H1209.6ZM1200.36 184.255C1198.36 184.255 1196.61 183.932 1195.11 183.286C1193.65 182.606 1192.53 181.688 1191.75 180.532C1190.96 179.342 1190.57 177.982 1190.57 176.452C1190.57 175.058 1190.9 173.8 1191.54 172.678C1192.22 171.522 1193.31 170.604 1194.81 169.924C1196.34 169.21 1198.38 168.853 1200.93 168.853H1210.16V171.556H1201.03C1198.44 171.556 1196.64 172.015 1195.62 172.933C1194.64 173.851 1194.14 174.99 1194.14 176.35C1194.14 177.88 1194.74 179.104 1195.93 180.022C1197.12 180.94 1198.78 181.399 1200.93 181.399C1202.97 181.399 1204.72 180.94 1206.18 180.022C1207.67 179.07 1208.76 177.71 1209.44 175.942L1210.26 178.441C1209.58 180.209 1208.39 181.62 1206.69 182.674C1205.02 183.728 1202.91 184.255 1200.36 184.255ZM1236.57 156.97C1238.74 156.97 1240.65 157.395 1242.28 158.245C1243.94 159.061 1245.24 160.319 1246.15 162.019C1247.11 163.719 1247.58 165.861 1247.58 168.445V184H1243.96V168.802C1243.96 165.98 1243.25 163.855 1241.82 162.427C1240.43 160.965 1238.45 160.234 1235.9 160.234C1234 160.234 1232.33 160.625 1230.91 161.407C1229.51 162.155 1228.42 163.26 1227.64 164.722C1226.89 166.15 1226.52 167.884 1226.52 169.924V184H1222.9V157.225H1226.37V164.569L1225.81 163.192C1226.66 161.254 1228.02 159.741 1229.89 158.653C1231.76 157.531 1233.98 156.97 1236.57 156.97ZM1255.17 191.446L1257.41 182.011L1257.82 184.204C1257.04 184.204 1256.38 183.949 1255.83 183.439C1255.32 182.929 1255.07 182.266 1255.07 181.45C1255.07 180.634 1255.32 179.971 1255.83 179.461C1256.38 178.951 1257.02 178.696 1257.77 178.696C1258.55 178.696 1259.18 178.968 1259.66 179.512C1260.17 180.056 1260.42 180.702 1260.42 181.45C1260.42 181.722 1260.41 181.994 1260.37 182.266C1260.34 182.538 1260.27 182.844 1260.17 183.184C1260.07 183.524 1259.93 183.932 1259.76 184.408L1257.62 191.446H1255.17ZM1333.12 156.97C1335.3 156.97 1337.18 157.395 1338.78 158.245C1340.41 159.061 1341.67 160.319 1342.56 162.019C1343.47 163.719 1343.93 165.861 1343.93 168.445V184H1340.31V168.802C1340.31 165.98 1339.63 163.855 1338.27 162.427C1336.95 160.965 1335.06 160.234 1332.61 160.234C1330.78 160.234 1329.18 160.625 1327.82 161.407C1326.49 162.155 1325.45 163.26 1324.71 164.722C1323.99 166.15 1323.64 167.884 1323.64 169.924V184H1320.01V168.802C1320.01 165.98 1319.33 163.855 1317.97 162.427C1316.61 160.965 1314.71 160.234 1312.26 160.234C1310.46 160.234 1308.88 160.625 1307.52 161.407C1306.16 162.155 1305.11 163.26 1304.36 164.722C1303.64 166.15 1303.29 167.884 1303.29 169.924V184H1299.67V157.225H1303.13V164.467L1302.57 163.192C1303.39 161.254 1304.7 159.741 1306.5 158.653C1308.34 157.531 1310.49 156.97 1312.98 156.97C1315.59 156.97 1317.82 157.633 1319.66 158.959C1321.49 160.251 1322.68 162.206 1323.23 164.824L1321.8 164.263C1322.58 162.087 1323.96 160.336 1325.93 159.01C1327.94 157.65 1330.33 156.97 1333.12 156.97ZM1370.53 184V178.084L1370.38 177.115V167.221C1370.38 164.943 1369.73 163.192 1368.44 161.968C1367.18 160.744 1365.3 160.132 1362.78 160.132C1361.05 160.132 1359.4 160.421 1357.83 160.999C1356.27 161.577 1354.94 162.342 1353.86 163.294L1352.22 160.591C1353.58 159.435 1355.22 158.551 1357.12 157.939C1359.02 157.293 1361.03 156.97 1363.14 156.97C1366.61 156.97 1369.27 157.837 1371.14 159.571C1373.05 161.271 1374 163.872 1374 167.374V184H1370.53ZM1361.3 184.255C1359.3 184.255 1357.54 183.932 1356.05 183.286C1354.59 182.606 1353.46 181.688 1352.68 180.532C1351.9 179.342 1351.51 177.982 1351.51 176.452C1351.51 175.058 1351.83 173.8 1352.48 172.678C1353.16 171.522 1354.25 170.604 1355.74 169.924C1357.27 169.21 1359.31 168.853 1361.86 168.853H1371.09V171.556H1361.96C1359.38 171.556 1357.58 172.015 1356.56 172.933C1355.57 173.851 1355.08 174.99 1355.08 176.35C1355.08 177.88 1355.67 179.104 1356.86 180.022C1358.05 180.94 1359.72 181.399 1361.86 181.399C1363.9 181.399 1365.65 180.94 1367.12 180.022C1368.61 179.07 1369.7 177.71 1370.38 175.942L1371.2 178.441C1370.52 180.209 1369.33 181.62 1367.63 182.674C1365.96 183.728 1363.85 184.255 1361.3 184.255ZM1386.69 177.064L1386.79 172.423L1403.47 157.225H1407.91L1396.13 168.496L1394.09 170.23L1386.69 177.064ZM1383.84 184V146.158H1387.46V184H1383.84ZM1404.59 184L1393.42 170.077L1395.77 167.272L1409.03 184H1404.59ZM1430.75 184V178.084L1430.59 177.115V167.221C1430.59 164.943 1429.95 163.192 1428.65 161.968C1427.4 160.744 1425.51 160.132 1422.99 160.132C1421.26 160.132 1419.61 160.421 1418.05 160.999C1416.48 161.577 1415.16 162.342 1414.07 163.294L1412.44 160.591C1413.8 159.435 1415.43 158.551 1417.33 157.939C1419.24 157.293 1421.24 156.97 1423.35 156.97C1426.82 156.97 1429.49 157.837 1431.36 159.571C1433.26 161.271 1434.21 163.872 1434.21 167.374V184H1430.75ZM1421.51 184.255C1419.51 184.255 1417.76 183.932 1416.26 183.286C1414.8 182.606 1413.68 181.688 1412.9 180.532C1412.11 179.342 1411.72 177.982 1411.72 176.452C1411.72 175.058 1412.05 173.8 1412.69 172.678C1413.37 171.522 1414.46 170.604 1415.96 169.924C1417.49 169.21 1419.53 168.853 1422.08 168.853H1431.31V171.556H1422.18C1419.59 171.556 1417.79 172.015 1416.77 172.933C1415.79 173.851 1415.29 174.99 1415.29 176.35C1415.29 177.88 1415.89 179.104 1417.08 180.022C1418.27 180.94 1419.93 181.399 1422.08 181.399C1424.12 181.399 1425.87 180.94 1427.33 180.022C1428.82 179.07 1429.91 177.71 1430.59 175.942L1431.41 178.441C1430.73 180.209 1429.54 181.62 1427.84 182.674C1426.17 183.728 1424.06 184.255 1421.51 184.255ZM355.87 246.255C353.558 246.255 351.467 245.728 349.597 244.674C347.727 243.586 346.231 242.039 345.109 240.033C344.021 237.993 343.477 235.511 343.477 232.587C343.477 229.663 344.021 227.198 345.109 225.192C346.197 223.152 347.676 221.605 349.546 220.551C351.416 219.497 353.524 218.97 355.87 218.97C358.42 218.97 360.698 219.548 362.704 220.704C364.744 221.826 366.342 223.424 367.498 225.498C368.654 227.538 369.232 229.901 369.232 232.587C369.232 235.307 368.654 237.687 367.498 239.727C366.342 241.767 364.744 243.365 362.704 244.521C360.698 245.677 358.42 246.255 355.87 246.255ZM342.049 255.894V219.225H345.517V227.283L345.16 232.638L345.67 238.044V255.894H342.049ZM355.615 243.042C357.519 243.042 359.219 242.617 360.715 241.767C362.211 240.883 363.401 239.659 364.285 238.095C365.169 236.497 365.611 234.661 365.611 232.587C365.611 230.513 365.169 228.694 364.285 227.13C363.401 225.566 362.211 224.342 360.715 223.458C359.219 222.574 357.519 222.132 355.615 222.132C353.711 222.132 351.994 222.574 350.464 223.458C348.968 224.342 347.778 225.566 346.894 227.13C346.044 228.694 345.619 230.513 345.619 232.587C345.619 234.661 346.044 236.497 346.894 238.095C347.778 239.659 348.968 240.883 350.464 241.767C351.994 242.617 353.711 243.042 355.615 243.042ZM387.986 246.255C385.198 246.255 382.75 245.677 380.642 244.521C378.534 243.331 376.885 241.716 375.695 239.676C374.505 237.602 373.91 235.239 373.91 232.587C373.91 229.935 374.471 227.589 375.593 225.549C376.749 223.509 378.313 221.911 380.285 220.755C382.291 219.565 384.535 218.97 387.017 218.97C389.533 218.97 391.76 219.548 393.698 220.704C395.67 221.826 397.217 223.424 398.339 225.498C399.461 227.538 400.022 229.901 400.022 232.587C400.022 232.757 400.005 232.944 399.971 233.148C399.971 233.318 399.971 233.505 399.971 233.709H376.664V231.006H398.033L396.605 232.077C396.605 230.139 396.18 228.422 395.33 226.926C394.514 225.396 393.392 224.206 391.964 223.356C390.536 222.506 388.887 222.081 387.017 222.081C385.181 222.081 383.532 222.506 382.07 223.356C380.608 224.206 379.469 225.396 378.653 226.926C377.837 228.456 377.429 230.207 377.429 232.179V232.74C377.429 234.78 377.871 236.582 378.755 238.146C379.673 239.676 380.931 240.883 382.529 241.767C384.161 242.617 386.014 243.042 388.088 243.042C389.72 243.042 391.233 242.753 392.627 242.175C394.055 241.597 395.279 240.713 396.299 239.523L398.339 241.869C397.149 243.297 395.653 244.385 393.851 245.133C392.083 245.881 390.128 246.255 387.986 246.255ZM414.584 246.255C412.374 246.255 410.283 245.949 408.311 245.337C406.339 244.691 404.792 243.892 403.67 242.94L405.302 240.084C406.39 240.9 407.784 241.614 409.484 242.226C411.184 242.804 412.969 243.093 414.839 243.093C417.389 243.093 419.225 242.702 420.347 241.92C421.469 241.104 422.03 240.033 422.03 238.707C422.03 237.721 421.707 236.956 421.061 236.412C420.449 235.834 419.633 235.409 418.613 235.137C417.593 234.831 416.454 234.576 415.196 234.372C413.938 234.168 412.68 233.93 411.422 233.658C410.198 233.386 409.076 232.995 408.056 232.485C407.036 231.941 406.203 231.21 405.557 230.292C404.945 229.374 404.639 228.15 404.639 226.62C404.639 225.158 405.047 223.849 405.863 222.693C406.679 221.537 407.869 220.636 409.433 219.99C411.031 219.31 412.969 218.97 415.247 218.97C416.981 218.97 418.715 219.208 420.449 219.684C422.183 220.126 423.611 220.721 424.733 221.469L423.152 224.376C421.962 223.56 420.687 222.982 419.327 222.642C417.967 222.268 416.607 222.081 415.247 222.081C412.833 222.081 411.048 222.506 409.892 223.356C408.77 224.172 408.209 225.226 408.209 226.518C408.209 227.538 408.515 228.337 409.127 228.915C409.773 229.493 410.606 229.952 411.626 230.292C412.68 230.598 413.819 230.853 415.043 231.057C416.301 231.261 417.542 231.516 418.766 231.822C420.024 232.094 421.163 232.485 422.183 232.995C423.237 233.471 424.07 234.168 424.682 235.086C425.328 235.97 425.651 237.143 425.651 238.605C425.651 240.169 425.209 241.529 424.325 242.685C423.475 243.807 422.217 244.691 420.551 245.337C418.919 245.949 416.93 246.255 414.584 246.255ZM443.668 246.255C440.88 246.255 438.432 245.677 436.324 244.521C434.216 243.331 432.567 241.716 431.377 239.676C430.187 237.602 429.592 235.239 429.592 232.587C429.592 229.935 430.153 227.589 431.275 225.549C432.431 223.509 433.995 221.911 435.967 220.755C437.973 219.565 440.217 218.97 442.699 218.97C445.215 218.97 447.442 219.548 449.38 220.704C451.352 221.826 452.899 223.424 454.021 225.498C455.143 227.538 455.704 229.901 455.704 232.587C455.704 232.757 455.687 232.944 455.653 233.148C455.653 233.318 455.653 233.505 455.653 233.709H432.346V231.006H453.715L452.287 232.077C452.287 230.139 451.862 228.422 451.012 226.926C450.196 225.396 449.074 224.206 447.646 223.356C446.218 222.506 444.569 222.081 442.699 222.081C440.863 222.081 439.214 222.506 437.752 223.356C436.29 224.206 435.151 225.396 434.335 226.926C433.519 228.456 433.111 230.207 433.111 232.179V232.74C433.111 234.78 433.553 236.582 434.437 238.146C435.355 239.676 436.613 240.883 438.211 241.767C439.843 242.617 441.696 243.042 443.77 243.042C445.402 243.042 446.915 242.753 448.309 242.175C449.737 241.597 450.961 240.713 451.981 239.523L454.021 241.869C452.831 243.297 451.335 244.385 449.533 245.133C447.765 245.881 445.81 246.255 443.668 246.255ZM463.074 246V219.225H466.542V226.518L466.185 225.243C466.933 223.203 468.191 221.656 469.959 220.602C471.727 219.514 473.92 218.97 476.538 218.97V222.489C476.402 222.489 476.266 222.489 476.13 222.489C475.994 222.455 475.858 222.438 475.722 222.438C472.9 222.438 470.69 223.305 469.092 225.039C467.494 226.739 466.695 229.17 466.695 232.332V246H463.074ZM492.757 246.255C490.241 246.255 488.303 245.575 486.943 244.215C485.583 242.855 484.903 240.934 484.903 238.452V213.309H488.524V238.248C488.524 239.812 488.915 241.019 489.697 241.869C490.513 242.719 491.669 243.144 493.165 243.144C494.763 243.144 496.089 242.685 497.143 241.767L498.418 244.368C497.704 245.014 496.837 245.49 495.817 245.796C494.831 246.102 493.811 246.255 492.757 246.255ZM480.109 222.234V219.225H496.684V222.234H480.109ZM521.789 246V240.084L521.636 239.115V229.221C521.636 226.943 520.99 225.192 519.698 223.968C518.44 222.744 516.553 222.132 514.037 222.132C512.303 222.132 510.654 222.421 509.09 222.999C507.526 223.577 506.2 224.342 505.112 225.294L503.48 222.591C504.84 221.435 506.472 220.551 508.376 219.939C510.28 219.293 512.286 218.97 514.394 218.97C517.862 218.97 520.531 219.837 522.401 221.571C524.305 223.271 525.257 225.872 525.257 229.374V246H521.789ZM512.558 246.255C510.552 246.255 508.801 245.932 507.305 245.286C505.843 244.606 504.721 243.688 503.939 242.532C503.157 241.342 502.766 239.982 502.766 238.452C502.766 237.058 503.089 235.8 503.735 234.678C504.415 233.522 505.503 232.604 506.999 231.924C508.529 231.21 510.569 230.853 513.119 230.853H522.35V233.556H513.221C510.637 233.556 508.835 234.015 507.815 234.933C506.829 235.851 506.336 236.99 506.336 238.35C506.336 239.88 506.931 241.104 508.121 242.022C509.311 242.94 510.977 243.399 513.119 243.399C515.159 243.399 516.91 242.94 518.372 242.022C519.868 241.07 520.956 239.71 521.636 237.942L522.452 240.441C521.772 242.209 520.582 243.62 518.882 244.674C517.216 245.728 515.108 246.255 512.558 246.255ZM565.219 246V240.084L565.066 239.115V229.221C565.066 226.943 564.42 225.192 563.128 223.968C561.87 222.744 559.983 222.132 557.467 222.132C555.733 222.132 554.084 222.421 552.52 222.999C550.956 223.577 549.63 224.342 548.542 225.294L546.91 222.591C548.27 221.435 549.902 220.551 551.806 219.939C553.71 219.293 555.716 218.97 557.824 218.97C561.292 218.97 563.961 219.837 565.831 221.571C567.735 223.271 568.687 225.872 568.687 229.374V246H565.219ZM555.988 246.255C553.982 246.255 552.231 245.932 550.735 245.286C549.273 244.606 548.151 243.688 547.369 242.532C546.587 241.342 546.196 239.982 546.196 238.452C546.196 237.058 546.519 235.8 547.165 234.678C547.845 233.522 548.933 232.604 550.429 231.924C551.959 231.21 553.999 230.853 556.549 230.853H565.78V233.556H556.651C554.067 233.556 552.265 234.015 551.245 234.933C550.259 235.851 549.766 236.99 549.766 238.35C549.766 239.88 550.361 241.104 551.551 242.022C552.741 242.94 554.407 243.399 556.549 243.399C558.589 243.399 560.34 242.94 561.802 242.022C563.298 241.07 564.386 239.71 565.066 237.942L565.882 240.441C565.202 242.209 564.012 243.62 562.312 244.674C560.646 245.728 558.538 246.255 555.988 246.255ZM581.378 239.064L581.48 234.423L598.157 219.225H602.594L590.813 230.496L588.773 232.23L581.378 239.064ZM578.522 246V208.158H582.143V246H578.522ZM599.279 246L588.11 232.077L590.456 229.272L603.716 246H599.279ZM625.432 246V240.084L625.279 239.115V229.221C625.279 226.943 624.633 225.192 623.341 223.968C622.083 222.744 620.196 222.132 617.68 222.132C615.946 222.132 614.297 222.421 612.733 222.999C611.169 223.577 609.843 224.342 608.755 225.294L607.123 222.591C608.483 221.435 610.115 220.551 612.019 219.939C613.923 219.293 615.929 218.97 618.037 218.97C621.505 218.97 624.174 219.837 626.044 221.571C627.948 223.271 628.9 225.872 628.9 229.374V246H625.432ZM616.201 246.255C614.195 246.255 612.444 245.932 610.948 245.286C609.486 244.606 608.364 243.688 607.582 242.532C606.8 241.342 606.409 239.982 606.409 238.452C606.409 237.058 606.732 235.8 607.378 234.678C608.058 233.522 609.146 232.604 610.642 231.924C612.172 231.21 614.212 230.853 616.762 230.853H625.993V233.556H616.864C614.28 233.556 612.478 234.015 611.458 234.933C610.472 235.851 609.979 236.99 609.979 238.35C609.979 239.88 610.574 241.104 611.764 242.022C612.954 242.94 614.62 243.399 616.762 243.399C618.802 243.399 620.553 242.94 622.015 242.022C623.511 241.07 624.599 239.71 625.279 237.942L626.095 240.441C625.415 242.209 624.225 243.62 622.525 244.674C620.859 245.728 618.751 246.255 616.201 246.255ZM652.404 218.97C654.58 218.97 656.484 219.395 658.116 220.245C659.782 221.061 661.074 222.319 661.992 224.019C662.944 225.719 663.42 227.861 663.42 230.445V246H659.799V230.802C659.799 227.98 659.085 225.855 657.657 224.427C656.263 222.965 654.291 222.234 651.741 222.234C649.837 222.234 648.171 222.625 646.743 223.407C645.349 224.155 644.261 225.26 643.479 226.722C642.731 228.15 642.357 229.884 642.357 231.924V246H638.736V219.225H642.204V226.569L641.643 225.192C642.493 223.254 643.853 221.741 645.723 220.653C647.593 219.531 649.82 218.97 652.404 218.97ZM686.548 246V208.158H690.169V246H686.548ZM717.023 246V240.084L716.87 239.115V229.221C716.87 226.943 716.224 225.192 714.932 223.968C713.674 222.744 711.787 222.132 709.271 222.132C707.537 222.132 705.888 222.421 704.324 222.999C702.76 223.577 701.434 224.342 700.346 225.294L698.714 222.591C700.074 221.435 701.706 220.551 703.61 219.939C705.514 219.293 707.52 218.97 709.628 218.97C713.096 218.97 715.765 219.837 717.635 221.571C719.539 223.271 720.491 225.872 720.491 229.374V246H717.023ZM707.792 246.255C705.786 246.255 704.035 245.932 702.539 245.286C701.077 244.606 699.955 243.688 699.173 242.532C698.391 241.342 698 239.982 698 238.452C698 237.058 698.323 235.8 698.969 234.678C699.649 233.522 700.737 232.604 702.233 231.924C703.763 231.21 705.803 230.853 708.353 230.853H717.584V233.556H708.455C705.871 233.556 704.069 234.015 703.049 234.933C702.063 235.851 701.57 236.99 701.57 238.35C701.57 239.88 702.165 241.104 703.355 242.022C704.545 242.94 706.211 243.399 708.353 243.399C710.393 243.399 712.144 242.94 713.606 242.022C715.102 241.07 716.19 239.71 716.87 237.942L717.686 240.441C717.006 242.209 715.816 243.62 714.116 244.674C712.45 245.728 710.342 246.255 707.792 246.255ZM743.994 218.97C746.17 218.97 748.074 219.395 749.706 220.245C751.372 221.061 752.664 222.319 753.582 224.019C754.534 225.719 755.01 227.861 755.01 230.445V246H751.389V230.802C751.389 227.98 750.675 225.855 749.247 224.427C747.853 222.965 745.881 222.234 743.331 222.234C741.427 222.234 739.761 222.625 738.333 223.407C736.939 224.155 735.851 225.26 735.069 226.722C734.321 228.15 733.947 229.884 733.947 231.924V246H730.326V219.225H733.794V226.569L733.233 225.192C734.083 223.254 735.443 221.741 737.313 220.653C739.183 219.531 741.41 218.97 743.994 218.97ZM776.215 256.149C773.767 256.149 771.421 255.792 769.177 255.078C766.933 254.364 765.114 253.344 763.72 252.018L765.556 249.264C766.814 250.386 768.361 251.27 770.197 251.916C772.067 252.596 774.039 252.936 776.113 252.936C779.513 252.936 782.012 252.137 783.61 250.539C785.208 248.975 786.007 246.527 786.007 243.195V236.514L786.517 231.924L786.16 227.334V219.225H789.628V242.736C789.628 247.36 788.489 250.743 786.211 252.885C783.967 255.061 780.635 256.149 776.215 256.149ZM775.552 244.98C773.002 244.98 770.707 244.436 768.667 243.348C766.627 242.226 765.012 240.679 763.822 238.707C762.666 236.735 762.088 234.474 762.088 231.924C762.088 229.374 762.666 227.13 763.822 225.192C765.012 223.22 766.627 221.69 768.667 220.602C770.707 219.514 773.002 218.97 775.552 218.97C777.932 218.97 780.074 219.463 781.978 220.449C783.882 221.435 785.395 222.897 786.517 224.835C787.639 226.773 788.2 229.136 788.2 231.924C788.2 234.712 787.639 237.075 786.517 239.013C785.395 240.951 783.882 242.43 781.978 243.45C780.074 244.47 777.932 244.98 775.552 244.98ZM775.909 241.767C777.881 241.767 779.632 241.359 781.162 240.543C782.692 239.693 783.899 238.537 784.783 237.075C785.667 235.579 786.109 233.862 786.109 231.924C786.109 229.986 785.667 228.286 784.783 226.824C783.899 225.362 782.692 224.223 781.162 223.407C779.632 222.557 777.881 222.132 775.909 222.132C773.971 222.132 772.22 222.557 770.656 223.407C769.126 224.223 767.919 225.362 767.035 226.824C766.185 228.286 765.76 229.986 765.76 231.924C765.76 233.862 766.185 235.579 767.035 237.075C767.919 238.537 769.126 239.693 770.656 240.543C772.22 241.359 773.971 241.767 775.909 241.767ZM806.895 246.255C804.685 246.255 802.594 245.949 800.622 245.337C798.65 244.691 797.103 243.892 795.981 242.94L797.613 240.084C798.701 240.9 800.095 241.614 801.795 242.226C803.495 242.804 805.28 243.093 807.15 243.093C809.7 243.093 811.536 242.702 812.658 241.92C813.78 241.104 814.341 240.033 814.341 238.707C814.341 237.721 814.018 236.956 813.372 236.412C812.76 235.834 811.944 235.409 810.924 235.137C809.904 234.831 808.765 234.576 807.507 234.372C806.249 234.168 804.991 233.93 803.733 233.658C802.509 233.386 801.387 232.995 800.367 232.485C799.347 231.941 798.514 231.21 797.868 230.292C797.256 229.374 796.95 228.15 796.95 226.62C796.95 225.158 797.358 223.849 798.174 222.693C798.99 221.537 800.18 220.636 801.744 219.99C803.342 219.31 805.28 218.97 807.558 218.97C809.292 218.97 811.026 219.208 812.76 219.684C814.494 220.126 815.922 220.721 817.044 221.469L815.463 224.376C814.273 223.56 812.998 222.982 811.638 222.642C810.278 222.268 808.918 222.081 807.558 222.081C805.144 222.081 803.359 222.506 802.203 223.356C801.081 224.172 800.52 225.226 800.52 226.518C800.52 227.538 800.826 228.337 801.438 228.915C802.084 229.493 802.917 229.952 803.937 230.292C804.991 230.598 806.13 230.853 807.354 231.057C808.612 231.261 809.853 231.516 811.077 231.822C812.335 232.094 813.474 232.485 814.494 232.995C815.548 233.471 816.381 234.168 816.993 235.086C817.639 235.97 817.962 237.143 817.962 238.605C817.962 240.169 817.52 241.529 816.636 242.685C815.786 243.807 814.528 244.691 812.862 245.337C811.23 245.949 809.241 246.255 806.895 246.255ZM835.674 246.255C833.396 246.255 831.407 245.83 829.707 244.98C828.007 244.13 826.681 242.855 825.729 241.155C824.811 239.455 824.352 237.33 824.352 234.78V219.225H827.973V234.372C827.973 237.228 828.67 239.387 830.064 240.849C831.492 242.277 833.481 242.991 836.031 242.991C837.901 242.991 839.516 242.617 840.876 241.869C842.27 241.087 843.324 239.965 844.038 238.503C844.786 237.041 845.16 235.29 845.16 233.25V219.225H848.781V246H845.313V238.656L845.874 239.982C845.024 241.954 843.698 243.501 841.896 244.623C840.128 245.711 838.054 246.255 835.674 246.255ZM872.54 218.97C874.716 218.97 876.62 219.395 878.252 220.245C879.918 221.061 881.21 222.319 882.128 224.019C883.08 225.719 883.556 227.861 883.556 230.445V246H879.935V230.802C879.935 227.98 879.221 225.855 877.793 224.427C876.399 222.965 874.427 222.234 871.877 222.234C869.973 222.234 868.307 222.625 866.879 223.407C865.485 224.155 864.397 225.26 863.615 226.722C862.867 228.15 862.493 229.884 862.493 231.924V246H858.872V219.225H862.34V226.569L861.779 225.192C862.629 223.254 863.989 221.741 865.859 220.653C867.729 219.531 869.956 218.97 872.54 218.97ZM904.761 256.149C902.313 256.149 899.967 255.792 897.723 255.078C895.479 254.364 893.66 253.344 892.266 252.018L894.102 249.264C895.36 250.386 896.907 251.27 898.743 251.916C900.613 252.596 902.585 252.936 904.659 252.936C908.059 252.936 910.558 252.137 912.156 250.539C913.754 248.975 914.553 246.527 914.553 243.195V236.514L915.063 231.924L914.706 227.334V219.225H918.174V242.736C918.174 247.36 917.035 250.743 914.757 252.885C912.513 255.061 909.181 256.149 904.761 256.149ZM904.098 244.98C901.548 244.98 899.253 244.436 897.213 243.348C895.173 242.226 893.558 240.679 892.368 238.707C891.212 236.735 890.634 234.474 890.634 231.924C890.634 229.374 891.212 227.13 892.368 225.192C893.558 223.22 895.173 221.69 897.213 220.602C899.253 219.514 901.548 218.97 904.098 218.97C906.478 218.97 908.62 219.463 910.524 220.449C912.428 221.435 913.941 222.897 915.063 224.835C916.185 226.773 916.746 229.136 916.746 231.924C916.746 234.712 916.185 237.075 915.063 239.013C913.941 240.951 912.428 242.43 910.524 243.45C908.62 244.47 906.478 244.98 904.098 244.98ZM904.455 241.767C906.427 241.767 908.178 241.359 909.708 240.543C911.238 239.693 912.445 238.537 913.329 237.075C914.213 235.579 914.655 233.862 914.655 231.924C914.655 229.986 914.213 228.286 913.329 226.824C912.445 225.362 911.238 224.223 909.708 223.407C908.178 222.557 906.427 222.132 904.455 222.132C902.517 222.132 900.766 222.557 899.202 223.407C897.672 224.223 896.465 225.362 895.581 226.824C894.731 228.286 894.306 229.986 894.306 231.924C894.306 233.862 894.731 235.579 895.581 237.075C896.465 238.537 897.672 239.693 899.202 240.543C900.766 241.359 902.517 241.767 904.455 241.767ZM952.257 246.255C949.707 246.255 947.412 245.677 945.372 244.521C943.366 243.365 941.785 241.767 940.629 239.727C939.473 237.653 938.895 235.273 938.895 232.587C938.895 229.867 939.473 227.487 940.629 225.447C941.785 223.407 943.366 221.826 945.372 220.704C947.412 219.548 949.707 218.97 952.257 218.97C954.603 218.97 956.694 219.497 958.53 220.551C960.4 221.605 961.879 223.152 962.967 225.192C964.089 227.198 964.65 229.663 964.65 232.587C964.65 235.477 964.106 237.942 963.018 239.982C961.93 242.022 960.451 243.586 958.581 244.674C956.745 245.728 954.637 246.255 952.257 246.255ZM952.512 243.042C954.416 243.042 956.116 242.617 957.612 241.767C959.142 240.883 960.332 239.659 961.182 238.095C962.066 236.497 962.508 234.661 962.508 232.587C962.508 230.479 962.066 228.643 961.182 227.079C960.332 225.515 959.142 224.308 957.612 223.458C956.116 222.574 954.416 222.132 952.512 222.132C950.642 222.132 948.959 222.574 947.463 223.458C945.967 224.308 944.777 225.515 943.893 227.079C943.009 228.643 942.567 230.479 942.567 232.587C942.567 234.661 943.009 236.497 943.893 238.095C944.777 239.659 945.967 240.883 947.463 241.767C948.959 242.617 950.642 243.042 952.512 243.042ZM962.61 246V237.942L962.967 232.536L962.457 227.13V208.158H966.078V246H962.61ZM976.162 246V219.225H979.783V246H976.162ZM977.998 213.309C977.25 213.309 976.621 213.054 976.111 212.544C975.601 212.034 975.346 211.422 975.346 210.708C975.346 209.994 975.601 209.399 976.111 208.923C976.621 208.413 977.25 208.158 977.998 208.158C978.746 208.158 979.375 208.396 979.885 208.872C980.395 209.348 980.65 209.943 980.65 210.657C980.65 211.405 980.395 212.034 979.885 212.544C979.409 213.054 978.78 213.309 977.998 213.309ZM1000.52 246.255C997.968 246.255 995.673 245.677 993.633 244.521C991.627 243.365 990.046 241.767 988.89 239.727C987.734 237.653 987.156 235.273 987.156 232.587C987.156 229.867 987.734 227.487 988.89 225.447C990.046 223.407 991.627 221.826 993.633 220.704C995.673 219.548 997.968 218.97 1000.52 218.97C1002.86 218.97 1004.95 219.497 1006.79 220.551C1008.66 221.605 1010.14 223.152 1011.23 225.192C1012.35 227.198 1012.91 229.663 1012.91 232.587C1012.91 235.477 1012.37 237.942 1011.28 239.982C1010.19 242.022 1008.71 243.586 1006.84 244.674C1005.01 245.728 1002.9 246.255 1000.52 246.255ZM1000.77 243.042C1002.68 243.042 1004.38 242.617 1005.87 241.767C1007.4 240.883 1008.59 239.659 1009.44 238.095C1010.33 236.497 1010.77 234.661 1010.77 232.587C1010.77 230.479 1010.33 228.643 1009.44 227.079C1008.59 225.515 1007.4 224.308 1005.87 223.458C1004.38 222.574 1002.68 222.132 1000.77 222.132C998.903 222.132 997.22 222.574 995.724 223.458C994.228 224.308 993.038 225.515 992.154 227.079C991.27 228.643 990.828 230.479 990.828 232.587C990.828 234.661 991.27 236.497 992.154 238.095C993.038 239.659 994.228 240.883 995.724 241.767C997.22 242.617 998.903 243.042 1000.77 243.042ZM1010.87 246V237.942L1011.23 232.536L1010.72 227.13V208.158H1014.34V246H1010.87ZM1024.42 246V219.225H1028.04V246H1024.42ZM1026.26 213.309C1025.51 213.309 1024.88 213.054 1024.37 212.544C1023.86 212.034 1023.61 211.422 1023.61 210.708C1023.61 209.994 1023.86 209.399 1024.37 208.923C1024.88 208.413 1025.51 208.158 1026.26 208.158C1027.01 208.158 1027.64 208.396 1028.15 208.872C1028.66 209.348 1028.91 209.943 1028.91 210.657C1028.91 211.405 1028.66 212.034 1028.15 212.544C1027.67 213.054 1027.04 213.309 1026.26 213.309ZM1045.31 246.255C1043.1 246.255 1041.01 245.949 1039.04 245.337C1037.07 244.691 1035.52 243.892 1034.4 242.94L1036.03 240.084C1037.12 240.9 1038.51 241.614 1040.21 242.226C1041.91 242.804 1043.7 243.093 1045.57 243.093C1048.12 243.093 1049.95 242.702 1051.07 241.92C1052.2 241.104 1052.76 240.033 1052.76 238.707C1052.76 237.721 1052.43 236.956 1051.79 236.412C1051.18 235.834 1050.36 235.409 1049.34 235.137C1048.32 234.831 1047.18 234.576 1045.92 234.372C1044.66 234.168 1043.41 233.93 1042.15 233.658C1040.92 233.386 1039.8 232.995 1038.78 232.485C1037.76 231.941 1036.93 231.21 1036.28 230.292C1035.67 229.374 1035.37 228.15 1035.37 226.62C1035.37 225.158 1035.77 223.849 1036.59 222.693C1037.41 221.537 1038.6 220.636 1040.16 219.99C1041.76 219.31 1043.7 218.97 1045.97 218.97C1047.71 218.97 1049.44 219.208 1051.18 219.684C1052.91 220.126 1054.34 220.721 1055.46 221.469L1053.88 224.376C1052.69 223.56 1051.41 222.982 1050.05 222.642C1048.69 222.268 1047.33 222.081 1045.97 222.081C1043.56 222.081 1041.77 222.506 1040.62 223.356C1039.5 224.172 1038.94 225.226 1038.94 226.518C1038.94 227.538 1039.24 228.337 1039.85 228.915C1040.5 229.493 1041.33 229.952 1042.35 230.292C1043.41 230.598 1044.55 230.853 1045.77 231.057C1047.03 231.261 1048.27 231.516 1049.49 231.822C1050.75 232.094 1051.89 232.485 1052.91 232.995C1053.96 233.471 1054.8 234.168 1055.41 235.086C1056.05 235.97 1056.38 237.143 1056.38 238.605C1056.38 240.169 1055.94 241.529 1055.05 242.685C1054.2 243.807 1052.94 244.691 1051.28 245.337C1049.65 245.949 1047.66 246.255 1045.31 246.255ZM1065.88 239.064L1065.98 234.423L1082.66 219.225H1087.09L1075.31 230.496L1073.27 232.23L1065.88 239.064ZM1063.02 246V208.158H1066.64V246H1063.02ZM1083.78 246L1072.61 232.077L1074.96 229.272L1088.22 246H1083.78ZM1104.22 246.255C1101.94 246.255 1099.95 245.83 1098.25 244.98C1096.55 244.13 1095.23 242.855 1094.28 241.155C1093.36 239.455 1092.9 237.33 1092.9 234.78V219.225H1096.52V234.372C1096.52 237.228 1097.22 239.387 1098.61 240.849C1100.04 242.277 1102.03 242.991 1104.58 242.991C1106.45 242.991 1108.06 242.617 1109.42 241.869C1110.82 241.087 1111.87 239.965 1112.58 238.503C1113.33 237.041 1113.71 235.29 1113.71 233.25V219.225H1117.33V246H1113.86V238.656L1114.42 239.982C1113.57 241.954 1112.24 243.501 1110.44 244.623C1108.67 245.711 1106.6 246.255 1104.22 246.255ZM1144.2 246V240.084L1144.05 239.115V229.221C1144.05 226.943 1143.4 225.192 1142.11 223.968C1140.85 222.744 1138.96 222.132 1136.45 222.132C1134.71 222.132 1133.06 222.421 1131.5 222.999C1129.94 223.577 1128.61 224.342 1127.52 225.294L1125.89 222.591C1127.25 221.435 1128.88 220.551 1130.79 219.939C1132.69 219.293 1134.7 218.97 1136.8 218.97C1140.27 218.97 1142.94 219.837 1144.81 221.571C1146.71 223.271 1147.67 225.872 1147.67 229.374V246H1144.2ZM1134.97 246.255C1132.96 246.255 1131.21 245.932 1129.71 245.286C1128.25 244.606 1127.13 243.688 1126.35 242.532C1125.57 241.342 1125.18 239.982 1125.18 238.452C1125.18 237.058 1125.5 235.8 1126.14 234.678C1126.82 233.522 1127.91 232.604 1129.41 231.924C1130.94 231.21 1132.98 230.853 1135.53 230.853H1144.76V233.556H1135.63C1133.05 233.556 1131.24 234.015 1130.22 234.933C1129.24 235.851 1128.75 236.99 1128.75 238.35C1128.75 239.88 1129.34 241.104 1130.53 242.022C1131.72 242.94 1133.39 243.399 1135.53 243.399C1137.57 243.399 1139.32 242.94 1140.78 242.022C1142.28 241.07 1143.37 239.71 1144.05 237.942L1144.86 240.441C1144.18 242.209 1142.99 243.62 1141.29 244.674C1139.63 245.728 1137.52 246.255 1134.97 246.255ZM1157.5 246V208.158H1161.12V246H1157.5ZM1171.2 246V219.225H1174.82V246H1171.2ZM1173.03 213.309C1172.29 213.309 1171.66 213.054 1171.15 212.544C1170.64 212.034 1170.38 211.422 1170.38 210.708C1170.38 209.994 1170.64 209.399 1171.15 208.923C1171.66 208.413 1172.29 208.158 1173.03 208.158C1173.78 208.158 1174.41 208.396 1174.92 208.872C1175.43 209.348 1175.69 209.943 1175.69 210.657C1175.69 211.405 1175.43 212.034 1174.92 212.544C1174.44 213.054 1173.82 213.309 1173.03 213.309ZM1185.51 246V215.859C1185.51 213.479 1186.2 211.558 1187.6 210.096C1188.99 208.634 1191 207.903 1193.61 207.903C1194.63 207.903 1195.62 208.039 1196.57 208.311C1197.52 208.583 1198.32 209.008 1198.97 209.586L1197.75 212.289C1197.24 211.847 1196.64 211.524 1195.96 211.32C1195.28 211.082 1194.55 210.963 1193.77 210.963C1192.24 210.963 1191.06 211.388 1190.25 212.238C1189.43 213.088 1189.02 214.346 1189.02 216.012V220.092L1189.13 221.775V246H1185.51ZM1180.71 222.234V219.225H1197.29V222.234H1180.71ZM1202.18 246V219.225H1205.8V246H1202.18ZM1204.02 213.309C1203.27 213.309 1202.64 213.054 1202.13 212.544C1201.62 212.034 1201.37 211.422 1201.37 210.708C1201.37 209.994 1201.62 209.399 1202.13 208.923C1202.64 208.413 1203.27 208.158 1204.02 208.158C1204.77 208.158 1205.4 208.396 1205.91 208.872C1206.42 209.348 1206.67 209.943 1206.67 210.657C1206.67 211.405 1206.42 212.034 1205.91 212.544C1205.43 213.054 1204.8 213.309 1204.02 213.309ZM1218.83 239.064L1218.93 234.423L1235.61 219.225H1240.04L1228.26 230.496L1226.22 232.23L1218.83 239.064ZM1215.97 246V208.158H1219.59V246H1215.97ZM1236.73 246L1225.56 232.077L1227.91 229.272L1241.17 246H1236.73ZM1262.88 246V240.084L1262.73 239.115V229.221C1262.73 226.943 1262.08 225.192 1260.79 223.968C1259.53 222.744 1257.65 222.132 1255.13 222.132C1253.4 222.132 1251.75 222.421 1250.18 222.999C1248.62 223.577 1247.29 224.342 1246.21 225.294L1244.57 222.591C1245.93 221.435 1247.57 220.551 1249.47 219.939C1251.37 219.293 1253.38 218.97 1255.49 218.97C1258.96 218.97 1261.62 219.837 1263.49 221.571C1265.4 223.271 1266.35 225.872 1266.35 229.374V246H1262.88ZM1253.65 246.255C1251.65 246.255 1249.89 245.932 1248.4 245.286C1246.94 244.606 1245.81 243.688 1245.03 242.532C1244.25 241.342 1243.86 239.982 1243.86 238.452C1243.86 237.058 1244.18 235.8 1244.83 234.678C1245.51 233.522 1246.6 232.604 1248.09 231.924C1249.62 231.21 1251.66 230.853 1254.21 230.853H1263.44V233.556H1254.31C1251.73 233.556 1249.93 234.015 1248.91 234.933C1247.92 235.851 1247.43 236.99 1247.43 238.35C1247.43 239.88 1248.02 241.104 1249.21 242.022C1250.4 242.94 1252.07 243.399 1254.21 243.399C1256.25 243.399 1258 242.94 1259.47 242.022C1260.96 241.07 1262.05 239.71 1262.73 237.942L1263.55 240.441C1262.87 242.209 1261.68 243.62 1259.98 244.674C1258.31 245.728 1256.2 246.255 1253.65 246.255ZM1283.38 246.255C1281.17 246.255 1279.08 245.949 1277.1 245.337C1275.13 244.691 1273.58 243.892 1272.46 242.94L1274.09 240.084C1275.18 240.9 1276.58 241.614 1278.28 242.226C1279.98 242.804 1281.76 243.093 1283.63 243.093C1286.18 243.093 1288.02 242.702 1289.14 241.92C1290.26 241.104 1290.82 240.033 1290.82 238.707C1290.82 237.721 1290.5 236.956 1289.85 236.412C1289.24 235.834 1288.43 235.409 1287.41 235.137C1286.39 234.831 1285.25 234.576 1283.99 234.372C1282.73 234.168 1281.47 233.93 1280.21 233.658C1278.99 233.386 1277.87 232.995 1276.85 232.485C1275.83 231.941 1275 231.21 1274.35 230.292C1273.74 229.374 1273.43 228.15 1273.43 226.62C1273.43 225.158 1273.84 223.849 1274.66 222.693C1275.47 221.537 1276.66 220.636 1278.23 219.99C1279.82 219.31 1281.76 218.97 1284.04 218.97C1285.77 218.97 1287.51 219.208 1289.24 219.684C1290.98 220.126 1292.4 220.721 1293.53 221.469L1291.94 224.376C1290.75 223.56 1289.48 222.982 1288.12 222.642C1286.76 222.268 1285.4 222.081 1284.04 222.081C1281.63 222.081 1279.84 222.506 1278.68 223.356C1277.56 224.172 1277 225.226 1277 226.518C1277 227.538 1277.31 228.337 1277.92 228.915C1278.57 229.493 1279.4 229.952 1280.42 230.292C1281.47 230.598 1282.61 230.853 1283.84 231.057C1285.09 231.261 1286.33 231.516 1287.56 231.822C1288.82 232.094 1289.96 232.485 1290.98 232.995C1292.03 233.471 1292.86 234.168 1293.47 235.086C1294.12 235.97 1294.44 237.143 1294.44 238.605C1294.44 240.169 1294 241.529 1293.12 242.685C1292.27 243.807 1291.01 244.691 1289.34 245.337C1287.71 245.949 1285.72 246.255 1283.38 246.255ZM1301.09 246V219.225H1304.71V246H1301.09ZM1302.92 213.309C1302.18 213.309 1301.55 213.054 1301.04 212.544C1300.53 212.034 1300.27 211.422 1300.27 210.708C1300.27 209.994 1300.53 209.399 1301.04 208.923C1301.55 208.413 1302.18 208.158 1302.92 208.158C1303.67 208.158 1304.3 208.396 1304.81 208.872C1305.32 209.348 1305.58 209.943 1305.58 210.657C1305.58 211.405 1305.32 212.034 1304.81 212.544C1304.34 213.054 1303.71 213.309 1302.92 213.309ZM1315.14 246.255C1314.39 246.255 1313.75 245.983 1313.2 245.439C1312.69 244.895 1312.44 244.232 1312.44 243.45C1312.44 242.634 1312.69 241.971 1313.2 241.461C1313.75 240.951 1314.39 240.696 1315.14 240.696C1315.89 240.696 1316.52 240.951 1317.03 241.461C1317.57 241.971 1317.84 242.634 1317.84 243.45C1317.84 244.232 1317.57 244.895 1317.03 245.439C1316.52 245.983 1315.89 246.255 1315.14 246.255Z" fill="#F85DCD"/>
</svg>
