<svg width="1541" height="340" viewBox="0 0 1541 340" fill="none" xmlns="http://www.w3.org/2000/svg">
<rect x="3" y="3" width="1535" height="334" rx="14" fill="#FCFCFC" stroke="#C3A7FF" stroke-width="6"/>
<path d="M163.694 231.936C155.842 231.936 148.043 230.914 140.298 228.871C132.661 226.719 126.099 223.707 120.614 219.835L130.94 199.827C135.243 202.947 140.191 205.421 145.784 207.249C151.485 209.078 157.24 209.992 163.049 209.992C169.61 209.992 174.774 208.702 178.539 206.12C182.303 203.538 184.186 199.935 184.186 195.31C184.186 192.405 183.433 189.824 181.927 187.565C180.421 185.306 177.732 183.585 173.859 182.401C170.095 181.218 164.77 180.627 157.886 180.627H129.004L134.812 117.054H203.709V138.03H144.171L157.724 126.09L153.69 171.43L140.137 159.49H164.017C175.204 159.49 184.186 161.049 190.963 164.169C197.847 167.181 202.849 171.322 205.968 176.593C209.088 181.864 210.647 187.834 210.647 194.503C210.647 201.172 208.98 207.357 205.646 213.058C202.311 218.652 197.148 223.223 190.156 226.773C183.272 230.215 174.451 231.936 163.694 231.936Z" fill="#E4A355"/>
<path d="M342.814 157V121.3H356.176C359.202 121.3 361.803 121.793 363.979 122.779C366.155 123.731 367.821 125.125 368.977 126.961C370.167 128.763 370.762 130.956 370.762 133.54C370.762 136.056 370.167 138.232 368.977 140.068C367.821 141.87 366.155 143.264 363.979 144.25C361.803 145.236 359.202 145.729 356.176 145.729H344.905L346.588 143.944V157H342.814ZM346.588 144.25L344.905 142.414H356.074C359.644 142.414 362.347 141.649 364.183 140.119C366.053 138.555 366.988 136.362 366.988 133.54C366.988 130.684 366.053 128.474 364.183 126.91C362.347 125.346 359.644 124.564 356.074 124.564H344.905L346.588 122.779V144.25ZM389.381 157.255C386.593 157.255 384.145 156.677 382.037 155.521C379.929 154.331 378.28 152.716 377.09 150.676C375.9 148.602 375.305 146.239 375.305 143.587C375.305 140.935 375.866 138.589 376.988 136.549C378.144 134.509 379.708 132.911 381.68 131.755C383.686 130.565 385.93 129.97 388.412 129.97C390.928 129.97 393.155 130.548 395.093 131.704C397.065 132.826 398.612 134.424 399.734 136.498C400.856 138.538 401.417 140.901 401.417 143.587C401.417 143.757 401.4 143.944 401.366 144.148C401.366 144.318 401.366 144.505 401.366 144.709H378.059V142.006H399.428L398 143.077C398 141.139 397.575 139.422 396.725 137.926C395.909 136.396 394.787 135.206 393.359 134.356C391.931 133.506 390.282 133.081 388.412 133.081C386.576 133.081 384.927 133.506 383.465 134.356C382.003 135.206 380.864 136.396 380.048 137.926C379.232 139.456 378.824 141.207 378.824 143.179V143.74C378.824 145.78 379.266 147.582 380.15 149.146C381.068 150.676 382.326 151.883 383.924 152.767C385.556 153.617 387.409 154.042 389.483 154.042C391.115 154.042 392.628 153.753 394.022 153.175C395.45 152.597 396.674 151.713 397.694 150.523L399.734 152.869C398.544 154.297 397.048 155.385 395.246 156.133C393.478 156.881 391.523 157.255 389.381 157.255ZM415.978 157.255C413.768 157.255 411.677 156.949 409.705 156.337C407.733 155.691 406.186 154.892 405.064 153.94L406.696 151.084C407.784 151.9 409.178 152.614 410.878 153.226C412.578 153.804 414.363 154.093 416.233 154.093C418.783 154.093 420.619 153.702 421.741 152.92C422.863 152.104 423.424 151.033 423.424 149.707C423.424 148.721 423.101 147.956 422.455 147.412C421.843 146.834 421.027 146.409 420.007 146.137C418.987 145.831 417.848 145.576 416.59 145.372C415.332 145.168 414.074 144.93 412.816 144.658C411.592 144.386 410.47 143.995 409.45 143.485C408.43 142.941 407.597 142.21 406.951 141.292C406.339 140.374 406.033 139.15 406.033 137.62C406.033 136.158 406.441 134.849 407.257 133.693C408.073 132.537 409.263 131.636 410.827 130.99C412.425 130.31 414.363 129.97 416.641 129.97C418.375 129.97 420.109 130.208 421.843 130.684C423.577 131.126 425.005 131.721 426.127 132.469L424.546 135.376C423.356 134.56 422.081 133.982 420.721 133.642C419.361 133.268 418.001 133.081 416.641 133.081C414.227 133.081 412.442 133.506 411.286 134.356C410.164 135.172 409.603 136.226 409.603 137.518C409.603 138.538 409.909 139.337 410.521 139.915C411.167 140.493 412 140.952 413.02 141.292C414.074 141.598 415.213 141.853 416.437 142.057C417.695 142.261 418.936 142.516 420.16 142.822C421.418 143.094 422.557 143.485 423.577 143.995C424.631 144.471 425.464 145.168 426.076 146.086C426.722 146.97 427.045 148.143 427.045 149.605C427.045 151.169 426.603 152.529 425.719 153.685C424.869 154.807 423.611 155.691 421.945 156.337C420.313 156.949 418.324 157.255 415.978 157.255ZM445.063 157.255C442.275 157.255 439.827 156.677 437.719 155.521C435.611 154.331 433.962 152.716 432.772 150.676C431.582 148.602 430.987 146.239 430.987 143.587C430.987 140.935 431.548 138.589 432.67 136.549C433.826 134.509 435.39 132.911 437.362 131.755C439.368 130.565 441.612 129.97 444.094 129.97C446.61 129.97 448.837 130.548 450.775 131.704C452.747 132.826 454.294 134.424 455.416 136.498C456.538 138.538 457.099 140.901 457.099 143.587C457.099 143.757 457.082 143.944 457.048 144.148C457.048 144.318 457.048 144.505 457.048 144.709H433.741V142.006H455.11L453.682 143.077C453.682 141.139 453.257 139.422 452.407 137.926C451.591 136.396 450.469 135.206 449.041 134.356C447.613 133.506 445.964 133.081 444.094 133.081C442.258 133.081 440.609 133.506 439.147 134.356C437.685 135.206 436.546 136.396 435.73 137.926C434.914 139.456 434.506 141.207 434.506 143.179V143.74C434.506 145.78 434.948 147.582 435.832 149.146C436.75 150.676 438.008 151.883 439.606 152.767C441.238 153.617 443.091 154.042 445.165 154.042C446.797 154.042 448.31 153.753 449.704 153.175C451.132 152.597 452.356 151.713 453.376 150.523L455.416 152.869C454.226 154.297 452.73 155.385 450.928 156.133C449.16 156.881 447.205 157.255 445.063 157.255ZM464.469 157V130.225H467.937V137.518L467.58 136.243C468.328 134.203 469.586 132.656 471.354 131.602C473.122 130.514 475.315 129.97 477.933 129.97V133.489C477.797 133.489 477.661 133.489 477.525 133.489C477.389 133.455 477.253 133.438 477.117 133.438C474.295 133.438 472.085 134.305 470.487 136.039C468.889 137.739 468.09 140.17 468.09 143.332V157H464.469ZM494.152 157.255C491.636 157.255 489.698 156.575 488.338 155.215C486.978 153.855 486.298 151.934 486.298 149.452V124.309H489.919V149.248C489.919 150.812 490.31 152.019 491.092 152.869C491.908 153.719 493.064 154.144 494.56 154.144C496.158 154.144 497.484 153.685 498.538 152.767L499.813 155.368C499.099 156.014 498.232 156.49 497.212 156.796C496.226 157.102 495.206 157.255 494.152 157.255ZM481.504 133.234V130.225H498.079V133.234H481.504ZM523.183 157V151.084L523.03 150.115V140.221C523.03 137.943 522.384 136.192 521.092 134.968C519.834 133.744 517.947 133.132 515.431 133.132C513.697 133.132 512.048 133.421 510.484 133.999C508.92 134.577 507.594 135.342 506.506 136.294L504.874 133.591C506.234 132.435 507.866 131.551 509.77 130.939C511.674 130.293 513.68 129.97 515.788 129.97C519.256 129.97 521.925 130.837 523.795 132.571C525.699 134.271 526.651 136.872 526.651 140.374V157H523.183ZM513.952 157.255C511.946 157.255 510.195 156.932 508.699 156.286C507.237 155.606 506.115 154.688 505.333 153.532C504.551 152.342 504.16 150.982 504.16 149.452C504.16 148.058 504.483 146.8 505.129 145.678C505.809 144.522 506.897 143.604 508.393 142.924C509.923 142.21 511.963 141.853 514.513 141.853H523.744V144.556H514.615C512.031 144.556 510.229 145.015 509.209 145.933C508.223 146.851 507.73 147.99 507.73 149.35C507.73 150.88 508.325 152.104 509.515 153.022C510.705 153.94 512.371 154.399 514.513 154.399C516.553 154.399 518.304 153.94 519.766 153.022C521.262 152.07 522.35 150.71 523.03 148.942L523.846 151.441C523.166 153.209 521.976 154.62 520.276 155.674C518.61 156.728 516.502 157.255 513.952 157.255ZM564.765 129.97C566.941 129.97 568.845 130.395 570.477 131.245C572.143 132.061 573.435 133.319 574.353 135.019C575.305 136.719 575.781 138.861 575.781 141.445V157H572.16V141.802C572.16 138.98 571.446 136.855 570.018 135.427C568.624 133.965 566.652 133.234 564.102 133.234C562.198 133.234 560.532 133.625 559.104 134.407C557.71 135.155 556.622 136.26 555.84 137.722C555.092 139.15 554.718 140.884 554.718 142.924V157H551.097V119.158H554.718V137.569L554.004 136.192C554.854 134.254 556.214 132.741 558.084 131.653C559.954 130.531 562.181 129.97 564.765 129.97ZM602.341 157V151.084L602.188 150.115V140.221C602.188 137.943 601.542 136.192 600.25 134.968C598.992 133.744 597.105 133.132 594.589 133.132C592.855 133.132 591.206 133.421 589.642 133.999C588.078 134.577 586.752 135.342 585.664 136.294L584.032 133.591C585.392 132.435 587.024 131.551 588.928 130.939C590.832 130.293 592.838 129.97 594.946 129.97C598.414 129.97 601.083 130.837 602.953 132.571C604.857 134.271 605.809 136.872 605.809 140.374V157H602.341ZM593.11 157.255C591.104 157.255 589.353 156.932 587.857 156.286C586.395 155.606 585.273 154.688 584.491 153.532C583.709 152.342 583.318 150.982 583.318 149.452C583.318 148.058 583.641 146.8 584.287 145.678C584.967 144.522 586.055 143.604 587.551 142.924C589.081 142.21 591.121 141.853 593.671 141.853H602.902V144.556H593.773C591.189 144.556 589.387 145.015 588.367 145.933C587.381 146.851 586.888 147.99 586.888 149.35C586.888 150.88 587.483 152.104 588.673 153.022C589.863 153.94 591.529 154.399 593.671 154.399C595.711 154.399 597.462 153.94 598.924 153.022C600.42 152.07 601.508 150.71 602.188 148.942L603.004 151.441C602.324 153.209 601.134 154.62 599.434 155.674C597.768 156.728 595.66 157.255 593.11 157.255ZM629.312 129.97C631.488 129.97 633.392 130.395 635.024 131.245C636.69 132.061 637.982 133.319 638.9 135.019C639.852 136.719 640.328 138.861 640.328 141.445V157H636.707V141.802C636.707 138.98 635.993 136.855 634.565 135.427C633.171 133.965 631.199 133.234 628.649 133.234C626.745 133.234 625.079 133.625 623.651 134.407C622.257 135.155 621.169 136.26 620.387 137.722C619.639 139.15 619.265 140.884 619.265 142.924V157H615.644V130.225H619.112V137.569L618.551 136.192C619.401 134.254 620.761 132.741 622.631 131.653C624.501 130.531 626.728 129.97 629.312 129.97ZM649.815 167.149C648.557 167.149 647.35 166.945 646.194 166.537C645.072 166.129 644.103 165.517 643.287 164.701L644.97 161.998C645.65 162.644 646.381 163.137 647.163 163.477C647.979 163.851 648.88 164.038 649.866 164.038C651.056 164.038 652.076 163.698 652.926 163.018C653.81 162.372 654.643 161.216 655.425 159.55L657.159 155.623L657.567 155.062L668.583 130.225H672.153L658.74 160.213C657.992 161.947 657.159 163.324 656.241 164.344C655.357 165.364 654.388 166.078 653.334 166.486C652.28 166.928 651.107 167.149 649.815 167.149ZM656.955 157.765L644.613 130.225H648.387L659.301 154.807L656.955 157.765ZM693.234 157V151.084L693.081 150.115V140.221C693.081 137.943 692.435 136.192 691.143 134.968C689.885 133.744 687.998 133.132 685.482 133.132C683.748 133.132 682.099 133.421 680.535 133.999C678.971 134.577 677.645 135.342 676.557 136.294L674.925 133.591C676.285 132.435 677.917 131.551 679.821 130.939C681.725 130.293 683.731 129.97 685.839 129.97C689.307 129.97 691.976 130.837 693.846 132.571C695.75 134.271 696.702 136.872 696.702 140.374V157H693.234ZM684.003 157.255C681.997 157.255 680.246 156.932 678.75 156.286C677.288 155.606 676.166 154.688 675.384 153.532C674.602 152.342 674.211 150.982 674.211 149.452C674.211 148.058 674.534 146.8 675.18 145.678C675.86 144.522 676.948 143.604 678.444 142.924C679.974 142.21 682.014 141.853 684.564 141.853H693.795V144.556H684.666C682.082 144.556 680.28 145.015 679.26 145.933C678.274 146.851 677.781 147.99 677.781 149.35C677.781 150.88 678.376 152.104 679.566 153.022C680.756 153.94 682.422 154.399 684.564 154.399C686.604 154.399 688.355 153.94 689.817 153.022C691.313 152.07 692.401 150.71 693.081 148.942L693.897 151.441C693.217 153.209 692.027 154.62 690.327 155.674C688.661 156.728 686.553 157.255 684.003 157.255ZM734.969 157.255C732.623 157.255 730.515 156.728 728.645 155.674C726.775 154.586 725.296 153.022 724.208 150.982C723.12 148.942 722.576 146.477 722.576 143.587C722.576 140.663 723.12 138.198 724.208 136.192C725.33 134.152 726.826 132.605 728.696 131.551C730.566 130.497 732.657 129.97 734.969 129.97C737.519 129.97 739.797 130.548 741.803 131.704C743.843 132.826 745.441 134.407 746.597 136.447C747.753 138.487 748.331 140.867 748.331 143.587C748.331 146.273 747.753 148.653 746.597 150.727C745.441 152.767 743.843 154.365 741.803 155.521C739.797 156.677 737.519 157.255 734.969 157.255ZM721.148 157V119.158H724.769V138.13L724.259 143.536L724.616 148.942V157H721.148ZM734.714 154.042C736.618 154.042 738.318 153.617 739.814 152.767C741.31 151.883 742.5 150.659 743.384 149.095C744.268 147.497 744.71 145.661 744.71 143.587C744.71 141.479 744.268 139.643 743.384 138.079C742.5 136.515 741.31 135.308 739.814 134.458C738.318 133.574 736.618 133.132 734.714 133.132C732.81 133.132 731.093 133.574 729.563 134.458C728.067 135.308 726.877 136.515 725.993 138.079C725.143 139.643 724.718 141.479 724.718 143.587C724.718 145.661 725.143 147.497 725.993 149.095C726.877 150.659 728.067 151.883 729.563 152.767C731.093 153.617 732.81 154.042 734.714 154.042ZM766.627 157.255C764.043 157.255 761.714 156.677 759.64 155.521C757.6 154.331 755.985 152.716 754.795 150.676C753.605 148.602 753.01 146.239 753.01 143.587C753.01 140.901 753.605 138.538 754.795 136.498C755.985 134.458 757.6 132.86 759.64 131.704C761.68 130.548 764.009 129.97 766.627 129.97C769.279 129.97 771.625 130.548 773.665 131.704C775.739 132.86 777.354 134.458 778.51 136.498C779.7 138.538 780.295 140.901 780.295 143.587C780.295 146.239 779.7 148.602 778.51 150.676C777.354 152.716 775.739 154.331 773.665 155.521C771.591 156.677 769.245 157.255 766.627 157.255ZM766.627 154.042C768.565 154.042 770.282 153.617 771.778 152.767C773.274 151.883 774.447 150.659 775.297 149.095C776.181 147.497 776.623 145.661 776.623 143.587C776.623 141.479 776.181 139.643 775.297 138.079C774.447 136.515 773.274 135.308 771.778 134.458C770.282 133.574 768.582 133.132 766.678 133.132C764.774 133.132 763.074 133.574 761.578 134.458C760.082 135.308 758.892 136.515 758.008 138.079C757.124 139.643 756.682 141.479 756.682 143.587C756.682 145.661 757.124 147.497 758.008 149.095C758.892 150.659 760.082 151.883 761.578 152.767C763.074 153.617 764.757 154.042 766.627 154.042ZM787.687 157V119.158H791.308V157H787.687ZM812.756 157.255C809.968 157.255 807.52 156.677 805.412 155.521C803.304 154.331 801.655 152.716 800.465 150.676C799.275 148.602 798.68 146.239 798.68 143.587C798.68 140.935 799.241 138.589 800.363 136.549C801.519 134.509 803.083 132.911 805.055 131.755C807.061 130.565 809.305 129.97 811.787 129.97C814.303 129.97 816.53 130.548 818.468 131.704C820.44 132.826 821.987 134.424 823.109 136.498C824.231 138.538 824.792 140.901 824.792 143.587C824.792 143.757 824.775 143.944 824.741 144.148C824.741 144.318 824.741 144.505 824.741 144.709H801.434V142.006H822.803L821.375 143.077C821.375 141.139 820.95 139.422 820.1 137.926C819.284 136.396 818.162 135.206 816.734 134.356C815.306 133.506 813.657 133.081 811.787 133.081C809.951 133.081 808.302 133.506 806.84 134.356C805.378 135.206 804.239 136.396 803.423 137.926C802.607 139.456 802.199 141.207 802.199 143.179V143.74C802.199 145.78 802.641 147.582 803.525 149.146C804.443 150.676 805.701 151.883 807.299 152.767C808.931 153.617 810.784 154.042 812.858 154.042C814.49 154.042 816.003 153.753 817.397 153.175C818.825 152.597 820.049 151.713 821.069 150.523L823.109 152.869C821.919 154.297 820.423 155.385 818.621 156.133C816.853 156.881 814.898 157.255 812.756 157.255ZM845.831 129.97C848.007 129.97 849.911 130.395 851.543 131.245C853.209 132.061 854.501 133.319 855.419 135.019C856.371 136.719 856.847 138.861 856.847 141.445V157H853.226V141.802C853.226 138.98 852.512 136.855 851.084 135.427C849.69 133.965 847.718 133.234 845.168 133.234C843.264 133.234 841.598 133.625 840.17 134.407C838.776 135.155 837.688 136.26 836.906 137.722C836.158 139.15 835.784 140.884 835.784 142.924V157H832.163V119.158H835.784V137.569L835.07 136.192C835.92 134.254 837.28 132.741 839.15 131.653C841.02 130.531 843.247 129.97 845.831 129.97ZM914.694 129.97C916.87 129.97 918.757 130.395 920.355 131.245C921.987 132.061 923.245 133.319 924.129 135.019C925.047 136.719 925.506 138.861 925.506 141.445V157H921.885V141.802C921.885 138.98 921.205 136.855 919.845 135.427C918.519 133.965 916.632 133.234 914.184 133.234C912.348 133.234 910.75 133.625 909.39 134.407C908.064 135.155 907.027 136.26 906.279 137.722C905.565 139.15 905.208 140.884 905.208 142.924V157H901.587V141.802C901.587 138.98 900.907 136.855 899.547 135.427C898.187 133.965 896.283 133.234 893.835 133.234C892.033 133.234 890.452 133.625 889.092 134.407C887.732 135.155 886.678 136.26 885.93 137.722C885.216 139.15 884.859 140.884 884.859 142.924V157H881.238V130.225H884.706V137.467L884.145 136.192C884.961 134.254 886.27 132.741 888.072 131.653C889.908 130.531 892.067 129.97 894.549 129.97C897.167 129.97 899.394 130.633 901.23 131.959C903.066 133.251 904.256 135.206 904.8 137.824L903.372 137.263C904.154 135.087 905.531 133.336 907.503 132.01C909.509 130.65 911.906 129.97 914.694 129.97ZM946.699 157.255C943.911 157.255 941.463 156.677 939.355 155.521C937.247 154.331 935.598 152.716 934.408 150.676C933.218 148.602 932.623 146.239 932.623 143.587C932.623 140.935 933.184 138.589 934.306 136.549C935.462 134.509 937.026 132.911 938.998 131.755C941.004 130.565 943.248 129.97 945.73 129.97C948.246 129.97 950.473 130.548 952.411 131.704C954.383 132.826 955.93 134.424 957.052 136.498C958.174 138.538 958.735 140.901 958.735 143.587C958.735 143.757 958.718 143.944 958.684 144.148C958.684 144.318 958.684 144.505 958.684 144.709H935.377V142.006H956.746L955.318 143.077C955.318 141.139 954.893 139.422 954.043 137.926C953.227 136.396 952.105 135.206 950.677 134.356C949.249 133.506 947.6 133.081 945.73 133.081C943.894 133.081 942.245 133.506 940.783 134.356C939.321 135.206 938.182 136.396 937.366 137.926C936.55 139.456 936.142 141.207 936.142 143.179V143.74C936.142 145.78 936.584 147.582 937.468 149.146C938.386 150.676 939.644 151.883 941.242 152.767C942.874 153.617 944.727 154.042 946.801 154.042C948.433 154.042 949.946 153.753 951.34 153.175C952.768 152.597 953.992 151.713 955.012 150.523L957.052 152.869C955.862 154.297 954.366 155.385 952.564 156.133C950.796 156.881 948.841 157.255 946.699 157.255ZM966.105 157V119.158H969.726V157H966.105ZM996.581 157V151.084L996.428 150.115V140.221C996.428 137.943 995.782 136.192 994.49 134.968C993.232 133.744 991.345 133.132 988.829 133.132C987.095 133.132 985.446 133.421 983.882 133.999C982.318 134.577 980.992 135.342 979.904 136.294L978.272 133.591C979.632 132.435 981.264 131.551 983.168 130.939C985.072 130.293 987.078 129.97 989.186 129.97C992.654 129.97 995.323 130.837 997.193 132.571C999.097 134.271 1000.05 136.872 1000.05 140.374V157H996.581ZM987.35 157.255C985.344 157.255 983.593 156.932 982.097 156.286C980.635 155.606 979.513 154.688 978.731 153.532C977.949 152.342 977.558 150.982 977.558 149.452C977.558 148.058 977.881 146.8 978.527 145.678C979.207 144.522 980.295 143.604 981.791 142.924C983.321 142.21 985.361 141.853 987.911 141.853H997.142V144.556H988.013C985.429 144.556 983.627 145.015 982.607 145.933C981.621 146.851 981.128 147.99 981.128 149.35C981.128 150.88 981.723 152.104 982.913 153.022C984.103 153.94 985.769 154.399 987.911 154.399C989.951 154.399 991.702 153.94 993.164 153.022C994.66 152.07 995.748 150.71 996.428 148.942L997.244 151.441C996.564 153.209 995.374 154.62 993.674 155.674C992.008 156.728 989.9 157.255 987.35 157.255ZM1012.74 150.064L1012.84 145.423L1029.52 130.225H1033.96L1022.17 141.496L1020.13 143.23L1012.74 150.064ZM1009.88 157V119.158H1013.5V157H1009.88ZM1030.64 157L1019.47 143.077L1021.82 140.272L1035.08 157H1030.64ZM1051.08 157.255C1048.8 157.255 1046.82 156.83 1045.12 155.98C1043.42 155.13 1042.09 153.855 1041.14 152.155C1040.22 150.455 1039.76 148.33 1039.76 145.78V130.225H1043.38V145.372C1043.38 148.228 1044.08 150.387 1045.47 151.849C1046.9 153.277 1048.89 153.991 1051.44 153.991C1053.31 153.991 1054.92 153.617 1056.28 152.869C1057.68 152.087 1058.73 150.965 1059.45 149.503C1060.19 148.041 1060.57 146.29 1060.57 144.25V130.225H1064.19V157H1060.72V149.656L1061.28 150.982C1060.43 152.954 1059.11 154.501 1057.3 155.623C1055.54 156.711 1053.46 157.255 1051.08 157.255ZM1077.14 150.064L1077.24 145.423L1093.92 130.225H1098.35L1086.57 141.496L1084.53 143.23L1077.14 150.064ZM1074.28 157V119.158H1077.9V157H1074.28ZM1095.04 157L1083.87 143.077L1086.22 140.272L1099.48 157H1095.04ZM1121.19 157V151.084L1121.04 150.115V140.221C1121.04 137.943 1120.39 136.192 1119.1 134.968C1117.84 133.744 1115.96 133.132 1113.44 133.132C1111.71 133.132 1110.06 133.421 1108.49 133.999C1106.93 134.577 1105.6 135.342 1104.52 136.294L1102.88 133.591C1104.24 132.435 1105.88 131.551 1107.78 130.939C1109.68 130.293 1111.69 129.97 1113.8 129.97C1117.27 129.97 1119.93 130.837 1121.8 132.571C1123.71 134.271 1124.66 136.872 1124.66 140.374V157H1121.19ZM1111.96 157.255C1109.96 157.255 1108.2 156.932 1106.71 156.286C1105.25 155.606 1104.12 154.688 1103.34 153.532C1102.56 152.342 1102.17 150.982 1102.17 149.452C1102.17 148.058 1102.49 146.8 1103.14 145.678C1103.82 144.522 1104.91 143.604 1106.4 142.924C1107.93 142.21 1109.97 141.853 1112.52 141.853H1121.75V144.556H1112.62C1110.04 144.556 1108.24 145.015 1107.22 145.933C1106.23 146.851 1105.74 147.99 1105.74 149.35C1105.74 150.88 1106.33 152.104 1107.52 153.022C1108.71 153.94 1110.38 154.399 1112.52 154.399C1114.56 154.399 1116.31 153.94 1117.78 153.022C1119.27 152.07 1120.36 150.71 1121.04 148.942L1121.86 151.441C1121.18 153.209 1119.99 154.62 1118.29 155.674C1116.62 156.728 1114.51 157.255 1111.96 157.255ZM1148.16 129.97C1150.34 129.97 1152.24 130.395 1153.88 131.245C1155.54 132.061 1156.83 133.319 1157.75 135.019C1158.7 136.719 1159.18 138.861 1159.18 141.445V157H1155.56V141.802C1155.56 138.98 1154.84 136.855 1153.42 135.427C1152.02 133.965 1150.05 133.234 1147.5 133.234C1145.6 133.234 1143.93 133.625 1142.5 134.407C1141.11 135.155 1140.02 136.26 1139.24 137.722C1138.49 139.15 1138.12 140.884 1138.12 142.924V157H1134.5V130.225H1137.96V137.569L1137.4 136.192C1138.25 134.254 1139.61 132.741 1141.48 131.653C1143.35 130.531 1145.58 129.97 1148.16 129.97ZM1217.33 129.154C1219.51 129.154 1221.43 129.596 1223.1 130.48C1224.8 131.33 1226.12 132.656 1227.07 134.458C1228.06 136.226 1228.55 138.504 1228.55 141.292V157H1220.6V142.516C1220.6 140.306 1220.14 138.674 1219.22 137.62C1218.3 136.566 1217.01 136.039 1215.34 136.039C1214.19 136.039 1213.15 136.311 1212.23 136.855C1211.31 137.365 1210.6 138.147 1210.09 139.201C1209.58 140.255 1209.33 141.598 1209.33 143.23V157H1201.37V142.516C1201.37 140.306 1200.91 138.674 1199.99 137.62C1199.11 136.566 1197.83 136.039 1196.17 136.039C1195.01 136.039 1193.97 136.311 1193.06 136.855C1192.14 137.365 1191.42 138.147 1190.91 139.201C1190.4 140.255 1190.15 141.598 1190.15 143.23V157H1182.19V129.562H1189.79V137.059L1188.36 134.866C1189.32 132.996 1190.66 131.585 1192.39 130.633C1194.16 129.647 1196.17 129.154 1198.41 129.154C1200.93 129.154 1203.12 129.8 1204.99 131.092C1206.89 132.35 1208.15 134.288 1208.76 136.906L1205.96 136.141C1206.88 133.999 1208.34 132.299 1210.35 131.041C1212.39 129.783 1214.71 129.154 1217.33 129.154ZM1252.51 157V151.645L1252 150.472V140.884C1252 139.184 1251.48 137.858 1250.42 136.906C1249.4 135.954 1247.82 135.478 1245.68 135.478C1244.22 135.478 1242.77 135.716 1241.34 136.192C1239.95 136.634 1238.76 137.246 1237.77 138.028L1234.92 132.469C1236.41 131.415 1238.22 130.599 1240.32 130.021C1242.43 129.443 1244.57 129.154 1246.75 129.154C1250.93 129.154 1254.18 130.14 1256.49 132.112C1258.8 134.084 1259.96 137.161 1259.96 141.343V157H1252.51ZM1244.15 157.408C1242.01 157.408 1240.17 157.051 1238.64 156.337C1237.11 155.589 1235.94 154.586 1235.12 153.328C1234.31 152.07 1233.9 150.659 1233.9 149.095C1233.9 147.463 1234.29 146.035 1235.07 144.811C1235.89 143.587 1237.16 142.635 1238.9 141.955C1240.63 141.241 1242.89 140.884 1245.68 140.884H1252.97V145.525H1246.55C1244.68 145.525 1243.38 145.831 1242.67 146.443C1241.99 147.055 1241.65 147.82 1241.65 148.738C1241.65 149.758 1242.04 150.574 1242.82 151.186C1243.64 151.764 1244.74 152.053 1246.14 152.053C1247.46 152.053 1248.65 151.747 1249.71 151.135C1250.76 150.489 1251.53 149.554 1252 148.33L1253.23 152.002C1252.65 153.77 1251.6 155.113 1250.07 156.031C1248.54 156.949 1246.56 157.408 1244.15 157.408ZM1273.74 151.39L1273.94 141.7L1286.74 129.562H1296.23L1283.94 142.057L1279.81 145.423L1273.74 151.39ZM1267.16 157V119.158H1275.12V157H1267.16ZM1287.61 157L1278.33 145.474L1283.33 139.303L1297.25 157H1287.61ZM1309.16 157.408C1306.82 157.408 1304.56 157.136 1302.38 156.592C1300.24 156.014 1298.54 155.3 1297.28 154.45L1299.93 148.738C1301.19 149.52 1302.67 150.166 1304.37 150.676C1306.1 151.152 1307.8 151.39 1309.47 151.39C1311.3 151.39 1312.6 151.169 1313.34 150.727C1314.13 150.285 1314.52 149.673 1314.52 148.891C1314.52 148.245 1314.21 147.769 1313.6 147.463C1313.02 147.123 1312.24 146.868 1311.25 146.698C1310.27 146.528 1309.18 146.358 1307.99 146.188C1306.83 146.018 1305.66 145.797 1304.47 145.525C1303.28 145.219 1302.19 144.777 1301.21 144.199C1300.22 143.621 1299.42 142.839 1298.81 141.853C1298.23 140.867 1297.94 139.592 1297.94 138.028C1297.94 136.294 1298.44 134.764 1299.42 133.438C1300.44 132.112 1301.9 131.075 1303.81 130.327C1305.71 129.545 1307.99 129.154 1310.64 129.154C1312.51 129.154 1314.42 129.358 1316.35 129.766C1318.29 130.174 1319.91 130.769 1321.2 131.551L1318.55 137.212C1317.22 136.43 1315.88 135.903 1314.52 135.631C1313.19 135.325 1311.9 135.172 1310.64 135.172C1308.87 135.172 1307.58 135.41 1306.77 135.886C1305.95 136.362 1305.54 136.974 1305.54 137.722C1305.54 138.402 1305.83 138.912 1306.41 139.252C1307.02 139.592 1307.82 139.864 1308.81 140.068C1309.79 140.272 1310.86 140.459 1312.02 140.629C1313.21 140.765 1314.4 140.986 1315.59 141.292C1316.78 141.598 1317.85 142.04 1318.8 142.618C1319.79 143.162 1320.59 143.927 1321.2 144.913C1321.81 145.865 1322.12 147.123 1322.12 148.687C1322.12 150.387 1321.61 151.9 1320.59 153.226C1319.57 154.518 1318.09 155.538 1316.15 156.286C1314.25 157.034 1311.92 157.408 1309.16 157.408ZM1327.03 157V129.562H1334.98V157H1327.03ZM1331 125.737C1329.54 125.737 1328.35 125.312 1327.43 124.462C1326.52 123.612 1326.06 122.558 1326.06 121.3C1326.06 120.042 1326.52 118.988 1327.43 118.138C1328.35 117.288 1329.54 116.863 1331 116.863C1332.47 116.863 1333.66 117.271 1334.57 118.087C1335.49 118.869 1335.95 119.889 1335.95 121.147C1335.95 122.473 1335.49 123.578 1334.57 124.462C1333.69 125.312 1332.5 125.737 1331 125.737ZM1377.5 129.154C1379.68 129.154 1381.6 129.596 1383.27 130.48C1384.97 131.33 1386.29 132.656 1387.25 134.458C1388.23 136.226 1388.72 138.504 1388.72 141.292V157H1380.77V142.516C1380.77 140.306 1380.31 138.674 1379.39 137.62C1378.47 136.566 1377.18 136.039 1375.52 136.039C1374.36 136.039 1373.32 136.311 1372.4 136.855C1371.49 137.365 1370.77 138.147 1370.26 139.201C1369.75 140.255 1369.5 141.598 1369.5 143.23V157H1361.54V142.516C1361.54 140.306 1361.08 138.674 1360.16 137.62C1359.28 136.566 1358.01 136.039 1356.34 136.039C1355.18 136.039 1354.15 136.311 1353.23 136.855C1352.31 137.365 1351.6 138.147 1351.09 139.201C1350.58 140.255 1350.32 141.598 1350.32 143.23V157H1342.37V129.562H1349.96V137.059L1348.54 134.866C1349.49 132.996 1350.83 131.585 1352.57 130.633C1354.33 129.647 1356.34 129.154 1358.58 129.154C1361.1 129.154 1363.29 129.8 1365.16 131.092C1367.07 132.35 1368.32 134.288 1368.94 136.906L1366.13 136.141C1367.05 133.999 1368.51 132.299 1370.52 131.041C1372.56 129.783 1374.89 129.154 1377.5 129.154ZM1412.69 157V151.645L1412.18 150.472V140.884C1412.18 139.184 1411.65 137.858 1410.59 136.906C1409.57 135.954 1407.99 135.478 1405.85 135.478C1404.39 135.478 1402.94 135.716 1401.52 136.192C1400.12 136.634 1398.93 137.246 1397.95 138.028L1395.09 132.469C1396.59 131.415 1398.39 130.599 1400.5 130.021C1402.6 129.443 1404.75 129.154 1406.92 129.154C1411.1 129.154 1414.35 130.14 1416.66 132.112C1418.98 134.084 1420.13 137.161 1420.13 141.343V157H1412.69ZM1404.32 157.408C1402.18 157.408 1400.34 157.051 1398.81 156.337C1397.28 155.589 1396.11 154.586 1395.29 153.328C1394.48 152.07 1394.07 150.659 1394.07 149.095C1394.07 147.463 1394.46 146.035 1395.24 144.811C1396.06 143.587 1397.33 142.635 1399.07 141.955C1400.8 141.241 1403.06 140.884 1405.85 140.884H1413.14V145.525H1406.72C1404.85 145.525 1403.56 145.831 1402.84 146.443C1402.16 147.055 1401.82 147.82 1401.82 148.738C1401.82 149.758 1402.21 150.574 1403 151.186C1403.81 151.764 1404.92 152.053 1406.31 152.053C1407.64 152.053 1408.83 151.747 1409.88 151.135C1410.93 150.489 1411.7 149.554 1412.18 148.33L1413.4 152.002C1412.82 153.77 1411.77 155.113 1410.24 156.031C1408.71 156.949 1406.74 157.408 1404.32 157.408ZM1427.33 157V119.158H1435.29V157H1427.33ZM344.497 219V186.36L348.067 189.93H337.357V183.3H352.759V219H344.497ZM381.666 213.39L381.87 203.7L394.671 191.562H404.157L391.866 204.057L387.735 207.423L381.666 213.39ZM375.087 219V181.158H383.043V219H375.087ZM395.538 219L386.256 207.474L391.254 201.303L405.177 219H395.538ZM425.087 219V213.645L424.577 212.472V202.884C424.577 201.184 424.05 199.858 422.996 198.906C421.976 197.954 420.395 197.478 418.253 197.478C416.791 197.478 415.346 197.716 413.918 198.192C412.524 198.634 411.334 199.246 410.348 200.028L407.492 194.469C408.988 193.415 410.79 192.599 412.898 192.021C415.006 191.443 417.148 191.154 419.324 191.154C423.506 191.154 426.753 192.14 429.065 194.112C431.377 196.084 432.533 199.161 432.533 203.343V219H425.087ZM416.723 219.408C414.581 219.408 412.745 219.051 411.215 218.337C409.685 217.589 408.512 216.586 407.696 215.328C406.88 214.07 406.472 212.659 406.472 211.095C406.472 209.463 406.863 208.035 407.645 206.811C408.461 205.587 409.736 204.635 411.47 203.955C413.204 203.241 415.465 202.884 418.253 202.884H425.546V207.525H419.12C417.25 207.525 415.958 207.831 415.244 208.443C414.564 209.055 414.224 209.82 414.224 210.738C414.224 211.758 414.615 212.574 415.397 213.186C416.213 213.764 417.318 214.053 418.712 214.053C420.038 214.053 421.228 213.747 422.282 213.135C423.336 212.489 424.101 211.554 424.577 210.33L425.801 214.002C425.223 215.77 424.169 217.113 422.639 218.031C421.109 218.949 419.137 219.408 416.723 219.408ZM439.734 219V181.158H447.69V219H439.734ZM455.073 219V191.562H463.029V219H455.073ZM459.051 187.737C457.589 187.737 456.399 187.312 455.481 186.462C454.563 185.612 454.104 184.558 454.104 183.3C454.104 182.042 454.563 180.988 455.481 180.138C456.399 179.288 457.589 178.863 459.051 178.863C460.513 178.863 461.703 179.271 462.621 180.087C463.539 180.869 463.998 181.889 463.998 183.147C463.998 184.473 463.539 185.578 462.621 186.462C461.737 187.312 460.547 187.737 459.051 187.737ZM501.075 219.408C498.763 219.408 496.74 218.898 495.006 217.878C493.272 216.858 491.912 215.311 490.926 213.237C489.974 211.129 489.498 208.477 489.498 205.281C489.498 202.051 489.957 199.399 490.875 197.325C491.793 195.251 493.119 193.704 494.853 192.684C496.587 191.664 498.661 191.154 501.075 191.154C503.659 191.154 505.971 191.749 508.011 192.939C510.085 194.095 511.717 195.727 512.907 197.835C514.131 199.943 514.743 202.425 514.743 205.281C514.743 208.171 514.131 210.67 512.907 212.778C511.717 214.886 510.085 216.518 508.011 217.674C505.971 218.83 503.659 219.408 501.075 219.408ZM484.857 228.894V191.562H492.456V197.172L492.303 205.332L492.813 213.441V228.894H484.857ZM499.698 212.88C501.024 212.88 502.197 212.574 503.217 211.962C504.271 211.35 505.104 210.483 505.716 209.361C506.362 208.205 506.685 206.845 506.685 205.281C506.685 203.683 506.362 202.323 505.716 201.201C505.104 200.079 504.271 199.212 503.217 198.6C502.197 197.988 501.024 197.682 499.698 197.682C498.372 197.682 497.182 197.988 496.128 198.6C495.074 199.212 494.241 200.079 493.629 201.201C493.017 202.323 492.711 203.683 492.711 205.281C492.711 206.845 493.017 208.205 493.629 209.361C494.241 210.483 495.074 211.35 496.128 211.962C497.182 212.574 498.372 212.88 499.698 212.88ZM533.685 219.408C530.557 219.408 527.803 218.796 525.423 217.572C523.077 216.348 521.258 214.682 519.966 212.574C518.674 210.432 518.028 208.001 518.028 205.281C518.028 202.527 518.657 200.096 519.915 197.988C521.207 195.846 522.958 194.18 525.168 192.99C527.378 191.766 529.877 191.154 532.665 191.154C535.351 191.154 537.765 191.732 539.907 192.888C542.083 194.01 543.8 195.642 545.058 197.784C546.316 199.892 546.945 202.425 546.945 205.383C546.945 205.689 546.928 206.046 546.894 206.454C546.86 206.828 546.826 207.185 546.792 207.525H524.505V202.884H542.61L539.55 204.261C539.55 202.833 539.261 201.592 538.683 200.538C538.105 199.484 537.306 198.668 536.286 198.09C535.266 197.478 534.076 197.172 532.716 197.172C531.356 197.172 530.149 197.478 529.095 198.09C528.075 198.668 527.276 199.501 526.698 200.589C526.12 201.643 525.831 202.901 525.831 204.363V205.587C525.831 207.083 526.154 208.409 526.8 209.565C527.48 210.687 528.415 211.554 529.605 212.166C530.829 212.744 532.257 213.033 533.889 213.033C535.351 213.033 536.626 212.812 537.714 212.37C538.836 211.928 539.856 211.265 540.774 210.381L545.007 214.971C543.749 216.399 542.168 217.504 540.264 218.286C538.36 219.034 536.167 219.408 533.685 219.408ZM568.919 191.154C571.095 191.154 573.033 191.596 574.733 192.48C576.467 193.33 577.827 194.656 578.813 196.458C579.799 198.226 580.292 200.504 580.292 203.292V219H572.336V204.516C572.336 202.306 571.843 200.674 570.857 199.62C569.905 198.566 568.545 198.039 566.777 198.039C565.519 198.039 564.38 198.311 563.36 198.855C562.374 199.365 561.592 200.164 561.014 201.252C560.47 202.34 560.198 203.734 560.198 205.434V219H552.242V191.562H559.841V199.161L558.413 196.866C559.399 195.03 560.81 193.619 562.646 192.633C564.482 191.647 566.573 191.154 568.919 191.154ZM600.606 229.302C598.022 229.302 595.523 228.979 593.109 228.333C590.729 227.721 588.74 226.786 587.142 225.528L590.304 219.816C591.46 220.768 592.922 221.516 594.69 222.06C596.492 222.638 598.26 222.927 599.994 222.927C602.816 222.927 604.856 222.298 606.114 221.04C607.406 219.782 608.052 217.912 608.052 215.43V211.299L608.562 204.414L608.46 197.478V191.562H616.008V214.41C616.008 219.51 614.682 223.267 612.03 225.681C609.378 228.095 605.57 229.302 600.606 229.302ZM599.382 217.674C596.832 217.674 594.52 217.13 592.446 216.042C590.406 214.92 588.757 213.373 587.499 211.401C586.275 209.395 585.663 207.066 585.663 204.414C585.663 201.728 586.275 199.399 587.499 197.427C588.757 195.421 590.406 193.874 592.446 192.786C594.52 191.698 596.832 191.154 599.382 191.154C601.694 191.154 603.734 191.63 605.502 192.582C607.27 193.5 608.647 194.945 609.633 196.917C610.619 198.855 611.112 201.354 611.112 204.414C611.112 207.44 610.619 209.939 609.633 211.911C608.647 213.849 607.27 215.294 605.502 216.246C603.734 217.198 601.694 217.674 599.382 217.674ZM600.963 211.146C602.357 211.146 603.598 210.874 604.686 210.33C605.774 209.752 606.624 208.953 607.236 207.933C607.848 206.913 608.154 205.74 608.154 204.414C608.154 203.054 607.848 201.881 607.236 200.895C606.624 199.875 605.774 199.093 604.686 198.549C603.598 197.971 602.357 197.682 600.963 197.682C599.569 197.682 598.328 197.971 597.24 198.549C596.152 199.093 595.285 199.875 594.639 200.895C594.027 201.881 593.721 203.054 593.721 204.414C593.721 205.74 594.027 206.913 594.639 207.933C595.285 208.953 596.152 209.752 597.24 210.33C598.328 210.874 599.569 211.146 600.963 211.146ZM634.99 219.408C632.712 219.408 630.672 218.966 628.87 218.082C627.102 217.198 625.725 215.855 624.739 214.053C623.753 212.217 623.26 209.888 623.26 207.066V191.562H631.216V205.893C631.216 208.171 631.692 209.854 632.644 210.942C633.63 211.996 635.007 212.523 636.775 212.523C637.999 212.523 639.087 212.268 640.039 211.758C640.991 211.214 641.739 210.398 642.283 209.31C642.827 208.188 643.099 206.794 643.099 205.128V191.562H651.055V219H643.507V211.452L644.884 213.645C643.966 215.549 642.606 216.994 640.804 217.98C639.036 218.932 637.098 219.408 634.99 219.408ZM693.565 191.154C695.741 191.154 697.662 191.596 699.328 192.48C701.028 193.33 702.354 194.656 703.306 196.458C704.292 198.226 704.785 200.504 704.785 203.292V219H696.829V204.516C696.829 202.306 696.37 200.674 695.452 199.62C694.534 198.566 693.242 198.039 691.576 198.039C690.42 198.039 689.383 198.311 688.465 198.855C687.547 199.365 686.833 200.147 686.323 201.201C685.813 202.255 685.558 203.598 685.558 205.23V219H677.602V204.516C677.602 202.306 677.143 200.674 676.225 199.62C675.341 198.566 674.066 198.039 672.4 198.039C671.244 198.039 670.207 198.311 669.289 198.855C668.371 199.365 667.657 200.147 667.147 201.201C666.637 202.255 666.382 203.598 666.382 205.23V219H658.426V191.562H666.025V199.059L664.597 196.866C665.549 194.996 666.892 193.585 668.626 192.633C670.394 191.647 672.4 191.154 674.644 191.154C677.16 191.154 679.353 191.8 681.223 193.092C683.127 194.35 684.385 196.288 684.997 198.906L682.192 198.141C683.11 195.999 684.572 194.299 686.578 193.041C688.618 191.783 690.947 191.154 693.565 191.154ZM728.134 219.408C725.822 219.408 723.799 218.898 722.065 217.878C720.331 216.858 718.971 215.311 717.985 213.237C717.033 211.129 716.557 208.477 716.557 205.281C716.557 202.051 717.016 199.399 717.934 197.325C718.852 195.251 720.178 193.704 721.912 192.684C723.646 191.664 725.72 191.154 728.134 191.154C730.718 191.154 733.03 191.749 735.07 192.939C737.144 194.095 738.776 195.727 739.966 197.835C741.19 199.943 741.802 202.425 741.802 205.281C741.802 208.171 741.19 210.67 739.966 212.778C738.776 214.886 737.144 216.518 735.07 217.674C733.03 218.83 730.718 219.408 728.134 219.408ZM711.916 228.894V191.562H719.515V197.172L719.362 205.332L719.872 213.441V228.894H711.916ZM726.757 212.88C728.083 212.88 729.256 212.574 730.276 211.962C731.33 211.35 732.163 210.483 732.775 209.361C733.421 208.205 733.744 206.845 733.744 205.281C733.744 203.683 733.421 202.323 732.775 201.201C732.163 200.079 731.33 199.212 730.276 198.6C729.256 197.988 728.083 197.682 726.757 197.682C725.431 197.682 724.241 197.988 723.187 198.6C722.133 199.212 721.3 200.079 720.688 201.201C720.076 202.323 719.77 203.683 719.77 205.281C719.77 206.845 720.076 208.205 720.688 209.361C721.3 210.483 722.133 211.35 723.187 211.962C724.241 212.574 725.431 212.88 726.757 212.88ZM758.705 219.408C756.427 219.408 754.387 218.966 752.585 218.082C750.817 217.198 749.44 215.855 748.454 214.053C747.468 212.217 746.975 209.888 746.975 207.066V191.562H754.931V205.893C754.931 208.171 755.407 209.854 756.359 210.942C757.345 211.996 758.722 212.523 760.49 212.523C761.714 212.523 762.802 212.268 763.754 211.758C764.706 211.214 765.454 210.398 765.998 209.31C766.542 208.188 766.814 206.794 766.814 205.128V191.562H774.77V219H767.222V211.452L768.599 213.645C767.681 215.549 766.321 216.994 764.519 217.98C762.751 218.932 760.813 219.408 758.705 219.408ZM782.141 219V181.158H790.097V219H782.141ZM814.311 219V213.645L813.801 212.472V202.884C813.801 201.184 813.274 199.858 812.22 198.906C811.2 197.954 809.619 197.478 807.477 197.478C806.015 197.478 804.57 197.716 803.142 198.192C801.748 198.634 800.558 199.246 799.572 200.028L796.716 194.469C798.212 193.415 800.014 192.599 802.122 192.021C804.23 191.443 806.372 191.154 808.548 191.154C812.73 191.154 815.977 192.14 818.289 194.112C820.601 196.084 821.757 199.161 821.757 203.343V219H814.311ZM805.947 219.408C803.805 219.408 801.969 219.051 800.439 218.337C798.909 217.589 797.736 216.586 796.92 215.328C796.104 214.07 795.696 212.659 795.696 211.095C795.696 209.463 796.087 208.035 796.869 206.811C797.685 205.587 798.96 204.635 800.694 203.955C802.428 203.241 804.689 202.884 807.477 202.884H814.77V207.525H808.344C806.474 207.525 805.182 207.831 804.468 208.443C803.788 209.055 803.448 209.82 803.448 210.738C803.448 211.758 803.839 212.574 804.621 213.186C805.437 213.764 806.542 214.053 807.936 214.053C809.262 214.053 810.452 213.747 811.506 213.135C812.56 212.489 813.325 211.554 813.801 210.33L815.025 214.002C814.447 215.77 813.393 217.113 811.863 218.031C810.333 218.949 808.361 219.408 805.947 219.408ZM845.634 191.154C847.81 191.154 849.748 191.596 851.448 192.48C853.182 193.33 854.542 194.656 855.528 196.458C856.514 198.226 857.007 200.504 857.007 203.292V219H849.051V204.516C849.051 202.306 848.558 200.674 847.572 199.62C846.62 198.566 845.26 198.039 843.492 198.039C842.234 198.039 841.095 198.311 840.075 198.855C839.089 199.365 838.307 200.164 837.729 201.252C837.185 202.34 836.913 203.734 836.913 205.434V219H828.957V191.562H836.556V199.161L835.128 196.866C836.114 195.03 837.525 193.619 839.361 192.633C841.197 191.647 843.288 191.154 845.634 191.154ZM867.228 219.408C865.868 219.408 864.695 218.949 863.709 218.031C862.757 217.079 862.281 215.872 862.281 214.41C862.281 212.948 862.757 211.775 863.709 210.891C864.695 209.973 865.868 209.514 867.228 209.514C868.622 209.514 869.795 209.973 870.747 210.891C871.699 211.775 872.175 212.948 872.175 214.41C872.175 215.872 871.699 217.079 870.747 218.031C869.795 218.949 868.622 219.408 867.228 219.408Z" fill="#F85DCD"/>
</svg>
