<svg width="1541" height="340" viewBox="0 0 1541 340" fill="none" xmlns="http://www.w3.org/2000/svg">
<rect x="3" y="3" width="1535" height="334" rx="14" fill="#FCFCFC" stroke="#C3A7FF" stroke-width="6"/>
<path d="M175.796 231.936C165.469 231.936 156.487 229.785 148.85 225.482C141.32 221.179 135.512 214.887 131.424 206.604C127.336 198.321 125.293 188.102 125.293 175.947C125.293 162.932 127.713 151.906 132.553 142.87C137.502 133.835 144.278 126.95 152.884 122.217C161.597 117.484 171.6 115.118 182.895 115.118C188.919 115.118 194.674 115.763 200.16 117.054C205.646 118.345 210.379 120.281 214.359 122.863L204.677 142.064C201.558 139.912 198.223 138.46 194.674 137.707C191.124 136.847 187.413 136.416 183.54 136.416C173.752 136.416 166.007 139.374 160.306 145.291C154.605 151.207 151.754 159.974 151.754 171.591C151.754 173.527 151.754 175.678 151.754 178.045C151.862 180.411 152.185 182.778 152.722 185.144L145.462 178.368C147.505 174.173 150.141 170.677 153.368 167.88C156.595 164.975 160.413 162.824 164.824 161.426C169.342 159.92 174.29 159.167 179.668 159.167C186.983 159.167 193.544 160.619 199.353 163.523C205.162 166.428 209.787 170.515 213.229 175.786C216.779 181.057 218.554 187.242 218.554 194.341C218.554 201.979 216.617 208.648 212.745 214.349C208.98 219.942 203.871 224.299 197.417 227.418C191.07 230.43 183.863 231.936 175.796 231.936ZM174.343 212.413C178.001 212.413 181.228 211.767 184.025 210.477C186.929 209.078 189.188 207.088 190.801 204.507C192.415 201.925 193.222 198.967 193.222 195.632C193.222 190.469 191.447 186.381 187.897 183.37C184.455 180.25 179.829 178.69 174.021 178.69C170.148 178.69 166.76 179.443 163.856 180.949C160.951 182.348 158.639 184.338 156.918 186.919C155.304 189.393 154.497 192.298 154.497 195.632C154.497 198.859 155.304 201.764 156.918 204.345C158.531 206.819 160.79 208.809 163.694 210.315C166.599 211.714 170.148 212.413 174.343 212.413Z" fill="#E4A355"/>
<path d="M342.814 95V59.3H356.176C359.202 59.3 361.803 59.793 363.979 60.779C366.155 61.731 367.821 63.125 368.977 64.961C370.167 66.763 370.762 68.956 370.762 71.54C370.762 74.056 370.167 76.232 368.977 78.068C367.821 79.87 366.155 81.264 363.979 82.25C361.803 83.236 359.202 83.729 356.176 83.729H344.905L346.588 81.944V95H342.814ZM346.588 82.25L344.905 80.414H356.074C359.644 80.414 362.347 79.649 364.183 78.119C366.053 76.555 366.988 74.362 366.988 71.54C366.988 68.684 366.053 66.474 364.183 64.91C362.347 63.346 359.644 62.564 356.074 62.564H344.905L346.588 60.779V82.25ZM389.381 95.255C386.593 95.255 384.145 94.677 382.037 93.521C379.929 92.331 378.28 90.716 377.09 88.676C375.9 86.602 375.305 84.239 375.305 81.587C375.305 78.935 375.866 76.589 376.988 74.549C378.144 72.509 379.708 70.911 381.68 69.755C383.686 68.565 385.93 67.97 388.412 67.97C390.928 67.97 393.155 68.548 395.093 69.704C397.065 70.826 398.612 72.424 399.734 74.498C400.856 76.538 401.417 78.901 401.417 81.587C401.417 81.757 401.4 81.944 401.366 82.148C401.366 82.318 401.366 82.505 401.366 82.709H378.059V80.006H399.428L398 81.077C398 79.139 397.575 77.422 396.725 75.926C395.909 74.396 394.787 73.206 393.359 72.356C391.931 71.506 390.282 71.081 388.412 71.081C386.576 71.081 384.927 71.506 383.465 72.356C382.003 73.206 380.864 74.396 380.048 75.926C379.232 77.456 378.824 79.207 378.824 81.179V81.74C378.824 83.78 379.266 85.582 380.15 87.146C381.068 88.676 382.326 89.883 383.924 90.767C385.556 91.617 387.409 92.042 389.483 92.042C391.115 92.042 392.628 91.753 394.022 91.175C395.45 90.597 396.674 89.713 397.694 88.523L399.734 90.869C398.544 92.297 397.048 93.385 395.246 94.133C393.478 94.881 391.523 95.255 389.381 95.255ZM415.978 95.255C413.768 95.255 411.677 94.949 409.705 94.337C407.733 93.691 406.186 92.892 405.064 91.94L406.696 89.084C407.784 89.9 409.178 90.614 410.878 91.226C412.578 91.804 414.363 92.093 416.233 92.093C418.783 92.093 420.619 91.702 421.741 90.92C422.863 90.104 423.424 89.033 423.424 87.707C423.424 86.721 423.101 85.956 422.455 85.412C421.843 84.834 421.027 84.409 420.007 84.137C418.987 83.831 417.848 83.576 416.59 83.372C415.332 83.168 414.074 82.93 412.816 82.658C411.592 82.386 410.47 81.995 409.45 81.485C408.43 80.941 407.597 80.21 406.951 79.292C406.339 78.374 406.033 77.15 406.033 75.62C406.033 74.158 406.441 72.849 407.257 71.693C408.073 70.537 409.263 69.636 410.827 68.99C412.425 68.31 414.363 67.97 416.641 67.97C418.375 67.97 420.109 68.208 421.843 68.684C423.577 69.126 425.005 69.721 426.127 70.469L424.546 73.376C423.356 72.56 422.081 71.982 420.721 71.642C419.361 71.268 418.001 71.081 416.641 71.081C414.227 71.081 412.442 71.506 411.286 72.356C410.164 73.172 409.603 74.226 409.603 75.518C409.603 76.538 409.909 77.337 410.521 77.915C411.167 78.493 412 78.952 413.02 79.292C414.074 79.598 415.213 79.853 416.437 80.057C417.695 80.261 418.936 80.516 420.16 80.822C421.418 81.094 422.557 81.485 423.577 81.995C424.631 82.471 425.464 83.168 426.076 84.086C426.722 84.97 427.045 86.143 427.045 87.605C427.045 89.169 426.603 90.529 425.719 91.685C424.869 92.807 423.611 93.691 421.945 94.337C420.313 94.949 418.324 95.255 415.978 95.255ZM445.063 95.255C442.275 95.255 439.827 94.677 437.719 93.521C435.611 92.331 433.962 90.716 432.772 88.676C431.582 86.602 430.987 84.239 430.987 81.587C430.987 78.935 431.548 76.589 432.67 74.549C433.826 72.509 435.39 70.911 437.362 69.755C439.368 68.565 441.612 67.97 444.094 67.97C446.61 67.97 448.837 68.548 450.775 69.704C452.747 70.826 454.294 72.424 455.416 74.498C456.538 76.538 457.099 78.901 457.099 81.587C457.099 81.757 457.082 81.944 457.048 82.148C457.048 82.318 457.048 82.505 457.048 82.709H433.741V80.006H455.11L453.682 81.077C453.682 79.139 453.257 77.422 452.407 75.926C451.591 74.396 450.469 73.206 449.041 72.356C447.613 71.506 445.964 71.081 444.094 71.081C442.258 71.081 440.609 71.506 439.147 72.356C437.685 73.206 436.546 74.396 435.73 75.926C434.914 77.456 434.506 79.207 434.506 81.179V81.74C434.506 83.78 434.948 85.582 435.832 87.146C436.75 88.676 438.008 89.883 439.606 90.767C441.238 91.617 443.091 92.042 445.165 92.042C446.797 92.042 448.31 91.753 449.704 91.175C451.132 90.597 452.356 89.713 453.376 88.523L455.416 90.869C454.226 92.297 452.73 93.385 450.928 94.133C449.16 94.881 447.205 95.255 445.063 95.255ZM464.469 95V68.225H467.937V75.518L467.58 74.243C468.328 72.203 469.586 70.656 471.354 69.602C473.122 68.514 475.315 67.97 477.933 67.97V71.489C477.797 71.489 477.661 71.489 477.525 71.489C477.389 71.455 477.253 71.438 477.117 71.438C474.295 71.438 472.085 72.305 470.487 74.039C468.889 75.739 468.09 78.17 468.09 81.332V95H464.469ZM494.152 95.255C491.636 95.255 489.698 94.575 488.338 93.215C486.978 91.855 486.298 89.934 486.298 87.452V62.309H489.919V87.248C489.919 88.812 490.31 90.019 491.092 90.869C491.908 91.719 493.064 92.144 494.56 92.144C496.158 92.144 497.484 91.685 498.538 90.767L499.813 93.368C499.099 94.014 498.232 94.49 497.212 94.796C496.226 95.102 495.206 95.255 494.152 95.255ZM481.504 71.234V68.225H498.079V71.234H481.504ZM523.183 95V89.084L523.03 88.115V78.221C523.03 75.943 522.384 74.192 521.092 72.968C519.834 71.744 517.947 71.132 515.431 71.132C513.697 71.132 512.048 71.421 510.484 71.999C508.92 72.577 507.594 73.342 506.506 74.294L504.874 71.591C506.234 70.435 507.866 69.551 509.77 68.939C511.674 68.293 513.68 67.97 515.788 67.97C519.256 67.97 521.925 68.837 523.795 70.571C525.699 72.271 526.651 74.872 526.651 78.374V95H523.183ZM513.952 95.255C511.946 95.255 510.195 94.932 508.699 94.286C507.237 93.606 506.115 92.688 505.333 91.532C504.551 90.342 504.16 88.982 504.16 87.452C504.16 86.058 504.483 84.8 505.129 83.678C505.809 82.522 506.897 81.604 508.393 80.924C509.923 80.21 511.963 79.853 514.513 79.853H523.744V82.556H514.615C512.031 82.556 510.229 83.015 509.209 83.933C508.223 84.851 507.73 85.99 507.73 87.35C507.73 88.88 508.325 90.104 509.515 91.022C510.705 91.94 512.371 92.399 514.513 92.399C516.553 92.399 518.304 91.94 519.766 91.022C521.262 90.07 522.35 88.71 523.03 86.942L523.846 89.441C523.166 91.209 521.976 92.62 520.276 93.674C518.61 94.728 516.502 95.255 513.952 95.255ZM624.254 95.255C622.044 95.255 619.953 94.949 617.981 94.337C616.009 93.691 614.462 92.892 613.34 91.94L614.972 89.084C616.06 89.9 617.454 90.614 619.154 91.226C620.854 91.804 622.639 92.093 624.509 92.093C627.059 92.093 628.895 91.702 630.017 90.92C631.139 90.104 631.7 89.033 631.7 87.707C631.7 86.721 631.377 85.956 630.731 85.412C630.119 84.834 629.303 84.409 628.283 84.137C627.263 83.831 626.124 83.576 624.866 83.372C623.608 83.168 622.35 82.93 621.092 82.658C619.868 82.386 618.746 81.995 617.726 81.485C616.706 80.941 615.873 80.21 615.227 79.292C614.615 78.374 614.309 77.15 614.309 75.62C614.309 74.158 614.717 72.849 615.533 71.693C616.349 70.537 617.539 69.636 619.103 68.99C620.701 68.31 622.639 67.97 624.917 67.97C626.651 67.97 628.385 68.208 630.119 68.684C631.853 69.126 633.281 69.721 634.403 70.469L632.822 73.376C631.632 72.56 630.357 71.982 628.997 71.642C627.637 71.268 626.277 71.081 624.917 71.081C622.503 71.081 620.718 71.506 619.562 72.356C618.44 73.172 617.879 74.226 617.879 75.518C617.879 76.538 618.185 77.337 618.797 77.915C619.443 78.493 620.276 78.952 621.296 79.292C622.35 79.598 623.489 79.853 624.713 80.057C625.971 80.261 627.212 80.516 628.436 80.822C629.694 81.094 630.833 81.485 631.853 81.995C632.907 82.471 633.74 83.168 634.352 84.086C634.998 84.97 635.321 86.143 635.321 87.605C635.321 89.169 634.879 90.529 633.995 91.685C633.145 92.807 631.887 93.691 630.221 94.337C628.589 94.949 626.6 95.255 624.254 95.255ZM653.339 95.255C650.551 95.255 648.103 94.677 645.995 93.521C643.887 92.331 642.238 90.716 641.048 88.676C639.858 86.602 639.263 84.239 639.263 81.587C639.263 78.935 639.824 76.589 640.946 74.549C642.102 72.509 643.666 70.911 645.638 69.755C647.644 68.565 649.888 67.97 652.37 67.97C654.886 67.97 657.113 68.548 659.051 69.704C661.023 70.826 662.57 72.424 663.692 74.498C664.814 76.538 665.375 78.901 665.375 81.587C665.375 81.757 665.358 81.944 665.324 82.148C665.324 82.318 665.324 82.505 665.324 82.709H642.017V80.006H663.386L661.958 81.077C661.958 79.139 661.533 77.422 660.683 75.926C659.867 74.396 658.745 73.206 657.317 72.356C655.889 71.506 654.24 71.081 652.37 71.081C650.534 71.081 648.885 71.506 647.423 72.356C645.961 73.206 644.822 74.396 644.006 75.926C643.19 77.456 642.782 79.207 642.782 81.179V81.74C642.782 83.78 643.224 85.582 644.108 87.146C645.026 88.676 646.284 89.883 647.882 90.767C649.514 91.617 651.367 92.042 653.441 92.042C655.073 92.042 656.586 91.753 657.98 91.175C659.408 90.597 660.632 89.713 661.652 88.523L663.692 90.869C662.502 92.297 661.006 93.385 659.204 94.133C657.436 94.881 655.481 95.255 653.339 95.255ZM681.211 95.255C678.695 95.255 676.757 94.575 675.397 93.215C674.037 91.855 673.357 89.934 673.357 87.452V62.309H676.978V87.248C676.978 88.812 677.369 90.019 678.151 90.869C678.967 91.719 680.123 92.144 681.619 92.144C683.217 92.144 684.543 91.685 685.597 90.767L686.872 93.368C686.158 94.014 685.291 94.49 684.271 94.796C683.285 95.102 682.265 95.255 681.211 95.255ZM668.563 71.234V68.225H685.138V71.234H668.563ZM704.531 95.255C702.253 95.255 700.264 94.83 698.564 93.98C696.864 93.13 695.538 91.855 694.586 90.155C693.668 88.455 693.209 86.33 693.209 83.78V68.225H696.83V83.372C696.83 86.228 697.527 88.387 698.921 89.849C700.349 91.277 702.338 91.991 704.888 91.991C706.758 91.991 708.373 91.617 709.733 90.869C711.127 90.087 712.181 88.965 712.895 87.503C713.643 86.041 714.017 84.29 714.017 82.25V68.225H717.638V95H714.17V87.656L714.731 88.982C713.881 90.954 712.555 92.501 710.753 93.623C708.985 94.711 706.911 95.255 704.531 95.255ZM723.751 105.149C722.663 105.149 721.626 104.996 720.64 104.69C719.62 104.418 718.77 103.993 718.09 103.415L719.365 100.661C720.453 101.579 721.847 102.038 723.547 102.038C724.975 102.038 726.063 101.613 726.811 100.763C727.593 99.913 727.984 98.655 727.984 96.989V68.225H731.605V96.989C731.605 99.471 730.925 101.443 729.565 102.905C728.239 104.401 726.301 105.149 723.751 105.149ZM729.82 62.309C729.072 62.309 728.443 62.054 727.933 61.544C727.423 61.034 727.168 60.422 727.168 59.708C727.168 58.994 727.423 58.399 727.933 57.923C728.443 57.413 729.072 57.158 729.82 57.158C730.568 57.158 731.197 57.396 731.707 57.872C732.217 58.348 732.472 58.943 732.472 59.657C732.472 60.405 732.217 61.034 731.707 61.544C731.231 62.054 730.602 62.309 729.82 62.309ZM752.792 95.255C750.514 95.255 748.525 94.83 746.825 93.98C745.125 93.13 743.799 91.855 742.847 90.155C741.929 88.455 741.47 86.33 741.47 83.78V68.225H745.091V83.372C745.091 86.228 745.788 88.387 747.182 89.849C748.61 91.277 750.599 91.991 753.149 91.991C755.019 91.991 756.634 91.617 757.994 90.869C759.388 90.087 760.442 88.965 761.156 87.503C761.904 86.041 762.278 84.29 762.278 82.25V68.225H765.899V95H762.431V87.656L762.992 88.982C762.142 90.954 760.816 92.501 759.014 93.623C757.246 94.711 755.172 95.255 752.792 95.255ZM870.388 95.255C868.042 95.255 865.934 94.728 864.064 93.674C862.194 92.586 860.715 91.022 859.627 88.982C858.539 86.942 857.995 84.477 857.995 81.587C857.995 78.663 858.539 76.198 859.627 74.192C860.749 72.152 862.245 70.605 864.115 69.551C865.985 68.497 868.076 67.97 870.388 67.97C872.938 67.97 875.216 68.548 877.222 69.704C879.262 70.826 880.86 72.407 882.016 74.447C883.172 76.487 883.75 78.867 883.75 81.587C883.75 84.273 883.172 86.653 882.016 88.727C880.86 90.767 879.262 92.365 877.222 93.521C875.216 94.677 872.938 95.255 870.388 95.255ZM856.567 95V57.158H860.188V76.13L859.678 81.536L860.035 86.942V95H856.567ZM870.133 92.042C872.037 92.042 873.737 91.617 875.233 90.767C876.729 89.883 877.919 88.659 878.803 87.095C879.687 85.497 880.129 83.661 880.129 81.587C880.129 79.479 879.687 77.643 878.803 76.079C877.919 74.515 876.729 73.308 875.233 72.458C873.737 71.574 872.037 71.132 870.133 71.132C868.229 71.132 866.512 71.574 864.982 72.458C863.486 73.308 862.296 74.515 861.412 76.079C860.562 77.643 860.137 79.479 860.137 81.587C860.137 83.661 860.562 85.497 861.412 87.095C862.296 88.659 863.486 89.883 864.982 90.767C866.512 91.617 868.229 92.042 870.133 92.042ZM907.761 95V89.084L907.608 88.115V78.221C907.608 75.943 906.962 74.192 905.67 72.968C904.412 71.744 902.525 71.132 900.009 71.132C898.275 71.132 896.626 71.421 895.062 71.999C893.498 72.577 892.172 73.342 891.084 74.294L889.452 71.591C890.812 70.435 892.444 69.551 894.348 68.939C896.252 68.293 898.258 67.97 900.366 67.97C903.834 67.97 906.503 68.837 908.373 70.571C910.277 72.271 911.229 74.872 911.229 78.374V95H907.761ZM898.53 95.255C896.524 95.255 894.773 94.932 893.277 94.286C891.815 93.606 890.693 92.688 889.911 91.532C889.129 90.342 888.738 88.982 888.738 87.452C888.738 86.058 889.061 84.8 889.707 83.678C890.387 82.522 891.475 81.604 892.971 80.924C894.501 80.21 896.541 79.853 899.091 79.853H908.322V82.556H899.193C896.609 82.556 894.807 83.015 893.787 83.933C892.801 84.851 892.308 85.99 892.308 87.35C892.308 88.88 892.903 90.104 894.093 91.022C895.283 91.94 896.949 92.399 899.091 92.399C901.131 92.399 902.882 91.94 904.344 91.022C905.84 90.07 906.928 88.71 907.608 86.942L908.424 89.441C907.744 91.209 906.554 92.62 904.854 93.674C903.188 94.728 901.08 95.255 898.53 95.255ZM934.732 67.97C936.908 67.97 938.812 68.395 940.444 69.245C942.11 70.061 943.402 71.319 944.32 73.019C945.272 74.719 945.748 76.861 945.748 79.445V95H942.127V79.802C942.127 76.98 941.413 74.855 939.985 73.427C938.591 71.965 936.619 71.234 934.069 71.234C932.165 71.234 930.499 71.625 929.071 72.407C927.677 73.155 926.589 74.26 925.807 75.722C925.059 77.15 924.685 78.884 924.685 80.924V95H921.064V57.158H924.685V75.569L923.971 74.192C924.821 72.254 926.181 70.741 928.051 69.653C929.921 68.531 932.148 67.97 934.732 67.97ZM960.488 95L950.39 68.225H953.858L963.038 93.062H961.457L970.892 68.225H974.003L983.336 93.062H981.755L991.088 68.225H994.403L984.254 95H980.837L971.861 71.642H972.932L963.905 95H960.488ZM1015.84 95V89.084L1015.68 88.115V78.221C1015.68 75.943 1015.04 74.192 1013.75 72.968C1012.49 71.744 1010.6 71.132 1008.09 71.132C1006.35 71.132 1004.7 71.421 1003.14 71.999C1001.57 72.577 1000.25 73.342 999.16 74.294L997.528 71.591C998.888 70.435 1000.52 69.551 1002.42 68.939C1004.33 68.293 1006.33 67.97 1008.44 67.97C1011.91 67.97 1014.58 68.837 1016.45 70.571C1018.35 72.271 1019.31 74.872 1019.31 78.374V95H1015.84ZM1006.61 95.255C1004.6 95.255 1002.85 94.932 1001.35 94.286C999.891 93.606 998.769 92.688 997.987 91.532C997.205 90.342 996.814 88.982 996.814 87.452C996.814 86.058 997.137 84.8 997.783 83.678C998.463 82.522 999.551 81.604 1001.05 80.924C1002.58 80.21 1004.62 79.853 1007.17 79.853H1016.4V82.556H1007.27C1004.69 82.556 1002.88 83.015 1001.86 83.933C1000.88 84.851 1000.38 85.99 1000.38 87.35C1000.38 88.88 1000.98 90.104 1002.17 91.022C1003.36 91.94 1005.03 92.399 1007.17 92.399C1009.21 92.399 1010.96 91.94 1012.42 91.022C1013.92 90.07 1015 88.71 1015.68 86.942L1016.5 89.441C1015.82 91.209 1014.63 92.62 1012.93 93.674C1011.26 94.728 1009.16 95.255 1006.61 95.255ZM1120.12 95.408C1117.54 95.408 1115.21 94.83 1113.13 93.674C1111.06 92.484 1109.41 90.835 1108.19 88.727C1107 86.619 1106.4 84.137 1106.4 81.281C1106.4 78.391 1107 75.892 1108.19 73.784C1109.41 71.676 1111.06 70.044 1113.13 68.888C1115.21 67.732 1117.54 67.154 1120.12 67.154C1122.43 67.154 1124.46 67.664 1126.19 68.684C1127.92 69.704 1129.27 71.251 1130.22 73.325C1131.17 75.399 1131.65 78.051 1131.65 81.281C1131.65 84.477 1131.19 87.129 1130.27 89.237C1129.35 91.311 1128.03 92.858 1126.29 93.878C1124.59 94.898 1122.54 95.408 1120.12 95.408ZM1121.5 88.88C1122.79 88.88 1123.96 88.574 1125.02 87.962C1126.07 87.35 1126.9 86.483 1127.52 85.361C1128.16 84.205 1128.49 82.845 1128.49 81.281C1128.49 79.683 1128.16 78.323 1127.52 77.201C1126.9 76.079 1126.07 75.212 1125.02 74.6C1123.96 73.988 1122.79 73.682 1121.5 73.682C1120.17 73.682 1118.98 73.988 1117.93 74.6C1116.87 75.212 1116.02 76.079 1115.38 77.201C1114.77 78.323 1114.46 79.683 1114.46 81.281C1114.46 82.845 1114.77 84.205 1115.38 85.361C1116.02 86.483 1116.87 87.35 1117.93 87.962C1118.98 88.574 1120.17 88.88 1121.5 88.88ZM1128.69 95V89.39L1128.84 81.23L1128.33 73.121V57.158H1136.29V95H1128.69ZM1160.48 95V89.645L1159.97 88.472V78.884C1159.97 77.184 1159.44 75.858 1158.39 74.906C1157.37 73.954 1155.79 73.478 1153.65 73.478C1152.19 73.478 1150.74 73.716 1149.31 74.192C1147.92 74.634 1146.73 75.246 1145.74 76.028L1142.89 70.469C1144.38 69.415 1146.18 68.599 1148.29 68.021C1150.4 67.443 1152.54 67.154 1154.72 67.154C1158.9 67.154 1162.15 68.14 1164.46 70.112C1166.77 72.084 1167.93 75.161 1167.93 79.343V95H1160.48ZM1152.12 95.408C1149.98 95.408 1148.14 95.051 1146.61 94.337C1145.08 93.589 1143.91 92.586 1143.09 91.328C1142.27 90.07 1141.87 88.659 1141.87 87.095C1141.87 85.463 1142.26 84.035 1143.04 82.811C1143.86 81.587 1145.13 80.635 1146.86 79.955C1148.6 79.241 1150.86 78.884 1153.65 78.884H1160.94V83.525H1154.51C1152.64 83.525 1151.35 83.831 1150.64 84.443C1149.96 85.055 1149.62 85.82 1149.62 86.738C1149.62 87.758 1150.01 88.574 1150.79 89.186C1151.61 89.764 1152.71 90.053 1154.11 90.053C1155.43 90.053 1156.62 89.747 1157.68 89.135C1158.73 88.489 1159.5 87.554 1159.97 86.33L1161.2 90.002C1160.62 91.77 1159.56 93.113 1158.03 94.031C1156.5 94.949 1154.53 95.408 1152.12 95.408ZM1186.35 95.408C1183.12 95.408 1180.6 94.592 1178.8 92.96C1177 91.294 1176.1 88.829 1176.1 85.565V61.493H1184.05V85.463C1184.05 86.619 1184.36 87.52 1184.97 88.166C1185.58 88.778 1186.42 89.084 1187.47 89.084C1188.73 89.084 1189.8 88.744 1190.68 88.064L1192.83 93.674C1192.01 94.252 1191.02 94.694 1189.87 95C1188.75 95.272 1187.57 95.408 1186.35 95.408ZM1171.86 74.294V68.174H1190.89V74.294H1171.86ZM1214.12 95V89.645L1213.61 88.472V78.884C1213.61 77.184 1213.08 75.858 1212.03 74.906C1211.01 73.954 1209.43 73.478 1207.29 73.478C1205.83 73.478 1204.38 73.716 1202.95 74.192C1201.56 74.634 1200.37 75.246 1199.38 76.028L1196.53 70.469C1198.02 69.415 1199.82 68.599 1201.93 68.021C1204.04 67.443 1206.18 67.154 1208.36 67.154C1212.54 67.154 1215.79 68.14 1218.1 70.112C1220.41 72.084 1221.57 75.161 1221.57 79.343V95H1214.12ZM1205.76 95.408C1203.62 95.408 1201.78 95.051 1200.25 94.337C1198.72 93.589 1197.55 92.586 1196.73 91.328C1195.91 90.07 1195.51 88.659 1195.51 87.095C1195.51 85.463 1195.9 84.035 1196.68 82.811C1197.5 81.587 1198.77 80.635 1200.5 79.955C1202.24 79.241 1204.5 78.884 1207.29 78.884H1214.58V83.525H1208.15C1206.28 83.525 1204.99 83.831 1204.28 84.443C1203.6 85.055 1203.26 85.82 1203.26 86.738C1203.26 87.758 1203.65 88.574 1204.43 89.186C1205.25 89.764 1206.35 90.053 1207.75 90.053C1209.07 90.053 1210.26 89.747 1211.32 89.135C1212.37 88.489 1213.14 87.554 1213.61 86.33L1214.84 90.002C1214.26 91.77 1213.2 93.113 1211.67 94.031C1210.14 94.949 1208.17 95.408 1205.76 95.408ZM1313.91 105.302C1312.48 105.302 1311.07 105.081 1309.68 104.639C1308.28 104.197 1307.14 103.585 1306.26 102.803L1309.17 97.142C1309.78 97.686 1310.47 98.111 1311.26 98.417C1312.07 98.723 1312.87 98.876 1313.65 98.876C1314.78 98.876 1315.66 98.604 1316.31 98.06C1316.99 97.55 1317.6 96.683 1318.14 95.459L1319.57 92.093L1320.18 91.226L1330.02 67.562H1337.67L1325.28 96.683C1324.4 98.893 1323.38 100.627 1322.22 101.885C1321.1 103.143 1319.84 104.027 1318.45 104.537C1317.09 105.047 1315.57 105.302 1313.91 105.302ZM1318.6 96.071L1306.36 67.562H1314.57L1324.06 90.512L1318.6 96.071ZM1356.85 95V89.645L1356.34 88.472V78.884C1356.34 77.184 1355.82 75.858 1354.76 74.906C1353.74 73.954 1352.16 73.478 1350.02 73.478C1348.56 73.478 1347.11 73.716 1345.69 74.192C1344.29 74.634 1343.1 75.246 1342.12 76.028L1339.26 70.469C1340.76 69.415 1342.56 68.599 1344.67 68.021C1346.77 67.443 1348.92 67.154 1351.09 67.154C1355.27 67.154 1358.52 68.14 1360.83 70.112C1363.14 72.084 1364.3 75.161 1364.3 79.343V95H1356.85ZM1348.49 95.408C1346.35 95.408 1344.51 95.051 1342.98 94.337C1341.45 93.589 1340.28 92.586 1339.46 91.328C1338.65 90.07 1338.24 88.659 1338.24 87.095C1338.24 85.463 1338.63 84.035 1339.41 82.811C1340.23 81.587 1341.5 80.635 1343.24 79.955C1344.97 79.241 1347.23 78.884 1350.02 78.884H1357.31V83.525H1350.89C1349.02 83.525 1347.73 83.831 1347.01 84.443C1346.33 85.055 1345.99 85.82 1345.99 86.738C1345.99 87.758 1346.38 88.574 1347.16 89.186C1347.98 89.764 1349.09 90.053 1350.48 90.053C1351.81 90.053 1353 89.747 1354.05 89.135C1355.1 88.489 1355.87 87.554 1356.34 86.33L1357.57 90.002C1356.99 91.77 1355.94 93.113 1354.41 94.031C1352.88 94.949 1350.9 95.408 1348.49 95.408ZM1388.18 67.154C1390.35 67.154 1392.29 67.596 1393.99 68.48C1395.73 69.33 1397.09 70.656 1398.07 72.458C1399.06 74.226 1399.55 76.504 1399.55 79.292V95H1391.6V80.516C1391.6 78.306 1391.1 76.674 1390.12 75.62C1389.16 74.566 1387.8 74.039 1386.04 74.039C1384.78 74.039 1383.64 74.311 1382.62 74.855C1381.63 75.365 1380.85 76.164 1380.27 77.252C1379.73 78.34 1379.46 79.734 1379.46 81.434V95H1371.5V67.562H1379.1V75.161L1377.67 72.866C1378.66 71.03 1380.07 69.619 1381.91 68.633C1383.74 67.647 1385.83 67.154 1388.18 67.154ZM1419.87 105.302C1417.28 105.302 1414.78 104.979 1412.37 104.333C1409.99 103.721 1408 102.786 1406.4 101.528L1409.56 95.816C1410.72 96.768 1412.18 97.516 1413.95 98.06C1415.75 98.638 1417.52 98.927 1419.25 98.927C1422.08 98.927 1424.12 98.298 1425.37 97.04C1426.67 95.782 1427.31 93.912 1427.31 91.43V87.299L1427.82 80.414L1427.72 73.478V67.562H1435.27V90.41C1435.27 95.51 1433.94 99.267 1431.29 101.681C1428.64 104.095 1424.83 105.302 1419.87 105.302ZM1418.64 93.674C1416.09 93.674 1413.78 93.13 1411.71 92.042C1409.67 90.92 1408.02 89.373 1406.76 87.401C1405.53 85.395 1404.92 83.066 1404.92 80.414C1404.92 77.728 1405.53 75.399 1406.76 73.427C1408.02 71.421 1409.67 69.874 1411.71 68.786C1413.78 67.698 1416.09 67.154 1418.64 67.154C1420.95 67.154 1422.99 67.63 1424.76 68.582C1426.53 69.5 1427.91 70.945 1428.89 72.917C1429.88 74.855 1430.37 77.354 1430.37 80.414C1430.37 83.44 1429.88 85.939 1428.89 87.911C1427.91 89.849 1426.53 91.294 1424.76 92.246C1422.99 93.198 1420.95 93.674 1418.64 93.674ZM1420.22 87.146C1421.62 87.146 1422.86 86.874 1423.95 86.33C1425.03 85.752 1425.88 84.953 1426.5 83.933C1427.11 82.913 1427.41 81.74 1427.41 80.414C1427.41 79.054 1427.11 77.881 1426.5 76.895C1425.88 75.875 1425.03 75.093 1423.95 74.549C1422.86 73.971 1421.62 73.682 1420.22 73.682C1418.83 73.682 1417.59 73.971 1416.5 74.549C1415.41 75.093 1414.54 75.875 1413.9 76.895C1413.29 77.881 1412.98 79.054 1412.98 80.414C1412.98 81.74 1413.29 82.913 1413.9 83.933C1414.54 84.953 1415.41 85.752 1416.5 86.33C1417.59 86.874 1418.83 87.146 1420.22 87.146ZM352.453 157.408C349.869 157.408 347.54 156.83 345.466 155.674C343.392 154.484 341.743 152.835 340.519 150.727C339.329 148.619 338.734 146.137 338.734 143.281C338.734 140.391 339.329 137.892 340.519 135.784C341.743 133.676 343.392 132.044 345.466 130.888C347.54 129.732 349.869 129.154 352.453 129.154C354.765 129.154 356.788 129.664 358.522 130.684C360.256 131.704 361.599 133.251 362.551 135.325C363.503 137.399 363.979 140.051 363.979 143.281C363.979 146.477 363.52 149.129 362.602 151.237C361.684 153.311 360.358 154.858 358.624 155.878C356.924 156.898 354.867 157.408 352.453 157.408ZM353.83 150.88C355.122 150.88 356.295 150.574 357.349 149.962C358.403 149.35 359.236 148.483 359.848 147.361C360.494 146.205 360.817 144.845 360.817 143.281C360.817 141.683 360.494 140.323 359.848 139.201C359.236 138.079 358.403 137.212 357.349 136.6C356.295 135.988 355.122 135.682 353.83 135.682C352.504 135.682 351.314 135.988 350.26 136.6C349.206 137.212 348.356 138.079 347.71 139.201C347.098 140.323 346.792 141.683 346.792 143.281C346.792 144.845 347.098 146.205 347.71 147.361C348.356 148.483 349.206 149.35 350.26 149.962C351.314 150.574 352.504 150.88 353.83 150.88ZM361.021 157V151.39L361.174 143.23L360.664 135.121V119.158H368.62V157H361.021ZM375.984 157V129.562H383.94V157H375.984ZM379.962 125.737C378.5 125.737 377.31 125.312 376.392 124.462C375.474 123.612 375.015 122.558 375.015 121.3C375.015 120.042 375.474 118.988 376.392 118.138C377.31 117.288 378.5 116.863 379.962 116.863C381.424 116.863 382.614 117.271 383.532 118.087C384.45 118.869 384.909 119.889 384.909 121.147C384.909 122.473 384.45 123.578 383.532 124.462C382.648 125.312 381.458 125.737 379.962 125.737ZM397.902 151.39L398.106 141.7L410.907 129.562H420.393L408.102 142.057L403.971 145.423L397.902 151.39ZM391.323 157V119.158H399.279V157H391.323ZM411.774 157L402.492 145.474L407.49 139.303L421.413 157H411.774ZM424.991 157V129.562H432.947V157H424.991ZM428.969 125.737C427.507 125.737 426.317 125.312 425.399 124.462C424.481 123.612 424.022 122.558 424.022 121.3C424.022 120.042 424.481 118.988 425.399 118.138C426.317 117.288 427.507 116.863 428.969 116.863C430.431 116.863 431.621 117.271 432.539 118.087C433.457 118.869 433.916 119.889 433.916 121.147C433.916 122.473 433.457 123.578 432.539 124.462C431.655 125.312 430.465 125.737 428.969 125.737ZM440.331 157V129.562H447.93V137.314L446.859 135.07C447.675 133.132 448.984 131.67 450.786 130.684C452.588 129.664 454.781 129.154 457.365 129.154V136.498C457.025 136.464 456.719 136.447 456.447 136.447C456.175 136.413 455.886 136.396 455.58 136.396C453.404 136.396 451.636 137.025 450.276 138.283C448.95 139.507 448.287 141.428 448.287 144.046V157H440.331ZM462.146 157V129.562H470.102V157H462.146ZM466.124 125.737C464.662 125.737 463.472 125.312 462.554 124.462C461.636 123.612 461.177 122.558 461.177 121.3C461.177 120.042 461.636 118.988 462.554 118.138C463.472 117.288 464.662 116.863 466.124 116.863C467.586 116.863 468.776 117.271 469.694 118.087C470.612 118.869 471.071 119.889 471.071 121.147C471.071 122.473 470.612 123.578 469.694 124.462C468.81 125.312 467.62 125.737 466.124 125.737ZM512.624 129.154C514.8 129.154 516.721 129.596 518.387 130.48C520.087 131.33 521.413 132.656 522.365 134.458C523.351 136.226 523.844 138.504 523.844 141.292V157H515.888V142.516C515.888 140.306 515.429 138.674 514.511 137.62C513.593 136.566 512.301 136.039 510.635 136.039C509.479 136.039 508.442 136.311 507.524 136.855C506.606 137.365 505.892 138.147 505.382 139.201C504.872 140.255 504.617 141.598 504.617 143.23V157H496.661V142.516C496.661 140.306 496.202 138.674 495.284 137.62C494.4 136.566 493.125 136.039 491.459 136.039C490.303 136.039 489.266 136.311 488.348 136.855C487.43 137.365 486.716 138.147 486.206 139.201C485.696 140.255 485.441 141.598 485.441 143.23V157H477.485V129.562H485.084V137.059L483.656 134.866C484.608 132.996 485.951 131.585 487.685 130.633C489.453 129.647 491.459 129.154 493.703 129.154C496.219 129.154 498.412 129.8 500.282 131.092C502.186 132.35 503.444 134.288 504.056 136.906L501.251 136.141C502.169 133.999 503.631 132.299 505.637 131.041C507.677 129.783 510.006 129.154 512.624 129.154ZM537.555 151.39L537.759 141.7L550.56 129.562H560.046L547.755 142.057L543.624 145.423L537.555 151.39ZM530.976 157V119.158H538.932V157H530.976ZM551.427 157L542.145 145.474L547.143 139.303L561.066 157H551.427ZM580.976 157V151.645L580.466 150.472V140.884C580.466 139.184 579.939 137.858 578.885 136.906C577.865 135.954 576.284 135.478 574.142 135.478C572.68 135.478 571.235 135.716 569.807 136.192C568.413 136.634 567.223 137.246 566.237 138.028L563.381 132.469C564.877 131.415 566.679 130.599 568.787 130.021C570.895 129.443 573.037 129.154 575.213 129.154C579.395 129.154 582.642 130.14 584.954 132.112C587.266 134.084 588.422 137.161 588.422 141.343V157H580.976ZM572.612 157.408C570.47 157.408 568.634 157.051 567.104 156.337C565.574 155.589 564.401 154.586 563.585 153.328C562.769 152.07 562.361 150.659 562.361 149.095C562.361 147.463 562.752 146.035 563.534 144.811C564.35 143.587 565.625 142.635 567.359 141.955C569.093 141.241 571.354 140.884 574.142 140.884H581.435V145.525H575.009C573.139 145.525 571.847 145.831 571.133 146.443C570.453 147.055 570.113 147.82 570.113 148.738C570.113 149.758 570.504 150.574 571.286 151.186C572.102 151.764 573.207 152.053 574.601 152.053C575.927 152.053 577.117 151.747 578.171 151.135C579.225 150.489 579.99 149.554 580.466 148.33L581.69 152.002C581.112 153.77 580.058 155.113 578.528 156.031C576.998 156.949 575.026 157.408 572.612 157.408ZM612.299 129.154C614.475 129.154 616.413 129.596 618.113 130.48C619.847 131.33 621.207 132.656 622.193 134.458C623.179 136.226 623.672 138.504 623.672 141.292V157H615.716V142.516C615.716 140.306 615.223 138.674 614.237 137.62C613.285 136.566 611.925 136.039 610.157 136.039C608.899 136.039 607.76 136.311 606.74 136.855C605.754 137.365 604.972 138.164 604.394 139.252C603.85 140.34 603.578 141.734 603.578 143.434V157H595.622V129.562H603.221V137.161L601.793 134.866C602.779 133.03 604.19 131.619 606.026 130.633C607.862 129.647 609.953 129.154 612.299 129.154ZM724.802 157V151.645L724.292 150.472V140.884C724.292 139.184 723.765 137.858 722.711 136.906C721.691 135.954 720.11 135.478 717.968 135.478C716.506 135.478 715.061 135.716 713.633 136.192C712.239 136.634 711.049 137.246 710.063 138.028L707.207 132.469C708.703 131.415 710.505 130.599 712.613 130.021C714.721 129.443 716.863 129.154 719.039 129.154C723.221 129.154 726.468 130.14 728.78 132.112C731.092 134.084 732.248 137.161 732.248 141.343V157H724.802ZM716.438 157.408C714.296 157.408 712.46 157.051 710.93 156.337C709.4 155.589 708.227 154.586 707.411 153.328C706.595 152.07 706.187 150.659 706.187 149.095C706.187 147.463 706.578 146.035 707.36 144.811C708.176 143.587 709.451 142.635 711.185 141.955C712.919 141.241 715.18 140.884 717.968 140.884H725.261V145.525H718.835C716.965 145.525 715.673 145.831 714.959 146.443C714.279 147.055 713.939 147.82 713.939 148.738C713.939 149.758 714.33 150.574 715.112 151.186C715.928 151.764 717.033 152.053 718.427 152.053C719.753 152.053 720.943 151.747 721.997 151.135C723.051 150.489 723.816 149.554 724.292 148.33L725.516 152.002C724.938 153.77 723.884 155.113 722.354 156.031C720.824 156.949 718.852 157.408 716.438 157.408ZM746.028 151.39L746.232 141.7L759.033 129.562H768.519L756.228 142.057L752.097 145.423L746.028 151.39ZM739.449 157V119.158H747.405V157H739.449ZM759.9 157L750.618 145.474L755.616 139.303L769.539 157H759.9ZM789.449 157V151.645L788.939 150.472V140.884C788.939 139.184 788.412 137.858 787.358 136.906C786.338 135.954 784.757 135.478 782.615 135.478C781.153 135.478 779.708 135.716 778.28 136.192C776.886 136.634 775.696 137.246 774.71 138.028L771.854 132.469C773.35 131.415 775.152 130.599 777.26 130.021C779.368 129.443 781.51 129.154 783.686 129.154C787.868 129.154 791.115 130.14 793.427 132.112C795.739 134.084 796.895 137.161 796.895 141.343V157H789.449ZM781.085 157.408C778.943 157.408 777.107 157.051 775.577 156.337C774.047 155.589 772.874 154.586 772.058 153.328C771.242 152.07 770.834 150.659 770.834 149.095C770.834 147.463 771.225 146.035 772.007 144.811C772.823 143.587 774.098 142.635 775.832 141.955C777.566 141.241 779.827 140.884 782.615 140.884H789.908V145.525H783.482C781.612 145.525 780.32 145.831 779.606 146.443C778.926 147.055 778.586 147.82 778.586 148.738C778.586 149.758 778.977 150.574 779.759 151.186C780.575 151.764 781.68 152.053 783.074 152.053C784.4 152.053 785.59 151.747 786.644 151.135C787.698 150.489 788.463 149.554 788.939 148.33L790.163 152.002C789.585 153.77 788.531 155.113 787.001 156.031C785.471 156.949 783.499 157.408 781.085 157.408ZM820.772 129.154C822.948 129.154 824.886 129.596 826.586 130.48C828.32 131.33 829.68 132.656 830.666 134.458C831.652 136.226 832.145 138.504 832.145 141.292V157H824.189V142.516C824.189 140.306 823.696 138.674 822.71 137.62C821.758 136.566 820.398 136.039 818.63 136.039C817.372 136.039 816.233 136.311 815.213 136.855C814.227 137.365 813.445 138.164 812.867 139.252C812.323 140.34 812.051 141.734 812.051 143.434V157H804.095V129.562H811.694V137.161L810.266 134.866C811.252 133.03 812.663 131.619 814.499 130.633C816.335 129.647 818.426 129.154 820.772 129.154ZM928.226 157.408C925.642 157.408 923.313 156.83 921.239 155.674C919.165 154.484 917.516 152.835 916.292 150.727C915.102 148.619 914.507 146.137 914.507 143.281C914.507 140.391 915.102 137.892 916.292 135.784C917.516 133.676 919.165 132.044 921.239 130.888C923.313 129.732 925.642 129.154 928.226 129.154C930.538 129.154 932.561 129.664 934.295 130.684C936.029 131.704 937.372 133.251 938.324 135.325C939.276 137.399 939.752 140.051 939.752 143.281C939.752 146.477 939.293 149.129 938.375 151.237C937.457 153.311 936.131 154.858 934.397 155.878C932.697 156.898 930.64 157.408 928.226 157.408ZM929.603 150.88C930.895 150.88 932.068 150.574 933.122 149.962C934.176 149.35 935.009 148.483 935.621 147.361C936.267 146.205 936.59 144.845 936.59 143.281C936.59 141.683 936.267 140.323 935.621 139.201C935.009 138.079 934.176 137.212 933.122 136.6C932.068 135.988 930.895 135.682 929.603 135.682C928.277 135.682 927.087 135.988 926.033 136.6C924.979 137.212 924.129 138.079 923.483 139.201C922.871 140.323 922.565 141.683 922.565 143.281C922.565 144.845 922.871 146.205 923.483 147.361C924.129 148.483 924.979 149.35 926.033 149.962C927.087 150.574 928.277 150.88 929.603 150.88ZM936.794 157V151.39L936.947 143.23L936.437 135.121V119.158H944.393V157H936.794ZM951.757 157V129.562H959.713V157H951.757ZM955.735 125.737C954.273 125.737 953.083 125.312 952.165 124.462C951.247 123.612 950.788 122.558 950.788 121.3C950.788 120.042 951.247 118.988 952.165 118.138C953.083 117.288 954.273 116.863 955.735 116.863C957.197 116.863 958.387 117.271 959.305 118.087C960.223 118.869 960.682 119.889 960.682 121.147C960.682 122.473 960.223 123.578 959.305 124.462C958.421 125.312 957.231 125.737 955.735 125.737ZM980 167.302C977.416 167.302 974.917 166.979 972.502 166.333C970.122 165.721 968.133 164.786 966.535 163.528L969.697 157.816C970.853 158.768 972.315 159.516 974.083 160.06C975.886 160.638 977.654 160.927 979.388 160.927C982.21 160.927 984.25 160.298 985.508 159.04C986.8 157.782 987.446 155.912 987.446 153.43V149.299L987.956 142.414L987.854 135.478V129.562H995.402V152.41C995.402 157.51 994.076 161.267 991.424 163.681C988.772 166.095 984.964 167.302 980 167.302ZM978.776 155.674C976.226 155.674 973.913 155.13 971.839 154.042C969.799 152.92 968.15 151.373 966.892 149.401C965.668 147.395 965.056 145.066 965.056 142.414C965.056 139.728 965.668 137.399 966.892 135.427C968.15 133.421 969.799 131.874 971.839 130.786C973.913 129.698 976.226 129.154 978.776 129.154C981.088 129.154 983.128 129.63 984.896 130.582C986.664 131.5 988.041 132.945 989.027 134.917C990.013 136.855 990.506 139.354 990.506 142.414C990.506 145.44 990.013 147.939 989.027 149.911C988.041 151.849 986.664 153.294 984.896 154.246C983.128 155.198 981.088 155.674 978.776 155.674ZM980.357 149.146C981.751 149.146 982.992 148.874 984.08 148.33C985.168 147.752 986.017 146.953 986.63 145.933C987.242 144.913 987.548 143.74 987.548 142.414C987.548 141.054 987.242 139.881 986.63 138.895C986.017 137.875 985.168 137.093 984.08 136.549C982.992 135.971 981.751 135.682 980.357 135.682C978.963 135.682 977.721 135.971 976.633 136.549C975.546 137.093 974.679 137.875 974.032 138.895C973.421 139.881 973.115 141.054 973.115 142.414C973.115 143.74 973.421 144.913 974.032 145.933C974.679 146.953 975.546 147.752 976.633 148.33C977.721 148.874 978.963 149.146 980.357 149.146ZM1014.38 157.408C1012.11 157.408 1010.07 156.966 1008.26 156.082C1006.5 155.198 1005.12 153.855 1004.13 152.053C1003.15 150.217 1002.65 147.888 1002.65 145.066V129.562H1010.61V143.893C1010.61 146.171 1011.09 147.854 1012.04 148.942C1013.02 149.996 1014.4 150.523 1016.17 150.523C1017.39 150.523 1018.48 150.268 1019.43 149.758C1020.38 149.214 1021.13 148.398 1021.68 147.31C1022.22 146.188 1022.49 144.794 1022.49 143.128V129.562H1030.45V157H1022.9V149.452L1024.28 151.645C1023.36 153.549 1022 154.994 1020.2 155.98C1018.43 156.932 1016.49 157.408 1014.38 157.408ZM1054.5 129.154C1056.67 129.154 1058.61 129.596 1060.31 130.48C1062.04 131.33 1063.4 132.656 1064.39 134.458C1065.38 136.226 1065.87 138.504 1065.87 141.292V157H1057.91V142.516C1057.91 140.306 1057.42 138.674 1056.43 137.62C1055.48 136.566 1054.12 136.039 1052.35 136.039C1051.1 136.039 1049.96 136.311 1048.94 136.855C1047.95 137.365 1047.17 138.164 1046.59 139.252C1046.05 140.34 1045.78 141.734 1045.78 143.434V157H1037.82V129.562H1045.42V137.161L1043.99 134.866C1044.98 133.03 1046.39 131.619 1048.22 130.633C1050.06 129.647 1052.15 129.154 1054.5 129.154ZM1089.91 157V151.645L1089.4 150.472V140.884C1089.4 139.184 1088.87 137.858 1087.82 136.906C1086.8 135.954 1085.22 135.478 1083.08 135.478C1081.61 135.478 1080.17 135.716 1078.74 136.192C1077.35 136.634 1076.16 137.246 1075.17 138.028L1072.32 132.469C1073.81 131.415 1075.61 130.599 1077.72 130.021C1079.83 129.443 1081.97 129.154 1084.15 129.154C1088.33 129.154 1091.58 130.14 1093.89 132.112C1096.2 134.084 1097.36 137.161 1097.36 141.343V157H1089.91ZM1081.55 157.408C1079.4 157.408 1077.57 157.051 1076.04 156.337C1074.51 155.589 1073.34 154.586 1072.52 153.328C1071.7 152.07 1071.3 150.659 1071.3 149.095C1071.3 147.463 1071.69 146.035 1072.47 144.811C1073.28 143.587 1074.56 142.635 1076.29 141.955C1078.03 141.241 1080.29 140.884 1083.08 140.884H1090.37V145.525H1083.94C1082.07 145.525 1080.78 145.831 1080.07 146.443C1079.39 147.055 1079.05 147.82 1079.05 148.738C1079.05 149.758 1079.44 150.574 1080.22 151.186C1081.04 151.764 1082.14 152.053 1083.54 152.053C1084.86 152.053 1086.05 151.747 1087.11 151.135C1088.16 150.489 1088.92 149.554 1089.4 148.33L1090.62 152.002C1090.05 153.77 1088.99 155.113 1087.46 156.031C1085.93 156.949 1083.96 157.408 1081.55 157.408ZM1111.14 151.39L1111.34 141.7L1124.14 129.562H1133.63L1121.34 142.057L1117.21 145.423L1111.14 151.39ZM1104.56 157V119.158H1112.51V157H1104.56ZM1125.01 157L1115.73 145.474L1120.72 139.303L1134.65 157H1125.01ZM1154.56 157V151.645L1154.05 150.472V140.884C1154.05 139.184 1153.52 137.858 1152.47 136.906C1151.45 135.954 1149.87 135.478 1147.72 135.478C1146.26 135.478 1144.82 135.716 1143.39 136.192C1141.99 136.634 1140.8 137.246 1139.82 138.028L1136.96 132.469C1138.46 131.415 1140.26 130.599 1142.37 130.021C1144.48 129.443 1146.62 129.154 1148.79 129.154C1152.98 129.154 1156.22 130.14 1158.54 132.112C1160.85 134.084 1162 137.161 1162 141.343V157H1154.56ZM1146.19 157.408C1144.05 157.408 1142.22 157.051 1140.69 156.337C1139.16 155.589 1137.98 154.586 1137.17 153.328C1136.35 152.07 1135.94 150.659 1135.94 149.095C1135.94 147.463 1136.33 146.035 1137.12 144.811C1137.93 143.587 1139.21 142.635 1140.94 141.955C1142.67 141.241 1144.94 140.884 1147.72 140.884H1155.02V145.525H1148.59C1146.72 145.525 1145.43 145.831 1144.71 146.443C1144.03 147.055 1143.69 147.82 1143.69 148.738C1143.69 149.758 1144.09 150.574 1144.87 151.186C1145.68 151.764 1146.79 152.053 1148.18 152.053C1149.51 152.053 1150.7 151.747 1151.75 151.135C1152.81 150.489 1153.57 149.554 1154.05 148.33L1155.27 152.002C1154.69 153.77 1153.64 155.113 1152.11 156.031C1150.58 156.949 1148.61 157.408 1146.19 157.408ZM1185.88 129.154C1188.06 129.154 1189.99 129.596 1191.69 130.48C1193.43 131.33 1194.79 132.656 1195.77 134.458C1196.76 136.226 1197.25 138.504 1197.25 141.292V157H1189.3V142.516C1189.3 140.306 1188.8 138.674 1187.82 137.62C1186.87 136.566 1185.51 136.039 1183.74 136.039C1182.48 136.039 1181.34 136.311 1180.32 136.855C1179.34 137.365 1178.55 138.164 1177.98 139.252C1177.43 140.34 1177.16 141.734 1177.16 143.434V157H1169.2V129.562H1176.8V137.161L1175.37 134.866C1176.36 133.03 1177.77 131.619 1179.61 130.633C1181.44 129.647 1183.53 129.154 1185.88 129.154ZM1293.13 157.408C1290.85 157.408 1288.81 156.966 1287.01 156.082C1285.24 155.198 1283.87 153.855 1282.88 152.053C1281.89 150.217 1281.4 147.888 1281.4 145.066V129.562H1289.36V143.893C1289.36 146.171 1289.83 147.854 1290.78 148.942C1291.77 149.996 1293.15 150.523 1294.92 150.523C1296.14 150.523 1297.23 150.268 1298.18 149.758C1299.13 149.214 1299.88 148.398 1300.42 147.31C1300.97 146.188 1301.24 144.794 1301.24 143.128V129.562H1309.2V157H1301.65V149.452L1303.02 151.645C1302.11 153.549 1300.75 154.994 1298.94 155.98C1297.18 156.932 1295.24 157.408 1293.13 157.408ZM1333.24 129.154C1335.42 129.154 1337.36 129.596 1339.06 130.48C1340.79 131.33 1342.15 132.656 1343.14 134.458C1344.12 136.226 1344.62 138.504 1344.62 141.292V157H1336.66V142.516C1336.66 140.306 1336.17 138.674 1335.18 137.62C1334.23 136.566 1332.87 136.039 1331.1 136.039C1329.84 136.039 1328.7 136.311 1327.68 136.855C1326.7 137.365 1325.92 138.164 1325.34 139.252C1324.79 140.34 1324.52 141.734 1324.52 143.434V157H1316.57V129.562H1324.17V137.161L1322.74 134.866C1323.72 133.03 1325.13 131.619 1326.97 130.633C1328.81 129.647 1330.9 129.154 1333.24 129.154ZM1363.05 157.408C1359.82 157.408 1357.3 156.592 1355.5 154.96C1353.7 153.294 1352.8 150.829 1352.8 147.565V123.493H1360.75V147.463C1360.75 148.619 1361.06 149.52 1361.67 150.166C1362.28 150.778 1363.12 151.084 1364.17 151.084C1365.43 151.084 1366.5 150.744 1367.38 150.064L1369.53 155.674C1368.71 156.252 1367.72 156.694 1366.57 157C1365.45 157.272 1364.27 157.408 1363.05 157.408ZM1348.56 136.294V130.174H1367.59V136.294H1348.56ZM1385.57 157.408C1383.29 157.408 1381.25 156.966 1379.45 156.082C1377.68 155.198 1376.3 153.855 1375.32 152.053C1374.33 150.217 1373.84 147.888 1373.84 145.066V129.562H1381.79V143.893C1381.79 146.171 1382.27 147.854 1383.22 148.942C1384.21 149.996 1385.59 150.523 1387.35 150.523C1388.58 150.523 1389.67 150.268 1390.62 149.758C1391.57 149.214 1392.32 148.398 1392.86 147.31C1393.41 146.188 1393.68 144.794 1393.68 143.128V129.562H1401.63V157H1394.09V149.452L1395.46 151.645C1394.54 153.549 1393.18 154.994 1391.38 155.98C1389.61 156.932 1387.68 157.408 1385.57 157.408ZM1415.58 151.39L1415.79 141.7L1428.59 129.562H1438.07L1425.78 142.057L1421.65 145.423L1415.58 151.39ZM1409 157V119.158H1416.96V157H1409ZM1429.46 157L1420.17 145.474L1425.17 139.303L1439.09 157H1429.46ZM347.251 213.39L347.455 203.7L360.256 191.562H369.742L357.451 204.057L353.32 207.423L347.251 213.39ZM340.672 219V181.158H348.628V219H340.672ZM361.123 219L351.841 207.474L356.839 201.303L370.762 219H361.123ZM386.811 219.408C383.683 219.408 380.929 218.796 378.549 217.572C376.203 216.348 374.384 214.682 373.092 212.574C371.8 210.432 371.154 208.001 371.154 205.281C371.154 202.527 371.783 200.096 373.041 197.988C374.333 195.846 376.084 194.18 378.294 192.99C380.504 191.766 383.003 191.154 385.791 191.154C388.477 191.154 390.891 191.732 393.033 192.888C395.209 194.01 396.926 195.642 398.184 197.784C399.442 199.892 400.071 202.425 400.071 205.383C400.071 205.689 400.054 206.046 400.02 206.454C399.986 206.828 399.952 207.185 399.918 207.525H377.631V202.884H395.736L392.676 204.261C392.676 202.833 392.387 201.592 391.809 200.538C391.231 199.484 390.432 198.668 389.412 198.09C388.392 197.478 387.202 197.172 385.842 197.172C384.482 197.172 383.275 197.478 382.221 198.09C381.201 198.668 380.402 199.501 379.824 200.589C379.246 201.643 378.957 202.901 378.957 204.363V205.587C378.957 207.083 379.28 208.409 379.926 209.565C380.606 210.687 381.541 211.554 382.731 212.166C383.955 212.744 385.383 213.033 387.015 213.033C388.477 213.033 389.752 212.812 390.84 212.37C391.962 211.928 392.982 211.265 393.9 210.381L398.133 214.971C396.875 216.399 395.294 217.504 393.39 218.286C391.486 219.034 389.293 219.408 386.811 219.408ZM421.586 219.408C419.274 219.408 417.251 218.898 415.517 217.878C413.783 216.858 412.423 215.311 411.437 213.237C410.485 211.129 410.009 208.477 410.009 205.281C410.009 202.051 410.468 199.399 411.386 197.325C412.304 195.251 413.63 193.704 415.364 192.684C417.098 191.664 419.172 191.154 421.586 191.154C424.17 191.154 426.482 191.749 428.522 192.939C430.596 194.095 432.228 195.727 433.418 197.835C434.642 199.943 435.254 202.425 435.254 205.281C435.254 208.171 434.642 210.67 433.418 212.778C432.228 214.886 430.596 216.518 428.522 217.674C426.482 218.83 424.17 219.408 421.586 219.408ZM405.368 228.894V191.562H412.967V197.172L412.814 205.332L413.324 213.441V228.894H405.368ZM420.209 212.88C421.535 212.88 422.708 212.574 423.728 211.962C424.782 211.35 425.615 210.483 426.227 209.361C426.873 208.205 427.196 206.845 427.196 205.281C427.196 203.683 426.873 202.323 426.227 201.201C425.615 200.079 424.782 199.212 423.728 198.6C422.708 197.988 421.535 197.682 420.209 197.682C418.883 197.682 417.693 197.988 416.639 198.6C415.585 199.212 414.752 200.079 414.14 201.201C413.528 202.323 413.222 203.683 413.222 205.281C413.222 206.845 413.528 208.205 414.14 209.361C414.752 210.483 415.585 211.35 416.639 211.962C417.693 212.574 418.883 212.88 420.209 212.88ZM454.197 219.408C451.069 219.408 448.315 218.796 445.935 217.572C443.589 216.348 441.77 214.682 440.478 212.574C439.186 210.432 438.54 208.001 438.54 205.281C438.54 202.527 439.169 200.096 440.427 197.988C441.719 195.846 443.47 194.18 445.68 192.99C447.89 191.766 450.389 191.154 453.177 191.154C455.863 191.154 458.277 191.732 460.419 192.888C462.595 194.01 464.312 195.642 465.57 197.784C466.828 199.892 467.457 202.425 467.457 205.383C467.457 205.689 467.44 206.046 467.406 206.454C467.372 206.828 467.338 207.185 467.304 207.525H445.017V202.884H463.122L460.062 204.261C460.062 202.833 459.773 201.592 459.195 200.538C458.617 199.484 457.818 198.668 456.798 198.09C455.778 197.478 454.588 197.172 453.228 197.172C451.868 197.172 450.661 197.478 449.607 198.09C448.587 198.668 447.788 199.501 447.21 200.589C446.632 201.643 446.343 202.901 446.343 204.363V205.587C446.343 207.083 446.666 208.409 447.312 209.565C447.992 210.687 448.927 211.554 450.117 212.166C451.341 212.744 452.769 213.033 454.401 213.033C455.863 213.033 457.138 212.812 458.226 212.37C459.348 211.928 460.368 211.265 461.286 210.381L465.519 214.971C464.261 216.399 462.68 217.504 460.776 218.286C458.872 219.034 456.679 219.408 454.197 219.408ZM472.754 219V191.562H480.353V199.314L479.282 197.07C480.098 195.132 481.407 193.67 483.209 192.684C485.011 191.664 487.204 191.154 489.788 191.154V198.498C489.448 198.464 489.142 198.447 488.87 198.447C488.598 198.413 488.309 198.396 488.003 198.396C485.827 198.396 484.059 199.025 482.699 200.283C481.373 201.507 480.71 203.428 480.71 206.046V219H472.754ZM494.568 219V181.158H502.524V219H494.568ZM521.485 219.408C519.207 219.408 517.167 218.966 515.365 218.082C513.597 217.198 512.22 215.855 511.234 214.053C510.248 212.217 509.755 209.888 509.755 207.066V191.562H517.711V205.893C517.711 208.171 518.187 209.854 519.139 210.942C520.125 211.996 521.502 212.523 523.27 212.523C524.494 212.523 525.582 212.268 526.534 211.758C527.486 211.214 528.234 210.398 528.778 209.31C529.322 208.188 529.594 206.794 529.594 205.128V191.562H537.55V219H530.002V211.452L531.379 213.645C530.461 215.549 529.101 216.994 527.299 217.98C525.531 218.932 523.593 219.408 521.485 219.408ZM561.751 219V213.645L561.241 212.472V202.884C561.241 201.184 560.714 199.858 559.66 198.906C558.64 197.954 557.059 197.478 554.917 197.478C553.455 197.478 552.01 197.716 550.582 198.192C549.188 198.634 547.998 199.246 547.012 200.028L544.156 194.469C545.652 193.415 547.454 192.599 549.562 192.021C551.67 191.443 553.812 191.154 555.988 191.154C560.17 191.154 563.417 192.14 565.729 194.112C568.041 196.084 569.197 199.161 569.197 203.343V219H561.751ZM553.387 219.408C551.245 219.408 549.409 219.051 547.879 218.337C546.349 217.589 545.176 216.586 544.36 215.328C543.544 214.07 543.136 212.659 543.136 211.095C543.136 209.463 543.527 208.035 544.309 206.811C545.125 205.587 546.4 204.635 548.134 203.955C549.868 203.241 552.129 202.884 554.917 202.884H562.21V207.525H555.784C553.914 207.525 552.622 207.831 551.908 208.443C551.228 209.055 550.888 209.82 550.888 210.738C550.888 211.758 551.279 212.574 552.061 213.186C552.877 213.764 553.982 214.053 555.376 214.053C556.702 214.053 557.892 213.747 558.946 213.135C560 212.489 560.765 211.554 561.241 210.33L562.465 214.002C561.887 215.77 560.833 217.113 559.303 218.031C557.773 218.949 555.801 219.408 553.387 219.408ZM593.075 191.154C595.251 191.154 597.189 191.596 598.889 192.48C600.623 193.33 601.983 194.656 602.969 196.458C603.955 198.226 604.448 200.504 604.448 203.292V219H596.492V204.516C596.492 202.306 595.999 200.674 595.013 199.62C594.061 198.566 592.701 198.039 590.933 198.039C589.675 198.039 588.536 198.311 587.516 198.855C586.53 199.365 585.748 200.164 585.17 201.252C584.626 202.34 584.354 203.734 584.354 205.434V219H576.398V191.562H583.997V199.161L582.569 196.866C583.555 195.03 584.966 193.619 586.802 192.633C588.638 191.647 590.729 191.154 593.075 191.154ZM697.976 219.408C695.664 219.408 693.641 218.898 691.907 217.878C690.173 216.858 688.813 215.311 687.827 213.237C686.875 211.129 686.399 208.477 686.399 205.281C686.399 202.051 686.858 199.399 687.776 197.325C688.694 195.251 690.02 193.704 691.754 192.684C693.488 191.664 695.562 191.154 697.976 191.154C700.56 191.154 702.872 191.749 704.912 192.939C706.986 194.095 708.618 195.727 709.808 197.835C711.032 199.943 711.644 202.425 711.644 205.281C711.644 208.171 711.032 210.67 709.808 212.778C708.618 214.886 706.986 216.518 704.912 217.674C702.872 218.83 700.56 219.408 697.976 219.408ZM681.758 228.894V191.562H689.357V197.172L689.204 205.332L689.714 213.441V228.894H681.758ZM696.599 212.88C697.925 212.88 699.098 212.574 700.118 211.962C701.172 211.35 702.005 210.483 702.617 209.361C703.263 208.205 703.586 206.845 703.586 205.281C703.586 203.683 703.263 202.323 702.617 201.201C702.005 200.079 701.172 199.212 700.118 198.6C699.098 197.988 697.925 197.682 696.599 197.682C695.273 197.682 694.083 197.988 693.029 198.6C691.975 199.212 691.142 200.079 690.53 201.201C689.918 202.323 689.612 203.683 689.612 205.281C689.612 206.845 689.918 208.205 690.53 209.361C691.142 210.483 691.975 211.35 693.029 211.962C694.083 212.574 695.273 212.88 696.599 212.88ZM730.587 219.408C727.459 219.408 724.705 218.796 722.325 217.572C719.979 216.348 718.16 214.682 716.868 212.574C715.576 210.432 714.93 208.001 714.93 205.281C714.93 202.527 715.559 200.096 716.817 197.988C718.109 195.846 719.86 194.18 722.07 192.99C724.28 191.766 726.779 191.154 729.567 191.154C732.253 191.154 734.667 191.732 736.809 192.888C738.985 194.01 740.702 195.642 741.96 197.784C743.218 199.892 743.847 202.425 743.847 205.383C743.847 205.689 743.83 206.046 743.796 206.454C743.762 206.828 743.728 207.185 743.694 207.525H721.407V202.884H739.512L736.452 204.261C736.452 202.833 736.163 201.592 735.585 200.538C735.007 199.484 734.208 198.668 733.188 198.09C732.168 197.478 730.978 197.172 729.618 197.172C728.258 197.172 727.051 197.478 725.997 198.09C724.977 198.668 724.178 199.501 723.6 200.589C723.022 201.643 722.733 202.901 722.733 204.363V205.587C722.733 207.083 723.056 208.409 723.702 209.565C724.382 210.687 725.317 211.554 726.507 212.166C727.731 212.744 729.159 213.033 730.791 213.033C732.253 213.033 733.528 212.812 734.616 212.37C735.738 211.928 736.758 211.265 737.676 210.381L741.909 214.971C740.651 216.399 739.07 217.504 737.166 218.286C735.262 219.034 733.069 219.408 730.587 219.408ZM784.283 191.154C786.459 191.154 788.38 191.596 790.046 192.48C791.746 193.33 793.072 194.656 794.024 196.458C795.01 198.226 795.503 200.504 795.503 203.292V219H787.547V204.516C787.547 202.306 787.088 200.674 786.17 199.62C785.252 198.566 783.96 198.039 782.294 198.039C781.138 198.039 780.101 198.311 779.183 198.855C778.265 199.365 777.551 200.147 777.041 201.201C776.531 202.255 776.276 203.598 776.276 205.23V219H768.32V204.516C768.32 202.306 767.861 200.674 766.943 199.62C766.059 198.566 764.784 198.039 763.118 198.039C761.962 198.039 760.925 198.311 760.007 198.855C759.089 199.365 758.375 200.147 757.865 201.201C757.355 202.255 757.1 203.598 757.1 205.23V219H749.144V191.562H756.743V199.059L755.315 196.866C756.267 194.996 757.61 193.585 759.344 192.633C761.112 191.647 763.118 191.154 765.362 191.154C767.878 191.154 770.071 191.8 771.941 193.092C773.845 194.35 775.103 196.288 775.715 198.906L772.91 198.141C773.828 195.999 775.29 194.299 777.296 193.041C779.336 191.783 781.665 191.154 784.283 191.154ZM818.852 219.408C816.438 219.408 814.364 218.898 812.63 217.878C810.896 216.858 809.57 215.311 808.652 213.237C807.734 211.129 807.275 208.477 807.275 205.281C807.275 202.051 807.751 199.399 808.703 197.325C809.689 195.251 811.049 193.704 812.783 192.684C814.517 191.664 816.54 191.154 818.852 191.154C821.436 191.154 823.748 191.732 825.788 192.888C827.862 194.044 829.494 195.676 830.684 197.784C831.908 199.892 832.52 202.391 832.52 205.281C832.52 208.137 831.908 210.619 830.684 212.727C829.494 214.835 827.862 216.484 825.788 217.674C823.748 218.83 821.436 219.408 818.852 219.408ZM802.634 219V181.158H810.59V197.121L810.08 205.23L810.233 213.39V219H802.634ZM817.475 212.88C818.801 212.88 819.974 212.574 820.994 211.962C822.048 211.35 822.881 210.483 823.493 209.361C824.139 208.205 824.462 206.845 824.462 205.281C824.462 203.683 824.139 202.323 823.493 201.201C822.881 200.079 822.048 199.212 820.994 198.6C819.974 197.988 818.801 197.682 817.475 197.682C816.149 197.682 814.959 197.988 813.905 198.6C812.851 199.212 812.018 200.079 811.406 201.201C810.794 202.323 810.488 203.683 810.488 205.281C810.488 206.845 810.794 208.205 811.406 209.361C812.018 210.483 812.851 211.35 813.905 211.962C814.959 212.574 816.149 212.88 817.475 212.88ZM849.423 219.408C847.145 219.408 845.105 218.966 843.303 218.082C841.535 217.198 840.158 215.855 839.172 214.053C838.186 212.217 837.693 209.888 837.693 207.066V191.562H845.649V205.893C845.649 208.171 846.125 209.854 847.077 210.942C848.063 211.996 849.44 212.523 851.208 212.523C852.432 212.523 853.52 212.268 854.472 211.758C855.424 211.214 856.172 210.398 856.716 209.31C857.26 208.188 857.532 206.794 857.532 205.128V191.562H865.488V219H857.94V211.452L859.317 213.645C858.399 215.549 857.039 216.994 855.237 217.98C853.469 218.932 851.531 219.408 849.423 219.408ZM889.689 219V213.645L889.179 212.472V202.884C889.179 201.184 888.652 199.858 887.598 198.906C886.578 197.954 884.997 197.478 882.855 197.478C881.393 197.478 879.948 197.716 878.52 198.192C877.126 198.634 875.936 199.246 874.95 200.028L872.094 194.469C873.59 193.415 875.392 192.599 877.5 192.021C879.608 191.443 881.75 191.154 883.926 191.154C888.108 191.154 891.355 192.14 893.667 194.112C895.979 196.084 897.135 199.161 897.135 203.343V219H889.689ZM881.325 219.408C879.183 219.408 877.347 219.051 875.817 218.337C874.287 217.589 873.114 216.586 872.298 215.328C871.482 214.07 871.074 212.659 871.074 211.095C871.074 209.463 871.465 208.035 872.247 206.811C873.063 205.587 874.338 204.635 876.072 203.955C877.806 203.241 880.067 202.884 882.855 202.884H890.148V207.525H883.722C881.852 207.525 880.56 207.831 879.846 208.443C879.166 209.055 878.826 209.82 878.826 210.738C878.826 211.758 879.217 212.574 879.999 213.186C880.815 213.764 881.92 214.053 883.314 214.053C884.64 214.053 885.83 213.747 886.884 213.135C887.938 212.489 888.703 211.554 889.179 210.33L890.403 214.002C889.825 215.77 888.771 217.113 887.241 218.031C885.711 218.949 883.739 219.408 881.325 219.408ZM915.555 219.408C912.325 219.408 909.809 218.592 908.007 216.96C906.205 215.294 905.304 212.829 905.304 209.565V185.493H913.26V209.463C913.26 210.619 913.566 211.52 914.178 212.166C914.79 212.778 915.623 213.084 916.677 213.084C917.935 213.084 919.006 212.744 919.89 212.064L922.032 217.674C921.216 218.252 920.23 218.694 919.074 219C917.952 219.272 916.779 219.408 915.555 219.408ZM901.071 198.294V192.174H920.094V198.294H901.071ZM943.328 219V213.645L942.818 212.472V202.884C942.818 201.184 942.291 199.858 941.237 198.906C940.217 197.954 938.636 197.478 936.494 197.478C935.032 197.478 933.587 197.716 932.159 198.192C930.765 198.634 929.575 199.246 928.589 200.028L925.733 194.469C927.229 193.415 929.031 192.599 931.139 192.021C933.247 191.443 935.389 191.154 937.565 191.154C941.747 191.154 944.994 192.14 947.306 194.112C949.618 196.084 950.774 199.161 950.774 203.343V219H943.328ZM934.964 219.408C932.822 219.408 930.986 219.051 929.456 218.337C927.926 217.589 926.753 216.586 925.937 215.328C925.121 214.07 924.713 212.659 924.713 211.095C924.713 209.463 925.104 208.035 925.886 206.811C926.702 205.587 927.977 204.635 929.711 203.955C931.445 203.241 933.706 202.884 936.494 202.884H943.787V207.525H937.361C935.491 207.525 934.199 207.831 933.485 208.443C932.805 209.055 932.465 209.82 932.465 210.738C932.465 211.758 932.856 212.574 933.638 213.186C934.454 213.764 935.559 214.053 936.953 214.053C938.279 214.053 939.469 213.747 940.523 213.135C941.577 212.489 942.342 211.554 942.818 210.33L944.042 214.002C943.464 215.77 942.41 217.113 940.88 218.031C939.35 218.949 937.378 219.408 934.964 219.408ZM974.652 191.154C976.828 191.154 978.766 191.596 980.466 192.48C982.2 193.33 983.56 194.656 984.546 196.458C985.532 198.226 986.025 200.504 986.025 203.292V219H978.069V204.516C978.069 202.306 977.576 200.674 976.59 199.62C975.638 198.566 974.278 198.039 972.51 198.039C971.252 198.039 970.113 198.311 969.093 198.855C968.107 199.365 967.325 200.164 966.747 201.252C966.203 202.34 965.931 203.734 965.931 205.434V219H957.975V191.562H965.574V199.161L964.146 196.866C965.132 195.03 966.543 193.619 968.379 192.633C970.215 191.647 972.306 191.154 974.652 191.154ZM1069.91 213.39L1070.12 203.7L1082.92 191.562H1092.41L1080.11 204.057L1075.98 207.423L1069.91 213.39ZM1063.34 219V181.158H1071.29V219H1063.34ZM1083.79 219L1074.5 207.474L1079.5 201.303L1093.43 219H1083.79ZM1108.91 219.408C1105.99 219.408 1103.39 218.796 1101.11 217.572C1098.87 216.348 1097.08 214.682 1095.76 212.574C1094.46 210.432 1093.82 208.001 1093.82 205.281C1093.82 202.527 1094.46 200.096 1095.76 197.988C1097.08 195.846 1098.87 194.18 1101.11 192.99C1103.39 191.766 1105.99 191.154 1108.91 191.154C1111.8 191.154 1114.39 191.766 1116.67 192.99C1118.94 194.18 1120.73 195.829 1122.02 197.937C1123.31 200.045 1123.96 202.493 1123.96 205.281C1123.96 208.001 1123.31 210.432 1122.02 212.574C1120.73 214.682 1118.94 216.348 1116.67 217.572C1114.39 218.796 1111.8 219.408 1108.91 219.408ZM1108.91 212.88C1110.24 212.88 1111.43 212.574 1112.48 211.962C1113.54 211.35 1114.37 210.483 1114.98 209.361C1115.6 208.205 1115.9 206.845 1115.9 205.281C1115.9 203.683 1115.6 202.323 1114.98 201.201C1114.37 200.079 1113.54 199.212 1112.48 198.6C1111.43 197.988 1110.24 197.682 1108.91 197.682C1107.59 197.682 1106.4 197.988 1105.34 198.6C1104.29 199.212 1103.44 200.079 1102.79 201.201C1102.18 202.323 1101.88 203.683 1101.88 205.281C1101.88 206.845 1102.18 208.205 1102.79 209.361C1103.44 210.483 1104.29 211.35 1105.34 211.962C1106.4 212.574 1107.59 212.88 1108.91 212.88ZM1129.28 219V191.562H1136.88V199.314L1135.81 197.07C1136.62 195.132 1137.93 193.67 1139.73 192.684C1141.53 191.664 1143.73 191.154 1146.31 191.154V198.498C1145.97 198.464 1145.67 198.447 1145.39 198.447C1145.12 198.413 1144.83 198.396 1144.53 198.396C1142.35 198.396 1140.58 199.025 1139.22 200.283C1137.9 201.507 1137.23 203.428 1137.23 206.046V219H1129.28ZM1167.31 219.408C1165 219.408 1162.97 218.898 1161.24 217.878C1159.51 216.858 1158.15 215.311 1157.16 213.237C1156.21 211.129 1155.73 208.477 1155.73 205.281C1155.73 202.051 1156.19 199.399 1157.11 197.325C1158.03 195.251 1159.35 193.704 1161.09 192.684C1162.82 191.664 1164.9 191.154 1167.31 191.154C1169.89 191.154 1172.21 191.749 1174.25 192.939C1176.32 194.095 1177.95 195.727 1179.14 197.835C1180.37 199.943 1180.98 202.425 1180.98 205.281C1180.98 208.171 1180.37 210.67 1179.14 212.778C1177.95 214.886 1176.32 216.518 1174.25 217.674C1172.21 218.83 1169.89 219.408 1167.31 219.408ZM1151.09 228.894V191.562H1158.69V197.172L1158.54 205.332L1159.05 213.441V228.894H1151.09ZM1165.93 212.88C1167.26 212.88 1168.43 212.574 1169.45 211.962C1170.51 211.35 1171.34 210.483 1171.95 209.361C1172.6 208.205 1172.92 206.845 1172.92 205.281C1172.92 203.683 1172.6 202.323 1171.95 201.201C1171.34 200.079 1170.51 199.212 1169.45 198.6C1168.43 197.988 1167.26 197.682 1165.93 197.682C1164.61 197.682 1163.42 197.988 1162.36 198.6C1161.31 199.212 1160.48 200.079 1159.86 201.201C1159.25 202.323 1158.95 203.683 1158.95 205.281C1158.95 206.845 1159.25 208.205 1159.86 209.361C1160.48 210.483 1161.31 211.35 1162.36 211.962C1163.42 212.574 1164.61 212.88 1165.93 212.88ZM1197.88 219.408C1195.6 219.408 1193.56 218.966 1191.76 218.082C1189.99 217.198 1188.62 215.855 1187.63 214.053C1186.64 212.217 1186.15 209.888 1186.15 207.066V191.562H1194.11V205.893C1194.11 208.171 1194.58 209.854 1195.53 210.942C1196.52 211.996 1197.9 212.523 1199.67 212.523C1200.89 212.523 1201.98 212.268 1202.93 211.758C1203.88 211.214 1204.63 210.398 1205.17 209.31C1205.72 208.188 1205.99 206.794 1205.99 205.128V191.562H1213.95V219H1206.4V211.452L1207.77 213.645C1206.86 215.549 1205.5 216.994 1203.69 217.98C1201.93 218.932 1199.99 219.408 1197.88 219.408ZM1230.55 219.408C1228.2 219.408 1225.94 219.136 1223.76 218.592C1221.62 218.014 1219.92 217.3 1218.66 216.45L1221.32 210.738C1222.57 211.52 1224.05 212.166 1225.75 212.676C1227.49 213.152 1229.19 213.39 1230.85 213.39C1232.69 213.39 1233.98 213.169 1234.73 212.727C1235.51 212.285 1235.9 211.673 1235.9 210.891C1235.9 210.245 1235.6 209.769 1234.98 209.463C1234.41 209.123 1233.62 208.868 1232.64 208.698C1231.65 208.528 1230.56 208.358 1229.37 208.188C1228.22 208.018 1227.05 207.797 1225.86 207.525C1224.67 207.219 1223.58 206.777 1222.59 206.199C1221.61 205.621 1220.81 204.839 1220.19 203.853C1219.62 202.867 1219.33 201.592 1219.33 200.028C1219.33 198.294 1219.82 196.764 1220.81 195.438C1221.83 194.112 1223.29 193.075 1225.19 192.327C1227.1 191.545 1229.37 191.154 1232.03 191.154C1233.9 191.154 1235.8 191.358 1237.74 191.766C1239.68 192.174 1241.29 192.769 1242.58 193.551L1239.93 199.212C1238.61 198.43 1237.26 197.903 1235.9 197.631C1234.58 197.325 1233.28 197.172 1232.03 197.172C1230.26 197.172 1228.97 197.41 1228.15 197.886C1227.33 198.362 1226.93 198.974 1226.93 199.722C1226.93 200.402 1227.22 200.912 1227.79 201.252C1228.41 201.592 1229.2 201.864 1230.19 202.068C1231.18 202.272 1232.25 202.459 1233.4 202.629C1234.59 202.765 1235.78 202.986 1236.97 203.292C1238.16 203.598 1239.23 204.04 1240.19 204.618C1241.17 205.162 1241.97 205.927 1242.58 206.913C1243.2 207.865 1243.5 209.123 1243.5 210.687C1243.5 212.387 1242.99 213.9 1241.97 215.226C1240.95 216.518 1239.47 217.538 1237.53 218.286C1235.63 219.034 1233.3 219.408 1230.55 219.408ZM1335.57 219V213.084L1335.42 212.115V202.221C1335.42 199.943 1334.77 198.192 1333.48 196.968C1332.22 195.744 1330.33 195.132 1327.82 195.132C1326.08 195.132 1324.43 195.421 1322.87 195.999C1321.31 196.577 1319.98 197.342 1318.89 198.294L1317.26 195.591C1318.62 194.435 1320.25 193.551 1322.16 192.939C1324.06 192.293 1326.07 191.97 1328.17 191.97C1331.64 191.97 1334.31 192.837 1336.18 194.571C1338.09 196.271 1339.04 198.872 1339.04 202.374V219H1335.57ZM1326.34 219.255C1324.33 219.255 1322.58 218.932 1321.09 218.286C1319.62 217.606 1318.5 216.688 1317.72 215.532C1316.94 214.342 1316.55 212.982 1316.55 211.452C1316.55 210.058 1316.87 208.8 1317.52 207.678C1318.2 206.522 1319.28 205.604 1320.78 204.924C1322.31 204.21 1324.35 203.853 1326.9 203.853H1336.13V206.556H1327C1324.42 206.556 1322.62 207.015 1321.6 207.933C1320.61 208.851 1320.12 209.99 1320.12 211.35C1320.12 212.88 1320.71 214.104 1321.9 215.022C1323.09 215.94 1324.76 216.399 1326.9 216.399C1328.94 216.399 1330.69 215.94 1332.15 215.022C1333.65 214.07 1334.74 212.71 1335.42 210.942L1336.23 213.441C1335.55 215.209 1334.36 216.62 1332.66 217.674C1331 218.728 1328.89 219.255 1326.34 219.255ZM1362.54 191.97C1364.72 191.97 1366.62 192.395 1368.25 193.245C1369.92 194.061 1371.21 195.319 1372.13 197.019C1373.08 198.719 1373.56 200.861 1373.56 203.445V219H1369.94V203.802C1369.94 200.98 1369.22 198.855 1367.79 197.427C1366.4 195.965 1364.43 195.234 1361.88 195.234C1359.97 195.234 1358.31 195.625 1356.88 196.407C1355.49 197.155 1354.4 198.26 1353.62 199.722C1352.87 201.15 1352.49 202.884 1352.49 204.924V219H1348.87V192.225H1352.34V199.569L1351.78 198.192C1352.63 196.254 1353.99 194.741 1355.86 193.653C1357.73 192.531 1359.96 191.97 1362.54 191.97ZM1400.12 219V213.084L1399.96 212.115V202.221C1399.96 199.943 1399.32 198.192 1398.03 196.968C1396.77 195.744 1394.88 195.132 1392.36 195.132C1390.63 195.132 1388.98 195.421 1387.42 195.999C1385.85 196.577 1384.53 197.342 1383.44 198.294L1381.81 195.591C1383.17 194.435 1384.8 193.551 1386.7 192.939C1388.61 192.293 1390.61 191.97 1392.72 191.97C1396.19 191.97 1398.86 192.837 1400.73 194.571C1402.63 196.271 1403.58 198.872 1403.58 202.374V219H1400.12ZM1390.89 219.255C1388.88 219.255 1387.13 218.932 1385.63 218.286C1384.17 217.606 1383.05 216.688 1382.27 215.532C1381.48 214.342 1381.09 212.982 1381.09 211.452C1381.09 210.058 1381.42 208.8 1382.06 207.678C1382.74 206.522 1383.83 205.604 1385.33 204.924C1386.86 204.21 1388.9 203.853 1391.45 203.853H1400.68V206.556H1391.55C1388.96 206.556 1387.16 207.015 1386.14 207.933C1385.16 208.851 1384.66 209.99 1384.66 211.35C1384.66 212.88 1385.26 214.104 1386.45 215.022C1387.64 215.94 1389.3 216.399 1391.45 216.399C1393.49 216.399 1395.24 215.94 1396.7 215.022C1398.2 214.07 1399.28 212.71 1399.96 210.942L1400.78 213.441C1400.1 215.209 1398.91 216.62 1397.21 217.674C1395.54 218.728 1393.44 219.255 1390.89 219.255ZM1416.28 212.064L1416.38 207.423L1433.05 192.225H1437.49L1425.71 203.496L1423.67 205.23L1416.28 212.064ZM1413.42 219V181.158H1417.04V219H1413.42ZM1434.18 219L1423.01 205.077L1425.35 202.272L1438.61 219H1434.18ZM342.814 281V245.3H346.588V281H342.814ZM371.107 253.97C373.283 253.97 375.187 254.395 376.819 255.245C378.485 256.061 379.777 257.319 380.695 259.019C381.647 260.719 382.123 262.861 382.123 265.445V281H378.502V265.802C378.502 262.98 377.788 260.855 376.36 259.427C374.966 257.965 372.994 257.234 370.444 257.234C368.54 257.234 366.874 257.625 365.446 258.407C364.052 259.155 362.964 260.26 362.182 261.722C361.434 263.15 361.06 264.884 361.06 266.924V281H357.439V254.225H360.907V261.569L360.346 260.192C361.196 258.254 362.556 256.741 364.426 255.653C366.296 254.531 368.523 253.97 371.107 253.97ZM402.562 281.255C400.012 281.255 397.717 280.677 395.677 279.521C393.671 278.365 392.09 276.767 390.934 274.727C389.778 272.653 389.2 270.273 389.2 267.587C389.2 264.867 389.778 262.487 390.934 260.447C392.09 258.407 393.671 256.826 395.677 255.704C397.717 254.548 400.012 253.97 402.562 253.97C404.908 253.97 406.999 254.497 408.835 255.551C410.705 256.605 412.184 258.152 413.272 260.192C414.394 262.198 414.955 264.663 414.955 267.587C414.955 270.477 414.411 272.942 413.323 274.982C412.235 277.022 410.756 278.586 408.886 279.674C407.05 280.728 404.942 281.255 402.562 281.255ZM402.817 278.042C404.721 278.042 406.421 277.617 407.917 276.767C409.447 275.883 410.637 274.659 411.487 273.095C412.371 271.497 412.813 269.661 412.813 267.587C412.813 265.479 412.371 263.643 411.487 262.079C410.637 260.515 409.447 259.308 407.917 258.458C406.421 257.574 404.721 257.132 402.817 257.132C400.947 257.132 399.264 257.574 397.768 258.458C396.272 259.308 395.082 260.515 394.198 262.079C393.314 263.643 392.872 265.479 392.872 267.587C392.872 269.661 393.314 271.497 394.198 273.095C395.082 274.659 396.272 275.883 397.768 276.767C399.264 277.617 400.947 278.042 402.817 278.042ZM412.915 281V272.942L413.272 267.536L412.762 262.13V243.158H416.383V281H412.915ZM437.382 281.255C434.798 281.255 432.469 280.677 430.395 279.521C428.355 278.331 426.74 276.716 425.55 274.676C424.36 272.602 423.765 270.239 423.765 267.587C423.765 264.901 424.36 262.538 425.55 260.498C426.74 258.458 428.355 256.86 430.395 255.704C432.435 254.548 434.764 253.97 437.382 253.97C440.034 253.97 442.38 254.548 444.42 255.704C446.494 256.86 448.109 258.458 449.265 260.498C450.455 262.538 451.05 264.901 451.05 267.587C451.05 270.239 450.455 272.602 449.265 274.676C448.109 276.716 446.494 278.331 444.42 279.521C442.346 280.677 440 281.255 437.382 281.255ZM437.382 278.042C439.32 278.042 441.037 277.617 442.533 276.767C444.029 275.883 445.202 274.659 446.052 273.095C446.936 271.497 447.378 269.661 447.378 267.587C447.378 265.479 446.936 263.643 446.052 262.079C445.202 260.515 444.029 259.308 442.533 258.458C441.037 257.574 439.337 257.132 437.433 257.132C435.529 257.132 433.829 257.574 432.333 258.458C430.837 259.308 429.647 260.515 428.763 262.079C427.879 263.643 427.437 265.479 427.437 267.587C427.437 269.661 427.879 271.497 428.763 273.095C429.647 274.659 430.837 275.883 432.333 276.767C433.829 277.617 435.512 278.042 437.382 278.042ZM472.111 253.97C474.287 253.97 476.191 254.395 477.823 255.245C479.489 256.061 480.781 257.319 481.699 259.019C482.651 260.719 483.127 262.861 483.127 265.445V281H479.506V265.802C479.506 262.98 478.792 260.855 477.364 259.427C475.97 257.965 473.998 257.234 471.448 257.234C469.544 257.234 467.878 257.625 466.45 258.407C465.056 259.155 463.968 260.26 463.186 261.722C462.438 263.15 462.064 264.884 462.064 266.924V281H458.443V254.225H461.911V261.569L461.35 260.192C462.2 258.254 463.56 256.741 465.43 255.653C467.3 254.531 469.527 253.97 472.111 253.97ZM504.28 281.255C501.492 281.255 499.044 280.677 496.936 279.521C494.828 278.331 493.179 276.716 491.989 274.676C490.799 272.602 490.204 270.239 490.204 267.587C490.204 264.935 490.765 262.589 491.887 260.549C493.043 258.509 494.607 256.911 496.579 255.755C498.585 254.565 500.829 253.97 503.311 253.97C505.827 253.97 508.054 254.548 509.992 255.704C511.964 256.826 513.511 258.424 514.633 260.498C515.755 262.538 516.316 264.901 516.316 267.587C516.316 267.757 516.299 267.944 516.265 268.148C516.265 268.318 516.265 268.505 516.265 268.709H492.958V266.006H514.327L512.899 267.077C512.899 265.139 512.474 263.422 511.624 261.926C510.808 260.396 509.686 259.206 508.258 258.356C506.83 257.506 505.181 257.081 503.311 257.081C501.475 257.081 499.826 257.506 498.364 258.356C496.902 259.206 495.763 260.396 494.947 261.926C494.131 263.456 493.723 265.207 493.723 267.179V267.74C493.723 269.78 494.165 271.582 495.049 273.146C495.967 274.676 497.225 275.883 498.823 276.767C500.455 277.617 502.308 278.042 504.382 278.042C506.014 278.042 507.527 277.753 508.921 277.175C510.349 276.597 511.573 275.713 512.593 274.523L514.633 276.869C513.443 278.297 511.947 279.385 510.145 280.133C508.377 280.881 506.422 281.255 504.28 281.255ZM530.878 281.255C528.668 281.255 526.577 280.949 524.605 280.337C522.633 279.691 521.086 278.892 519.964 277.94L521.596 275.084C522.684 275.9 524.078 276.614 525.778 277.226C527.478 277.804 529.263 278.093 531.133 278.093C533.683 278.093 535.519 277.702 536.641 276.92C537.763 276.104 538.324 275.033 538.324 273.707C538.324 272.721 538.001 271.956 537.355 271.412C536.743 270.834 535.927 270.409 534.907 270.137C533.887 269.831 532.748 269.576 531.49 269.372C530.232 269.168 528.974 268.93 527.716 268.658C526.492 268.386 525.37 267.995 524.35 267.485C523.33 266.941 522.497 266.21 521.851 265.292C521.239 264.374 520.933 263.15 520.933 261.62C520.933 260.158 521.341 258.849 522.157 257.693C522.973 256.537 524.163 255.636 525.727 254.99C527.325 254.31 529.263 253.97 531.541 253.97C533.275 253.97 535.009 254.208 536.743 254.684C538.477 255.126 539.905 255.721 541.027 256.469L539.446 259.376C538.256 258.56 536.981 257.982 535.621 257.642C534.261 257.268 532.901 257.081 531.541 257.081C529.127 257.081 527.342 257.506 526.186 258.356C525.064 259.172 524.503 260.226 524.503 261.518C524.503 262.538 524.809 263.337 525.421 263.915C526.067 264.493 526.9 264.952 527.92 265.292C528.974 265.598 530.113 265.853 531.337 266.057C532.595 266.261 533.836 266.516 535.06 266.822C536.318 267.094 537.457 267.485 538.477 267.995C539.531 268.471 540.364 269.168 540.976 270.086C541.622 270.97 541.945 272.143 541.945 273.605C541.945 275.169 541.503 276.529 540.619 277.685C539.769 278.807 538.511 279.691 536.845 280.337C535.213 280.949 533.224 281.255 530.878 281.255ZM548.589 281V254.225H552.21V281H548.589ZM550.425 248.309C549.677 248.309 549.048 248.054 548.538 247.544C548.028 247.034 547.773 246.422 547.773 245.708C547.773 244.994 548.028 244.399 548.538 243.923C549.048 243.413 549.677 243.158 550.425 243.158C551.173 243.158 551.802 243.396 552.312 243.872C552.822 244.348 553.077 244.943 553.077 245.657C553.077 246.405 552.822 247.034 552.312 247.544C551.836 248.054 551.207 248.309 550.425 248.309ZM579.064 281V275.084L578.911 274.115V264.221C578.911 261.943 578.265 260.192 576.973 258.968C575.715 257.744 573.828 257.132 571.312 257.132C569.578 257.132 567.929 257.421 566.365 257.999C564.801 258.577 563.475 259.342 562.387 260.294L560.755 257.591C562.115 256.435 563.747 255.551 565.651 254.939C567.555 254.293 569.561 253.97 571.669 253.97C575.137 253.97 577.806 254.837 579.676 256.571C581.58 258.271 582.532 260.872 582.532 264.374V281H579.064ZM569.833 281.255C567.827 281.255 566.076 280.932 564.58 280.286C563.118 279.606 561.996 278.688 561.214 277.532C560.432 276.342 560.041 274.982 560.041 273.452C560.041 272.058 560.364 270.8 561.01 269.678C561.69 268.522 562.778 267.604 564.274 266.924C565.804 266.21 567.844 265.853 570.394 265.853H579.625V268.556H570.496C567.912 268.556 566.11 269.015 565.09 269.933C564.104 270.851 563.611 271.99 563.611 273.35C563.611 274.88 564.206 276.104 565.396 277.022C566.586 277.94 568.252 278.399 570.394 278.399C572.434 278.399 574.185 277.94 575.647 277.022C577.143 276.07 578.231 274.71 578.911 272.942L579.727 275.441C579.047 277.209 577.857 278.62 576.157 279.674C574.491 280.728 572.383 281.255 569.833 281.255ZM592.724 281.255C591.976 281.255 591.33 280.983 590.786 280.439C590.276 279.895 590.021 279.232 590.021 278.45C590.021 277.634 590.276 276.971 590.786 276.461C591.33 275.951 591.976 275.696 592.724 275.696C593.472 275.696 594.101 275.951 594.611 276.461C595.155 276.971 595.427 277.634 595.427 278.45C595.427 279.232 595.155 279.895 594.611 280.439C594.101 280.983 593.472 281.255 592.724 281.255Z" fill="#F85DCD"/>
</svg>
