<svg width="901" height="1201" viewBox="0 0 901 1201" fill="none" xmlns="http://www.w3.org/2000/svg">
<rect x="7" y="7" width="887" height="1187" rx="43" fill="white" stroke="#C3A7FF" stroke-width="14"/>
<path d="M442.719 251V147.735L454.013 159.03H420.129V138.054H468.858V251H442.719Z" fill="#E4A255"/>
<path d="M239.71 1022V982.768H224.35V977.2H261.406V982.768H246.046V1022H239.71ZM279.084 1022.38C275.458 1022.38 272.258 1021.64 269.484 1020.14C266.754 1018.65 264.62 1016.6 263.084 1014C261.591 1011.4 260.844 1008.41 260.844 1005.04C260.844 1001.67 261.57 998.683 263.02 996.08C264.514 993.477 266.54 991.451 269.1 990C271.703 988.507 274.626 987.76 277.868 987.76C281.154 987.76 284.055 988.485 286.572 989.936C289.09 991.387 291.052 993.435 292.46 996.08C293.911 998.683 294.636 1001.73 294.636 1005.23C294.636 1005.49 294.615 1005.79 294.572 1006.13C294.572 1006.47 294.551 1006.79 294.508 1007.09H265.644V1002.67H291.308L288.812 1004.21C288.855 1002.03 288.407 1000.09 287.468 998.384C286.53 996.677 285.228 995.355 283.564 994.416C281.943 993.435 280.044 992.944 277.868 992.944C275.735 992.944 273.836 993.435 272.172 994.416C270.508 995.355 269.207 996.699 268.268 998.448C267.33 1000.15 266.86 1002.12 266.86 1004.34V1005.36C266.86 1007.62 267.372 1009.65 268.396 1011.44C269.463 1013.19 270.935 1014.55 272.812 1015.54C274.69 1016.52 276.844 1017.01 279.276 1017.01C281.282 1017.01 283.095 1016.67 284.716 1015.98C286.38 1015.3 287.831 1014.28 289.068 1012.91L292.46 1016.88C290.924 1018.67 289.004 1020.04 286.7 1020.98C284.439 1021.91 281.9 1022.38 279.084 1022.38ZM308.16 1013.81L308.288 1005.94L327.808 988.08H335.232L320.256 1002.8L316.928 1005.62L308.16 1013.81ZM303.168 1022V974.512H309.312V1022H303.168ZM329.088 1022L315.776 1005.49L319.744 1000.56L336.64 1022H329.088ZM363.036 1022V1014.83L362.716 1013.49V1001.26C362.716 998.661 361.948 996.656 360.412 995.248C358.919 993.797 356.658 993.072 353.628 993.072C351.623 993.072 349.66 993.413 347.74 994.096C345.82 994.736 344.199 995.611 342.876 996.72L340.316 992.112C342.066 990.704 344.156 989.637 346.588 988.912C349.063 988.144 351.644 987.76 354.332 987.76C358.983 987.76 362.567 988.891 365.084 991.152C367.602 993.413 368.86 996.869 368.86 1001.52V1022H363.036ZM351.9 1022.38C349.383 1022.38 347.164 1021.96 345.244 1021.1C343.367 1020.25 341.916 1019.08 340.892 1017.58C339.868 1016.05 339.356 1014.32 339.356 1012.4C339.356 1010.57 339.783 1008.9 340.636 1007.41C341.532 1005.91 342.962 1004.72 344.924 1003.82C346.93 1002.93 349.618 1002.48 352.988 1002.48H363.74V1006.9H353.244C350.172 1006.9 348.103 1007.41 347.036 1008.43C345.97 1009.46 345.436 1010.69 345.436 1012.14C345.436 1013.81 346.098 1015.15 347.42 1016.18C348.743 1017.16 350.578 1017.65 352.924 1017.65C355.228 1017.65 357.234 1017.14 358.94 1016.11C360.69 1015.09 361.948 1013.59 362.716 1011.63L363.932 1015.86C363.122 1017.86 361.692 1019.46 359.644 1020.66C357.596 1021.81 355.015 1022.38 351.9 1022.38ZM398.342 987.76C401.116 987.76 403.548 988.293 405.638 989.36C407.772 990.427 409.436 992.048 410.63 994.224C411.825 996.4 412.422 999.152 412.422 1002.48V1022H406.278V1003.18C406.278 999.899 405.468 997.424 403.846 995.76C402.268 994.096 400.028 993.264 397.126 993.264C394.95 993.264 393.052 993.691 391.43 994.544C389.809 995.397 388.55 996.656 387.654 998.32C386.801 999.984 386.374 1002.05 386.374 1004.53V1022H380.23V988.08H386.118V997.232L385.158 994.8C386.268 992.581 387.974 990.853 390.278 989.616C392.582 988.379 395.27 987.76 398.342 987.76ZM452.628 1022.38C449.215 1022.38 446.57 1021.47 444.692 1019.63C442.815 1017.8 441.876 1015.17 441.876 1011.76V980.656H448.02V1011.5C448.02 1013.34 448.468 1014.75 449.364 1015.73C450.303 1016.71 451.626 1017.2 453.332 1017.2C455.252 1017.2 456.852 1016.67 458.132 1015.6L460.052 1020.02C459.114 1020.83 457.983 1021.42 456.66 1021.81C455.38 1022.19 454.036 1022.38 452.628 1022.38ZM436.116 993.136V988.08H457.748V993.136H436.116ZM480.883 1022.38C477.47 1022.38 474.441 1021.64 471.795 1020.14C469.15 1018.65 467.059 1016.6 465.523 1014C463.987 1011.35 463.219 1008.37 463.219 1005.04C463.219 1001.67 463.987 998.683 465.523 996.08C467.059 993.477 469.15 991.451 471.795 990C474.441 988.507 477.47 987.76 480.883 987.76C484.254 987.76 487.262 988.507 489.907 990C492.595 991.451 494.686 993.477 496.179 996.08C497.715 998.64 498.483 1001.63 498.483 1005.04C498.483 1008.41 497.715 1011.4 496.179 1014C494.686 1016.6 492.595 1018.65 489.907 1020.14C487.262 1021.64 484.254 1022.38 480.883 1022.38ZM480.883 1017.01C483.059 1017.01 485.001 1016.52 486.707 1015.54C488.457 1014.55 489.822 1013.17 490.803 1011.38C491.785 1009.54 492.275 1007.43 492.275 1005.04C492.275 1002.61 491.785 1000.52 490.803 998.768C489.822 996.976 488.457 995.589 486.707 994.608C485.001 993.627 483.059 993.136 480.883 993.136C478.707 993.136 476.766 993.627 475.059 994.608C473.353 995.589 471.987 996.976 470.963 998.768C469.939 1000.52 469.427 1002.61 469.427 1005.04C469.427 1007.43 469.939 1009.54 470.963 1011.38C471.987 1013.17 473.353 1014.55 475.059 1015.54C476.766 1016.52 478.707 1017.01 480.883 1017.01ZM549.412 987.76C552.143 987.76 554.554 988.293 556.644 989.36C558.735 990.427 560.356 992.048 561.508 994.224C562.703 996.4 563.3 999.152 563.3 1002.48V1022H557.156V1003.18C557.156 999.899 556.388 997.424 554.852 995.76C553.316 994.096 551.162 993.264 548.388 993.264C546.34 993.264 544.548 993.691 543.012 994.544C541.476 995.397 540.282 996.656 539.428 998.32C538.618 999.984 538.212 1002.05 538.212 1004.53V1022H532.068V1003.18C532.068 999.899 531.3 997.424 529.764 995.76C528.271 994.096 526.116 993.264 523.3 993.264C521.295 993.264 519.524 993.691 517.988 994.544C516.452 995.397 515.258 996.656 514.404 998.32C513.551 999.984 513.124 1002.05 513.124 1004.53V1022H506.98V988.08H512.868V997.104L511.908 994.8C512.975 992.581 514.618 990.853 516.836 989.616C519.055 988.379 521.636 987.76 524.58 987.76C527.823 987.76 530.618 988.571 532.964 990.192C535.311 991.771 536.847 994.181 537.572 997.424L535.076 996.4C536.1 993.797 537.892 991.707 540.452 990.128C543.012 988.549 545.999 987.76 549.412 987.76ZM592.589 1022.38C589.688 1022.38 587.064 1021.74 584.717 1020.46C582.413 1019.14 580.579 1017.2 579.213 1014.64C577.891 1012.08 577.229 1008.88 577.229 1005.04C577.229 1001.2 577.912 998 579.277 995.44C580.685 992.88 582.541 990.96 584.845 989.68C587.192 988.4 589.773 987.76 592.589 987.76C595.917 987.76 598.861 988.485 601.421 989.936C603.981 991.387 606.008 993.413 607.501 996.016C608.995 998.576 609.741 1001.58 609.741 1005.04C609.741 1008.5 608.995 1011.53 607.501 1014.13C606.008 1016.73 603.981 1018.76 601.421 1020.21C598.861 1021.66 595.917 1022.38 592.589 1022.38ZM574.605 1022V974.512H580.749V997.104L580.109 1004.98L580.493 1012.85V1022H574.605ZM592.077 1017.01C594.253 1017.01 596.195 1016.52 597.901 1015.54C599.651 1014.55 601.016 1013.17 601.997 1011.38C603.021 1009.54 603.533 1007.43 603.533 1005.04C603.533 1002.61 603.021 1000.52 601.997 998.768C601.016 996.976 599.651 995.589 597.901 994.608C596.195 993.627 594.253 993.136 592.077 993.136C589.944 993.136 588.003 993.627 586.253 994.608C584.547 995.589 583.181 996.976 582.157 998.768C581.176 1000.52 580.685 1002.61 580.685 1005.04C580.685 1007.43 581.176 1009.54 582.157 1011.38C583.181 1013.17 584.547 1014.55 586.253 1015.54C588.003 1016.52 589.944 1017.01 592.077 1017.01ZM632.758 1022.38C629.345 1022.38 626.316 1021.64 623.67 1020.14C621.025 1018.65 618.934 1016.6 617.398 1014C615.862 1011.35 615.094 1008.37 615.094 1005.04C615.094 1001.67 615.862 998.683 617.398 996.08C618.934 993.477 621.025 991.451 623.67 990C626.316 988.507 629.345 987.76 632.758 987.76C636.129 987.76 639.137 988.507 641.782 990C644.47 991.451 646.561 993.477 648.054 996.08C649.59 998.64 650.358 1001.63 650.358 1005.04C650.358 1008.41 649.59 1011.4 648.054 1014C646.561 1016.6 644.47 1018.65 641.782 1020.14C639.137 1021.64 636.129 1022.38 632.758 1022.38ZM632.758 1017.01C634.934 1017.01 636.876 1016.52 638.582 1015.54C640.332 1014.55 641.697 1013.17 642.678 1011.38C643.66 1009.54 644.15 1007.43 644.15 1005.04C644.15 1002.61 643.66 1000.52 642.678 998.768C641.697 996.976 640.332 995.589 638.582 994.608C636.876 993.627 634.934 993.136 632.758 993.136C630.582 993.136 628.641 993.627 626.934 994.608C625.228 995.589 623.862 996.976 622.838 998.768C621.814 1000.52 621.302 1002.61 621.302 1005.04C621.302 1007.43 621.814 1009.54 622.838 1011.38C623.862 1013.17 625.228 1014.55 626.934 1015.54C628.641 1016.52 630.582 1017.01 632.758 1017.01ZM658.855 1022V974.512H664.999V1022H658.855ZM340.73 1052.51L337.53 1065.5L336.762 1061.79C337.999 1061.79 339.023 1062.18 339.834 1062.94C340.644 1063.71 341.05 1064.74 341.05 1066.02C341.05 1067.3 340.644 1068.34 339.834 1069.15C339.023 1069.96 338.02 1070.37 336.826 1070.37C335.588 1070.37 334.564 1069.96 333.754 1069.15C332.943 1068.3 332.538 1067.25 332.538 1066.02C332.538 1065.59 332.559 1065.18 332.602 1064.8C332.687 1064.42 332.815 1063.97 332.986 1063.46C333.156 1062.9 333.391 1062.24 333.69 1061.47L336.698 1052.51H340.73ZM350.814 1100V1055.2H369.694C374.472 1055.2 378.675 1056.14 382.302 1058.02C385.971 1059.89 388.808 1062.52 390.814 1065.89C392.862 1069.26 393.886 1073.16 393.886 1077.6C393.886 1082.04 392.862 1085.94 390.814 1089.31C388.808 1092.68 385.971 1095.31 382.302 1097.18C378.675 1099.06 374.472 1100 369.694 1100H350.814ZM357.214 1094.43H369.31C373.022 1094.43 376.222 1093.73 378.91 1092.32C381.64 1090.91 383.752 1088.95 385.246 1086.43C386.739 1083.87 387.486 1080.93 387.486 1077.6C387.486 1074.23 386.739 1071.29 385.246 1068.77C383.752 1066.25 381.64 1064.29 378.91 1062.88C376.222 1061.47 373.022 1060.77 369.31 1060.77H357.214V1094.43ZM423.849 1100V1092.83L423.529 1091.49V1079.26C423.529 1076.66 422.761 1074.66 421.225 1073.25C419.731 1071.8 417.47 1071.07 414.441 1071.07C412.435 1071.07 410.473 1071.41 408.553 1072.1C406.633 1072.74 405.011 1073.61 403.689 1074.72L401.129 1070.11C402.878 1068.7 404.969 1067.64 407.401 1066.91C409.875 1066.14 412.457 1065.76 415.145 1065.76C419.795 1065.76 423.379 1066.89 425.897 1069.15C428.414 1071.41 429.673 1074.87 429.673 1079.52V1100H423.849ZM412.713 1100.38C410.195 1100.38 407.977 1099.96 406.057 1099.1C404.179 1098.25 402.729 1097.08 401.705 1095.58C400.681 1094.05 400.169 1092.32 400.169 1090.4C400.169 1088.57 400.595 1086.9 401.449 1085.41C402.345 1083.91 403.774 1082.72 405.737 1081.82C407.742 1080.93 410.43 1080.48 413.801 1080.48H424.553V1084.9H414.057C410.985 1084.9 408.915 1085.41 407.849 1086.43C406.782 1087.46 406.249 1088.69 406.249 1090.14C406.249 1091.81 406.91 1093.15 408.233 1094.18C409.555 1095.16 411.39 1095.65 413.737 1095.65C416.041 1095.65 418.046 1095.14 419.753 1094.11C421.502 1093.09 422.761 1091.59 423.529 1089.63L424.745 1093.86C423.934 1095.86 422.505 1097.46 420.457 1098.66C418.409 1099.81 415.827 1100.38 412.713 1100.38ZM441.939 1100V1063.07C441.939 1059.74 442.899 1057.1 444.819 1055.14C446.781 1053.13 449.555 1052.13 453.139 1052.13C454.461 1052.13 455.72 1052.3 456.915 1052.64C458.152 1052.94 459.197 1053.43 460.051 1054.11L458.195 1058.78C457.555 1058.27 456.829 1057.89 456.019 1057.63C455.208 1057.33 454.355 1057.18 453.459 1057.18C451.667 1057.18 450.301 1057.7 449.363 1058.72C448.424 1059.7 447.955 1061.17 447.955 1063.14V1067.68L448.083 1070.5V1100H441.939ZM436.179 1071.14V1066.08H457.811V1071.14H436.179ZM475.253 1100.38C471.84 1100.38 469.195 1099.47 467.317 1097.63C465.44 1095.8 464.501 1093.17 464.501 1089.76V1058.66H470.645V1089.5C470.645 1091.34 471.093 1092.75 471.989 1093.73C472.928 1094.71 474.251 1095.2 475.957 1095.2C477.877 1095.2 479.477 1094.67 480.757 1093.6L482.677 1098.02C481.739 1098.83 480.608 1099.42 479.285 1099.81C478.005 1100.19 476.661 1100.38 475.253 1100.38ZM458.741 1071.14V1066.08H480.373V1071.14H458.741ZM511.161 1100V1092.83L510.841 1091.49V1079.26C510.841 1076.66 510.073 1074.66 508.537 1073.25C507.044 1071.8 504.783 1071.07 501.753 1071.07C499.748 1071.07 497.785 1071.41 495.865 1072.1C493.945 1072.74 492.324 1073.61 491.001 1074.72L488.441 1070.11C490.191 1068.7 492.281 1067.64 494.713 1066.91C497.188 1066.14 499.769 1065.76 502.457 1065.76C507.108 1065.76 510.692 1066.89 513.209 1069.15C515.727 1071.41 516.985 1074.87 516.985 1079.52V1100H511.161ZM500.025 1100.38C497.508 1100.38 495.289 1099.96 493.369 1099.1C491.492 1098.25 490.041 1097.08 489.017 1095.58C487.993 1094.05 487.481 1092.32 487.481 1090.4C487.481 1088.57 487.908 1086.9 488.761 1085.41C489.657 1083.91 491.087 1082.72 493.049 1081.82C495.055 1080.93 497.743 1080.48 501.113 1080.48H511.865V1084.9H501.369C498.297 1084.9 496.228 1085.41 495.161 1086.43C494.095 1087.46 493.561 1088.69 493.561 1090.14C493.561 1091.81 494.223 1093.15 495.545 1094.18C496.868 1095.16 498.703 1095.65 501.049 1095.65C503.353 1095.65 505.359 1095.14 507.065 1094.11C508.815 1093.09 510.073 1091.59 510.841 1089.63L512.057 1093.86C511.247 1095.86 509.817 1097.46 507.769 1098.66C505.721 1099.81 503.14 1100.38 500.025 1100.38ZM528.355 1100V1066.08H534.243V1075.3L533.667 1072.99C534.606 1070.65 536.185 1068.85 538.403 1067.62C540.622 1066.38 543.353 1065.76 546.595 1065.76V1071.71C546.339 1071.67 546.083 1071.65 545.827 1071.65C545.614 1071.65 545.401 1071.65 545.187 1071.65C541.902 1071.65 539.299 1072.63 537.379 1074.59C535.459 1076.55 534.499 1079.39 534.499 1083.1V1100H528.355ZM554.298 1069.98L557.498 1056.99L558.33 1060.7C557.093 1060.7 556.048 1060.32 555.194 1059.55C554.384 1058.78 553.978 1057.76 553.978 1056.48C553.978 1055.16 554.384 1054.11 555.194 1053.34C556.048 1052.53 557.072 1052.13 558.266 1052.13C559.504 1052.13 560.506 1052.55 561.274 1053.41C562.042 1054.22 562.426 1055.24 562.426 1056.48C562.426 1056.86 562.405 1057.27 562.362 1057.7C562.32 1058.08 562.213 1058.53 562.042 1059.04C561.914 1059.55 561.701 1060.21 561.402 1061.02L558.33 1069.98H554.298Z" fill="#F85DCD"/>
<g filter="url(#filter0_i_897_2369)">
<rect x="129" y="484" width="642.938" height="162" rx="81" fill="#EED4B5"/>
</g>
<path d="M313.224 597.312V533.525H340.106C346.91 533.525 352.894 534.861 358.058 537.534C363.282 540.207 367.322 543.944 370.178 548.743C373.094 553.542 374.552 559.101 374.552 565.419C374.552 571.737 373.094 577.295 370.178 582.095C367.322 586.894 363.282 590.63 358.058 593.303C352.894 595.976 346.91 597.312 340.106 597.312H313.224ZM322.337 589.385H339.56C344.845 589.385 349.401 588.382 353.228 586.377C357.116 584.373 360.123 581.578 362.25 577.994C364.376 574.349 365.439 570.157 365.439 565.419C365.439 560.619 364.376 556.428 362.25 552.843C360.123 549.259 357.116 546.465 353.228 544.46C349.401 542.455 344.845 541.453 339.56 541.453H322.337V589.385ZM417.214 597.312V587.106L416.758 585.193V567.788C416.758 564.082 415.665 561.227 413.478 559.222C411.351 557.157 408.132 556.124 403.818 556.124C400.963 556.124 398.169 556.61 395.435 557.582C392.701 558.493 390.393 559.739 388.509 561.318L384.864 554.757C387.355 552.752 390.332 551.234 393.795 550.201C397.318 549.107 400.993 548.561 404.821 548.561C411.442 548.561 416.545 550.17 420.13 553.39C423.714 556.61 425.506 561.531 425.506 568.152V597.312H417.214ZM401.358 597.859C397.774 597.859 394.615 597.252 391.881 596.037C389.208 594.822 387.142 593.151 385.684 591.025C384.226 588.838 383.497 586.377 383.497 583.644C383.497 581.031 384.105 578.662 385.32 576.536C386.596 574.41 388.631 572.709 391.425 571.433C394.281 570.157 398.108 569.519 402.907 569.519H418.216V575.807H403.272C398.898 575.807 395.951 576.536 394.432 577.994C392.914 579.452 392.154 581.214 392.154 583.279C392.154 585.648 393.096 587.562 394.979 589.02C396.862 590.417 399.475 591.116 402.816 591.116C406.096 591.116 408.952 590.387 411.382 588.929C413.872 587.471 415.665 585.345 416.758 582.55L418.489 588.564C417.335 591.42 415.3 593.698 412.384 595.399C409.468 597.039 405.793 597.859 401.358 597.859ZM442.971 597.312V544.733C442.971 539.995 444.338 536.228 447.071 533.434C449.866 530.579 453.815 529.151 458.918 529.151C460.801 529.151 462.593 529.394 464.294 529.88C466.056 530.305 467.544 531.004 468.759 531.976L466.116 538.628C465.205 537.899 464.172 537.352 463.018 536.988C461.864 536.562 460.649 536.35 459.373 536.35C456.822 536.35 454.878 537.079 453.541 538.537C452.205 539.934 451.536 542.03 451.536 544.824V551.294L451.719 555.304V597.312H442.971ZM434.769 556.215V549.016H465.57V556.215H434.769ZM490.405 597.859C485.545 597.859 481.778 596.553 479.105 593.941C476.432 591.329 475.096 587.592 475.096 582.732V538.446H483.844V582.368C483.844 584.98 484.482 586.985 485.757 588.382C487.094 589.779 488.977 590.478 491.407 590.478C494.141 590.478 496.419 589.719 498.242 588.2L500.975 594.488C499.639 595.642 498.029 596.492 496.146 597.039C494.323 597.586 492.41 597.859 490.405 597.859ZM466.895 556.215V549.016H497.695V556.215H466.895ZM541.532 597.312V587.106L541.076 585.193V567.788C541.076 564.082 539.983 561.227 537.796 559.222C535.669 557.157 532.45 556.124 528.136 556.124C525.281 556.124 522.487 556.61 519.753 557.582C517.019 558.493 514.711 559.739 512.827 561.318L509.182 554.757C511.673 552.752 514.65 551.234 518.113 550.201C521.636 549.107 525.311 548.561 529.139 548.561C535.76 548.561 540.863 550.17 544.448 553.39C548.032 556.61 549.824 561.531 549.824 568.152V597.312H541.532ZM525.676 597.859C522.092 597.859 518.933 597.252 516.199 596.037C513.526 594.822 511.46 593.151 510.002 591.025C508.544 588.838 507.815 586.377 507.815 583.644C507.815 581.031 508.423 578.662 509.638 576.536C510.914 574.41 512.949 572.709 515.743 571.433C518.599 570.157 522.426 569.519 527.225 569.519H542.534V575.807H527.59C523.216 575.807 520.269 576.536 518.75 577.994C517.232 579.452 516.472 581.214 516.472 583.279C516.472 585.648 517.414 587.562 519.297 589.02C521.18 590.417 523.793 591.116 527.134 591.116C530.414 591.116 533.27 590.387 535.7 588.929C538.19 587.471 539.983 585.345 541.076 582.55L542.807 588.564C541.653 591.42 539.618 593.698 536.702 595.399C533.786 597.039 530.111 597.859 525.676 597.859ZM566.013 597.312V549.016H574.396V562.138L573.576 558.858C574.913 555.516 577.161 552.965 580.32 551.203C583.479 549.441 587.367 548.561 591.984 548.561V557.035C591.619 556.974 591.255 556.944 590.89 556.944C590.586 556.944 590.283 556.944 589.979 556.944C585.301 556.944 581.595 558.341 578.862 561.136C576.128 563.93 574.761 567.97 574.761 573.256V597.312H566.013Z" fill="black"/>
<defs>
<filter id="filter0_i_897_2369" x="118.875" y="473.875" width="653.062" height="172.125" filterUnits="userSpaceOnUse" color-interpolation-filters="sRGB">
<feFlood flood-opacity="0" result="BackgroundImageFix"/>
<feBlend mode="normal" in="SourceGraphic" in2="BackgroundImageFix" result="shape"/>
<feColorMatrix in="SourceAlpha" type="matrix" values="0 0 0 0 0 0 0 0 0 0 0 0 0 0 0 0 0 0 127 0" result="hardAlpha"/>
<feOffset dx="-17.7188" dy="-10.125"/>
<feGaussianBlur stdDeviation="5.0625"/>
<feComposite in2="hardAlpha" operator="arithmetic" k2="-1" k3="1"/>
<feColorMatrix type="matrix" values="0 0 0 0 0.301346 0 0 0 0 0.290665 0 0 0 0 0.03432 0 0 0 0.25 0"/>
<feBlend mode="normal" in2="shape" result="effect1_innerShadow_897_2369"/>
</filter>
</defs>
</svg>
