<svg width="901" height="1201" viewBox="0 0 901 1201" fill="none" xmlns="http://www.w3.org/2000/svg">
<rect x="7" y="7" width="887" height="1187" rx="43" fill="white" stroke="#C3A7FF" stroke-width="14"/>
<path d="M408.325 251V234.058L451.889 192.914C455.332 189.794 457.859 186.997 459.473 184.523C461.086 182.049 462.162 179.79 462.7 177.747C463.345 175.703 463.668 173.82 463.668 172.099C463.668 167.581 462.108 164.139 458.989 161.773C455.977 159.299 451.513 158.062 445.597 158.062C440.864 158.062 436.453 158.976 432.366 160.805C428.386 162.633 424.998 165.484 422.201 169.356L403.161 157.094C407.464 150.64 413.488 145.53 421.233 141.765C428.978 138 437.906 136.118 448.017 136.118C456.407 136.118 463.722 137.516 469.961 140.313C476.307 143.002 481.202 146.821 484.644 151.769C488.193 156.717 489.968 162.633 489.968 169.518C489.968 173.175 489.484 176.832 488.516 180.49C487.656 184.039 485.827 187.804 483.03 191.784C480.341 195.764 476.361 200.228 471.09 205.176L434.948 239.221L429.946 229.702H493.679V251H408.325Z" fill="#E4A255"/>
<path d="M204.908 1022V977.2H210.156L230.252 1011.06H227.436L247.276 977.2H252.524L252.588 1022H246.444L246.38 986.864H247.852L230.188 1016.56H227.244L209.452 986.864H211.052V1022H204.908ZM286.193 1022V1014.83L285.873 1013.49V1001.26C285.873 998.661 285.105 996.656 283.569 995.248C282.075 993.797 279.814 993.072 276.785 993.072C274.779 993.072 272.817 993.413 270.897 994.096C268.977 994.736 267.355 995.611 266.033 996.72L263.473 992.112C265.222 990.704 267.313 989.637 269.745 988.912C272.219 988.144 274.801 987.76 277.489 987.76C282.139 987.76 285.723 988.891 288.241 991.152C290.758 993.413 292.017 996.869 292.017 1001.52V1022H286.193ZM275.057 1022.38C272.539 1022.38 270.321 1021.96 268.401 1021.1C266.523 1020.25 265.073 1019.08 264.049 1017.58C263.025 1016.05 262.513 1014.32 262.513 1012.4C262.513 1010.57 262.939 1008.9 263.793 1007.41C264.689 1005.91 266.118 1004.72 268.081 1003.82C270.086 1002.93 272.774 1002.48 276.145 1002.48H286.897V1006.9H276.401C273.329 1006.9 271.259 1007.41 270.193 1008.43C269.126 1009.46 268.593 1010.69 268.593 1012.14C268.593 1013.81 269.254 1015.15 270.577 1016.18C271.899 1017.16 273.734 1017.65 276.081 1017.65C278.385 1017.65 280.39 1017.14 282.097 1016.11C283.846 1015.09 285.105 1013.59 285.873 1011.63L287.089 1015.86C286.278 1017.86 284.849 1019.46 282.801 1020.66C280.753 1021.81 278.171 1022.38 275.057 1022.38ZM313.115 1022.38C310.299 1022.38 307.611 1022 305.051 1021.23C302.533 1020.46 300.549 1019.53 299.099 1018.42L301.659 1013.55C303.109 1014.53 304.901 1015.37 307.035 1016.05C309.168 1016.73 311.344 1017.07 313.562 1017.07C316.421 1017.07 318.469 1016.67 319.707 1015.86C320.987 1015.05 321.627 1013.91 321.627 1012.46C321.627 1011.4 321.243 1010.57 320.475 1009.97C319.707 1009.37 318.683 1008.92 317.403 1008.62C316.165 1008.33 314.779 1008.07 313.243 1007.86C311.707 1007.6 310.171 1007.3 308.635 1006.96C307.099 1006.58 305.691 1006.06 304.411 1005.42C303.131 1004.74 302.107 1003.82 301.339 1002.67C300.571 1001.48 300.187 999.899 300.187 997.936C300.187 995.888 300.763 994.096 301.915 992.56C303.067 991.024 304.688 989.851 306.779 989.04C308.912 988.187 311.429 987.76 314.331 987.76C316.549 987.76 318.789 988.037 321.051 988.592C323.355 989.104 325.232 989.851 326.683 990.832L324.059 995.696C322.523 994.672 320.923 993.968 319.259 993.584C317.595 993.2 315.931 993.008 314.267 993.008C311.579 993.008 309.573 993.456 308.251 994.352C306.928 995.205 306.267 996.315 306.267 997.68C306.267 998.832 306.651 999.728 307.419 1000.37C308.229 1000.97 309.253 1001.43 310.491 1001.78C311.771 1002.12 313.179 1002.42 314.715 1002.67C316.251 1002.89 317.787 1003.18 319.323 1003.57C320.859 1003.91 322.245 1004.4 323.483 1005.04C324.763 1005.68 325.787 1006.58 326.555 1007.73C327.365 1008.88 327.771 1010.42 327.771 1012.34C327.771 1014.38 327.173 1016.15 325.979 1017.65C324.784 1019.14 323.099 1020.31 320.923 1021.17C318.747 1021.98 316.144 1022.38 313.115 1022.38ZM349.721 1022.38C346.82 1022.38 344.26 1021.85 342.041 1020.78C339.865 1019.72 338.158 1018.1 336.921 1015.92C335.726 1013.7 335.129 1010.93 335.129 1007.6V988.08H341.273V1006.9C341.273 1010.22 342.062 1012.72 343.641 1014.38C345.262 1016.05 347.524 1016.88 350.425 1016.88C352.558 1016.88 354.414 1016.45 355.993 1015.6C357.572 1014.7 358.788 1013.42 359.641 1011.76C360.494 1010.05 360.921 1008.01 360.921 1005.62V988.08H367.065V1022H361.241V1012.85L362.201 1015.28C361.092 1017.54 359.428 1019.29 357.209 1020.53C354.99 1021.77 352.494 1022.38 349.721 1022.38ZM383.754 1013.81L383.882 1005.94L403.402 988.08H410.826L395.85 1002.8L392.522 1005.62L383.754 1013.81ZM378.762 1022V974.512H384.906V1022H378.762ZM404.682 1022L391.37 1005.49L395.338 1000.56L412.234 1022H404.682ZM423.191 1013.81L423.319 1005.94L442.839 988.08H450.263L435.287 1002.8L431.959 1005.62L423.191 1013.81ZM418.199 1022V974.512H424.343V1022H418.199ZM444.119 1022L430.807 1005.49L434.775 1000.56L451.671 1022H444.119ZM478.068 1022V1014.83L477.748 1013.49V1001.26C477.748 998.661 476.98 996.656 475.444 995.248C473.95 993.797 471.689 993.072 468.66 993.072C466.654 993.072 464.692 993.413 462.772 994.096C460.852 994.736 459.23 995.611 457.908 996.72L455.348 992.112C457.097 990.704 459.188 989.637 461.62 988.912C464.094 988.144 466.676 987.76 469.364 987.76C474.014 987.76 477.598 988.891 480.116 991.152C482.633 993.413 483.892 996.869 483.892 1001.52V1022H478.068ZM466.932 1022.38C464.414 1022.38 462.196 1021.96 460.276 1021.1C458.398 1020.25 456.948 1019.08 455.924 1017.58C454.9 1016.05 454.388 1014.32 454.388 1012.4C454.388 1010.57 454.814 1008.9 455.668 1007.41C456.564 1005.91 457.993 1004.72 459.956 1003.82C461.961 1002.93 464.649 1002.48 468.02 1002.48H478.772V1006.9H468.276C465.204 1006.9 463.134 1007.41 462.068 1008.43C461.001 1009.46 460.468 1010.69 460.468 1012.14C460.468 1013.81 461.129 1015.15 462.452 1016.18C463.774 1017.16 465.609 1017.65 467.956 1017.65C470.26 1017.65 472.265 1017.14 473.972 1016.11C475.721 1015.09 476.98 1013.59 477.748 1011.63L478.964 1015.86C478.153 1017.86 476.724 1019.46 474.676 1020.66C472.628 1021.81 470.046 1022.38 466.932 1022.38ZM513.374 987.76C516.147 987.76 518.579 988.293 520.67 989.36C522.803 990.427 524.467 992.048 525.662 994.224C526.856 996.4 527.454 999.152 527.454 1002.48V1022H521.31V1003.18C521.31 999.899 520.499 997.424 518.878 995.76C517.299 994.096 515.059 993.264 512.158 993.264C509.982 993.264 508.083 993.691 506.462 994.544C504.84 995.397 503.582 996.656 502.686 998.32C501.832 999.984 501.406 1002.05 501.406 1004.53V1022H495.262V988.08H501.15V997.232L500.19 994.8C501.299 992.581 503.006 990.853 505.31 989.616C507.614 988.379 510.302 987.76 513.374 987.76ZM570.028 1022.38C566.742 1022.38 563.798 1021.66 561.196 1020.21C558.636 1018.76 556.609 1016.73 555.116 1014.13C553.622 1011.53 552.876 1008.5 552.876 1005.04C552.876 1001.58 553.622 998.576 555.116 996.016C556.609 993.413 558.636 991.387 561.196 989.936C563.798 988.485 566.742 987.76 570.028 987.76C572.886 987.76 575.468 988.4 577.772 989.68C580.076 990.96 581.91 992.88 583.276 995.44C584.684 998 585.388 1001.2 585.388 1005.04C585.388 1008.88 584.705 1012.08 583.34 1014.64C582.017 1017.2 580.204 1019.14 577.9 1020.46C575.596 1021.74 572.972 1022.38 570.028 1022.38ZM570.54 1017.01C572.673 1017.01 574.593 1016.52 576.3 1015.54C578.049 1014.55 579.414 1013.17 580.396 1011.38C581.42 1009.54 581.932 1007.43 581.932 1005.04C581.932 1002.61 581.42 1000.52 580.396 998.768C579.414 996.976 578.049 995.589 576.3 994.608C574.593 993.627 572.673 993.136 570.54 993.136C568.364 993.136 566.422 993.627 564.716 994.608C563.009 995.589 561.644 996.976 560.62 998.768C559.596 1000.52 559.084 1002.61 559.084 1005.04C559.084 1007.43 559.596 1009.54 560.62 1011.38C561.644 1013.17 563.009 1014.55 564.716 1015.54C566.422 1016.52 568.364 1017.01 570.54 1017.01ZM582.124 1022V1012.85L582.507 1004.98L581.868 997.104V974.512H588.012V1022H582.124ZM620.693 1022V1014.83L620.373 1013.49V1001.26C620.373 998.661 619.605 996.656 618.069 995.248C616.575 993.797 614.314 993.072 611.285 993.072C609.279 993.072 607.317 993.413 605.397 994.096C603.477 994.736 601.855 995.611 600.533 996.72L597.973 992.112C599.722 990.704 601.813 989.637 604.245 988.912C606.719 988.144 609.301 987.76 611.989 987.76C616.639 987.76 620.223 988.891 622.741 991.152C625.258 993.413 626.517 996.869 626.517 1001.52V1022H620.693ZM609.557 1022.38C607.039 1022.38 604.821 1021.96 602.901 1021.1C601.023 1020.25 599.573 1019.08 598.549 1017.58C597.525 1016.05 597.013 1014.32 597.013 1012.4C597.013 1010.57 597.439 1008.9 598.293 1007.41C599.189 1005.91 600.618 1004.72 602.581 1003.82C604.586 1002.93 607.274 1002.48 610.645 1002.48H621.397V1006.9H610.901C607.829 1006.9 605.759 1007.41 604.693 1008.43C603.626 1009.46 603.093 1010.69 603.093 1012.14C603.093 1013.81 603.754 1015.15 605.077 1016.18C606.399 1017.16 608.234 1017.65 610.581 1017.65C612.885 1017.65 614.89 1017.14 616.597 1016.11C618.346 1015.09 619.605 1013.59 620.373 1011.63L621.589 1015.86C620.778 1017.86 619.349 1019.46 617.301 1020.66C615.253 1021.81 612.671 1022.38 609.557 1022.38ZM649.535 1022.38C646.121 1022.38 643.476 1021.47 641.599 1019.63C639.721 1017.8 638.783 1015.17 638.783 1011.76V980.656H644.927V1011.5C644.927 1013.34 645.375 1014.75 646.271 1015.73C647.209 1016.71 648.532 1017.2 650.239 1017.2C652.159 1017.2 653.759 1016.67 655.039 1015.6L656.959 1020.02C656.02 1020.83 654.889 1021.42 653.567 1021.81C652.287 1022.19 650.943 1022.38 649.535 1022.38ZM633.023 993.136V988.08H654.655V993.136H633.023ZM685.443 1022V1014.83L685.123 1013.49V1001.26C685.123 998.661 684.355 996.656 682.819 995.248C681.325 993.797 679.064 993.072 676.035 993.072C674.029 993.072 672.067 993.413 670.147 994.096C668.227 994.736 666.605 995.611 665.283 996.72L662.723 992.112C664.472 990.704 666.563 989.637 668.995 988.912C671.469 988.144 674.051 987.76 676.739 987.76C681.389 987.76 684.973 988.891 687.491 991.152C690.008 993.413 691.267 996.869 691.267 1001.52V1022H685.443ZM674.307 1022.38C671.789 1022.38 669.571 1021.96 667.651 1021.1C665.773 1020.25 664.323 1019.08 663.299 1017.58C662.275 1016.05 661.763 1014.32 661.763 1012.4C661.763 1010.57 662.189 1008.9 663.043 1007.41C663.939 1005.91 665.368 1004.72 667.331 1003.82C669.336 1002.93 672.024 1002.48 675.395 1002.48H686.147V1006.9H675.651C672.579 1006.9 670.509 1007.41 669.443 1008.43C668.376 1009.46 667.843 1010.69 667.843 1012.14C667.843 1013.81 668.504 1015.15 669.827 1016.18C671.149 1017.16 672.984 1017.65 675.331 1017.65C677.635 1017.65 679.64 1017.14 681.347 1016.11C683.096 1015.09 684.355 1013.59 685.123 1011.63L686.339 1015.86C685.528 1017.86 684.099 1019.46 682.051 1020.66C680.003 1021.81 677.421 1022.38 674.307 1022.38ZM216.371 1100.38C213.086 1100.38 210.142 1099.66 207.539 1098.21C204.979 1096.76 202.953 1094.73 201.459 1092.13C199.966 1089.53 199.219 1086.5 199.219 1083.04C199.219 1079.58 199.966 1076.58 201.459 1074.02C202.953 1071.41 204.979 1069.39 207.539 1067.94C210.142 1066.49 213.086 1065.76 216.371 1065.76C219.23 1065.76 221.811 1066.4 224.115 1067.68C226.419 1068.96 228.254 1070.88 229.619 1073.44C231.027 1076 231.731 1079.2 231.731 1083.04C231.731 1086.88 231.049 1090.08 229.683 1092.64C228.361 1095.2 226.547 1097.14 224.243 1098.46C221.939 1099.74 219.315 1100.38 216.371 1100.38ZM216.883 1095.01C219.017 1095.01 220.937 1094.52 222.643 1093.54C224.393 1092.55 225.758 1091.17 226.739 1089.38C227.763 1087.54 228.275 1085.43 228.275 1083.04C228.275 1080.61 227.763 1078.52 226.739 1076.77C225.758 1074.98 224.393 1073.59 222.643 1072.61C220.937 1071.63 219.017 1071.14 216.883 1071.14C214.707 1071.14 212.766 1071.63 211.059 1072.61C209.353 1073.59 207.987 1074.98 206.963 1076.77C205.939 1078.52 205.427 1080.61 205.427 1083.04C205.427 1085.43 205.939 1087.54 206.963 1089.38C207.987 1091.17 209.353 1092.55 211.059 1093.54C212.766 1094.52 214.707 1095.01 216.883 1095.01ZM228.467 1100V1090.85L228.851 1082.98L228.211 1075.1V1052.51H234.355V1100H228.467ZM245.98 1100V1066.08H252.124V1100H245.98ZM249.052 1059.55C247.858 1059.55 246.855 1059.17 246.044 1058.4C245.276 1057.63 244.892 1056.69 244.892 1055.58C244.892 1054.43 245.276 1053.47 246.044 1052.7C246.855 1051.94 247.858 1051.55 249.052 1051.55C250.247 1051.55 251.228 1051.94 251.996 1052.7C252.807 1053.43 253.212 1054.35 253.212 1055.46C253.212 1056.61 252.828 1057.59 252.06 1058.4C251.292 1059.17 250.29 1059.55 249.052 1059.55ZM263.855 1100V1066.08H269.743V1075.3L269.167 1072.99C270.106 1070.65 271.685 1068.85 273.903 1067.62C276.122 1066.38 278.853 1065.76 282.095 1065.76V1071.71C281.839 1071.67 281.583 1071.65 281.327 1071.65C281.114 1071.65 280.901 1071.65 280.687 1071.65C277.402 1071.65 274.799 1072.63 272.879 1074.59C270.959 1076.55 269.999 1079.39 269.999 1083.1V1100H263.855ZM289.668 1100V1066.08H295.812V1100H289.668ZM292.74 1059.55C291.545 1059.55 290.542 1059.17 289.732 1058.4C288.964 1057.63 288.58 1056.69 288.58 1055.58C288.58 1054.43 288.964 1053.47 289.732 1052.7C290.542 1051.94 291.545 1051.55 292.74 1051.55C293.934 1051.55 294.916 1051.94 295.684 1052.7C296.494 1053.43 296.9 1054.35 296.9 1055.46C296.9 1056.61 296.516 1057.59 295.748 1058.4C294.98 1059.17 293.977 1059.55 292.74 1059.55ZM338.746 1100.38C335.461 1100.38 332.517 1099.66 329.914 1098.21C327.354 1096.76 325.328 1094.73 323.834 1092.13C322.341 1089.53 321.594 1086.5 321.594 1083.04C321.594 1079.58 322.341 1076.58 323.834 1074.02C325.328 1071.41 327.354 1069.39 329.914 1067.94C332.517 1066.49 335.461 1065.76 338.746 1065.76C341.605 1065.76 344.186 1066.4 346.49 1067.68C348.794 1068.96 350.629 1070.88 351.994 1073.44C353.402 1076 354.106 1079.2 354.106 1083.04C354.106 1086.88 353.424 1090.08 352.058 1092.64C350.736 1095.2 348.922 1097.14 346.618 1098.46C344.314 1099.74 341.69 1100.38 338.746 1100.38ZM339.258 1095.01C341.392 1095.01 343.312 1094.52 345.018 1093.54C346.768 1092.55 348.133 1091.17 349.114 1089.38C350.138 1087.54 350.65 1085.43 350.65 1083.04C350.65 1080.61 350.138 1078.52 349.114 1076.77C348.133 1074.98 346.768 1073.59 345.018 1072.61C343.312 1071.63 341.392 1071.14 339.258 1071.14C337.082 1071.14 335.141 1071.63 333.434 1072.61C331.728 1073.59 330.362 1074.98 329.338 1076.77C328.314 1078.52 327.802 1080.61 327.802 1083.04C327.802 1085.43 328.314 1087.54 329.338 1089.38C330.362 1091.17 331.728 1092.55 333.434 1093.54C335.141 1094.52 337.082 1095.01 339.258 1095.01ZM350.842 1100V1090.85L351.226 1082.98L350.586 1075.1V1052.51H356.73V1100H350.842ZM368.355 1100V1066.08H374.499V1100H368.355ZM371.427 1059.55C370.233 1059.55 369.23 1059.17 368.419 1058.4C367.651 1057.63 367.267 1056.69 367.267 1055.58C367.267 1054.43 367.651 1053.47 368.419 1052.7C369.23 1051.94 370.233 1051.55 371.427 1051.55C372.622 1051.55 373.603 1051.94 374.371 1052.7C375.182 1053.43 375.587 1054.35 375.587 1055.46C375.587 1056.61 375.203 1057.59 374.435 1058.4C373.667 1059.17 372.665 1059.55 371.427 1059.55ZM404.314 1100V1055.2H421.786C425.711 1055.2 429.06 1055.82 431.834 1057.06C434.607 1058.29 436.74 1060.09 438.234 1062.43C439.727 1064.78 440.474 1067.57 440.474 1070.82C440.474 1074.06 439.727 1076.85 438.234 1079.2C436.74 1081.5 434.607 1083.3 431.834 1084.58C429.06 1085.81 425.711 1086.43 421.786 1086.43H407.834L410.714 1083.42V1100H404.314ZM410.714 1084.06L407.834 1080.86H421.594C425.69 1080.86 428.783 1079.99 430.874 1078.24C433.007 1076.49 434.074 1074.02 434.074 1070.82C434.074 1067.62 433.007 1065.14 430.874 1063.39C428.783 1061.64 425.69 1060.77 421.594 1060.77H407.834L410.714 1057.57V1084.06ZM467.717 1065.76C470.491 1065.76 472.923 1066.29 475.013 1067.36C477.147 1068.43 478.811 1070.05 480.005 1072.22C481.2 1074.4 481.797 1077.15 481.797 1080.48V1100H475.653V1081.18C475.653 1077.9 474.843 1075.42 473.221 1073.76C471.643 1072.1 469.403 1071.26 466.501 1071.26C464.325 1071.26 462.427 1071.69 460.805 1072.54C459.184 1073.4 457.925 1074.66 457.029 1076.32C456.176 1077.98 455.749 1080.05 455.749 1082.53V1100H449.605V1052.51H455.749V1075.23L454.533 1072.8C455.643 1070.58 457.349 1068.85 459.653 1067.62C461.957 1066.38 464.645 1065.76 467.717 1065.76ZM507.696 1100.38C504.282 1100.38 501.253 1099.64 498.608 1098.14C495.962 1096.65 493.872 1094.6 492.336 1092C490.8 1089.35 490.032 1086.37 490.032 1083.04C490.032 1079.67 490.8 1076.68 492.336 1074.08C493.872 1071.48 495.962 1069.45 498.608 1068C501.253 1066.51 504.282 1065.76 507.696 1065.76C511.066 1065.76 514.074 1066.51 516.72 1068C519.408 1069.45 521.498 1071.48 522.992 1074.08C524.528 1076.64 525.296 1079.63 525.296 1083.04C525.296 1086.41 524.528 1089.4 522.992 1092C521.498 1094.6 519.408 1096.65 516.72 1098.14C514.074 1099.64 511.066 1100.38 507.696 1100.38ZM507.696 1095.01C509.872 1095.01 511.813 1094.52 513.52 1093.54C515.269 1092.55 516.634 1091.17 517.616 1089.38C518.597 1087.54 519.088 1085.43 519.088 1083.04C519.088 1080.61 518.597 1078.52 517.616 1076.77C516.634 1074.98 515.269 1073.59 513.52 1072.61C511.813 1071.63 509.872 1071.14 507.696 1071.14C505.52 1071.14 503.578 1071.63 501.872 1072.61C500.165 1073.59 498.8 1074.98 497.776 1076.77C496.752 1078.52 496.24 1080.61 496.24 1083.04C496.24 1085.43 496.752 1087.54 497.776 1089.38C498.8 1091.17 500.165 1092.55 501.872 1093.54C503.578 1094.52 505.52 1095.01 507.696 1095.01ZM551.905 1065.76C554.678 1065.76 557.11 1066.29 559.201 1067.36C561.334 1068.43 562.998 1070.05 564.193 1072.22C565.387 1074.4 565.985 1077.15 565.985 1080.48V1100H559.841V1081.18C559.841 1077.9 559.03 1075.42 557.409 1073.76C555.83 1072.1 553.59 1071.26 550.689 1071.26C548.513 1071.26 546.614 1071.69 544.993 1072.54C543.371 1073.4 542.113 1074.66 541.217 1076.32C540.363 1077.98 539.937 1080.05 539.937 1082.53V1100H533.793V1066.08H539.681V1075.23L538.721 1072.8C539.83 1070.58 541.537 1068.85 543.841 1067.62C546.145 1066.38 548.833 1065.76 551.905 1065.76ZM577.355 1100V1066.08H583.499V1100H577.355ZM580.427 1059.55C579.233 1059.55 578.23 1059.17 577.419 1058.4C576.651 1057.63 576.267 1056.69 576.267 1055.58C576.267 1054.43 576.651 1053.47 577.419 1052.7C578.23 1051.94 579.233 1051.55 580.427 1051.55C581.622 1051.55 582.603 1051.94 583.371 1052.7C584.182 1053.43 584.587 1054.35 584.587 1055.46C584.587 1056.61 584.203 1057.59 583.435 1058.4C582.667 1059.17 581.665 1059.55 580.427 1059.55ZM610.014 1100.38C606.558 1100.38 603.465 1099.64 600.734 1098.14C598.046 1096.65 595.934 1094.6 594.398 1092C592.862 1089.4 592.094 1086.41 592.094 1083.04C592.094 1079.67 592.862 1076.68 594.398 1074.08C595.934 1071.48 598.046 1069.45 600.734 1068C603.465 1066.51 606.558 1065.76 610.014 1065.76C613.086 1065.76 615.817 1066.38 618.206 1067.62C620.638 1068.81 622.516 1070.6 623.838 1072.99L619.166 1076C618.057 1074.34 616.692 1073.12 615.07 1072.35C613.492 1071.54 611.785 1071.14 609.95 1071.14C607.732 1071.14 605.748 1071.63 603.998 1072.61C602.249 1073.59 600.862 1074.98 599.838 1076.77C598.814 1078.52 598.302 1080.61 598.302 1083.04C598.302 1085.47 598.814 1087.58 599.838 1089.38C600.862 1091.17 602.249 1092.55 603.998 1093.54C605.748 1094.52 607.732 1095.01 609.95 1095.01C611.785 1095.01 613.492 1094.62 615.07 1093.86C616.692 1093.05 618.057 1091.81 619.166 1090.14L623.838 1093.09C622.516 1095.43 620.638 1097.25 618.206 1098.53C615.817 1099.77 613.086 1100.38 610.014 1100.38ZM634.515 1100.38C633.32 1100.38 632.296 1099.98 631.443 1099.17C630.589 1098.31 630.163 1097.25 630.163 1095.97C630.163 1094.69 630.589 1093.64 631.443 1092.83C632.296 1092.02 633.32 1091.62 634.515 1091.62C635.667 1091.62 636.648 1092.02 637.459 1092.83C638.312 1093.64 638.739 1094.69 638.739 1095.97C638.739 1097.25 638.312 1098.31 637.459 1099.17C636.648 1099.98 635.667 1100.38 634.515 1100.38ZM669.224 1100V1092.83L668.904 1091.49V1079.26C668.904 1076.66 668.136 1074.66 666.6 1073.25C665.106 1071.8 662.845 1071.07 659.816 1071.07C657.81 1071.07 655.848 1071.41 653.928 1072.1C652.008 1072.74 650.386 1073.61 649.064 1074.72L646.504 1070.11C648.253 1068.7 650.344 1067.64 652.776 1066.91C655.25 1066.14 657.832 1065.76 660.52 1065.76C665.17 1065.76 668.754 1066.89 671.272 1069.15C673.789 1071.41 675.048 1074.87 675.048 1079.52V1100H669.224ZM658.088 1100.38C655.57 1100.38 653.352 1099.96 651.432 1099.1C649.554 1098.25 648.104 1097.08 647.08 1095.58C646.056 1094.05 645.544 1092.32 645.544 1090.4C645.544 1088.57 645.97 1086.9 646.824 1085.41C647.72 1083.91 649.149 1082.72 651.112 1081.82C653.117 1080.93 655.805 1080.48 659.176 1080.48H669.928V1084.9H659.432C656.36 1084.9 654.29 1085.41 653.224 1086.43C652.157 1087.46 651.624 1088.69 651.624 1090.14C651.624 1091.81 652.285 1093.15 653.608 1094.18C654.93 1095.16 656.765 1095.65 659.112 1095.65C661.416 1095.65 663.421 1095.14 665.128 1094.11C666.877 1093.09 668.136 1091.59 668.904 1089.63L670.12 1093.86C669.309 1095.86 667.88 1097.46 665.832 1098.66C663.784 1099.81 661.202 1100.38 658.088 1100.38ZM686.418 1100V1066.08H692.562V1100H686.418ZM689.49 1059.55C688.295 1059.55 687.292 1059.17 686.482 1058.4C685.714 1057.63 685.33 1056.69 685.33 1055.58C685.33 1054.43 685.714 1053.47 686.482 1052.7C687.292 1051.94 688.295 1051.55 689.49 1051.55C690.684 1051.55 691.666 1051.94 692.434 1052.7C693.244 1053.43 693.65 1054.35 693.65 1055.46C693.65 1056.61 693.266 1057.59 692.498 1058.4C691.73 1059.17 690.727 1059.55 689.49 1059.55Z" fill="#F85DCD"/>
<path d="M317.568 479V415.212H325.04L367.231 467.609H363.313V415.212H372.425V479H364.953L322.762 426.603H326.681V479H317.568ZM420.223 479V468.794L419.767 466.88V449.475C419.767 445.77 418.673 442.914 416.486 440.91C414.36 438.844 411.14 437.811 406.827 437.811C403.972 437.811 401.177 438.297 398.444 439.269C395.71 440.181 393.401 441.426 391.518 443.006L387.873 436.445C390.364 434.44 393.341 432.921 396.803 431.888C400.327 430.795 404.002 430.248 407.83 430.248C414.451 430.248 419.554 431.858 423.139 435.078C426.723 438.297 428.515 443.218 428.515 449.84V479H420.223ZM404.367 479.547C400.783 479.547 397.624 478.939 394.89 477.724C392.217 476.509 390.151 474.839 388.693 472.712C387.235 470.525 386.506 468.065 386.506 465.331C386.506 462.719 387.114 460.35 388.329 458.223C389.605 456.097 391.64 454.396 394.434 453.12C397.289 451.845 401.117 451.207 405.916 451.207H421.225V457.494H406.28C401.906 457.494 398.96 458.223 397.441 459.681C395.923 461.139 395.163 462.901 395.163 464.967C395.163 467.336 396.105 469.25 397.988 470.708C399.871 472.105 402.484 472.803 405.825 472.803C409.105 472.803 411.961 472.074 414.391 470.616C416.881 469.158 418.673 467.032 419.767 464.238L421.498 470.252C420.344 473.107 418.309 475.385 415.393 477.086C412.477 478.727 408.802 479.547 404.367 479.547ZM505.12 430.248C509.008 430.248 512.44 431.007 515.417 432.526C518.394 434.045 520.702 436.353 522.342 439.452C524.043 442.55 524.894 446.468 524.894 451.207V479H516.146V452.209C516.146 447.531 515.052 444.008 512.865 441.639C510.678 439.269 507.611 438.085 503.662 438.085C500.746 438.085 498.194 438.692 496.007 439.907C493.82 441.122 492.119 442.914 490.904 445.284C489.75 447.653 489.173 450.599 489.173 454.123V479H480.425V452.209C480.425 447.531 479.331 444.008 477.144 441.639C475.018 439.269 471.95 438.085 467.941 438.085C465.086 438.085 462.564 438.692 460.377 439.907C458.19 441.122 456.489 442.914 455.274 445.284C454.059 447.653 453.452 450.599 453.452 454.123V479H444.704V430.704H453.087V443.552L451.721 440.272C453.239 437.113 455.578 434.652 458.737 432.891C461.896 431.129 465.572 430.248 469.763 430.248C474.38 430.248 478.359 431.402 481.701 433.711C485.042 435.959 487.229 439.391 488.262 444.008L484.708 442.55C486.166 438.844 488.717 435.867 492.362 433.62C496.007 431.372 500.26 430.248 505.12 430.248ZM570.97 479V468.794L570.515 466.88V449.475C570.515 445.77 569.421 442.914 567.234 440.91C565.108 438.844 561.888 437.811 557.575 437.811C554.72 437.811 551.925 438.297 549.192 439.269C546.458 440.181 544.149 441.426 542.266 443.006L538.621 436.445C541.112 434.44 544.089 432.921 547.551 431.888C551.075 430.795 554.75 430.248 558.577 430.248C565.199 430.248 570.302 431.858 573.886 435.078C577.471 438.297 579.263 443.218 579.263 449.84V479H570.97ZM555.115 479.547C551.53 479.547 548.371 478.939 545.638 477.724C542.965 476.509 540.899 474.839 539.441 472.712C537.983 470.525 537.254 468.065 537.254 465.331C537.254 462.719 537.862 460.35 539.077 458.223C540.352 456.097 542.388 454.396 545.182 453.12C548.037 451.845 551.865 451.207 556.664 451.207H571.973V457.494H557.028C552.654 457.494 549.708 458.223 548.189 459.681C546.67 461.139 545.911 462.901 545.911 464.967C545.911 467.336 546.853 469.25 548.736 470.708C550.619 472.105 553.231 472.803 556.573 472.803C559.853 472.803 562.708 472.074 565.138 470.616C567.629 469.158 569.421 467.032 570.515 464.238L572.246 470.252C571.092 473.107 569.057 475.385 566.141 477.086C563.225 478.727 559.549 479.547 555.115 479.547Z" fill="black"/>
<rect x="145" y="569" width="651" height="132" rx="21" fill="#D9D9D9"/>
</svg>
