<svg width="901" height="1201" viewBox="0 0 901 1201" fill="none" xmlns="http://www.w3.org/2000/svg">
<rect x="7" y="7" width="887" height="1187" rx="43" fill="white" stroke="#C3A7FF" stroke-width="14"/>
<path d="M445.919 252.936C438.067 252.936 430.268 251.914 422.523 249.871C414.779 247.719 408.217 244.707 402.839 240.835L413.004 220.827C417.306 223.947 422.308 226.421 428.009 228.249C433.71 230.078 439.465 230.992 445.274 230.992C451.836 230.992 456.999 229.702 460.764 227.12C464.529 224.538 466.411 220.989 466.411 216.471C466.411 212.168 464.744 208.78 461.409 206.306C458.075 203.832 452.696 202.595 445.274 202.595H433.334V185.33L464.797 149.671L467.702 159.03H408.486V138.054H487.548V154.996L456.246 190.655L443.015 183.071H450.599C464.475 183.071 474.963 186.191 482.062 192.43C489.162 198.668 492.711 206.682 492.711 216.471C492.711 222.817 491.044 228.787 487.709 234.381C484.375 239.867 479.265 244.331 472.381 247.773C465.497 251.215 456.676 252.936 445.919 252.936Z" fill="#E4A255"/>
<path d="M197.843 1022.51C191.955 1022.51 187.325 1020.83 183.955 1017.46C180.584 1014.09 178.899 1009.16 178.899 1002.67V977.2H185.299V1002.42C185.299 1007.41 186.387 1011.06 188.562 1013.36C190.781 1015.66 193.896 1016.82 197.907 1016.82C201.96 1016.82 205.075 1015.66 207.251 1013.36C209.469 1011.06 210.579 1007.41 210.579 1002.42V977.2H216.787V1002.67C216.787 1009.16 215.101 1014.09 211.731 1017.46C208.403 1020.83 203.773 1022.51 197.843 1022.51ZM246.996 1022.38C244.18 1022.38 241.598 1021.74 239.252 1020.46C236.948 1019.14 235.092 1017.2 233.684 1014.64C232.318 1012.08 231.635 1008.88 231.635 1005.04C231.635 1001.2 232.297 998 233.62 995.44C234.985 992.88 236.82 990.96 239.124 989.68C241.47 988.4 244.094 987.76 246.996 987.76C250.324 987.76 253.268 988.485 255.828 989.936C258.388 991.387 260.414 993.413 261.908 996.016C263.401 998.576 264.148 1001.58 264.148 1005.04C264.148 1008.5 263.401 1011.53 261.908 1014.13C260.414 1016.73 258.388 1018.76 255.828 1020.21C253.268 1021.66 250.324 1022.38 246.996 1022.38ZM229.012 1034.42V988.08H234.9V997.232L234.516 1005.1L235.156 1012.98V1034.42H229.012ZM246.484 1017.01C248.66 1017.01 250.601 1016.52 252.308 1015.54C254.057 1014.55 255.422 1013.17 256.404 1011.38C257.428 1009.54 257.94 1007.43 257.94 1005.04C257.94 1002.61 257.428 1000.52 256.404 998.768C255.422 996.976 254.057 995.589 252.308 994.608C250.601 993.627 248.66 993.136 246.484 993.136C244.35 993.136 242.409 993.627 240.66 994.608C238.953 995.589 237.588 996.976 236.564 998.768C235.582 1000.52 235.092 1002.61 235.092 1005.04C235.092 1007.43 235.582 1009.54 236.564 1011.38C237.588 1013.17 238.953 1014.55 240.66 1015.54C242.409 1016.52 244.35 1017.01 246.484 1017.01ZM272.637 1022V974.512H278.781V1022H272.637ZM305.04 1022.38C301.626 1022.38 298.597 1021.64 295.952 1020.14C293.306 1018.65 291.216 1016.6 289.68 1014C288.144 1011.35 287.376 1008.37 287.376 1005.04C287.376 1001.67 288.144 998.683 289.68 996.08C291.216 993.477 293.306 991.451 295.952 990C298.597 988.507 301.626 987.76 305.04 987.76C308.41 987.76 311.418 988.507 314.064 990C316.752 991.451 318.842 993.477 320.336 996.08C321.872 998.64 322.64 1001.63 322.64 1005.04C322.64 1008.41 321.872 1011.4 320.336 1014C318.842 1016.6 316.752 1018.65 314.064 1020.14C311.418 1021.64 308.41 1022.38 305.04 1022.38ZM305.04 1017.01C307.216 1017.01 309.157 1016.52 310.864 1015.54C312.613 1014.55 313.978 1013.17 314.96 1011.38C315.941 1009.54 316.432 1007.43 316.432 1005.04C316.432 1002.61 315.941 1000.52 314.96 998.768C313.978 996.976 312.613 995.589 310.864 994.608C309.157 993.627 307.216 993.136 305.04 993.136C302.864 993.136 300.922 993.627 299.216 994.608C297.509 995.589 296.144 996.976 295.12 998.768C294.096 1000.52 293.584 1002.61 293.584 1005.04C293.584 1007.43 294.096 1009.54 295.12 1011.38C296.144 1013.17 297.509 1014.55 299.216 1015.54C300.922 1016.52 302.864 1017.01 305.04 1017.01ZM351.88 1022V1014.83L351.56 1013.49V1001.26C351.56 998.661 350.792 996.656 349.256 995.248C347.763 993.797 345.501 993.072 342.472 993.072C340.467 993.072 338.504 993.413 336.584 994.096C334.664 994.736 333.043 995.611 331.72 996.72L329.16 992.112C330.909 990.704 333 989.637 335.432 988.912C337.907 988.144 340.488 987.76 343.176 987.76C347.827 987.76 351.411 988.891 353.928 991.152C356.445 993.413 357.704 996.869 357.704 1001.52V1022H351.88ZM340.744 1022.38C338.227 1022.38 336.008 1021.96 334.088 1021.1C332.211 1020.25 330.76 1019.08 329.736 1017.58C328.712 1016.05 328.2 1014.32 328.2 1012.4C328.2 1010.57 328.627 1008.9 329.48 1007.41C330.376 1005.91 331.805 1004.72 333.768 1003.82C335.773 1002.93 338.461 1002.48 341.832 1002.48H352.584V1006.9H342.088C339.016 1006.9 336.947 1007.41 335.88 1008.43C334.813 1009.46 334.28 1010.69 334.28 1012.14C334.28 1013.81 334.941 1015.15 336.264 1016.18C337.587 1017.16 339.421 1017.65 341.768 1017.65C344.072 1017.65 346.077 1017.14 347.784 1016.11C349.533 1015.09 350.792 1013.59 351.56 1011.63L352.776 1015.86C351.965 1017.86 350.536 1019.46 348.488 1020.66C346.44 1021.81 343.859 1022.38 340.744 1022.38ZM383.09 1022.38C379.805 1022.38 376.861 1021.66 374.258 1020.21C371.698 1018.76 369.671 1016.73 368.178 1014.13C366.685 1011.53 365.938 1008.5 365.938 1005.04C365.938 1001.58 366.685 998.576 368.178 996.016C369.671 993.413 371.698 991.387 374.258 989.936C376.861 988.485 379.805 987.76 383.09 987.76C385.949 987.76 388.53 988.4 390.834 989.68C393.138 990.96 394.973 992.88 396.338 995.44C397.746 998 398.45 1001.2 398.45 1005.04C398.45 1008.88 397.767 1012.08 396.402 1014.64C395.079 1017.2 393.266 1019.14 390.962 1020.46C388.658 1021.74 386.034 1022.38 383.09 1022.38ZM383.602 1017.01C385.735 1017.01 387.655 1016.52 389.362 1015.54C391.111 1014.55 392.477 1013.17 393.458 1011.38C394.482 1009.54 394.994 1007.43 394.994 1005.04C394.994 1002.61 394.482 1000.52 393.458 998.768C392.477 996.976 391.111 995.589 389.362 994.608C387.655 993.627 385.735 993.136 383.602 993.136C381.426 993.136 379.485 993.627 377.778 994.608C376.071 995.589 374.706 996.976 373.682 998.768C372.658 1000.52 372.146 1002.61 372.146 1005.04C372.146 1007.43 372.658 1009.54 373.682 1011.38C374.706 1013.17 376.071 1014.55 377.778 1015.54C379.485 1016.52 381.426 1017.01 383.602 1017.01ZM395.186 1022V1012.85L395.57 1004.98L394.93 997.104V974.512H401.074V1022H395.186ZM430.783 1022V985.072C430.783 981.744 431.743 979.099 433.663 977.136C435.625 975.131 438.399 974.128 441.983 974.128C443.305 974.128 444.564 974.299 445.759 974.64C446.996 974.939 448.041 975.429 448.895 976.112L447.039 980.784C446.399 980.272 445.673 979.888 444.863 979.632C444.052 979.333 443.199 979.184 442.303 979.184C440.511 979.184 439.145 979.696 438.207 980.72C437.268 981.701 436.799 983.173 436.799 985.136V989.68L436.927 992.496V1022H430.783ZM425.023 993.136V988.08H446.655V993.136H425.023ZM452.479 1022V988.08H458.623V1022H452.479ZM455.551 981.552C454.356 981.552 453.353 981.168 452.543 980.4C451.775 979.632 451.391 978.693 451.391 977.584C451.391 976.432 451.775 975.472 452.543 974.704C453.353 973.936 454.356 973.552 455.551 973.552C456.745 973.552 457.727 973.936 458.495 974.704C459.305 975.429 459.711 976.347 459.711 977.456C459.711 978.608 459.327 979.589 458.559 980.4C457.791 981.168 456.788 981.552 455.551 981.552ZM470.324 1022V974.512H476.468V1022H470.324ZM503.303 1022.38C499.676 1022.38 496.476 1021.64 493.703 1020.14C490.972 1018.65 488.839 1016.6 487.303 1014C485.81 1011.4 485.063 1008.41 485.063 1005.04C485.063 1001.67 485.788 998.683 487.239 996.08C488.732 993.477 490.759 991.451 493.319 990C495.922 988.507 498.844 987.76 502.087 987.76C505.372 987.76 508.274 988.485 510.791 989.936C513.308 991.387 515.271 993.435 516.679 996.08C518.13 998.683 518.855 1001.73 518.855 1005.23C518.855 1005.49 518.834 1005.79 518.791 1006.13C518.791 1006.47 518.77 1006.79 518.727 1007.09H489.863V1002.67H515.527L513.031 1004.21C513.074 1002.03 512.626 1000.09 511.687 998.384C510.748 996.677 509.447 995.355 507.783 994.416C506.162 993.435 504.263 992.944 502.087 992.944C499.954 992.944 498.055 993.435 496.391 994.416C494.727 995.355 493.426 996.699 492.487 998.448C491.548 1000.15 491.079 1002.12 491.079 1004.34V1005.36C491.079 1007.62 491.591 1009.65 492.615 1011.44C493.682 1013.19 495.154 1014.55 497.031 1015.54C498.908 1016.52 501.063 1017.01 503.495 1017.01C505.5 1017.01 507.314 1016.67 508.935 1015.98C510.599 1015.3 512.05 1014.28 513.287 1012.91L516.679 1016.88C515.143 1018.67 513.223 1020.04 510.919 1020.98C508.658 1021.91 506.119 1022.38 503.303 1022.38ZM565.63 1022V1014.83L565.31 1013.49V1001.26C565.31 998.661 564.542 996.656 563.006 995.248C561.513 993.797 559.251 993.072 556.222 993.072C554.217 993.072 552.254 993.413 550.334 994.096C548.414 994.736 546.793 995.611 545.47 996.72L542.91 992.112C544.659 990.704 546.75 989.637 549.182 988.912C551.657 988.144 554.238 987.76 556.926 987.76C561.577 987.76 565.161 988.891 567.678 991.152C570.195 993.413 571.454 996.869 571.454 1001.52V1022H565.63ZM554.494 1022.38C551.977 1022.38 549.758 1021.96 547.838 1021.1C545.961 1020.25 544.51 1019.08 543.486 1017.58C542.462 1016.05 541.95 1014.32 541.95 1012.4C541.95 1010.57 542.377 1008.9 543.23 1007.41C544.126 1005.91 545.555 1004.72 547.518 1003.82C549.523 1002.93 552.211 1002.48 555.582 1002.48H566.334V1006.9H555.838C552.766 1006.9 550.697 1007.41 549.63 1008.43C548.563 1009.46 548.03 1010.69 548.03 1012.14C548.03 1013.81 548.691 1015.15 550.014 1016.18C551.337 1017.16 553.171 1017.65 555.518 1017.65C557.822 1017.65 559.827 1017.14 561.534 1016.11C563.283 1015.09 564.542 1013.59 565.31 1011.63L566.526 1015.86C565.715 1017.86 564.286 1019.46 562.238 1020.66C560.19 1021.81 557.609 1022.38 554.494 1022.38ZM597.096 1022.38C594.195 1022.38 591.635 1021.85 589.416 1020.78C587.24 1019.72 585.533 1018.1 584.296 1015.92C583.101 1013.7 582.504 1010.93 582.504 1007.6V988.08H588.648V1006.9C588.648 1010.22 589.437 1012.72 591.016 1014.38C592.637 1016.05 594.899 1016.88 597.8 1016.88C599.933 1016.88 601.789 1016.45 603.368 1015.6C604.947 1014.7 606.163 1013.42 607.016 1011.76C607.869 1010.05 608.296 1008.01 608.296 1005.62V988.08H614.44V1022H608.616V1012.85L609.576 1015.28C608.467 1017.54 606.803 1019.29 604.584 1020.53C602.365 1021.77 599.869 1022.38 597.096 1022.38ZM640.153 1022.38C636.867 1022.38 633.923 1021.66 631.321 1020.21C628.761 1018.76 626.734 1016.73 625.241 1014.13C623.747 1011.53 623.001 1008.5 623.001 1005.04C623.001 1001.58 623.747 998.576 625.241 996.016C626.734 993.413 628.761 991.387 631.321 989.936C633.923 988.485 636.867 987.76 640.153 987.76C643.011 987.76 645.593 988.4 647.897 989.68C650.201 990.96 652.035 992.88 653.401 995.44C654.809 998 655.513 1001.2 655.513 1005.04C655.513 1008.88 654.83 1012.08 653.465 1014.64C652.142 1017.2 650.329 1019.14 648.025 1020.46C645.721 1021.74 643.097 1022.38 640.153 1022.38ZM640.665 1017.01C642.798 1017.01 644.718 1016.52 646.425 1015.54C648.174 1014.55 649.539 1013.17 650.521 1011.38C651.545 1009.54 652.057 1007.43 652.057 1005.04C652.057 1002.61 651.545 1000.52 650.521 998.768C649.539 996.976 648.174 995.589 646.425 994.608C644.718 993.627 642.798 993.136 640.665 993.136C638.489 993.136 636.547 993.627 634.841 994.608C633.134 995.589 631.769 996.976 630.745 998.768C629.721 1000.52 629.209 1002.61 629.209 1005.04C629.209 1007.43 629.721 1009.54 630.745 1011.38C631.769 1013.17 633.134 1014.55 634.841 1015.54C636.547 1016.52 638.489 1017.01 640.665 1017.01ZM652.249 1022V1012.85L652.632 1004.98L651.993 997.104V974.512H658.137V1022H652.249ZM669.762 1022V988.08H675.906V1022H669.762ZM672.834 981.552C671.639 981.552 670.636 981.168 669.826 980.4C669.058 979.632 668.674 978.693 668.674 977.584C668.674 976.432 669.058 975.472 669.826 974.704C670.636 973.936 671.639 973.552 672.834 973.552C674.028 973.552 675.01 973.936 675.778 974.704C676.588 975.429 676.994 976.347 676.994 977.456C676.994 978.608 676.61 979.589 675.842 980.4C675.074 981.168 674.071 981.552 672.834 981.552ZM702.165 1022.38C698.751 1022.38 695.722 1021.64 693.077 1020.14C690.431 1018.65 688.341 1016.6 686.805 1014C685.269 1011.35 684.501 1008.37 684.501 1005.04C684.501 1001.67 685.269 998.683 686.805 996.08C688.341 993.477 690.431 991.451 693.077 990C695.722 988.507 698.751 987.76 702.165 987.76C705.535 987.76 708.543 988.507 711.189 990C713.877 991.451 715.967 993.477 717.461 996.08C718.997 998.64 719.765 1001.63 719.765 1005.04C719.765 1008.41 718.997 1011.4 717.461 1014C715.967 1016.6 713.877 1018.65 711.189 1020.14C708.543 1021.64 705.535 1022.38 702.165 1022.38ZM702.165 1017.01C704.341 1017.01 706.282 1016.52 707.989 1015.54C709.738 1014.55 711.103 1013.17 712.085 1011.38C713.066 1009.54 713.557 1007.43 713.557 1005.04C713.557 1002.61 713.066 1000.52 712.085 998.768C711.103 996.976 709.738 995.589 707.989 994.608C706.282 993.627 704.341 993.136 702.165 993.136C699.989 993.136 698.047 993.627 696.341 994.608C694.634 995.589 693.269 996.976 692.245 998.768C691.221 1000.52 690.709 1002.61 690.709 1005.04C690.709 1007.43 691.221 1009.54 692.245 1011.38C693.269 1013.17 694.634 1014.55 696.341 1015.54C698.047 1016.52 699.989 1017.01 702.165 1017.01ZM193.184 1100.38C189.898 1100.38 186.954 1099.66 184.352 1098.21C181.792 1096.76 179.765 1094.73 178.272 1092.13C176.778 1089.53 176.032 1086.5 176.032 1083.04C176.032 1079.58 176.778 1076.58 178.272 1074.02C179.765 1071.41 181.792 1069.39 184.352 1067.94C186.954 1066.49 189.898 1065.76 193.184 1065.76C196.042 1065.76 198.624 1066.4 200.928 1067.68C203.232 1068.96 205.066 1070.88 206.432 1073.44C207.84 1076 208.544 1079.2 208.544 1083.04C208.544 1086.88 207.861 1090.08 206.496 1092.64C205.173 1095.2 203.36 1097.14 201.056 1098.46C198.752 1099.74 196.128 1100.38 193.184 1100.38ZM193.696 1095.01C195.829 1095.01 197.749 1094.52 199.456 1093.54C201.205 1092.55 202.57 1091.17 203.552 1089.38C204.576 1087.54 205.088 1085.43 205.088 1083.04C205.088 1080.61 204.576 1078.52 203.552 1076.77C202.57 1074.98 201.205 1073.59 199.456 1072.61C197.749 1071.63 195.829 1071.14 193.696 1071.14C191.52 1071.14 189.578 1071.63 187.872 1072.61C186.165 1073.59 184.8 1074.98 183.776 1076.77C182.752 1078.52 182.24 1080.61 182.24 1083.04C182.24 1085.43 182.752 1087.54 183.776 1089.38C184.8 1091.17 186.165 1092.55 187.872 1093.54C189.578 1094.52 191.52 1095.01 193.696 1095.01ZM205.28 1100V1090.85L205.664 1082.98L205.024 1075.1V1052.51H211.168V1100H205.28ZM222.793 1100V1066.08H228.937V1100H222.793ZM225.865 1059.55C224.67 1059.55 223.667 1059.17 222.857 1058.4C222.089 1057.63 221.705 1056.69 221.705 1055.58C221.705 1054.43 222.089 1053.47 222.857 1052.7C223.667 1051.94 224.67 1051.55 225.865 1051.55C227.059 1051.55 228.041 1051.94 228.809 1052.7C229.619 1053.43 230.025 1054.35 230.025 1055.46C230.025 1056.61 229.641 1057.59 228.873 1058.4C228.105 1059.17 227.102 1059.55 225.865 1059.55ZM275.839 1100.38C272.938 1100.38 270.314 1099.74 267.967 1098.46C265.663 1097.14 263.829 1095.2 262.463 1092.64C261.141 1090.08 260.479 1086.88 260.479 1083.04C260.479 1079.2 261.162 1076 262.527 1073.44C263.935 1070.88 265.791 1068.96 268.095 1067.68C270.442 1066.4 273.023 1065.76 275.839 1065.76C279.167 1065.76 282.111 1066.49 284.671 1067.94C287.231 1069.39 289.258 1071.41 290.751 1074.02C292.245 1076.58 292.991 1079.58 292.991 1083.04C292.991 1086.5 292.245 1089.53 290.751 1092.13C289.258 1094.73 287.231 1096.76 284.671 1098.21C282.111 1099.66 279.167 1100.38 275.839 1100.38ZM257.855 1100V1052.51H263.999V1075.1L263.359 1082.98L263.743 1090.85V1100H257.855ZM275.327 1095.01C277.503 1095.01 279.445 1094.52 281.151 1093.54C282.901 1092.55 284.266 1091.17 285.247 1089.38C286.271 1087.54 286.783 1085.43 286.783 1083.04C286.783 1080.61 286.271 1078.52 285.247 1076.77C284.266 1074.98 282.901 1073.59 281.151 1072.61C279.445 1071.63 277.503 1071.14 275.327 1071.14C273.194 1071.14 271.253 1071.63 269.503 1072.61C267.797 1073.59 266.431 1074.98 265.407 1076.77C264.426 1078.52 263.935 1080.61 263.935 1083.04C263.935 1085.43 264.426 1087.54 265.407 1089.38C266.431 1091.17 267.797 1092.55 269.503 1093.54C271.253 1094.52 273.194 1095.01 275.327 1095.01ZM322.224 1100V1092.83L321.904 1091.49V1079.26C321.904 1076.66 321.136 1074.66 319.6 1073.25C318.106 1071.8 315.845 1071.07 312.816 1071.07C310.81 1071.07 308.848 1071.41 306.928 1072.1C305.008 1072.74 303.386 1073.61 302.064 1074.72L299.504 1070.11C301.253 1068.7 303.344 1067.64 305.776 1066.91C308.25 1066.14 310.832 1065.76 313.52 1065.76C318.17 1065.76 321.754 1066.89 324.272 1069.15C326.789 1071.41 328.048 1074.87 328.048 1079.52V1100H322.224ZM311.088 1100.38C308.57 1100.38 306.352 1099.96 304.432 1099.1C302.554 1098.25 301.104 1097.08 300.08 1095.58C299.056 1094.05 298.544 1092.32 298.544 1090.4C298.544 1088.57 298.97 1086.9 299.824 1085.41C300.72 1083.91 302.149 1082.72 304.112 1081.82C306.117 1080.93 308.805 1080.48 312.176 1080.48H322.928V1084.9H312.432C309.36 1084.9 307.29 1085.41 306.224 1086.43C305.157 1087.46 304.624 1088.69 304.624 1090.14C304.624 1091.81 305.285 1093.15 306.608 1094.18C307.93 1095.16 309.765 1095.65 312.112 1095.65C314.416 1095.65 316.421 1095.14 318.128 1094.11C319.877 1093.09 321.136 1091.59 321.904 1089.63L323.12 1093.86C322.309 1095.86 320.88 1097.46 318.832 1098.66C316.784 1099.81 314.202 1100.38 311.088 1100.38ZM354.266 1112.8C351.151 1112.8 348.122 1112.35 345.178 1111.46C342.276 1110.6 339.908 1109.37 338.074 1107.74L341.018 1103.01C342.596 1104.37 344.538 1105.44 346.842 1106.21C349.146 1107.02 351.556 1107.42 354.074 1107.42C358.084 1107.42 361.028 1106.49 362.906 1104.61C364.783 1102.73 365.722 1099.87 365.722 1096.03V1088.86L366.362 1082.14L366.042 1075.36V1066.08H371.866V1095.39C371.866 1101.37 370.372 1105.76 367.386 1108.58C364.399 1111.39 360.026 1112.8 354.266 1112.8ZM353.498 1098.59C350.212 1098.59 347.268 1097.91 344.666 1096.54C342.106 1095.14 340.058 1093.19 338.522 1090.72C337.028 1088.25 336.282 1085.39 336.282 1082.14C336.282 1078.86 337.028 1076 338.522 1073.57C340.058 1071.09 342.106 1069.17 344.666 1067.81C347.268 1066.44 350.212 1065.76 353.498 1065.76C356.399 1065.76 359.044 1066.36 361.434 1067.55C363.823 1068.7 365.722 1070.5 367.13 1072.93C368.58 1075.36 369.306 1078.43 369.306 1082.14C369.306 1085.81 368.58 1088.86 367.13 1091.3C365.722 1093.73 363.823 1095.56 361.434 1096.8C359.044 1097.99 356.399 1098.59 353.498 1098.59ZM354.202 1093.22C356.463 1093.22 358.468 1092.75 360.218 1091.81C361.967 1090.87 363.332 1089.57 364.314 1087.9C365.338 1086.24 365.85 1084.32 365.85 1082.14C365.85 1079.97 365.338 1078.05 364.314 1076.38C363.332 1074.72 361.967 1073.44 360.218 1072.54C358.468 1071.61 356.463 1071.14 354.202 1071.14C351.94 1071.14 349.914 1071.61 348.122 1072.54C346.372 1073.44 344.986 1074.72 343.962 1076.38C342.98 1078.05 342.49 1079.97 342.49 1082.14C342.49 1084.32 342.98 1086.24 343.962 1087.9C344.986 1089.57 346.372 1090.87 348.122 1091.81C349.914 1092.75 351.94 1093.22 354.202 1093.22ZM383.605 1100V1066.08H389.749V1100H383.605ZM386.677 1059.55C385.483 1059.55 384.48 1059.17 383.669 1058.4C382.901 1057.63 382.517 1056.69 382.517 1055.58C382.517 1054.43 382.901 1053.47 383.669 1052.7C384.48 1051.94 385.483 1051.55 386.677 1051.55C387.872 1051.55 388.853 1051.94 389.621 1052.7C390.432 1053.43 390.837 1054.35 390.837 1055.46C390.837 1056.61 390.453 1057.59 389.685 1058.4C388.917 1059.17 387.915 1059.55 386.677 1059.55ZM422.536 1100V1092.83L422.216 1091.49V1079.26C422.216 1076.66 421.448 1074.66 419.912 1073.25C418.419 1071.8 416.158 1071.07 413.128 1071.07C411.123 1071.07 409.16 1071.41 407.24 1072.1C405.32 1072.74 403.699 1073.61 402.376 1074.72L399.816 1070.11C401.566 1068.7 403.656 1067.64 406.088 1066.91C408.563 1066.14 411.144 1065.76 413.832 1065.76C418.483 1065.76 422.067 1066.89 424.584 1069.15C427.102 1071.41 428.36 1074.87 428.36 1079.52V1100H422.536ZM411.4 1100.38C408.883 1100.38 406.664 1099.96 404.744 1099.1C402.867 1098.25 401.416 1097.08 400.392 1095.58C399.368 1094.05 398.856 1092.32 398.856 1090.4C398.856 1088.57 399.283 1086.9 400.136 1085.41C401.032 1083.91 402.462 1082.72 404.424 1081.82C406.43 1080.93 409.118 1080.48 412.488 1080.48H423.24V1084.9H412.744C409.672 1084.9 407.603 1085.41 406.536 1086.43C405.47 1087.46 404.936 1088.69 404.936 1090.14C404.936 1091.81 405.598 1093.15 406.92 1094.18C408.243 1095.16 410.078 1095.65 412.424 1095.65C414.728 1095.65 416.734 1095.14 418.44 1094.11C420.19 1093.09 421.448 1091.59 422.216 1089.63L423.432 1093.86C422.622 1095.86 421.192 1097.46 419.144 1098.66C417.096 1099.81 414.515 1100.38 411.4 1100.38ZM457.842 1065.76C460.616 1065.76 463.048 1066.29 465.138 1067.36C467.272 1068.43 468.936 1070.05 470.13 1072.22C471.325 1074.4 471.922 1077.15 471.922 1080.48V1100H465.778V1081.18C465.778 1077.9 464.968 1075.42 463.346 1073.76C461.768 1072.1 459.528 1071.26 456.626 1071.26C454.45 1071.26 452.552 1071.69 450.93 1072.54C449.309 1073.4 448.05 1074.66 447.154 1076.32C446.301 1077.98 445.874 1080.05 445.874 1082.53V1100H439.73V1066.08H445.618V1075.23L444.658 1072.8C445.768 1070.58 447.474 1068.85 449.778 1067.62C452.082 1066.38 454.77 1065.76 457.842 1065.76ZM514.752 1100.38C511.851 1100.38 509.291 1099.85 507.072 1098.78C504.896 1097.72 503.19 1096.1 501.952 1093.92C500.758 1091.7 500.16 1088.93 500.16 1085.6V1066.08H506.304V1084.9C506.304 1088.22 507.094 1090.72 508.672 1092.38C510.294 1094.05 512.555 1094.88 515.456 1094.88C517.59 1094.88 519.446 1094.45 521.024 1093.6C522.603 1092.7 523.819 1091.42 524.672 1089.76C525.526 1088.05 525.952 1086.01 525.952 1083.62V1066.08H532.096V1100H526.272V1090.85L527.232 1093.28C526.123 1095.54 524.459 1097.29 522.24 1098.53C520.022 1099.77 517.526 1100.38 514.752 1100.38ZM561.777 1100.38C558.961 1100.38 556.379 1099.74 554.033 1098.46C551.729 1097.14 549.873 1095.2 548.465 1092.64C547.099 1090.08 546.417 1086.88 546.417 1083.04C546.417 1079.2 547.078 1076 548.401 1073.44C549.766 1070.88 551.601 1068.96 553.905 1067.68C556.251 1066.4 558.875 1065.76 561.777 1065.76C565.105 1065.76 568.049 1066.49 570.609 1067.94C573.169 1069.39 575.195 1071.41 576.689 1074.02C578.182 1076.58 578.929 1079.58 578.929 1083.04C578.929 1086.5 578.182 1089.53 576.689 1092.13C575.195 1094.73 573.169 1096.76 570.609 1098.21C568.049 1099.66 565.105 1100.38 561.777 1100.38ZM543.793 1112.42V1066.08H549.681V1075.23L549.297 1083.1L549.937 1090.98V1112.42H543.793ZM561.265 1095.01C563.441 1095.01 565.382 1094.52 567.089 1093.54C568.838 1092.55 570.203 1091.17 571.185 1089.38C572.209 1087.54 572.721 1085.43 572.721 1083.04C572.721 1080.61 572.209 1078.52 571.185 1076.77C570.203 1074.98 568.838 1073.59 567.089 1072.61C565.382 1071.63 563.441 1071.14 561.265 1071.14C559.131 1071.14 557.19 1071.63 555.441 1072.61C553.734 1073.59 552.369 1074.98 551.345 1076.77C550.363 1078.52 549.873 1080.61 549.873 1083.04C549.873 1085.43 550.363 1087.54 551.345 1089.38C552.369 1091.17 553.734 1092.55 555.441 1093.54C557.19 1094.52 559.131 1095.01 561.265 1095.01ZM587.418 1100V1052.51H593.562V1100H587.418ZM619.821 1100.38C616.407 1100.38 613.378 1099.64 610.733 1098.14C608.087 1096.65 605.997 1094.6 604.461 1092C602.925 1089.35 602.157 1086.37 602.157 1083.04C602.157 1079.67 602.925 1076.68 604.461 1074.08C605.997 1071.48 608.087 1069.45 610.733 1068C613.378 1066.51 616.407 1065.76 619.821 1065.76C623.191 1065.76 626.199 1066.51 628.845 1068C631.533 1069.45 633.623 1071.48 635.117 1074.08C636.653 1076.64 637.421 1079.63 637.421 1083.04C637.421 1086.41 636.653 1089.4 635.117 1092C633.623 1094.6 631.533 1096.65 628.845 1098.14C626.199 1099.64 623.191 1100.38 619.821 1100.38ZM619.821 1095.01C621.997 1095.01 623.938 1094.52 625.645 1093.54C627.394 1092.55 628.759 1091.17 629.741 1089.38C630.722 1087.54 631.213 1085.43 631.213 1083.04C631.213 1080.61 630.722 1078.52 629.741 1076.77C628.759 1074.98 627.394 1073.59 625.645 1072.61C623.938 1071.63 621.997 1071.14 619.821 1071.14C617.645 1071.14 615.703 1071.63 613.997 1072.61C612.29 1073.59 610.925 1074.98 609.901 1076.77C608.877 1078.52 608.365 1080.61 608.365 1083.04C608.365 1085.43 608.877 1087.54 609.901 1089.38C610.925 1091.17 612.29 1092.55 613.997 1093.54C615.703 1094.52 617.645 1095.01 619.821 1095.01ZM666.661 1100V1092.83L666.341 1091.49V1079.26C666.341 1076.66 665.573 1074.66 664.037 1073.25C662.544 1071.8 660.283 1071.07 657.253 1071.07C655.248 1071.07 653.285 1071.41 651.365 1072.1C649.445 1072.74 647.824 1073.61 646.501 1074.72L643.941 1070.11C645.691 1068.7 647.781 1067.64 650.213 1066.91C652.688 1066.14 655.269 1065.76 657.957 1065.76C662.608 1065.76 666.192 1066.89 668.709 1069.15C671.227 1071.41 672.485 1074.87 672.485 1079.52V1100H666.661ZM655.525 1100.38C653.008 1100.38 650.789 1099.96 648.869 1099.1C646.992 1098.25 645.541 1097.08 644.517 1095.58C643.493 1094.05 642.981 1092.32 642.981 1090.4C642.981 1088.57 643.408 1086.9 644.261 1085.41C645.157 1083.91 646.587 1082.72 648.549 1081.82C650.555 1080.93 653.243 1080.48 656.613 1080.48H667.365V1084.9H656.869C653.797 1084.9 651.728 1085.41 650.661 1086.43C649.595 1087.46 649.061 1088.69 649.061 1090.14C649.061 1091.81 649.723 1093.15 651.045 1094.18C652.368 1095.16 654.203 1095.65 656.549 1095.65C658.853 1095.65 660.859 1095.14 662.565 1094.11C664.315 1093.09 665.573 1091.59 666.341 1089.63L667.557 1093.86C666.747 1095.86 665.317 1097.46 663.269 1098.66C661.221 1099.81 658.64 1100.38 655.525 1100.38ZM697.871 1100.38C694.586 1100.38 691.642 1099.66 689.039 1098.21C686.479 1096.76 684.453 1094.73 682.959 1092.13C681.466 1089.53 680.719 1086.5 680.719 1083.04C680.719 1079.58 681.466 1076.58 682.959 1074.02C684.453 1071.41 686.479 1069.39 689.039 1067.94C691.642 1066.49 694.586 1065.76 697.871 1065.76C700.73 1065.76 703.311 1066.4 705.615 1067.68C707.919 1068.96 709.754 1070.88 711.119 1073.44C712.527 1076 713.231 1079.2 713.231 1083.04C713.231 1086.88 712.549 1090.08 711.183 1092.64C709.861 1095.2 708.047 1097.14 705.743 1098.46C703.439 1099.74 700.815 1100.38 697.871 1100.38ZM698.383 1095.01C700.517 1095.01 702.437 1094.52 704.143 1093.54C705.893 1092.55 707.258 1091.17 708.239 1089.38C709.263 1087.54 709.775 1085.43 709.775 1083.04C709.775 1080.61 709.263 1078.52 708.239 1076.77C707.258 1074.98 705.893 1073.59 704.143 1072.61C702.437 1071.63 700.517 1071.14 698.383 1071.14C696.207 1071.14 694.266 1071.63 692.559 1072.61C690.853 1073.59 689.487 1074.98 688.463 1076.77C687.439 1078.52 686.927 1080.61 686.927 1083.04C686.927 1085.43 687.439 1087.54 688.463 1089.38C689.487 1091.17 690.853 1092.55 692.559 1093.54C694.266 1094.52 696.207 1095.01 698.383 1095.01ZM709.967 1100V1090.85L710.351 1082.98L709.711 1075.1V1052.51H715.855V1100H709.967Z" fill="#F85DCD"/>
<rect x="189" y="402" width="523" height="333" fill="#D9D9D9"/>
<path d="M389.8 469.32C386.12 469.32 383.227 468.267 381.12 466.16C379.013 464.053 377.96 460.973 377.96 456.92V441H381.96V456.76C381.96 459.88 382.64 462.16 384 463.6C385.387 465.04 387.333 465.76 389.84 465.76C392.373 465.76 394.32 465.04 395.68 463.6C397.067 462.16 397.76 459.88 397.76 456.76V441H401.64V456.92C401.64 460.973 400.587 464.053 398.48 466.16C396.4 468.267 393.507 469.32 389.8 469.32ZM420.521 469.24C418.761 469.24 417.147 468.84 415.681 468.04C414.241 467.213 413.081 466 412.201 464.4C411.347 462.8 410.921 460.8 410.921 458.4C410.921 456 411.334 454 412.161 452.4C413.014 450.8 414.161 449.6 415.601 448.8C417.067 448 418.707 447.6 420.521 447.6C422.601 447.6 424.441 448.053 426.041 448.96C427.641 449.867 428.907 451.133 429.841 452.76C430.774 454.36 431.241 456.24 431.241 458.4C431.241 460.56 430.774 462.453 429.841 464.08C428.907 465.707 427.641 466.973 426.041 467.88C424.441 468.787 422.601 469.24 420.521 469.24ZM409.281 476.76V447.8H412.961V453.52L412.721 458.44L413.121 463.36V476.76H409.281ZM420.201 465.88C421.561 465.88 422.774 465.573 423.841 464.96C424.934 464.347 425.787 463.48 426.401 462.36C427.041 461.213 427.361 459.893 427.361 458.4C427.361 456.88 427.041 455.573 426.401 454.48C425.787 453.36 424.934 452.493 423.841 451.88C422.774 451.267 421.561 450.96 420.201 450.96C418.867 450.96 417.654 451.267 416.561 451.88C415.494 452.493 414.641 453.36 414.001 454.48C413.387 455.573 413.081 456.88 413.081 458.4C413.081 459.893 413.387 461.213 414.001 462.36C414.641 463.48 415.494 464.347 416.561 464.96C417.654 465.573 418.867 465.88 420.201 465.88ZM436.546 469V439.32H440.386V469H436.546ZM456.798 469.24C454.665 469.24 452.771 468.773 451.118 467.84C449.465 466.907 448.158 465.627 447.198 464C446.238 462.347 445.758 460.48 445.758 458.4C445.758 456.293 446.238 454.427 447.198 452.8C448.158 451.173 449.465 449.907 451.118 449C452.771 448.067 454.665 447.6 456.798 447.6C458.905 447.6 460.785 448.067 462.438 449C464.118 449.907 465.425 451.173 466.358 452.8C467.318 454.4 467.798 456.267 467.798 458.4C467.798 460.507 467.318 462.373 466.358 464C465.425 465.627 464.118 466.907 462.438 467.84C460.785 468.773 458.905 469.24 456.798 469.24ZM456.798 465.88C458.158 465.88 459.371 465.573 460.438 464.96C461.531 464.347 462.385 463.48 462.998 462.36C463.611 461.213 463.918 459.893 463.918 458.4C463.918 456.88 463.611 455.573 462.998 454.48C462.385 453.36 461.531 452.493 460.438 451.88C459.371 451.267 458.158 450.96 456.798 450.96C455.438 450.96 454.225 451.267 453.158 451.88C452.091 452.493 451.238 453.36 450.598 454.48C449.958 455.573 449.638 456.88 449.638 458.4C449.638 459.893 449.958 461.213 450.598 462.36C451.238 463.48 452.091 464.347 453.158 464.96C454.225 465.573 455.438 465.88 456.798 465.88ZM486.073 469V464.52L485.873 463.68V456.04C485.873 454.413 485.393 453.16 484.433 452.28C483.5 451.373 482.087 450.92 480.193 450.92C478.94 450.92 477.713 451.133 476.513 451.56C475.313 451.96 474.3 452.507 473.473 453.2L471.873 450.32C472.967 449.44 474.273 448.773 475.793 448.32C477.34 447.84 478.953 447.6 480.633 447.6C483.54 447.6 485.78 448.307 487.353 449.72C488.927 451.133 489.713 453.293 489.713 456.2V469H486.073ZM479.113 469.24C477.54 469.24 476.153 468.973 474.953 468.44C473.78 467.907 472.873 467.173 472.233 466.24C471.593 465.28 471.273 464.2 471.273 463C471.273 461.853 471.54 460.813 472.073 459.88C472.633 458.947 473.527 458.2 474.753 457.64C476.007 457.08 477.687 456.8 479.793 456.8H486.513V459.56H479.953C478.033 459.56 476.74 459.88 476.073 460.52C475.407 461.16 475.073 461.933 475.073 462.84C475.073 463.88 475.487 464.72 476.313 465.36C477.14 465.973 478.287 466.28 479.753 466.28C481.193 466.28 482.447 465.96 483.513 465.32C484.607 464.68 485.393 463.747 485.873 462.52L486.633 465.16C486.127 466.413 485.233 467.413 483.953 468.16C482.673 468.88 481.06 469.24 479.113 469.24ZM505.58 469.24C503.526 469.24 501.686 468.787 500.06 467.88C498.46 466.973 497.193 465.707 496.26 464.08C495.326 462.453 494.86 460.56 494.86 458.4C494.86 456.24 495.326 454.36 496.26 452.76C497.193 451.133 498.46 449.867 500.06 448.96C501.686 448.053 503.526 447.6 505.58 447.6C507.366 447.6 508.98 448 510.42 448.8C511.86 449.6 513.006 450.8 513.86 452.4C514.74 454 515.18 456 515.18 458.4C515.18 460.8 514.753 462.8 513.9 464.4C513.073 466 511.94 467.213 510.5 468.04C509.06 468.84 507.42 469.24 505.58 469.24ZM505.9 465.88C507.233 465.88 508.433 465.573 509.5 464.96C510.593 464.347 511.446 463.48 512.06 462.36C512.7 461.213 513.02 459.893 513.02 458.4C513.02 456.88 512.7 455.573 512.06 454.48C511.446 453.36 510.593 452.493 509.5 451.88C508.433 451.267 507.233 450.96 505.9 450.96C504.54 450.96 503.326 451.267 502.26 451.88C501.193 452.493 500.34 453.36 499.7 454.48C499.06 455.573 498.74 456.88 498.74 458.4C498.74 459.893 499.06 461.213 499.7 462.36C500.34 463.48 501.193 464.347 502.26 464.96C503.326 465.573 504.54 465.88 505.9 465.88ZM513.14 469V463.28L513.38 458.36L512.98 453.44V439.32H516.82V469H513.14Z" fill="black"/>
<path d="M553 767L545.5 614.5L669 596L662 637L701 609L711.5 757L553 767Z" fill="white" stroke="black"/>
<path d="M598.898 623L563.613 645.007L558 654.009L584.463 645.007L594.888 697.022C583.347 701.523 574.038 758.54 623.758 726.03C663.533 700.023 629.104 695.855 606.917 697.022L598.898 623Z" fill="#636363"/>
<path d="M592 789.5L617 680L705 742.5L670.5 762L712 816L661.5 841L629.5 776L592 789.5Z" fill="black"/>
<circle cx="617.669" cy="670.329" r="1.66854" fill="#636363"/>
<path d="M619.754 655.937L627.888 678.88L631.017 675.96L633.311 680.34L641.028 678.045L636.648 664.697C639.651 667.7 642.21 665.114 643.114 663.446L647.911 676.585L657.713 674.5L652.29 658.231C648.286 652.892 641.167 656.771 639.359 659.691C635.188 653.851 627.888 657.258 624.76 659.691L623.717 655.937H619.754Z" fill="#636363"/>
<path d="M662.094 677.003L655.211 656.355C658.409 654.756 665.973 652.684 670.645 657.189C675.317 661.694 667.864 664.489 663.554 665.323L668.142 675.334L662.094 677.003Z" fill="#636363"/>
<path d="M661.885 662.935L658.965 658.764C660.077 657.86 663.136 656.303 666.473 657.304C669.81 658.305 664.805 661.475 661.885 662.935Z" fill="white"/>
<path d="M681.316 652.584C686.454 643.536 675.04 644.604 668.691 646.269L671.27 651.14C681.073 646.343 675.662 652.134 673.564 654.269L675.441 656.563C682.115 653.017 678.733 659.038 675.13 660.302L678.635 663.523C691.026 656.424 685.585 653.273 681.316 652.584Z" fill="#636363"/>
</svg>
