<svg width="115" height="519" viewBox="0 0 115 519" fill="none" xmlns="http://www.w3.org/2000/svg">
<path d="M107.335 87.8281C118.335 116.828 81.4352 148.928 89.8352 159.328C100.335 172.328 119.835 215.328 111.835 240.328C103.835 265.328 25.8347 389.328 55.8347 429.828C79.8347 462.228 100.168 502.328 107.335 518.328" stroke="url(#paint0_linear_0_1)" stroke-width="2" stroke-dasharray="4 4"/>
<g clip-path="url(#clip0_0_1)">
<path d="M51.6946 31.1757C56.7203 28.1522 61.9009 19.4777 62.641 13.2874C63.2147 8.57719 60.7076 4.30304 56.9326 6.02418C50.6218 8.90994 48.4187 24.337 48.9924 30.3266C49.5833 30.9003 50.4554 31.2216 51.6946 31.1757Z" fill="#BFDDE0"/>
<path d="M56.0428 37.8938C61.8831 38.2209 71.0625 33.9639 75.1645 29.2882C78.2913 25.7082 78.624 20.7571 74.5335 20.0629C67.6948 18.904 57.1902 30.4069 54.2757 35.6736C54.4421 36.4883 54.9871 37.2398 56.0428 37.8938Z" fill="#BFDDE0"/>
<path d="M54.7753 31.055C62.9392 43.0857 66.7773 60.67 52.5722 71.6737C29.0501 89.912 -16.5657 47.4459 12.2977 23.3673C28.31 10.0113 45.2631 17.0622 54.7753 31.055Z" fill="#F7CA4F"/>
<path d="M35.5445 30.8886C39.9793 35.7193 34.9995 41.4564 29.8992 40.1885C26.3651 39.3279 23.9613 35.6734 26.2561 32.1565C28.6428 28.5307 32.326 27.3718 35.5445 30.8886Z" fill="#FCF0E0"/>
<path d="M34.0016 29.724C36.9161 33.499 32.2231 39.173 28.2358 38.7083C26.8646 38.5534 26.136 37.756 25.7172 36.5626C25.2927 35.3693 25.1722 33.7572 26.3368 32.0647C28.4653 28.938 32.4009 27.6414 34.0016 29.724Z" fill="#654337"/>
<path d="M31.4649 29.9193C32.3714 30.6135 30.9658 32.2772 29.9848 32.1854C29.652 32.1568 29.4856 31.9617 29.3824 31.6748C29.2906 31.3708 29.325 31.0093 29.5774 30.5389C30.0192 29.7242 31.0461 29.5865 31.4649 29.9193Z" fill="#FEFEFE"/>
<path d="M16.509 21.2559C20.0373 25.0883 16.0844 29.6665 12.0226 28.651C9.21711 27.9568 7.30091 25.0596 9.12532 22.2656C11.03 19.3856 13.956 18.4504 16.509 21.2559Z" fill="#FCF0E0"/>
<path d="M15.2985 20.3382C17.6106 23.3387 13.8642 27.8538 10.6973 27.4752C9.60729 27.3547 9.0221 26.7236 8.68935 25.7713C8.3566 24.8189 8.2648 23.5338 9.18847 22.1913C10.8752 19.7014 14.0191 18.6745 15.2985 20.3382Z" fill="#654337"/>
<path d="M13.2792 20.4871C13.9849 21.0321 12.8719 22.3574 12.0974 22.2828C11.8277 22.2656 11.69 22.1164 11.6155 21.8754C11.5409 21.6345 11.5696 21.3476 11.7646 20.9862C12.1146 20.3207 12.9465 20.2117 13.2792 20.4871Z" fill="#FEFEFE"/>
<path d="M22.452 29.1963C22.4406 28.1694 20.6735 29.225 19.813 28.6226C18.8606 27.9456 19.222 25.9835 18.5279 26.2245C17.7763 26.4769 17.8509 28.2898 19.0557 29.3455C20.4613 30.556 22.4692 29.9192 22.452 29.1963Z" fill="#654337"/>
<path d="M30.9837 45.1795C29.2052 46.7687 26.199 44.623 26.2908 42.6323C26.3195 41.9381 26.6981 41.5422 27.2718 41.2898C27.857 41.0316 28.643 40.9226 29.5323 41.4389C31.1788 42.3913 31.9648 44.3075 30.9837 45.1795Z" fill="#F7A37F"/>
<path d="M8.0692 29.6666C6.63492 30.946 4.2196 29.2134 4.29418 27.5955C4.31139 27.039 4.60972 26.7235 5.08016 26.5112C5.54487 26.3104 6.1989 26.2072 6.90457 26.6317C8.23558 27.4005 8.86666 28.9552 8.0692 29.6666Z" fill="#F7A37F"/>
<path d="M3.25594 38.5246C2.63633 41.3759 3.31332 40.7621 6.22777 40.7449C8.98732 40.7162 10.3355 41.2555 10.1347 41.9669C9.98557 42.5578 10.1806 41.135 8.05217 41.8177C7.9948 41.7431 9.8823 42.4775 9.91099 43.0684C9.96836 43.9749 9.03322 42.902 7.70794 42.707C8.38492 43.4298 8.43082 44.8067 8.05217 44.8067C7.82842 44.8182 7.88579 44.0953 7.16292 43.0225C6.48594 41.9956 4.89676 42.6439 3.4969 42.707C-2.43527 42.9479 3.60017 36.9125 3.25594 38.5246Z" fill="#654337"/>
<path d="M56.4502 71.7481C55.7388 70.9966 55.5265 70.4974 55.0618 69.4992C55.7847 68.7763 57.1902 66.9634 57.1902 67.4338C57.2017 68.7476 58.1713 73.6356 56.4502 71.7481Z" fill="#654337"/>
<path d="M33.8983 63.963C34.0188 65.1104 33.5369 68.1282 34.1393 70.7099C34.6499 72.9703 36.1587 74.8291 37.3865 75.6323C39.1937 76.8084 38.8036 78.3001 38.5454 78.455C38.3675 78.5754 38.0348 77.5313 37.5816 76.9863C37.5643 76.9576 36.7497 81.2317 36.3423 76.7166C35.6768 77.9214 34.2426 79.872 35.499 76.1601C30.5479 70.5435 32.355 65.9538 32.6132 63.6131C32.6419 63.3147 33.8983 63.8425 33.8983 63.963Z" fill="#654337"/>
<path d="M47.707 66.2236C47.8274 67.1472 47.3455 69.5912 47.9479 71.691C48.4643 73.5154 49.9731 75.0128 51.1951 75.6611C53.008 76.6135 52.6122 77.8355 52.3598 77.956C52.1762 78.0477 51.8434 77.1987 51.3902 76.7626C51.3787 76.7454 50.564 80.2049 50.1567 76.5504C49.4912 77.5142 48.0569 79.1034 49.3076 76.0971C44.3565 71.5419 46.1694 67.8242 46.4276 65.9367C46.4563 65.6957 47.707 66.1203 47.707 66.2236Z" fill="#654337"/>
<path d="M16.1129 2.6904C15.6482 -2.14025 20.9607 0.647985 19.9797 2.86825C25.7455 6.21872 28.31 17.888 26.606 19.2477C26.4224 19.3969 26.1987 19.4313 25.9118 19.3108C26.1987 17.7962 26.5028 10.5961 20.9148 4.86476C20.4444 4.37711 19.8707 4.09025 19.2396 3.71734C18.2126 4.37711 16.2965 4.4689 16.1129 2.6904Z" fill="#654337"/>
<path d="M38.1549 6.58627C39.5146 1.91626 43.4043 6.49447 41.6717 8.19839C45.7623 13.4536 43.8002 25.2433 41.7004 25.863C41.4881 25.9375 41.2472 25.8744 41.0349 25.6507C41.8668 24.3656 44.8271 17.7966 41.7922 10.39C41.5513 9.77036 41.1267 9.28271 40.6735 8.69752C39.4687 8.92127 37.6558 8.29019 38.1549 6.58627Z" fill="#654337"/>
<path d="M3.49743 46.4476C10.2443 51.9437 20.703 57.5603 31.6781 51.5823C36.0555 49.1956 42.0049 44.1986 44.8735 38.5246C48.419 31.4737 47.4666 24.6695 47.5584 23.0229C49.6697 24.9219 51.3162 26.6431 53.5537 29.3625C53.2783 40.8481 42.3663 53.923 33.0206 57.939C23.5257 62.0009 11.9769 59.7175 5.66605 53.0338C5.35051 52.701 3.13025 46.1492 3.49743 46.4476Z" fill="#7D5749"/>
<path d="M26.0325 56.126C23.1353 56.126 20.9781 52.9247 19.5553 50.3774C18.2128 47.9736 17.0654 47.0671 16.5548 47.5835C16.1131 48.0195 17.249 47.1302 17.7137 49.3161C17.8055 49.3333 16.2335 48.0654 15.7057 48.3235C14.8911 48.7309 16.3081 48.7022 17.14 49.7578C15.6025 49.3964 13.5486 50.4176 17.1113 50.693C20.2036 50.9339 18.5456 57.1071 24.4147 58.2545C25.3555 58.4381 26.3194 56.126 26.0325 56.126Z" fill="#654337"/>
<path d="M12.3841 62.9648C19.1367 68.461 30.0487 68.2659 41.2647 62.7697C53.2209 56.8949 57.4434 46.2239 58.0974 36.7749C60.2259 41.0777 61.2528 45.5756 61.6143 47.3886C61.161 66.6193 44.6324 75.2537 24.9484 72.4425C21.2307 71.9147 12.0227 62.6607 12.3841 62.9648Z" fill="#7D5749"/>
<path d="M54.7865 37.2278C60.2654 39.2932 70.2939 37.9966 75.618 34.7494C79.6684 32.2767 81.4641 27.6583 77.7808 25.7708C71.6077 22.5982 58.1255 30.4351 53.7768 34.583C53.685 35.3977 53.989 36.2927 54.7865 37.2278Z" fill="#CAEAED"/>
<path d="M52.6291 32.8506C58.3835 31.7777 66.2605 25.4382 69.1119 19.8962C71.2862 15.6851 70.4142 10.8086 66.2892 11.1127C59.3645 11.6233 51.935 25.3177 50.3802 31.1294C50.7302 31.881 51.453 32.4719 52.6291 32.8506Z" fill="#CAEAED"/>
</g>
<defs>
<linearGradient id="paint0_linear_0_1" x1="81.3564" y1="98.3281" x2="81.3564" y2="518.328" gradientUnits="userSpaceOnUse">
<stop/>
<stop offset="0.682641" stop-opacity="0.1"/>
</linearGradient>
<clipPath id="clip0_0_1">
<rect width="79" height="78.8279" fill="white" transform="matrix(-1 0 0 1 79.835 0)"/>
</clipPath>
</defs>
</svg>
