<svg width="2228" height="1146" viewBox="0 0 2228 1146" fill="none" xmlns="http://www.w3.org/2000/svg">
<rect x="4.5" y="4.5" width="2219" height="1137" rx="51.5" fill="white" stroke="#C3A7FF" stroke-width="9"/>
<rect x="68" y="173" width="2064" height="6" rx="3" fill="black"/>
<rect x="236" y="58" width="980" height="3.99995" rx="1.99997" transform="rotate(90 236 58)" fill="black"/>
<rect x="1228" y="58" width="980" height="3.99995" rx="1.99997" transform="rotate(90 1228 58)" fill="black"/>
<rect x="2136" y="58" width="980" height="3.99995" rx="1.99997" transform="rotate(90 2136 58)" fill="black"/>
<path d="M107.368 133V87.7264H116.035L142.746 120.323H138.542V87.7264H148.891V133H140.289L113.512 100.403H117.716V133H107.368ZM175.448 133.517C171.74 133.517 168.441 132.741 165.552 131.189C162.707 129.637 160.443 127.524 158.761 124.851C157.123 122.134 156.304 119.051 156.304 115.602C156.304 112.109 157.123 109.027 158.761 106.353C160.443 103.637 162.707 101.524 165.552 100.015C168.441 98.4627 171.74 97.6866 175.448 97.6866C179.113 97.6866 182.39 98.4627 185.279 100.015C188.168 101.524 190.431 103.615 192.07 106.289C193.708 108.962 194.527 112.066 194.527 115.602C194.527 119.051 193.708 122.134 192.07 124.851C190.431 127.524 188.168 129.637 185.279 131.189C182.39 132.741 179.113 133.517 175.448 133.517ZM175.448 125.239C177.129 125.239 178.639 124.851 179.975 124.075C181.312 123.299 182.368 122.199 183.144 120.776C183.921 119.31 184.309 117.585 184.309 115.602C184.309 113.575 183.921 111.851 183.144 110.428C182.368 109.005 181.312 107.905 179.975 107.129C178.639 106.353 177.129 105.965 175.448 105.965C173.766 105.965 172.257 106.353 170.921 107.129C169.584 107.905 168.506 109.005 167.687 110.428C166.911 111.851 166.523 113.575 166.523 115.602C166.523 117.585 166.911 119.31 167.687 120.776C168.506 122.199 169.584 123.299 170.921 124.075C172.257 124.851 173.766 125.239 175.448 125.239Z" fill="#1E1E1E"/>
<path d="M131.254 324V280.667L133.323 282.866H120.582V278.726H135.91V324H131.254Z" fill="#1E1E1E"/>
<path d="M482.856 324.388C479.493 324.388 476.259 323.849 473.154 322.771C470.093 321.65 467.721 320.227 466.04 318.502L467.915 314.816C469.511 316.368 471.645 317.683 474.318 318.761C477.035 319.796 479.881 320.313 482.856 320.313C485.701 320.313 488.008 319.968 489.776 319.279C491.587 318.546 492.902 317.575 493.721 316.368C494.584 315.161 495.015 313.824 495.015 312.358C495.015 310.59 494.498 309.167 493.463 308.09C492.471 307.012 491.156 306.171 489.517 305.567C487.879 304.92 486.068 304.36 484.085 303.886C482.101 303.411 480.118 302.915 478.134 302.398C476.151 301.837 474.318 301.104 472.637 300.199C470.998 299.294 469.662 298.108 468.627 296.642C467.635 295.133 467.139 293.171 467.139 290.756C467.139 288.514 467.721 286.466 468.886 284.612C470.093 282.715 471.925 281.206 474.383 280.085C476.841 278.92 479.988 278.338 483.826 278.338C486.37 278.338 488.892 278.705 491.393 279.438C493.894 280.128 496.05 281.098 497.861 282.348L496.244 286.164C494.303 284.871 492.234 283.922 490.035 283.318C487.879 282.715 485.788 282.413 483.761 282.413C481.045 282.413 478.803 282.779 477.035 283.512C475.267 284.245 473.952 285.237 473.09 286.488C472.27 287.695 471.861 289.075 471.861 290.627C471.861 292.395 472.357 293.818 473.348 294.896C474.383 295.973 475.72 296.814 477.358 297.418C479.04 298.022 480.872 298.561 482.856 299.035C484.839 299.509 486.801 300.027 488.741 300.587C490.725 301.148 492.536 301.881 494.174 302.786C495.856 303.648 497.192 304.813 498.184 306.279C499.219 307.745 499.736 309.663 499.736 312.035C499.736 314.234 499.133 316.282 497.925 318.179C496.718 320.033 494.864 321.542 492.363 322.706C489.905 323.828 486.736 324.388 482.856 324.388ZM523.617 324.323C520.081 324.323 516.977 323.59 514.304 322.124C511.63 320.615 509.539 318.567 508.03 315.98C506.521 313.35 505.766 310.353 505.766 306.99C505.766 303.627 506.478 300.652 507.901 298.065C509.367 295.478 511.35 293.451 513.851 291.985C516.395 290.476 519.241 289.721 522.388 289.721C525.579 289.721 528.403 290.454 530.861 291.92C533.362 293.343 535.324 295.37 536.746 298C538.169 300.587 538.881 303.584 538.881 306.99C538.881 307.206 538.859 307.443 538.816 307.701C538.816 307.917 538.816 308.154 538.816 308.413H509.259V304.985H536.358L534.547 306.343C534.547 303.886 534.009 301.708 532.931 299.811C531.896 297.871 530.473 296.362 528.662 295.284C526.851 294.206 524.76 293.667 522.388 293.667C520.06 293.667 517.969 294.206 516.115 295.284C514.261 296.362 512.816 297.871 511.781 299.811C510.746 301.751 510.229 303.972 510.229 306.473V307.184C510.229 309.771 510.79 312.056 511.911 314.04C513.075 315.98 514.67 317.511 516.697 318.632C518.766 319.71 521.116 320.249 523.746 320.249C525.816 320.249 527.735 319.882 529.503 319.149C531.314 318.416 532.866 317.295 534.159 315.786L536.746 318.761C535.237 320.572 533.34 321.952 531.055 322.9C528.813 323.849 526.334 324.323 523.617 324.323ZM551.849 315.204L551.979 309.318L573.128 290.045H578.755L563.815 304.338L561.228 306.537L551.849 315.204ZM548.228 324V276.01H552.82V324H548.228ZM574.551 324L560.387 306.343L563.362 302.786L580.178 324H574.551ZM599.586 324.323C596.309 324.323 593.355 323.59 590.725 322.124C588.138 320.615 586.09 318.567 584.581 315.98C583.072 313.35 582.317 310.353 582.317 306.99C582.317 303.584 583.072 300.587 584.581 298C586.09 295.413 588.138 293.386 590.725 291.92C593.312 290.454 596.266 289.721 599.586 289.721C602.949 289.721 605.924 290.454 608.511 291.92C611.141 293.386 613.19 295.413 614.656 298C616.165 300.587 616.919 303.584 616.919 306.99C616.919 310.353 616.165 313.35 614.656 315.98C613.19 318.567 611.141 320.615 608.511 322.124C605.881 323.59 602.906 324.323 599.586 324.323ZM599.586 320.249C602.044 320.249 604.221 319.71 606.118 318.632C608.015 317.511 609.503 315.959 610.581 313.975C611.702 311.949 612.263 309.62 612.263 306.99C612.263 304.317 611.702 301.988 610.581 300.005C609.503 298.022 608.015 296.491 606.118 295.413C604.221 294.292 602.065 293.731 599.651 293.731C597.236 293.731 595.08 294.292 593.183 295.413C591.286 296.491 589.777 298.022 588.656 300.005C587.534 301.988 586.974 304.317 586.974 306.99C586.974 309.62 587.534 311.949 588.656 313.975C589.777 315.959 591.286 317.511 593.183 318.632C595.08 319.71 597.214 320.249 599.586 320.249ZM626.294 324V276.01H630.886V324H626.294ZM664.942 324V316.498L664.748 315.269V302.721C664.748 299.833 663.929 297.612 662.29 296.06C660.695 294.507 658.302 293.731 655.111 293.731C652.912 293.731 650.821 294.098 648.838 294.831C646.854 295.564 645.173 296.534 643.793 297.741L641.723 294.313C643.448 292.847 645.518 291.726 647.932 290.95C650.347 290.131 652.891 289.721 655.564 289.721C659.962 289.721 663.347 290.821 665.718 293.02C668.133 295.176 669.34 298.474 669.34 302.915V324H664.942ZM653.236 324.323C650.692 324.323 648.471 323.914 646.574 323.095C644.72 322.232 643.297 321.068 642.305 319.602C641.314 318.093 640.818 316.368 640.818 314.428C640.818 312.66 641.227 311.065 642.047 309.642C642.909 308.176 644.289 307.012 646.186 306.149C648.126 305.244 650.713 304.791 653.947 304.791H665.654V308.219H654.076C650.8 308.219 648.514 308.801 647.221 309.965C645.97 311.129 645.345 312.574 645.345 314.299C645.345 316.239 646.1 317.791 647.609 318.955C649.118 320.119 651.231 320.701 653.947 320.701C656.534 320.701 658.755 320.119 660.609 318.955C662.506 317.748 663.886 316.023 664.748 313.781L665.783 316.95C664.921 319.192 663.411 320.982 661.256 322.318C659.143 323.655 656.469 324.323 653.236 324.323ZM699.146 289.721C701.905 289.721 704.32 290.26 706.39 291.338C708.502 292.373 710.141 293.968 711.305 296.124C712.512 298.28 713.116 300.997 713.116 304.274V324H708.524V304.726C708.524 301.148 707.619 298.453 705.808 296.642C704.04 294.788 701.539 293.861 698.305 293.861C695.891 293.861 693.778 294.357 691.967 295.348C690.199 296.297 688.819 297.698 687.828 299.552C686.879 301.363 686.405 303.562 686.405 306.149V324H681.813V276.01H686.405V299.358L685.499 297.612C686.577 295.154 688.302 293.235 690.673 291.856C693.045 290.433 695.869 289.721 699.146 289.721ZM737.143 324L755.706 298.905V302.592L738.243 278.726H743.74L758.422 298.647L756.288 298.711L770.969 278.726H776.143L758.875 302.269V298.905L777.372 324H771.81L756.158 302.721H758.163L742.641 324H737.143ZM777.443 324L791.801 305.373L791.737 307.637L778.09 290.045H783.264L794.453 304.597L792.513 304.532L803.702 290.045H808.747L794.97 307.831L795.035 305.373L809.523 324H804.284L792.448 308.478L794.259 308.736L782.617 324H777.443ZM811.863 324L830.425 298.905V302.592L812.962 278.726H818.46L833.141 298.647L831.007 298.711L845.688 278.726H850.863L833.594 302.269V298.905L852.091 324H846.529L830.878 302.721H832.883L817.36 324H811.863ZM852.162 324L866.52 305.373L866.456 307.637L852.809 290.045H857.983L869.172 304.597L867.232 304.532L878.421 290.045H883.466L869.69 307.831L869.754 305.373L884.242 324H879.003L867.167 308.478L868.978 308.736L857.336 324H852.162ZM886.582 324L905.144 298.905V302.592L887.681 278.726H893.179L907.86 298.647L905.726 298.711L920.408 278.726H925.582L908.313 302.269V298.905L926.811 324H921.248L905.597 302.721H907.602L892.079 324H886.582ZM926.881 324L941.24 305.373L941.175 307.637L927.528 290.045H932.702L943.891 304.597L941.951 304.532L953.14 290.045H958.185L944.409 307.831L944.473 305.373L958.961 324H953.722L941.886 308.478L943.697 308.736L932.056 324H926.881Z" fill="#1E1E1E"/>
<path d="M1634.59 312.1V308.736L1658.58 278.726H1663.76L1639.96 308.736L1637.43 307.96H1673.85V312.1H1634.59ZM1660.13 324V312.1L1660.26 307.96V297.483H1664.79V324H1660.13Z" fill="#1E1E1E"/>
<path d="M1642.52 479V475.701L1661.34 457.269C1663.07 455.587 1664.36 454.121 1665.22 452.871C1666.09 451.577 1666.67 450.37 1666.97 449.249C1667.27 448.128 1667.42 447.071 1667.42 446.08C1667.42 443.449 1666.52 441.38 1664.71 439.871C1662.94 438.362 1660.31 437.607 1656.82 437.607C1654.14 437.607 1651.77 438.017 1649.7 438.836C1647.67 439.655 1645.93 440.927 1644.46 442.652L1641.16 439.806C1642.93 437.736 1645.2 436.141 1647.96 435.02C1650.71 433.899 1653.8 433.338 1657.2 433.338C1660.27 433.338 1662.92 433.834 1665.16 434.826C1667.4 435.774 1669.13 437.176 1670.33 439.03C1671.58 440.884 1672.21 443.061 1672.21 445.562C1672.21 447.028 1671.99 448.473 1671.56 449.896C1671.17 451.318 1670.44 452.828 1669.36 454.423C1668.33 455.975 1666.8 457.743 1664.77 459.726L1647.5 476.672L1646.21 474.861H1674.28V479H1642.52Z" fill="#1E1E1E"/>
<path d="M1653.25 633V589.667L1655.32 591.866H1642.58V587.726H1657.91V633H1653.25Z" fill="#1E1E1E"/>
<path d="M1653.25 788V744.667L1655.32 746.866H1642.58V742.726H1657.91V788H1653.25Z" fill="#1E1E1E"/>
<path d="M1653.25 942V898.667L1655.32 900.866H1642.58V896.726H1657.91V942H1653.25Z" fill="#1E1E1E"/>
<path d="M482.856 484.388C479.493 484.388 476.259 483.849 473.154 482.771C470.093 481.65 467.721 480.227 466.04 478.502L467.915 474.816C469.511 476.368 471.645 477.683 474.318 478.761C477.035 479.796 479.881 480.313 482.856 480.313C485.701 480.313 488.008 479.968 489.776 479.279C491.587 478.546 492.902 477.575 493.721 476.368C494.584 475.161 495.015 473.824 495.015 472.358C495.015 470.59 494.498 469.167 493.463 468.09C492.471 467.012 491.156 466.171 489.517 465.567C487.879 464.92 486.068 464.36 484.085 463.886C482.101 463.411 480.118 462.915 478.134 462.398C476.151 461.837 474.318 461.104 472.637 460.199C470.998 459.294 469.662 458.108 468.627 456.642C467.635 455.133 467.139 453.171 467.139 450.756C467.139 448.514 467.721 446.466 468.886 444.612C470.093 442.715 471.925 441.206 474.383 440.085C476.841 438.92 479.988 438.338 483.826 438.338C486.37 438.338 488.892 438.705 491.393 439.438C493.894 440.128 496.05 441.098 497.861 442.348L496.244 446.164C494.303 444.871 492.234 443.922 490.035 443.318C487.879 442.715 485.788 442.413 483.761 442.413C481.045 442.413 478.803 442.779 477.035 443.512C475.267 444.245 473.952 445.237 473.09 446.488C472.27 447.695 471.861 449.075 471.861 450.627C471.861 452.395 472.357 453.818 473.348 454.896C474.383 455.973 475.72 456.814 477.358 457.418C479.04 458.022 480.872 458.561 482.856 459.035C484.839 459.509 486.801 460.027 488.741 460.587C490.725 461.148 492.536 461.881 494.174 462.786C495.856 463.648 497.192 464.813 498.184 466.279C499.219 467.745 499.736 469.663 499.736 472.035C499.736 474.234 499.133 476.282 497.925 478.179C496.718 480.033 494.864 481.542 492.363 482.706C489.905 483.828 486.736 484.388 482.856 484.388ZM523.617 484.323C520.081 484.323 516.977 483.59 514.304 482.124C511.63 480.615 509.539 478.567 508.03 475.98C506.521 473.35 505.766 470.353 505.766 466.99C505.766 463.627 506.478 460.652 507.901 458.065C509.367 455.478 511.35 453.451 513.851 451.985C516.395 450.476 519.241 449.721 522.388 449.721C525.579 449.721 528.403 450.454 530.861 451.92C533.362 453.343 535.324 455.37 536.746 458C538.169 460.587 538.881 463.584 538.881 466.99C538.881 467.206 538.859 467.443 538.816 467.701C538.816 467.917 538.816 468.154 538.816 468.413H509.259V464.985H536.358L534.547 466.343C534.547 463.886 534.009 461.708 532.931 459.811C531.896 457.871 530.473 456.362 528.662 455.284C526.851 454.206 524.76 453.667 522.388 453.667C520.06 453.667 517.969 454.206 516.115 455.284C514.261 456.362 512.816 457.871 511.781 459.811C510.746 461.751 510.229 463.972 510.229 466.473V467.184C510.229 469.771 510.79 472.056 511.911 474.04C513.075 475.98 514.67 477.511 516.697 478.632C518.766 479.71 521.116 480.249 523.746 480.249C525.816 480.249 527.735 479.882 529.503 479.149C531.314 478.416 532.866 477.295 534.159 475.786L536.746 478.761C535.237 480.572 533.34 481.952 531.055 482.9C528.813 483.849 526.334 484.323 523.617 484.323ZM551.849 475.204L551.979 469.318L573.128 450.045H578.755L563.815 464.338L561.228 466.537L551.849 475.204ZM548.228 484V436.01H552.82V484H548.228ZM574.551 484L560.387 466.343L563.362 462.786L580.178 484H574.551ZM599.586 484.323C596.309 484.323 593.355 483.59 590.725 482.124C588.138 480.615 586.09 478.567 584.581 475.98C583.072 473.35 582.317 470.353 582.317 466.99C582.317 463.584 583.072 460.587 584.581 458C586.09 455.413 588.138 453.386 590.725 451.92C593.312 450.454 596.266 449.721 599.586 449.721C602.949 449.721 605.924 450.454 608.511 451.92C611.141 453.386 613.19 455.413 614.656 458C616.165 460.587 616.919 463.584 616.919 466.99C616.919 470.353 616.165 473.35 614.656 475.98C613.19 478.567 611.141 480.615 608.511 482.124C605.881 483.59 602.906 484.323 599.586 484.323ZM599.586 480.249C602.044 480.249 604.221 479.71 606.118 478.632C608.015 477.511 609.503 475.959 610.581 473.975C611.702 471.949 612.263 469.62 612.263 466.99C612.263 464.317 611.702 461.988 610.581 460.005C609.503 458.022 608.015 456.491 606.118 455.413C604.221 454.292 602.065 453.731 599.651 453.731C597.236 453.731 595.08 454.292 593.183 455.413C591.286 456.491 589.777 458.022 588.656 460.005C587.534 461.988 586.974 464.317 586.974 466.99C586.974 469.62 587.534 471.949 588.656 473.975C589.777 475.959 591.286 477.511 593.183 478.632C595.08 479.71 597.214 480.249 599.586 480.249ZM626.294 484V436.01H630.886V484H626.294ZM664.942 484V476.498L664.748 475.269V462.721C664.748 459.833 663.929 457.612 662.29 456.06C660.695 454.507 658.302 453.731 655.111 453.731C652.912 453.731 650.821 454.098 648.838 454.831C646.854 455.564 645.173 456.534 643.793 457.741L641.723 454.313C643.448 452.847 645.518 451.726 647.932 450.95C650.347 450.131 652.891 449.721 655.564 449.721C659.962 449.721 663.347 450.821 665.718 453.02C668.133 455.176 669.34 458.474 669.34 462.915V484H664.942ZM653.236 484.323C650.692 484.323 648.471 483.914 646.574 483.095C644.72 482.232 643.297 481.068 642.305 479.602C641.314 478.093 640.818 476.368 640.818 474.428C640.818 472.66 641.227 471.065 642.047 469.642C642.909 468.176 644.289 467.012 646.186 466.149C648.126 465.244 650.713 464.791 653.947 464.791H665.654V468.219H654.076C650.8 468.219 648.514 468.801 647.221 469.965C645.97 471.129 645.345 472.574 645.345 474.299C645.345 476.239 646.1 477.791 647.609 478.955C649.118 480.119 651.231 480.701 653.947 480.701C656.534 480.701 658.755 480.119 660.609 478.955C662.506 477.748 663.886 476.023 664.748 473.781L665.783 476.95C664.921 479.192 663.411 480.982 661.256 482.318C659.143 483.655 656.469 484.323 653.236 484.323ZM699.146 449.721C701.905 449.721 704.32 450.26 706.39 451.338C708.502 452.373 710.141 453.968 711.305 456.124C712.512 458.28 713.116 460.997 713.116 464.274V484H708.524V464.726C708.524 461.148 707.619 458.453 705.808 456.642C704.04 454.788 701.539 453.861 698.305 453.861C695.891 453.861 693.778 454.357 691.967 455.348C690.199 456.297 688.819 457.698 687.828 459.552C686.879 461.363 686.405 463.562 686.405 466.149V484H681.813V436.01H686.405V459.358L685.499 457.612C686.577 455.154 688.302 453.235 690.673 451.856C693.045 450.433 695.869 449.721 699.146 449.721ZM737.143 484L755.706 458.905V462.592L738.243 438.726H743.74L758.422 458.647L756.288 458.711L770.969 438.726H776.143L758.875 462.269V458.905L777.372 484H771.81L756.158 462.721H758.163L742.641 484H737.143ZM777.443 484L791.801 465.373L791.737 467.637L778.09 450.045H783.264L794.453 464.597L792.513 464.532L803.702 450.045H808.747L794.97 467.831L795.035 465.373L809.523 484H804.284L792.448 468.478L794.259 468.736L782.617 484H777.443ZM811.863 484L830.425 458.905V462.592L812.962 438.726H818.46L833.141 458.647L831.007 458.711L845.688 438.726H850.863L833.594 462.269V458.905L852.091 484H846.529L830.878 462.721H832.883L817.36 484H811.863ZM852.162 484L866.52 465.373L866.456 467.637L852.809 450.045H857.983L869.172 464.597L867.232 464.532L878.421 450.045H883.466L869.69 467.831L869.754 465.373L884.242 484H879.003L867.167 468.478L868.978 468.736L857.336 484H852.162ZM886.582 484L905.144 458.905V462.592L887.681 438.726H893.179L907.86 458.647L905.726 458.711L920.408 438.726H925.582L908.313 462.269V458.905L926.811 484H921.248L905.597 462.721H907.602L892.079 484H886.582ZM926.881 484L941.24 465.373L941.175 467.637L927.528 450.045H932.702L943.891 464.597L941.951 464.532L953.14 450.045H958.185L944.409 467.831L944.473 465.373L958.961 484H953.722L941.886 468.478L943.697 468.736L932.056 484H926.881Z" fill="#1E1E1E"/>
<path d="M482.856 644.388C479.493 644.388 476.259 643.849 473.154 642.771C470.093 641.65 467.721 640.227 466.04 638.502L467.915 634.816C469.511 636.368 471.645 637.683 474.318 638.761C477.035 639.796 479.881 640.313 482.856 640.313C485.701 640.313 488.008 639.968 489.776 639.279C491.587 638.546 492.902 637.575 493.721 636.368C494.584 635.161 495.015 633.824 495.015 632.358C495.015 630.59 494.498 629.167 493.463 628.09C492.471 627.012 491.156 626.171 489.517 625.567C487.879 624.92 486.068 624.36 484.085 623.886C482.101 623.411 480.118 622.915 478.134 622.398C476.151 621.837 474.318 621.104 472.637 620.199C470.998 619.294 469.662 618.108 468.627 616.642C467.635 615.133 467.139 613.171 467.139 610.756C467.139 608.514 467.721 606.466 468.886 604.612C470.093 602.715 471.925 601.206 474.383 600.085C476.841 598.92 479.988 598.338 483.826 598.338C486.37 598.338 488.892 598.705 491.393 599.438C493.894 600.128 496.05 601.098 497.861 602.348L496.244 606.164C494.303 604.871 492.234 603.922 490.035 603.318C487.879 602.715 485.788 602.413 483.761 602.413C481.045 602.413 478.803 602.779 477.035 603.512C475.267 604.245 473.952 605.237 473.09 606.488C472.27 607.695 471.861 609.075 471.861 610.627C471.861 612.395 472.357 613.818 473.348 614.896C474.383 615.973 475.72 616.814 477.358 617.418C479.04 618.022 480.872 618.561 482.856 619.035C484.839 619.509 486.801 620.027 488.741 620.587C490.725 621.148 492.536 621.881 494.174 622.786C495.856 623.648 497.192 624.813 498.184 626.279C499.219 627.745 499.736 629.663 499.736 632.035C499.736 634.234 499.133 636.282 497.925 638.179C496.718 640.033 494.864 641.542 492.363 642.706C489.905 643.828 486.736 644.388 482.856 644.388ZM523.617 644.323C520.081 644.323 516.977 643.59 514.304 642.124C511.63 640.615 509.539 638.567 508.03 635.98C506.521 633.35 505.766 630.353 505.766 626.99C505.766 623.627 506.478 620.652 507.901 618.065C509.367 615.478 511.35 613.451 513.851 611.985C516.395 610.476 519.241 609.721 522.388 609.721C525.579 609.721 528.403 610.454 530.861 611.92C533.362 613.343 535.324 615.37 536.746 618C538.169 620.587 538.881 623.584 538.881 626.99C538.881 627.206 538.859 627.443 538.816 627.701C538.816 627.917 538.816 628.154 538.816 628.413H509.259V624.985H536.358L534.547 626.343C534.547 623.886 534.009 621.708 532.931 619.811C531.896 617.871 530.473 616.362 528.662 615.284C526.851 614.206 524.76 613.667 522.388 613.667C520.06 613.667 517.969 614.206 516.115 615.284C514.261 616.362 512.816 617.871 511.781 619.811C510.746 621.751 510.229 623.972 510.229 626.473V627.184C510.229 629.771 510.79 632.056 511.911 634.04C513.075 635.98 514.67 637.511 516.697 638.632C518.766 639.71 521.116 640.249 523.746 640.249C525.816 640.249 527.735 639.882 529.503 639.149C531.314 638.416 532.866 637.295 534.159 635.786L536.746 638.761C535.237 640.572 533.34 641.952 531.055 642.9C528.813 643.849 526.334 644.323 523.617 644.323ZM551.849 635.204L551.979 629.318L573.128 610.045H578.755L563.815 624.338L561.228 626.537L551.849 635.204ZM548.228 644V596.01H552.82V644H548.228ZM574.551 644L560.387 626.343L563.362 622.786L580.178 644H574.551ZM599.586 644.323C596.309 644.323 593.355 643.59 590.725 642.124C588.138 640.615 586.09 638.567 584.581 635.98C583.072 633.35 582.317 630.353 582.317 626.99C582.317 623.584 583.072 620.587 584.581 618C586.09 615.413 588.138 613.386 590.725 611.92C593.312 610.454 596.266 609.721 599.586 609.721C602.949 609.721 605.924 610.454 608.511 611.92C611.141 613.386 613.19 615.413 614.656 618C616.165 620.587 616.919 623.584 616.919 626.99C616.919 630.353 616.165 633.35 614.656 635.98C613.19 638.567 611.141 640.615 608.511 642.124C605.881 643.59 602.906 644.323 599.586 644.323ZM599.586 640.249C602.044 640.249 604.221 639.71 606.118 638.632C608.015 637.511 609.503 635.959 610.581 633.975C611.702 631.949 612.263 629.62 612.263 626.99C612.263 624.317 611.702 621.988 610.581 620.005C609.503 618.022 608.015 616.491 606.118 615.413C604.221 614.292 602.065 613.731 599.651 613.731C597.236 613.731 595.08 614.292 593.183 615.413C591.286 616.491 589.777 618.022 588.656 620.005C587.534 621.988 586.974 624.317 586.974 626.99C586.974 629.62 587.534 631.949 588.656 633.975C589.777 635.959 591.286 637.511 593.183 638.632C595.08 639.71 597.214 640.249 599.586 640.249ZM626.294 644V596.01H630.886V644H626.294ZM664.942 644V636.498L664.748 635.269V622.721C664.748 619.833 663.929 617.612 662.29 616.06C660.695 614.507 658.302 613.731 655.111 613.731C652.912 613.731 650.821 614.098 648.838 614.831C646.854 615.564 645.173 616.534 643.793 617.741L641.723 614.313C643.448 612.847 645.518 611.726 647.932 610.95C650.347 610.131 652.891 609.721 655.564 609.721C659.962 609.721 663.347 610.821 665.718 613.02C668.133 615.176 669.34 618.474 669.34 622.915V644H664.942ZM653.236 644.323C650.692 644.323 648.471 643.914 646.574 643.095C644.72 642.232 643.297 641.068 642.305 639.602C641.314 638.093 640.818 636.368 640.818 634.428C640.818 632.66 641.227 631.065 642.047 629.642C642.909 628.176 644.289 627.012 646.186 626.149C648.126 625.244 650.713 624.791 653.947 624.791H665.654V628.219H654.076C650.8 628.219 648.514 628.801 647.221 629.965C645.97 631.129 645.345 632.574 645.345 634.299C645.345 636.239 646.1 637.791 647.609 638.955C649.118 640.119 651.231 640.701 653.947 640.701C656.534 640.701 658.755 640.119 660.609 638.955C662.506 637.748 663.886 636.023 664.748 633.781L665.783 636.95C664.921 639.192 663.411 640.982 661.256 642.318C659.143 643.655 656.469 644.323 653.236 644.323ZM699.146 609.721C701.905 609.721 704.32 610.26 706.39 611.338C708.502 612.373 710.141 613.968 711.305 616.124C712.512 618.28 713.116 620.997 713.116 624.274V644H708.524V624.726C708.524 621.148 707.619 618.453 705.808 616.642C704.04 614.788 701.539 613.861 698.305 613.861C695.891 613.861 693.778 614.357 691.967 615.348C690.199 616.297 688.819 617.698 687.828 619.552C686.879 621.363 686.405 623.562 686.405 626.149V644H681.813V596.01H686.405V619.358L685.499 617.612C686.577 615.154 688.302 613.235 690.673 611.856C693.045 610.433 695.869 609.721 699.146 609.721ZM737.143 644L755.706 618.905V622.592L738.243 598.726H743.74L758.422 618.647L756.288 618.711L770.969 598.726H776.143L758.875 622.269V618.905L777.372 644H771.81L756.158 622.721H758.163L742.641 644H737.143ZM777.443 644L791.801 625.373L791.737 627.637L778.09 610.045H783.264L794.453 624.597L792.513 624.532L803.702 610.045H808.747L794.97 627.831L795.035 625.373L809.523 644H804.284L792.448 628.478L794.259 628.736L782.617 644H777.443ZM811.863 644L830.425 618.905V622.592L812.962 598.726H818.46L833.141 618.647L831.007 618.711L845.688 598.726H850.863L833.594 622.269V618.905L852.091 644H846.529L830.878 622.721H832.883L817.36 644H811.863ZM852.162 644L866.52 625.373L866.456 627.637L852.809 610.045H857.983L869.172 624.597L867.232 624.532L878.421 610.045H883.466L869.69 627.831L869.754 625.373L884.242 644H879.003L867.167 628.478L868.978 628.736L857.336 644H852.162ZM886.582 644L905.144 618.905V622.592L887.681 598.726H893.179L907.86 618.647L905.726 618.711L920.408 598.726H925.582L908.313 622.269V618.905L926.811 644H921.248L905.597 622.721H907.602L892.079 644H886.582ZM926.881 644L941.24 625.373L941.175 627.637L927.528 610.045H932.702L943.891 624.597L941.951 624.532L953.14 610.045H958.185L944.409 627.831L944.473 625.373L958.961 644H953.722L941.886 628.478L943.697 628.736L932.056 644H926.881Z" fill="#1E1E1E"/>
<path d="M482.856 804.388C479.493 804.388 476.259 803.849 473.154 802.771C470.093 801.65 467.721 800.227 466.04 798.502L467.915 794.816C469.511 796.368 471.645 797.683 474.318 798.761C477.035 799.796 479.881 800.313 482.856 800.313C485.701 800.313 488.008 799.968 489.776 799.279C491.587 798.546 492.902 797.575 493.721 796.368C494.584 795.161 495.015 793.824 495.015 792.358C495.015 790.59 494.498 789.167 493.463 788.09C492.471 787.012 491.156 786.171 489.517 785.567C487.879 784.92 486.068 784.36 484.085 783.886C482.101 783.411 480.118 782.915 478.134 782.398C476.151 781.837 474.318 781.104 472.637 780.199C470.998 779.294 469.662 778.108 468.627 776.642C467.635 775.133 467.139 773.171 467.139 770.756C467.139 768.514 467.721 766.466 468.886 764.612C470.093 762.715 471.925 761.206 474.383 760.085C476.841 758.92 479.988 758.338 483.826 758.338C486.37 758.338 488.892 758.705 491.393 759.438C493.894 760.128 496.05 761.098 497.861 762.348L496.244 766.164C494.303 764.871 492.234 763.922 490.035 763.318C487.879 762.715 485.788 762.413 483.761 762.413C481.045 762.413 478.803 762.779 477.035 763.512C475.267 764.245 473.952 765.237 473.09 766.488C472.27 767.695 471.861 769.075 471.861 770.627C471.861 772.395 472.357 773.818 473.348 774.896C474.383 775.973 475.72 776.814 477.358 777.418C479.04 778.022 480.872 778.561 482.856 779.035C484.839 779.509 486.801 780.027 488.741 780.587C490.725 781.148 492.536 781.881 494.174 782.786C495.856 783.648 497.192 784.813 498.184 786.279C499.219 787.745 499.736 789.663 499.736 792.035C499.736 794.234 499.133 796.282 497.925 798.179C496.718 800.033 494.864 801.542 492.363 802.706C489.905 803.828 486.736 804.388 482.856 804.388ZM523.617 804.323C520.081 804.323 516.977 803.59 514.304 802.124C511.63 800.615 509.539 798.567 508.03 795.98C506.521 793.35 505.766 790.353 505.766 786.99C505.766 783.627 506.478 780.652 507.901 778.065C509.367 775.478 511.35 773.451 513.851 771.985C516.395 770.476 519.241 769.721 522.388 769.721C525.579 769.721 528.403 770.454 530.861 771.92C533.362 773.343 535.324 775.37 536.746 778C538.169 780.587 538.881 783.584 538.881 786.99C538.881 787.206 538.859 787.443 538.816 787.701C538.816 787.917 538.816 788.154 538.816 788.413H509.259V784.985H536.358L534.547 786.343C534.547 783.886 534.009 781.708 532.931 779.811C531.896 777.871 530.473 776.362 528.662 775.284C526.851 774.206 524.76 773.667 522.388 773.667C520.06 773.667 517.969 774.206 516.115 775.284C514.261 776.362 512.816 777.871 511.781 779.811C510.746 781.751 510.229 783.972 510.229 786.473V787.184C510.229 789.771 510.79 792.056 511.911 794.04C513.075 795.98 514.67 797.511 516.697 798.632C518.766 799.71 521.116 800.249 523.746 800.249C525.816 800.249 527.735 799.882 529.503 799.149C531.314 798.416 532.866 797.295 534.159 795.786L536.746 798.761C535.237 800.572 533.34 801.952 531.055 802.9C528.813 803.849 526.334 804.323 523.617 804.323ZM551.849 795.204L551.979 789.318L573.128 770.045H578.755L563.815 784.338L561.228 786.537L551.849 795.204ZM548.228 804V756.01H552.82V804H548.228ZM574.551 804L560.387 786.343L563.362 782.786L580.178 804H574.551ZM599.586 804.323C596.309 804.323 593.355 803.59 590.725 802.124C588.138 800.615 586.09 798.567 584.581 795.98C583.072 793.35 582.317 790.353 582.317 786.99C582.317 783.584 583.072 780.587 584.581 778C586.09 775.413 588.138 773.386 590.725 771.92C593.312 770.454 596.266 769.721 599.586 769.721C602.949 769.721 605.924 770.454 608.511 771.92C611.141 773.386 613.19 775.413 614.656 778C616.165 780.587 616.919 783.584 616.919 786.99C616.919 790.353 616.165 793.35 614.656 795.98C613.19 798.567 611.141 800.615 608.511 802.124C605.881 803.59 602.906 804.323 599.586 804.323ZM599.586 800.249C602.044 800.249 604.221 799.71 606.118 798.632C608.015 797.511 609.503 795.959 610.581 793.975C611.702 791.949 612.263 789.62 612.263 786.99C612.263 784.317 611.702 781.988 610.581 780.005C609.503 778.022 608.015 776.491 606.118 775.413C604.221 774.292 602.065 773.731 599.651 773.731C597.236 773.731 595.08 774.292 593.183 775.413C591.286 776.491 589.777 778.022 588.656 780.005C587.534 781.988 586.974 784.317 586.974 786.99C586.974 789.62 587.534 791.949 588.656 793.975C589.777 795.959 591.286 797.511 593.183 798.632C595.08 799.71 597.214 800.249 599.586 800.249ZM626.294 804V756.01H630.886V804H626.294ZM664.942 804V796.498L664.748 795.269V782.721C664.748 779.833 663.929 777.612 662.29 776.06C660.695 774.507 658.302 773.731 655.111 773.731C652.912 773.731 650.821 774.098 648.838 774.831C646.854 775.564 645.173 776.534 643.793 777.741L641.723 774.313C643.448 772.847 645.518 771.726 647.932 770.95C650.347 770.131 652.891 769.721 655.564 769.721C659.962 769.721 663.347 770.821 665.718 773.02C668.133 775.176 669.34 778.474 669.34 782.915V804H664.942ZM653.236 804.323C650.692 804.323 648.471 803.914 646.574 803.095C644.72 802.232 643.297 801.068 642.305 799.602C641.314 798.093 640.818 796.368 640.818 794.428C640.818 792.66 641.227 791.065 642.047 789.642C642.909 788.176 644.289 787.012 646.186 786.149C648.126 785.244 650.713 784.791 653.947 784.791H665.654V788.219H654.076C650.8 788.219 648.514 788.801 647.221 789.965C645.97 791.129 645.345 792.574 645.345 794.299C645.345 796.239 646.1 797.791 647.609 798.955C649.118 800.119 651.231 800.701 653.947 800.701C656.534 800.701 658.755 800.119 660.609 798.955C662.506 797.748 663.886 796.023 664.748 793.781L665.783 796.95C664.921 799.192 663.411 800.982 661.256 802.318C659.143 803.655 656.469 804.323 653.236 804.323ZM699.146 769.721C701.905 769.721 704.32 770.26 706.39 771.338C708.502 772.373 710.141 773.968 711.305 776.124C712.512 778.28 713.116 780.997 713.116 784.274V804H708.524V784.726C708.524 781.148 707.619 778.453 705.808 776.642C704.04 774.788 701.539 773.861 698.305 773.861C695.891 773.861 693.778 774.357 691.967 775.348C690.199 776.297 688.819 777.698 687.828 779.552C686.879 781.363 686.405 783.562 686.405 786.149V804H681.813V756.01H686.405V779.358L685.499 777.612C686.577 775.154 688.302 773.235 690.673 771.856C693.045 770.433 695.869 769.721 699.146 769.721ZM737.143 804L755.706 778.905V782.592L738.243 758.726H743.74L758.422 778.647L756.288 778.711L770.969 758.726H776.143L758.875 782.269V778.905L777.372 804H771.81L756.158 782.721H758.163L742.641 804H737.143ZM777.443 804L791.801 785.373L791.737 787.637L778.09 770.045H783.264L794.453 784.597L792.513 784.532L803.702 770.045H808.747L794.97 787.831L795.035 785.373L809.523 804H804.284L792.448 788.478L794.259 788.736L782.617 804H777.443ZM811.863 804L830.425 778.905V782.592L812.962 758.726H818.46L833.141 778.647L831.007 778.711L845.688 758.726H850.863L833.594 782.269V778.905L852.091 804H846.529L830.878 782.721H832.883L817.36 804H811.863ZM852.162 804L866.52 785.373L866.456 787.637L852.809 770.045H857.983L869.172 784.597L867.232 784.532L878.421 770.045H883.466L869.69 787.831L869.754 785.373L884.242 804H879.003L867.167 788.478L868.978 788.736L857.336 804H852.162ZM886.582 804L905.144 778.905V782.592L887.681 758.726H893.179L907.86 778.647L905.726 778.711L920.408 758.726H925.582L908.313 782.269V778.905L926.811 804H921.248L905.597 782.721H907.602L892.079 804H886.582ZM926.881 804L941.24 785.373L941.175 787.637L927.528 770.045H932.702L943.891 784.597L941.951 784.532L953.14 770.045H958.185L944.409 787.831L944.473 785.373L958.961 804H953.722L941.886 788.478L943.697 788.736L932.056 804H926.881Z" fill="#1E1E1E"/>
<path d="M482.856 964.388C479.493 964.388 476.259 963.849 473.154 962.771C470.093 961.65 467.721 960.227 466.04 958.502L467.915 954.816C469.511 956.368 471.645 957.683 474.318 958.761C477.035 959.796 479.881 960.313 482.856 960.313C485.701 960.313 488.008 959.968 489.776 959.279C491.587 958.546 492.902 957.575 493.721 956.368C494.584 955.161 495.015 953.824 495.015 952.358C495.015 950.59 494.498 949.167 493.463 948.09C492.471 947.012 491.156 946.171 489.517 945.567C487.879 944.92 486.068 944.36 484.085 943.886C482.101 943.411 480.118 942.915 478.134 942.398C476.151 941.837 474.318 941.104 472.637 940.199C470.998 939.294 469.662 938.108 468.627 936.642C467.635 935.133 467.139 933.171 467.139 930.756C467.139 928.514 467.721 926.466 468.886 924.612C470.093 922.715 471.925 921.206 474.383 920.085C476.841 918.92 479.988 918.338 483.826 918.338C486.37 918.338 488.892 918.705 491.393 919.438C493.894 920.128 496.05 921.098 497.861 922.348L496.244 926.164C494.303 924.871 492.234 923.922 490.035 923.318C487.879 922.715 485.788 922.413 483.761 922.413C481.045 922.413 478.803 922.779 477.035 923.512C475.267 924.245 473.952 925.237 473.09 926.488C472.27 927.695 471.861 929.075 471.861 930.627C471.861 932.395 472.357 933.818 473.348 934.896C474.383 935.973 475.72 936.814 477.358 937.418C479.04 938.022 480.872 938.561 482.856 939.035C484.839 939.509 486.801 940.027 488.741 940.587C490.725 941.148 492.536 941.881 494.174 942.786C495.856 943.648 497.192 944.813 498.184 946.279C499.219 947.745 499.736 949.663 499.736 952.035C499.736 954.234 499.133 956.282 497.925 958.179C496.718 960.033 494.864 961.542 492.363 962.706C489.905 963.828 486.736 964.388 482.856 964.388ZM523.617 964.323C520.081 964.323 516.977 963.59 514.304 962.124C511.63 960.615 509.539 958.567 508.03 955.98C506.521 953.35 505.766 950.353 505.766 946.99C505.766 943.627 506.478 940.652 507.901 938.065C509.367 935.478 511.35 933.451 513.851 931.985C516.395 930.476 519.241 929.721 522.388 929.721C525.579 929.721 528.403 930.454 530.861 931.92C533.362 933.343 535.324 935.37 536.746 938C538.169 940.587 538.881 943.584 538.881 946.99C538.881 947.206 538.859 947.443 538.816 947.701C538.816 947.917 538.816 948.154 538.816 948.413H509.259V944.985H536.358L534.547 946.343C534.547 943.886 534.009 941.708 532.931 939.811C531.896 937.871 530.473 936.362 528.662 935.284C526.851 934.206 524.76 933.667 522.388 933.667C520.06 933.667 517.969 934.206 516.115 935.284C514.261 936.362 512.816 937.871 511.781 939.811C510.746 941.751 510.229 943.972 510.229 946.473V947.184C510.229 949.771 510.79 952.056 511.911 954.04C513.075 955.98 514.67 957.511 516.697 958.632C518.766 959.71 521.116 960.249 523.746 960.249C525.816 960.249 527.735 959.882 529.503 959.149C531.314 958.416 532.866 957.295 534.159 955.786L536.746 958.761C535.237 960.572 533.34 961.952 531.055 962.9C528.813 963.849 526.334 964.323 523.617 964.323ZM551.849 955.204L551.979 949.318L573.128 930.045H578.755L563.815 944.338L561.228 946.537L551.849 955.204ZM548.228 964V916.01H552.82V964H548.228ZM574.551 964L560.387 946.343L563.362 942.786L580.178 964H574.551ZM599.586 964.323C596.309 964.323 593.355 963.59 590.725 962.124C588.138 960.615 586.09 958.567 584.581 955.98C583.072 953.35 582.317 950.353 582.317 946.99C582.317 943.584 583.072 940.587 584.581 938C586.09 935.413 588.138 933.386 590.725 931.92C593.312 930.454 596.266 929.721 599.586 929.721C602.949 929.721 605.924 930.454 608.511 931.92C611.141 933.386 613.19 935.413 614.656 938C616.165 940.587 616.919 943.584 616.919 946.99C616.919 950.353 616.165 953.35 614.656 955.98C613.19 958.567 611.141 960.615 608.511 962.124C605.881 963.59 602.906 964.323 599.586 964.323ZM599.586 960.249C602.044 960.249 604.221 959.71 606.118 958.632C608.015 957.511 609.503 955.959 610.581 953.975C611.702 951.949 612.263 949.62 612.263 946.99C612.263 944.317 611.702 941.988 610.581 940.005C609.503 938.022 608.015 936.491 606.118 935.413C604.221 934.292 602.065 933.731 599.651 933.731C597.236 933.731 595.08 934.292 593.183 935.413C591.286 936.491 589.777 938.022 588.656 940.005C587.534 941.988 586.974 944.317 586.974 946.99C586.974 949.62 587.534 951.949 588.656 953.975C589.777 955.959 591.286 957.511 593.183 958.632C595.08 959.71 597.214 960.249 599.586 960.249ZM626.294 964V916.01H630.886V964H626.294ZM664.942 964V956.498L664.748 955.269V942.721C664.748 939.833 663.929 937.612 662.29 936.06C660.695 934.507 658.302 933.731 655.111 933.731C652.912 933.731 650.821 934.098 648.838 934.831C646.854 935.564 645.173 936.534 643.793 937.741L641.723 934.313C643.448 932.847 645.518 931.726 647.932 930.95C650.347 930.131 652.891 929.721 655.564 929.721C659.962 929.721 663.347 930.821 665.718 933.02C668.133 935.176 669.34 938.474 669.34 942.915V964H664.942ZM653.236 964.323C650.692 964.323 648.471 963.914 646.574 963.095C644.72 962.232 643.297 961.068 642.305 959.602C641.314 958.093 640.818 956.368 640.818 954.428C640.818 952.66 641.227 951.065 642.047 949.642C642.909 948.176 644.289 947.012 646.186 946.149C648.126 945.244 650.713 944.791 653.947 944.791H665.654V948.219H654.076C650.8 948.219 648.514 948.801 647.221 949.965C645.97 951.129 645.345 952.574 645.345 954.299C645.345 956.239 646.1 957.791 647.609 958.955C649.118 960.119 651.231 960.701 653.947 960.701C656.534 960.701 658.755 960.119 660.609 958.955C662.506 957.748 663.886 956.023 664.748 953.781L665.783 956.95C664.921 959.192 663.411 960.982 661.256 962.318C659.143 963.655 656.469 964.323 653.236 964.323ZM699.146 929.721C701.905 929.721 704.32 930.26 706.39 931.338C708.502 932.373 710.141 933.968 711.305 936.124C712.512 938.28 713.116 940.997 713.116 944.274V964H708.524V944.726C708.524 941.148 707.619 938.453 705.808 936.642C704.04 934.788 701.539 933.861 698.305 933.861C695.891 933.861 693.778 934.357 691.967 935.348C690.199 936.297 688.819 937.698 687.828 939.552C686.879 941.363 686.405 943.562 686.405 946.149V964H681.813V916.01H686.405V939.358L685.499 937.612C686.577 935.154 688.302 933.235 690.673 931.856C693.045 930.433 695.869 929.721 699.146 929.721ZM737.143 964L755.706 938.905V942.592L738.243 918.726H743.74L758.422 938.647L756.288 938.711L770.969 918.726H776.143L758.875 942.269V938.905L777.372 964H771.81L756.158 942.721H758.163L742.641 964H737.143ZM777.443 964L791.801 945.373L791.737 947.637L778.09 930.045H783.264L794.453 944.597L792.513 944.532L803.702 930.045H808.747L794.97 947.831L795.035 945.373L809.523 964H804.284L792.448 948.478L794.259 948.736L782.617 964H777.443ZM811.863 964L830.425 938.905V942.592L812.962 918.726H818.46L833.141 938.647L831.007 938.711L845.688 918.726H850.863L833.594 942.269V938.905L852.091 964H846.529L830.878 942.721H832.883L817.36 964H811.863ZM852.162 964L866.52 945.373L866.456 947.637L852.809 930.045H857.983L869.172 944.597L867.232 944.532L878.421 930.045H883.466L869.69 947.831L869.754 945.373L884.242 964H879.003L867.167 948.478L868.978 948.736L857.336 964H852.162ZM886.582 964L905.144 938.905V942.592L887.681 918.726H893.179L907.86 938.647L905.726 938.711L920.408 918.726H925.582L908.313 942.269V938.905L926.811 964H921.248L905.597 942.721H907.602L892.079 964H886.582ZM926.881 964L941.24 945.373L941.175 947.637L927.528 930.045H932.702L943.891 944.597L941.951 944.532L953.14 930.045H958.185L944.409 947.831L944.473 945.373L958.961 964H953.722L941.886 948.478L943.697 948.736L932.056 964H926.881Z" fill="#1E1E1E"/>
<path d="M115.522 485V481.701L134.343 463.269C136.068 461.587 137.362 460.121 138.224 458.871C139.086 457.577 139.668 456.37 139.97 455.249C140.272 454.128 140.423 453.071 140.423 452.08C140.423 449.449 139.517 447.38 137.706 445.871C135.939 444.362 133.308 443.607 129.816 443.607C127.143 443.607 124.771 444.017 122.701 444.836C120.675 445.655 118.929 446.927 117.463 448.652L114.164 445.806C115.932 443.736 118.196 442.141 120.955 441.02C123.715 439.899 126.798 439.338 130.204 439.338C133.265 439.338 135.917 439.834 138.159 440.826C140.401 441.774 142.126 443.176 143.333 445.03C144.584 446.884 145.209 449.061 145.209 451.562C145.209 453.028 144.993 454.473 144.562 455.896C144.174 457.318 143.441 458.828 142.363 460.423C141.328 461.975 139.798 463.743 137.771 465.726L120.502 482.672L119.209 480.861H147.279V485H115.522Z" fill="#1E1E1E"/>
<path d="M129.881 646.388C126.604 646.388 123.499 645.871 120.567 644.836C117.678 643.758 115.35 642.335 113.582 640.567L115.846 636.881C117.312 638.39 119.274 639.64 121.731 640.632C124.232 641.624 126.949 642.119 129.881 642.119C133.632 642.119 136.499 641.3 138.483 639.662C140.509 638.023 141.522 635.824 141.522 633.065C141.522 630.305 140.531 628.106 138.547 626.468C136.607 624.829 133.524 624.01 129.299 624.01H126.065V620.582L140.035 603.055L140.682 604.866H115.458V600.726H144.562V604.025L130.592 621.552L128.328 620.065H130.075C135.507 620.065 139.561 621.272 142.234 623.687C144.95 626.101 146.308 629.206 146.308 633C146.308 635.544 145.705 637.829 144.498 639.856C143.29 641.882 141.458 643.478 139 644.642C136.585 645.806 133.546 646.388 129.881 646.388Z" fill="#1E1E1E"/>
<path d="M109.587 795.1V791.736L133.582 761.726H138.756L114.955 791.736L112.433 790.96H148.846V795.1H109.587ZM135.134 807V795.1L135.264 790.96V780.483H139.791V807H135.134Z" fill="#1E1E1E"/>
<path d="M124.657 968.388C121.423 968.388 118.34 967.871 115.408 966.836C112.476 965.758 110.148 964.335 108.423 962.567L110.687 958.881C112.109 960.39 114.05 961.64 116.507 962.632C119.008 963.624 121.703 964.119 124.592 964.119C128.43 964.119 131.34 963.279 133.323 961.597C135.35 959.872 136.363 957.63 136.363 954.871C136.363 952.93 135.889 951.27 134.94 949.891C134.035 948.468 132.483 947.368 130.284 946.592C128.085 945.816 125.066 945.428 121.229 945.428H111.592L113.92 922.726H138.692V926.866H115.796L118.189 924.602L116.184 943.617L113.791 941.289H122.264C126.834 941.289 130.499 941.849 133.259 942.97C136.018 944.091 138.002 945.665 139.209 947.692C140.459 949.675 141.085 952.003 141.085 954.677C141.085 957.221 140.481 959.549 139.274 961.662C138.066 963.731 136.255 965.37 133.841 966.577C131.426 967.784 128.365 968.388 124.657 968.388Z" fill="#1E1E1E"/>
<path d="M473.368 133V87.7264H482.035L508.746 120.323H504.542V87.7264H514.891V133H506.289L479.512 100.403H483.716V133H473.368ZM546.234 133V126.209L545.587 124.721V112.562C545.587 110.406 544.919 108.725 543.582 107.517C542.289 106.31 540.284 105.706 537.567 105.706C535.713 105.706 533.881 106.008 532.07 106.612C530.302 107.172 528.793 107.949 527.542 108.94L523.921 101.891C525.818 100.554 528.103 99.5191 530.776 98.7861C533.45 98.0531 536.166 97.6866 538.925 97.6866C544.229 97.6866 548.347 98.937 551.279 101.438C554.211 103.939 555.677 107.841 555.677 113.144V133H546.234ZM535.627 133.517C532.911 133.517 530.582 133.065 528.642 132.159C526.702 131.211 525.214 129.939 524.179 128.343C523.144 126.748 522.627 124.959 522.627 122.975C522.627 120.905 523.123 119.095 524.115 117.542C525.149 115.99 526.766 114.783 528.965 113.92C531.164 113.015 534.032 112.562 537.567 112.562H546.816V118.448H538.667C536.295 118.448 534.657 118.836 533.751 119.612C532.889 120.388 532.458 121.358 532.458 122.522C532.458 123.816 532.954 124.851 533.945 125.627C534.98 126.36 536.382 126.726 538.149 126.726C539.831 126.726 541.34 126.338 542.677 125.562C544.013 124.743 544.984 123.557 545.587 122.005L547.139 126.662C546.406 128.904 545.07 130.607 543.129 131.771C541.189 132.935 538.688 133.517 535.627 133.517ZM609.37 97.6866C612.13 97.6866 614.566 98.2471 616.679 99.3682C618.835 100.446 620.516 102.128 621.724 104.413C622.974 106.655 623.599 109.544 623.599 113.08V133H613.51V114.632C613.51 111.829 612.928 109.76 611.763 108.423C610.599 107.086 608.961 106.418 606.848 106.418C605.382 106.418 604.067 106.763 602.903 107.453C601.739 108.1 600.833 109.091 600.186 110.428C599.54 111.765 599.216 113.468 599.216 115.537V133H589.127V114.632C589.127 111.829 588.545 109.76 587.38 108.423C586.259 107.086 584.642 106.418 582.53 106.418C581.064 106.418 579.749 106.763 578.584 107.453C577.42 108.1 576.515 109.091 575.868 110.428C575.221 111.765 574.898 113.468 574.898 115.537V133H564.808V98.204H574.445V107.711L572.634 104.93C573.841 102.559 575.545 100.769 577.744 99.5622C579.986 98.3118 582.53 97.6866 585.375 97.6866C588.566 97.6866 591.347 98.5058 593.719 100.144C596.133 101.74 597.729 104.197 598.505 107.517L594.948 106.547C596.112 103.831 597.966 101.675 600.51 100.08C603.097 98.4842 606.05 97.6866 609.37 97.6866ZM653.986 133V126.209L653.339 124.721V112.562C653.339 110.406 652.671 108.725 651.334 107.517C650.041 106.31 648.036 105.706 645.32 105.706C643.465 105.706 641.633 106.008 639.822 106.612C638.054 107.172 636.545 107.949 635.295 108.94L631.673 101.891C633.57 100.554 635.855 99.5191 638.528 98.7861C641.202 98.0531 643.918 97.6866 646.678 97.6866C651.981 97.6866 656.099 98.937 659.031 101.438C661.963 103.939 663.429 107.841 663.429 113.144V133H653.986ZM643.379 133.517C640.663 133.517 638.334 133.065 636.394 132.159C634.454 131.211 632.966 129.939 631.931 128.343C630.897 126.748 630.379 124.959 630.379 122.975C630.379 120.905 630.875 119.095 631.867 117.542C632.902 115.99 634.519 114.783 636.718 113.92C638.917 113.015 641.784 112.562 645.32 112.562H654.568V118.448H646.419C644.048 118.448 642.409 118.836 641.504 119.612C640.641 120.388 640.21 121.358 640.21 122.522C640.21 123.816 640.706 124.851 641.698 125.627C642.732 126.36 644.134 126.726 645.902 126.726C647.583 126.726 649.092 126.338 650.429 125.562C651.766 124.743 652.736 123.557 653.339 122.005L654.892 126.662C654.159 128.904 652.822 130.607 650.882 131.771C648.941 132.935 646.441 133.517 643.379 133.517ZM706.464 133.776C702.842 133.776 699.371 133.302 696.051 132.353C692.731 131.362 690.058 130.09 688.031 128.537L691.589 120.647C693.529 122.027 695.814 123.169 698.444 124.075C701.118 124.937 703.812 125.368 706.529 125.368C708.599 125.368 710.259 125.174 711.509 124.786C712.803 124.355 713.751 123.773 714.355 123.04C714.958 122.307 715.26 121.466 715.26 120.517C715.26 119.31 714.786 118.362 713.837 117.672C712.889 116.939 711.638 116.357 710.086 115.925C708.534 115.451 706.809 115.02 704.912 114.632C703.058 114.201 701.182 113.683 699.285 113.08C697.431 112.476 695.728 111.7 694.176 110.751C692.623 109.803 691.351 108.552 690.36 107C689.411 105.448 688.937 103.464 688.937 101.05C688.937 98.4627 689.627 96.1128 691.006 94C692.429 91.8441 694.542 90.141 697.345 88.8905C700.191 87.597 703.748 86.9503 708.016 86.9503C710.862 86.9503 713.665 87.2952 716.424 87.9851C719.184 88.6318 721.62 89.6235 723.733 90.9602L720.499 98.9154C718.386 97.7081 716.273 96.8242 714.161 96.2637C712.048 95.66 709.978 95.3582 707.952 95.3582C705.925 95.3582 704.265 95.5954 702.972 96.0697C701.678 96.5439 700.751 97.1692 700.191 97.9453C699.63 98.6783 699.35 99.5406 699.35 100.532C699.35 101.697 699.824 102.645 700.773 103.378C701.721 104.068 702.972 104.629 704.524 105.06C706.076 105.491 707.779 105.922 709.633 106.353C711.531 106.784 713.406 107.28 715.26 107.841C717.157 108.401 718.882 109.156 720.434 110.104C721.987 111.053 723.237 112.303 724.186 113.856C725.177 115.408 725.673 117.37 725.673 119.741C725.673 122.285 724.962 124.614 723.539 126.726C722.116 128.839 719.982 130.542 717.136 131.836C714.333 133.129 710.776 133.776 706.464 133.776ZM749.39 133.517C745.423 133.517 741.93 132.741 738.912 131.189C735.937 129.637 733.63 127.524 731.992 124.851C730.353 122.134 729.534 119.051 729.534 115.602C729.534 112.109 730.332 109.027 731.927 106.353C733.566 103.637 735.786 101.524 738.589 100.015C741.391 98.4627 744.561 97.6866 748.096 97.6866C751.503 97.6866 754.564 98.4196 757.28 99.8856C760.04 101.308 762.217 103.378 763.813 106.095C765.408 108.768 766.206 111.98 766.206 115.731C766.206 116.119 766.184 116.572 766.141 117.09C766.098 117.564 766.055 118.017 766.012 118.448H737.748V112.562H760.708L756.828 114.308C756.828 112.498 756.461 110.924 755.728 109.587C754.995 108.25 753.982 107.216 752.688 106.483C751.395 105.706 749.886 105.318 748.161 105.318C746.436 105.318 744.906 105.706 743.569 106.483C742.275 107.216 741.262 108.272 740.529 109.652C739.796 110.988 739.43 112.584 739.43 114.438V115.99C739.43 117.887 739.839 119.569 740.658 121.035C741.521 122.458 742.707 123.557 744.216 124.333C745.768 125.066 747.579 125.433 749.648 125.433C751.503 125.433 753.119 125.153 754.499 124.592C755.922 124.032 757.216 123.191 758.38 122.07L763.748 127.891C762.153 129.701 760.148 131.103 757.733 132.095C755.318 133.043 752.537 133.517 749.39 133.517ZM781.266 125.886L781.525 113.597L797.759 98.204H809.789L794.202 114.05L788.963 118.318L781.266 125.886ZM772.923 133V85.01H783.013V133H772.923ZM798.858 133L787.087 118.383L793.425 110.557L811.082 133H798.858ZM830.724 133.517C827.016 133.517 823.717 132.741 820.829 131.189C817.983 129.637 815.719 127.524 814.038 124.851C812.399 122.134 811.58 119.051 811.58 115.602C811.58 112.109 812.399 109.027 814.038 106.353C815.719 103.637 817.983 101.524 820.829 100.015C823.717 98.4627 827.016 97.6866 830.724 97.6866C834.389 97.6866 837.666 98.4627 840.555 100.015C843.444 101.524 845.708 103.615 847.346 106.289C848.984 108.962 849.804 112.066 849.804 115.602C849.804 119.051 848.984 122.134 847.346 124.851C845.708 127.524 843.444 129.637 840.555 131.189C837.666 132.741 834.389 133.517 830.724 133.517ZM830.724 125.239C832.406 125.239 833.915 124.851 835.251 124.075C836.588 123.299 837.645 122.199 838.421 120.776C839.197 119.31 839.585 117.585 839.585 115.602C839.585 113.575 839.197 111.851 838.421 110.428C837.645 109.005 836.588 107.905 835.251 107.129C833.915 106.353 832.406 105.965 830.724 105.965C829.043 105.965 827.533 106.353 826.197 107.129C824.86 107.905 823.782 109.005 822.963 110.428C822.187 111.851 821.799 113.575 821.799 115.602C821.799 117.585 822.187 119.31 822.963 120.776C823.782 122.199 824.86 123.299 826.197 124.075C827.533 124.851 829.043 125.239 830.724 125.239ZM856.548 133V85.01H866.637V133H856.548ZM897.345 133V126.209L896.698 124.721V112.562C896.698 110.406 896.029 108.725 894.693 107.517C893.399 106.31 891.394 105.706 888.678 105.706C886.824 105.706 884.991 106.008 883.18 106.612C881.413 107.172 879.903 107.949 878.653 108.94L875.031 101.891C876.928 100.554 879.214 99.5191 881.887 98.7861C884.56 98.0531 887.277 97.6866 890.036 97.6866C895.34 97.6866 899.457 98.937 902.389 101.438C905.321 103.939 906.787 107.841 906.787 113.144V133H897.345ZM886.738 133.517C884.021 133.517 881.693 133.065 879.753 132.159C877.812 131.211 876.325 129.939 875.29 128.343C874.255 126.748 873.738 124.959 873.738 122.975C873.738 120.905 874.233 119.095 875.225 117.542C876.26 115.99 877.877 114.783 880.076 113.92C882.275 113.015 885.142 112.562 888.678 112.562H897.927V118.448H889.777C887.406 118.448 885.767 118.836 884.862 119.612C884 120.388 883.568 121.358 883.568 122.522C883.568 123.816 884.064 124.851 885.056 125.627C886.091 126.36 887.492 126.726 889.26 126.726C890.942 126.726 892.451 126.338 893.787 125.562C895.124 124.743 896.094 123.557 896.698 122.005L898.25 126.662C897.517 128.904 896.18 130.607 894.24 131.771C892.3 132.935 889.799 133.517 886.738 133.517ZM937.068 97.6866C939.828 97.6866 942.285 98.2471 944.441 99.3682C946.64 100.446 948.365 102.128 949.615 104.413C950.866 106.655 951.491 109.544 951.491 113.08V133H941.401V114.632C941.401 111.829 940.776 109.76 939.526 108.423C938.319 107.086 936.594 106.418 934.352 106.418C932.756 106.418 931.312 106.763 930.018 107.453C928.768 108.1 927.776 109.113 927.043 110.493C926.353 111.872 926.008 113.64 926.008 115.796V133H915.919V85.01H926.008V107.841L923.745 104.93C924.995 102.602 926.785 100.813 929.113 99.5622C931.441 98.3118 934.093 97.6866 937.068 97.6866Z" fill="#1E1E1E"/>
<path d="M1396.71 133.776C1393.65 133.776 1390.83 133.216 1388.24 132.095C1385.69 130.93 1383.6 129.292 1381.97 127.179L1387.79 120.194C1389.04 121.833 1390.35 123.083 1391.73 123.945C1393.11 124.765 1394.6 125.174 1396.19 125.174C1400.46 125.174 1402.6 122.673 1402.6 117.672V96.1343H1386.69V87.7264H1413.01V117.09C1413.01 122.695 1411.63 126.877 1408.87 129.637C1406.11 132.396 1402.06 133.776 1396.71 133.776ZM1437.33 133.517C1434.44 133.517 1431.85 132.957 1429.57 131.836C1427.33 130.715 1425.58 129.012 1424.33 126.726C1423.08 124.398 1422.45 121.444 1422.45 117.866V98.204H1432.54V116.378C1432.54 119.267 1433.15 121.401 1434.35 122.781C1435.6 124.118 1437.35 124.786 1439.59 124.786C1441.15 124.786 1442.53 124.463 1443.73 123.816C1444.94 123.126 1445.89 122.091 1446.58 120.711C1447.27 119.289 1447.61 117.521 1447.61 115.408V98.204H1457.7V133H1448.13V123.428L1449.88 126.209C1448.71 128.624 1446.99 130.456 1444.7 131.706C1442.46 132.914 1440 133.517 1437.33 133.517ZM1511.61 97.6866C1514.37 97.6866 1516.81 98.2471 1518.92 99.3682C1521.08 100.446 1522.76 102.128 1523.97 104.413C1525.22 106.655 1525.84 109.544 1525.84 113.08V133H1515.75V114.632C1515.75 111.829 1515.17 109.76 1514.01 108.423C1512.84 107.086 1511.2 106.418 1509.09 106.418C1507.62 106.418 1506.31 106.763 1505.14 107.453C1503.98 108.1 1503.07 109.091 1502.43 110.428C1501.78 111.765 1501.46 113.468 1501.46 115.537V133H1491.37V114.632C1491.37 111.829 1490.79 109.76 1489.62 108.423C1488.5 107.086 1486.88 106.418 1484.77 106.418C1483.31 106.418 1481.99 106.763 1480.83 107.453C1479.66 108.1 1478.76 109.091 1478.11 110.428C1477.46 111.765 1477.14 113.468 1477.14 115.537V133H1467.05V98.204H1476.69V107.711L1474.88 104.93C1476.08 102.559 1477.79 100.769 1479.99 99.5622C1482.23 98.3118 1484.77 97.6866 1487.62 97.6866C1490.81 97.6866 1493.59 98.5058 1495.96 100.144C1498.37 101.74 1499.97 104.197 1500.75 107.517L1497.19 106.547C1498.35 103.831 1500.21 101.675 1502.75 100.08C1505.34 98.4842 1508.29 97.6866 1511.61 97.6866ZM1534.88 133V85.01H1544.97V133H1534.88ZM1575.68 133V126.209L1575.03 124.721V112.562C1575.03 110.406 1574.37 108.725 1573.03 107.517C1571.74 106.31 1569.73 105.706 1567.01 105.706C1565.16 105.706 1563.33 106.008 1561.52 106.612C1559.75 107.172 1558.24 107.949 1556.99 108.94L1553.37 101.891C1555.26 100.554 1557.55 99.5191 1560.22 98.7861C1562.9 98.0531 1565.61 97.6866 1568.37 97.6866C1573.68 97.6866 1577.79 98.937 1580.73 101.438C1583.66 103.939 1585.12 107.841 1585.12 113.144V133H1575.68ZM1565.07 133.517C1562.36 133.517 1560.03 133.065 1558.09 132.159C1556.15 131.211 1554.66 129.939 1553.63 128.343C1552.59 126.748 1552.07 124.959 1552.07 122.975C1552.07 120.905 1552.57 119.095 1553.56 117.542C1554.6 115.99 1556.21 114.783 1558.41 113.92C1560.61 113.015 1563.48 112.562 1567.01 112.562H1576.26V118.448H1568.11C1565.74 118.448 1564.1 118.836 1563.2 119.612C1562.34 120.388 1561.91 121.358 1561.91 122.522C1561.91 123.816 1562.4 124.851 1563.39 125.627C1564.43 126.36 1565.83 126.726 1567.6 126.726C1569.28 126.726 1570.79 126.338 1572.12 125.562C1573.46 124.743 1574.43 123.557 1575.03 122.005L1576.59 126.662C1575.85 128.904 1574.52 130.607 1572.58 131.771C1570.64 132.935 1568.14 133.517 1565.07 133.517ZM1615.4 97.6866C1618.16 97.6866 1620.62 98.2471 1622.78 99.3682C1624.98 100.446 1626.7 102.128 1627.95 104.413C1629.2 106.655 1629.83 109.544 1629.83 113.08V133H1619.74V114.632C1619.74 111.829 1619.11 109.76 1617.86 108.423C1616.66 107.086 1614.93 106.418 1612.69 106.418C1611.09 106.418 1609.65 106.763 1608.36 107.453C1607.1 108.1 1606.11 109.113 1605.38 110.493C1604.69 111.872 1604.35 113.64 1604.35 115.796V133H1594.26V85.01H1604.35V107.841L1602.08 104.93C1603.33 102.602 1605.12 100.813 1607.45 99.5622C1609.78 98.3118 1612.43 97.6866 1615.4 97.6866ZM1672.88 133.776C1669.26 133.776 1665.78 133.302 1662.46 132.353C1659.14 131.362 1656.47 130.09 1654.44 128.537L1658 120.647C1659.94 122.027 1662.23 123.169 1664.86 124.075C1667.53 124.937 1670.23 125.368 1672.94 125.368C1675.01 125.368 1676.67 125.174 1677.92 124.786C1679.22 124.355 1680.16 123.773 1680.77 123.04C1681.37 122.307 1681.67 121.466 1681.67 120.517C1681.67 119.31 1681.2 118.362 1680.25 117.672C1679.3 116.939 1678.05 116.357 1676.5 115.925C1674.95 115.451 1673.22 115.02 1671.32 114.632C1669.47 114.201 1667.6 113.683 1665.7 113.08C1663.84 112.476 1662.14 111.7 1660.59 110.751C1659.04 109.803 1657.76 108.552 1656.77 107C1655.82 105.448 1655.35 103.464 1655.35 101.05C1655.35 98.4627 1656.04 96.1128 1657.42 94C1658.84 91.8441 1660.95 90.141 1663.76 88.8905C1666.6 87.597 1670.16 86.9503 1674.43 86.9503C1677.28 86.9503 1680.08 87.2952 1682.84 87.9851C1685.6 88.6318 1688.03 89.6235 1690.15 90.9602L1686.91 98.9154C1684.8 97.7081 1682.69 96.8242 1680.57 96.2637C1678.46 95.66 1676.39 95.3582 1674.36 95.3582C1672.34 95.3582 1670.68 95.5954 1669.38 96.0697C1668.09 96.5439 1667.16 97.1692 1666.6 97.9453C1666.04 98.6783 1665.76 99.5406 1665.76 100.532C1665.76 101.697 1666.24 102.645 1667.19 103.378C1668.13 104.068 1669.38 104.629 1670.94 105.06C1672.49 105.491 1674.19 105.922 1676.05 106.353C1677.94 106.784 1679.82 107.28 1681.67 107.841C1683.57 108.401 1685.29 109.156 1686.85 110.104C1688.4 111.053 1689.65 112.303 1690.6 113.856C1691.59 115.408 1692.09 117.37 1692.09 119.741C1692.09 122.285 1691.37 124.614 1689.95 126.726C1688.53 128.839 1686.39 130.542 1683.55 131.836C1680.75 133.129 1677.19 133.776 1672.88 133.776ZM1713.22 133.517C1710.33 133.517 1707.74 132.957 1705.45 131.836C1703.21 130.715 1701.47 129.012 1700.22 126.726C1698.97 124.398 1698.34 121.444 1698.34 117.866V98.204H1708.43V116.378C1708.43 119.267 1709.03 121.401 1710.24 122.781C1711.49 124.118 1713.24 124.786 1715.48 124.786C1717.03 124.786 1718.41 124.463 1719.62 123.816C1720.83 123.126 1721.77 122.091 1722.46 120.711C1723.15 119.289 1723.5 117.521 1723.5 115.408V98.204H1733.59V133H1724.02V123.428L1725.76 126.209C1724.6 128.624 1722.87 130.456 1720.59 131.706C1718.35 132.914 1715.89 133.517 1713.22 133.517ZM1763.5 133.517C1760.44 133.517 1757.81 132.871 1755.61 131.577C1753.41 130.284 1751.73 128.322 1750.57 125.692C1749.4 123.018 1748.82 119.655 1748.82 115.602C1748.82 111.506 1749.43 108.143 1750.63 105.512C1751.88 102.882 1753.61 100.92 1755.81 99.6269C1758.01 98.3333 1760.57 97.6866 1763.5 97.6866C1766.78 97.6866 1769.71 98.4196 1772.3 99.8856C1774.93 101.352 1777 103.421 1778.51 106.095C1780.06 108.768 1780.84 111.937 1780.84 115.602C1780.84 119.224 1780.06 122.371 1778.51 125.045C1777 127.718 1774.93 129.809 1772.3 131.318C1769.71 132.784 1766.78 133.517 1763.5 133.517ZM1742.94 133V85.01H1753.03V105.254L1752.38 115.537L1752.57 125.886V133H1742.94ZM1761.76 125.239C1763.44 125.239 1764.93 124.851 1766.22 124.075C1767.56 123.299 1768.61 122.199 1769.39 120.776C1770.21 119.31 1770.62 117.585 1770.62 115.602C1770.62 113.575 1770.21 111.851 1769.39 110.428C1768.61 109.005 1767.56 107.905 1766.22 107.129C1764.93 106.353 1763.44 105.965 1761.76 105.965C1760.08 105.965 1758.57 106.353 1757.23 107.129C1755.89 107.905 1754.84 109.005 1754.06 110.428C1753.28 111.851 1752.9 113.575 1752.9 115.602C1752.9 117.585 1753.28 119.31 1754.06 120.776C1754.84 122.199 1755.89 123.299 1757.23 124.075C1758.57 124.851 1760.08 125.239 1761.76 125.239ZM1832.15 97.6866C1834.91 97.6866 1837.35 98.2471 1839.46 99.3682C1841.62 100.446 1843.3 102.128 1844.51 104.413C1845.76 106.655 1846.38 109.544 1846.38 113.08V133H1836.29V114.632C1836.29 111.829 1835.71 109.76 1834.55 108.423C1833.38 107.086 1831.74 106.418 1829.63 106.418C1828.16 106.418 1826.85 106.763 1825.69 107.453C1824.52 108.1 1823.62 109.091 1822.97 110.428C1822.32 111.765 1822 113.468 1822 115.537V133H1811.91V114.632C1811.91 111.829 1811.33 109.76 1810.16 108.423C1809.04 107.086 1807.42 106.418 1805.31 106.418C1803.85 106.418 1802.53 106.763 1801.37 107.453C1800.2 108.1 1799.3 109.091 1798.65 110.428C1798 111.765 1797.68 113.468 1797.68 115.537V133H1787.59V98.204H1797.23V107.711L1795.42 104.93C1796.62 102.559 1798.33 100.769 1800.53 99.5622C1802.77 98.3118 1805.31 97.6866 1808.16 97.6866C1811.35 97.6866 1814.13 98.5058 1816.5 100.144C1818.92 101.74 1820.51 104.197 1821.29 107.517L1817.73 106.547C1818.89 103.831 1820.75 101.675 1823.29 100.08C1825.88 98.4842 1828.83 97.6866 1832.15 97.6866ZM1855.43 133V98.204H1865.51V133H1855.43ZM1860.47 93.3532C1858.62 93.3532 1857.11 92.8143 1855.94 91.7363C1854.78 90.6584 1854.2 89.3217 1854.2 87.7264C1854.2 86.131 1854.78 84.7944 1855.94 83.7164C1857.11 82.6385 1858.62 82.0995 1860.47 82.0995C1862.32 82.0995 1863.83 82.6169 1865 83.6517C1866.16 84.6435 1866.74 85.937 1866.74 87.5323C1866.74 89.2139 1866.16 90.6153 1865 91.7363C1863.88 92.8143 1862.37 93.3532 1860.47 93.3532ZM1886.59 133.517C1883.61 133.517 1880.74 133.172 1877.98 132.483C1875.27 131.75 1873.11 130.844 1871.52 129.766L1874.88 122.522C1876.47 123.514 1878.35 124.333 1880.51 124.98C1882.7 125.584 1884.86 125.886 1886.97 125.886C1889.3 125.886 1890.94 125.605 1891.89 125.045C1892.88 124.484 1893.38 123.708 1893.38 122.716C1893.38 121.897 1892.99 121.294 1892.21 120.905C1891.48 120.474 1890.49 120.151 1889.24 119.935C1887.99 119.72 1886.61 119.504 1885.1 119.289C1883.63 119.073 1882.14 118.793 1880.64 118.448C1879.13 118.06 1877.75 117.499 1876.5 116.766C1875.25 116.033 1874.23 115.041 1873.46 113.791C1872.72 112.541 1872.36 110.924 1872.36 108.94C1872.36 106.741 1872.98 104.801 1874.23 103.119C1875.53 101.438 1877.38 100.123 1879.79 99.1741C1882.21 98.1824 1885.1 97.6866 1888.46 97.6866C1890.83 97.6866 1893.25 97.9453 1895.7 98.4627C1898.16 98.9801 1900.21 99.7347 1901.85 100.726L1898.49 107.905C1896.8 106.914 1895.1 106.245 1893.38 105.9C1891.69 105.512 1890.06 105.318 1888.46 105.318C1886.22 105.318 1884.58 105.62 1883.55 106.224C1882.51 106.828 1881.99 107.604 1881.99 108.552C1881.99 109.415 1882.36 110.061 1883.09 110.493C1883.87 110.924 1884.88 111.269 1886.13 111.527C1887.38 111.786 1888.74 112.023 1890.21 112.239C1891.72 112.411 1893.23 112.692 1894.73 113.08C1896.24 113.468 1897.6 114.028 1898.81 114.761C1900.06 115.451 1901.07 116.421 1901.85 117.672C1902.63 118.879 1903.01 120.474 1903.01 122.458C1903.01 124.614 1902.37 126.532 1901.07 128.214C1899.78 129.852 1897.9 131.146 1895.45 132.095C1893.03 133.043 1890.08 133.517 1886.59 133.517ZM1909.24 133V98.204H1919.33V133H1909.24ZM1914.28 93.3532C1912.43 93.3532 1910.92 92.8143 1909.76 91.7363C1908.59 90.6584 1908.01 89.3217 1908.01 87.7264C1908.01 86.131 1908.59 84.7944 1909.76 83.7164C1910.92 82.6385 1912.43 82.0995 1914.28 82.0995C1916.14 82.0995 1917.65 82.6169 1918.81 83.6517C1919.97 84.6435 1920.56 85.937 1920.56 87.5323C1920.56 89.2139 1919.97 90.6153 1918.81 91.7363C1917.69 92.8143 1916.18 93.3532 1914.28 93.3532Z" fill="#1E1E1E"/>
<g filter="url(#filter0_b_897_2331)">
<rect width="2228" height="1146" rx="56" fill="#1C1C1C" fill-opacity="0.56"/>
</g>
<path d="M814.635 526.757C803.347 526.757 792.452 525.378 781.951 522.622C771.581 519.734 763.114 516.059 756.551 511.596L769.349 482.849C775.519 486.787 782.607 490.068 790.614 492.694C798.752 495.188 806.825 496.435 814.832 496.435C820.214 496.435 824.546 495.975 827.827 495.056C831.109 494.006 833.472 492.694 834.916 491.118C836.491 489.412 837.278 487.443 837.278 485.212C837.278 482.061 835.834 479.567 832.947 477.73C830.059 475.892 826.318 474.382 821.724 473.201C817.129 472.02 812.01 470.838 806.366 469.657C800.853 468.476 795.274 466.966 789.63 465.128C784.117 463.291 779.063 460.928 774.469 458.04C769.875 455.021 766.134 451.149 763.246 446.423C760.358 441.567 758.914 435.463 758.914 428.112C758.914 419.842 761.145 412.36 765.608 405.666C770.203 398.972 777.028 393.59 786.086 389.521C795.143 385.451 806.431 383.417 819.952 383.417C829.009 383.417 837.869 384.467 846.532 386.567C855.327 388.536 863.137 391.489 869.963 395.427L857.952 424.371C851.389 420.827 844.892 418.202 838.46 416.495C832.028 414.657 825.793 413.739 819.755 413.739C814.373 413.739 810.041 414.329 806.76 415.511C803.478 416.561 801.115 418.005 799.671 419.842C798.227 421.68 797.505 423.78 797.505 426.143C797.505 429.162 798.884 431.59 801.64 433.428C804.528 435.135 808.269 436.578 812.863 437.76C817.589 438.81 822.708 439.926 828.221 441.107C833.865 442.288 839.444 443.798 844.957 445.636C850.602 447.342 855.721 449.705 860.315 452.724C864.909 455.612 868.585 459.484 871.341 464.341C874.229 469.066 875.673 475.039 875.673 482.258C875.673 490.265 873.376 497.682 868.782 504.507C864.319 511.202 857.559 516.584 848.501 520.653C839.575 524.722 828.287 526.757 814.635 526.757ZM947.827 525.772C935.226 525.772 924.2 523.409 914.749 518.684C905.429 513.827 898.144 507.264 892.894 498.994C887.774 490.593 885.215 481.077 885.215 470.444C885.215 459.812 887.709 450.361 892.697 442.092C897.816 433.691 904.839 427.193 913.764 422.599C922.69 417.873 932.732 415.511 943.889 415.511C954.391 415.511 963.973 417.677 972.636 422.008C981.3 426.209 988.191 432.444 993.31 440.713C998.429 448.983 1000.99 459.025 1000.99 470.838C1000.99 472.151 1000.92 473.66 1000.79 475.367C1000.66 477.073 1000.53 478.648 1000.4 480.092H915.93V460.403H980.512L966.335 465.916C966.467 461.059 965.548 456.859 963.579 453.315C961.741 449.77 959.116 447.014 955.703 445.045C952.422 443.076 948.549 442.092 944.086 442.092C939.623 442.092 935.685 443.076 932.273 445.045C928.991 447.014 926.431 449.836 924.594 453.511C922.756 457.056 921.837 461.256 921.837 466.113V471.823C921.837 477.073 922.887 481.602 924.987 485.409C927.219 489.215 930.369 492.169 934.438 494.269C938.508 496.238 943.364 497.222 949.009 497.222C954.259 497.222 958.722 496.5 962.398 495.056C966.204 493.481 969.945 491.118 973.621 487.968L993.31 508.445C988.191 514.09 981.89 518.421 974.408 521.44C966.926 524.328 958.066 525.772 947.827 525.772ZM1070.41 563.97C1060.18 563.97 1050.4 562.788 1041.08 560.426C1031.89 558.063 1024.01 554.584 1017.45 549.99L1031.04 523.803C1035.5 527.347 1041.01 530.104 1047.57 532.073C1054.27 534.173 1060.77 535.223 1067.07 535.223C1077.17 535.223 1084.46 532.992 1088.92 528.529C1093.39 524.197 1095.62 517.831 1095.62 509.43V496.828L1097.59 466.9L1097.39 436.775V417.283H1133.03V504.507C1133.03 524.722 1127.58 539.686 1116.69 549.399C1105.79 559.113 1090.37 563.97 1070.41 563.97ZM1063.92 518.487C1054.47 518.487 1045.74 516.387 1037.73 512.186C1029.85 507.855 1023.49 501.882 1018.63 494.269C1013.91 486.524 1011.54 477.401 1011.54 466.9C1011.54 456.399 1013.91 447.342 1018.63 439.729C1023.49 431.984 1029.85 426.012 1037.73 421.811C1045.74 417.611 1054.47 415.511 1063.92 415.511C1072.97 415.511 1080.72 417.348 1087.15 421.024C1093.58 424.568 1098.44 430.147 1101.72 437.76C1105.13 445.373 1106.84 455.087 1106.84 466.9C1106.84 478.714 1105.13 488.428 1101.72 496.041C1098.44 503.654 1093.58 509.298 1087.15 512.974C1080.72 516.649 1072.97 518.487 1063.92 518.487ZM1072.78 488.756C1077.24 488.756 1081.18 487.837 1084.59 485.999C1088.14 484.162 1090.89 481.602 1092.86 478.32C1094.96 475.039 1096.01 471.232 1096.01 466.9C1096.01 462.569 1094.96 458.762 1092.86 455.48C1090.89 452.199 1088.14 449.705 1084.59 447.998C1081.18 446.161 1077.24 445.242 1072.78 445.242C1068.31 445.242 1064.31 446.161 1060.77 447.998C1057.22 449.705 1054.4 452.199 1052.3 455.48C1050.33 458.762 1049.35 462.569 1049.35 466.9C1049.35 471.232 1050.33 475.039 1052.3 478.32C1054.4 481.602 1057.22 484.162 1060.77 485.999C1064.31 487.837 1068.31 488.756 1072.78 488.756ZM1212.98 525.772C1200.38 525.772 1189.35 523.409 1179.9 518.684C1170.58 513.827 1163.3 507.264 1158.05 498.994C1152.93 490.593 1150.37 481.077 1150.37 470.444C1150.37 459.812 1152.86 450.361 1157.85 442.092C1162.97 433.691 1169.99 427.193 1178.92 422.599C1187.85 417.873 1197.89 415.511 1209.04 415.511C1219.55 415.511 1229.13 417.677 1237.79 422.008C1246.45 426.209 1253.35 432.444 1258.46 440.713C1263.58 448.983 1266.14 459.025 1266.14 470.838C1266.14 472.151 1266.08 473.66 1265.95 475.367C1265.82 477.073 1265.68 478.648 1265.55 480.092H1181.09V460.403H1245.67L1231.49 465.916C1231.62 461.059 1230.7 456.859 1228.73 453.315C1226.9 449.77 1224.27 447.014 1220.86 445.045C1217.58 443.076 1213.7 442.092 1209.24 442.092C1204.78 442.092 1200.84 443.076 1197.43 445.045C1194.15 447.014 1191.59 449.836 1189.75 453.511C1187.91 457.056 1186.99 461.256 1186.99 466.113V471.823C1186.99 477.073 1188.04 481.602 1190.14 485.409C1192.37 489.215 1195.52 492.169 1199.59 494.269C1203.66 496.238 1208.52 497.222 1214.16 497.222C1219.41 497.222 1223.88 496.5 1227.55 495.056C1231.36 493.481 1235.1 491.118 1238.78 487.968L1258.46 508.445C1253.35 514.09 1247.05 518.421 1239.56 521.44C1232.08 524.328 1223.22 525.772 1212.98 525.772ZM1283.39 524V417.283H1319.03V448.392L1313.71 439.532C1316.86 431.525 1321.98 425.552 1329.07 421.614C1336.16 417.545 1344.76 415.511 1354.87 415.511V449.18C1353.16 448.917 1351.65 448.786 1350.34 448.786C1349.16 448.655 1347.84 448.589 1346.4 448.589C1338.79 448.589 1332.62 450.689 1327.89 454.89C1323.17 458.959 1320.8 465.653 1320.8 474.973V524H1283.39ZM1429.13 524V504.114L1426.57 499.191V462.569C1426.57 456.662 1424.73 452.133 1421.06 448.983C1417.51 445.701 1411.8 444.061 1403.93 444.061C1398.81 444.061 1393.62 444.914 1388.37 446.62C1383.12 448.195 1378.66 450.427 1374.98 453.315L1362.38 427.915C1368.42 423.977 1375.64 420.958 1384.04 418.858C1392.57 416.626 1401.04 415.511 1409.44 415.511C1426.77 415.511 1440.16 419.514 1449.61 427.521C1459.19 435.397 1463.98 447.802 1463.98 464.735V524H1429.13ZM1397.63 525.772C1389.09 525.772 1381.88 524.328 1375.97 521.44C1370.06 518.553 1365.53 514.615 1362.38 509.627C1359.36 504.639 1357.85 499.06 1357.85 492.891C1357.85 486.327 1359.49 480.683 1362.78 475.958C1366.19 471.101 1371.37 467.425 1378.33 464.931C1385.29 462.306 1394.28 460.994 1405.31 460.994H1430.51V480.486H1410.43C1404.39 480.486 1400.12 481.471 1397.63 483.44C1395.26 485.409 1394.08 488.034 1394.08 491.315C1394.08 494.597 1395.33 497.222 1397.82 499.191C1400.32 501.16 1403.73 502.145 1408.06 502.145C1412.13 502.145 1415.81 501.16 1419.09 499.191C1422.5 497.091 1425 493.941 1426.57 489.74L1431.69 503.523C1429.72 510.874 1425.85 516.452 1420.07 520.259C1414.43 523.934 1406.95 525.772 1397.63 525.772ZM740.145 764V626.173H805.317C820.544 626.173 833.933 628.995 845.484 634.64C857.035 640.284 866.027 648.226 872.459 658.464C879.022 668.703 882.304 680.91 882.304 695.087C882.304 709.132 879.022 721.339 872.459 731.709C866.027 741.948 857.035 749.889 845.484 755.534C833.933 761.178 820.544 764 805.317 764H740.145ZM779.13 732.891H803.742C811.618 732.891 818.444 731.447 824.219 728.559C830.126 725.54 834.72 721.208 838.002 715.564C841.284 709.788 842.924 702.962 842.924 695.087C842.924 687.08 841.284 680.254 838.002 674.61C834.72 668.965 830.126 664.699 824.219 661.811C818.444 658.792 811.618 657.283 803.742 657.283H779.13V732.891ZM966.215 764V744.114L963.655 739.191V702.569C963.655 696.662 961.817 692.133 958.142 688.983C954.598 685.701 948.888 684.061 941.012 684.061C935.893 684.061 930.708 684.914 925.457 686.62C920.207 688.195 915.744 690.427 912.069 693.315L899.467 667.915C905.505 663.977 912.725 660.958 921.126 658.858C929.658 656.626 938.124 655.511 946.525 655.511C963.852 655.511 977.241 659.514 986.692 667.521C996.274 675.397 1001.07 687.802 1001.07 704.735V764H966.215ZM934.711 765.772C926.179 765.772 918.96 764.328 913.053 761.44C907.146 758.553 902.618 754.615 899.467 749.627C896.448 744.639 894.939 739.06 894.939 732.891C894.939 726.327 896.579 720.683 899.861 715.958C903.274 711.101 908.459 707.425 915.416 704.931C922.373 702.306 931.364 700.994 942.39 700.994H967.593V720.486H947.51C941.472 720.486 937.205 721.471 934.711 723.44C932.349 725.409 931.167 728.034 931.167 731.315C931.167 734.597 932.414 737.222 934.908 739.191C937.402 741.16 940.815 742.145 945.147 742.145C949.216 742.145 952.891 741.16 956.173 739.191C959.586 737.091 962.08 733.941 963.655 729.74L968.774 743.523C966.805 750.874 962.933 756.452 957.158 760.259C951.513 763.934 944.031 765.772 934.711 765.772ZM1072.33 765.772C1058.68 765.772 1048.04 762.425 1040.43 755.73C1032.82 748.905 1029.01 738.666 1029.01 725.015V633.458H1066.42V724.621C1066.42 728.428 1067.47 731.447 1069.57 733.678C1071.67 735.778 1074.36 736.828 1077.64 736.828C1082.11 736.828 1085.91 735.713 1089.06 733.481L1098.32 759.668C1095.17 761.769 1091.3 763.278 1086.7 764.197C1082.11 765.247 1077.32 765.772 1072.33 765.772ZM1013.46 689.18V661.221H1090.84V689.18H1013.46ZM1177.92 764V744.114L1175.36 739.191V702.569C1175.36 696.662 1173.52 692.133 1169.84 688.983C1166.3 685.701 1160.59 684.061 1152.71 684.061C1147.59 684.061 1142.41 684.914 1137.16 686.62C1131.91 688.195 1127.44 690.427 1123.77 693.315L1111.17 667.915C1117.21 663.977 1124.43 660.958 1132.83 658.858C1141.36 656.626 1149.83 655.511 1158.23 655.511C1175.55 655.511 1188.94 659.514 1198.39 667.521C1207.97 675.397 1212.77 687.802 1212.77 704.735V764H1177.92ZM1146.41 765.772C1137.88 765.772 1130.66 764.328 1124.75 761.44C1118.85 758.553 1114.32 754.615 1111.17 749.627C1108.15 744.639 1106.64 739.06 1106.64 732.891C1106.64 726.327 1108.28 720.683 1111.56 715.958C1114.97 711.101 1120.16 707.425 1127.12 704.931C1134.07 702.306 1143.07 700.994 1154.09 700.994H1179.29V720.486H1159.21C1153.17 720.486 1148.91 721.471 1146.41 723.44C1144.05 725.409 1142.87 728.034 1142.87 731.315C1142.87 734.597 1144.12 737.222 1146.61 739.191C1149.1 741.16 1152.52 742.145 1156.85 742.145C1160.92 742.145 1164.59 741.16 1167.87 739.191C1171.29 737.091 1173.78 733.941 1175.36 729.74L1180.48 743.523C1178.51 750.874 1174.63 756.452 1168.86 760.259C1163.21 763.934 1155.73 765.772 1146.41 765.772ZM1305.88 655.511C1314.15 655.511 1321.64 657.217 1328.33 660.63C1335.02 663.912 1340.27 669.031 1344.08 675.988C1348.02 682.945 1349.99 691.936 1349.99 702.962V764H1312.58V709.066C1312.58 701.453 1311 695.94 1307.85 692.527C1304.83 688.983 1300.57 687.211 1295.05 687.211C1291.12 687.211 1287.51 688.13 1284.23 689.967C1280.94 691.674 1278.38 694.365 1276.55 698.04C1274.71 701.715 1273.79 706.507 1273.79 712.413V764H1236.38V657.283H1272.02V687.605L1265.13 678.744C1269.2 671 1274.77 665.224 1281.86 661.418C1288.95 657.48 1296.96 655.511 1305.88 655.511ZM1427 803.97C1416.76 803.97 1406.98 802.788 1397.66 800.426C1388.47 798.063 1380.6 794.584 1374.03 789.99L1387.62 763.803C1392.08 767.347 1397.6 770.104 1404.16 772.073C1410.85 774.173 1417.35 775.223 1423.65 775.223C1433.76 775.223 1441.04 772.992 1445.51 768.529C1449.97 764.197 1452.2 757.831 1452.2 749.43V736.828L1454.17 706.9L1453.97 676.775V657.283H1489.61V744.507C1489.61 764.722 1484.16 779.686 1473.27 789.399C1462.37 799.113 1446.95 803.97 1427 803.97ZM1420.5 758.487C1411.05 758.487 1402.32 756.387 1394.31 752.186C1386.44 747.855 1380.07 741.882 1375.22 734.269C1370.49 726.524 1368.13 717.401 1368.13 706.9C1368.13 696.399 1370.49 687.342 1375.22 679.729C1380.07 671.984 1386.44 666.012 1394.31 661.811C1402.32 657.611 1411.05 655.511 1420.5 655.511C1429.56 655.511 1437.3 657.348 1443.73 661.024C1450.17 664.568 1455.02 670.147 1458.31 677.76C1461.72 685.373 1463.42 695.087 1463.42 706.9C1463.42 718.714 1461.72 728.428 1458.31 736.041C1455.02 743.654 1450.17 749.298 1443.73 752.974C1437.3 756.649 1429.56 758.487 1420.5 758.487ZM1429.36 728.756C1433.82 728.756 1437.76 727.837 1441.18 725.999C1444.72 724.162 1447.48 721.602 1449.44 718.32C1451.55 715.039 1452.6 711.232 1452.6 706.9C1452.6 702.569 1451.55 698.762 1449.44 695.48C1447.48 692.199 1444.72 689.705 1441.18 687.998C1437.76 686.161 1433.82 685.242 1429.36 685.242C1424.9 685.242 1420.9 686.161 1417.35 687.998C1413.81 689.705 1410.98 692.199 1408.88 695.48C1406.92 698.762 1405.93 702.569 1405.93 706.9C1405.93 711.232 1406.92 715.039 1408.88 718.32C1410.98 721.602 1413.81 724.162 1417.35 725.999C1420.9 727.837 1424.9 728.756 1429.36 728.756Z" fill="#FFEBFA"/>
<defs>
<filter id="filter0_b_897_2331" x="-29" y="-29" width="2286" height="1204" filterUnits="userSpaceOnUse" color-interpolation-filters="sRGB">
<feFlood flood-opacity="0" result="BackgroundImageFix"/>
<feGaussianBlur in="BackgroundImageFix" stdDeviation="14.5"/>
<feComposite in2="SourceAlpha" operator="in" result="effect1_backgroundBlur_897_2331"/>
<feBlend mode="normal" in="SourceGraphic" in2="effect1_backgroundBlur_897_2331" result="shape"/>
</filter>
</defs>
</svg>
