<svg width="913" height="478" viewBox="0 0 913 478" fill="none" xmlns="http://www.w3.org/2000/svg">
<path d="M602.788 56.1275L602.073 50.05H566.323C568.111 37.895 569.183 25.3825 569.898 12.5125C570.256 5.72 564.893 0 558.816 0H353.968C347.533 0 342.528 5.72 342.886 12.5125C343.243 25.3825 344.673 37.895 346.461 50.05H310.711L309.638 56.1275C309.281 57.5575 305.348 94.0225 328.943 126.912C344.316 148.363 368.268 163.02 399.371 170.528C409.381 180.538 420.463 188.045 432.261 192.692C430.831 207.35 429.043 221.65 427.256 234.877H485.528C483.383 221.292 481.596 207.35 480.165 192.692C491.963 188.402 503.046 180.895 513.056 170.528C544.158 163.02 568.111 148.363 583.483 126.912C607.078 94.0225 602.788 57.5575 602.788 56.1275ZM339.311 117.975C324.296 97.24 322.508 74.7175 322.508 63.9925H348.606C355.398 97.955 367.553 127.985 382.926 150.508C364.336 143.358 349.678 132.275 339.311 117.975ZM573.116 117.975C562.748 132.275 548.091 143.358 529.501 150.508C545.231 127.628 557.028 97.955 563.821 63.9925H589.918C589.918 74.7175 587.773 97.24 573.116 117.975Z" fill="#FFC54D"/>
<path d="M516.988 285.285H395.438C391.863 285.285 389.003 282.425 389.003 278.85V233.09C389.003 229.515 391.863 226.655 395.438 226.655H516.988C520.563 226.655 523.423 229.515 523.423 233.09V278.85C523.423 282.425 520.563 285.285 516.988 285.285Z" fill="#C19D72"/>
<path d="M377.206 298.87H535.221C538.796 298.87 541.656 296.01 541.656 292.435V278.85C541.656 275.275 538.796 272.415 535.221 272.415H377.206C373.631 272.415 370.771 275.275 370.771 278.85V292.435C370.771 295.653 373.631 298.87 377.206 298.87Z" fill="#A88763"/>
<path d="M484.813 259.903H427.613C425.111 259.903 423.323 258.115 423.323 255.613V246.675C423.323 244.173 425.111 242.385 427.613 242.385H484.813C487.316 242.385 489.103 244.173 489.103 246.675V255.613C489.103 258.115 486.958 259.903 484.813 259.903Z" fill="#FFC54D"/>
<path d="M209.123 167.977L208.614 163.648H183.151C184.424 154.991 185.188 146.079 185.697 136.912C185.952 132.074 182.132 128 177.804 128H31.9012C27.3178 128 23.753 132.074 24.0077 136.912C24.2623 146.079 25.2808 154.991 26.5539 163.648H1.09102L0.327138 167.977C0.0725092 168.995 -2.72841 194.967 14.0771 218.393C25.0262 233.671 42.0863 244.111 64.2391 249.458C71.3687 256.588 79.2622 261.935 87.6649 265.245C86.6464 275.685 85.3733 285.87 84.1002 295.291H125.605C124.077 285.615 122.804 275.685 121.785 265.245C130.188 262.19 138.082 256.842 145.211 249.458C167.364 244.111 184.424 233.671 195.373 218.393C212.179 194.967 209.123 168.995 209.123 167.977ZM21.4614 212.028C10.7669 197.259 9.49379 181.218 9.49379 173.579H28.0817C32.9197 197.768 41.5771 219.157 52.5261 235.199C39.2854 230.106 28.8456 222.213 21.4614 212.028ZM187.989 212.028C180.605 222.213 170.165 230.106 156.924 235.199C168.128 218.903 176.531 197.768 181.368 173.579H199.956C199.956 181.218 198.429 197.259 187.989 212.028Z" fill="#BABABA"/>
<path d="M148.012 331.194H61.4378C58.8915 331.194 56.8545 329.157 56.8545 326.611V294.018C56.8545 291.472 58.8915 289.435 61.4378 289.435H148.012C150.558 289.435 152.595 291.472 152.595 294.018V326.611C152.595 329.157 150.558 331.194 148.012 331.194Z" fill="#C19D72"/>
<path d="M48.4515 340.87H160.998C163.544 340.87 165.581 338.833 165.581 336.287V326.611C165.581 324.064 163.544 322.027 160.998 322.027H48.4515C45.9052 322.027 43.8682 324.064 43.8682 326.611V336.287C43.8682 338.578 45.9052 340.87 48.4515 340.87Z" fill="#A88763"/>
<path d="M125.095 313.116H84.3544C82.572 313.116 81.2988 311.842 81.2988 310.06V303.694C81.2988 301.912 82.572 300.639 84.3544 300.639H125.095C126.877 300.639 128.151 301.912 128.151 303.694V310.06C128.151 311.842 126.623 313.116 125.095 313.116Z" fill="#BABABA"/>
<path d="M911.836 167.977L911.327 163.648H885.864C887.137 154.991 887.901 146.079 888.41 136.912C888.665 132.074 884.845 128 880.517 128H734.614C730.031 128 726.466 132.074 726.721 136.912C726.975 146.079 727.994 154.991 729.267 163.648H703.804L703.04 167.977C702.785 168.995 699.984 194.967 716.79 218.393C727.739 233.671 744.799 244.111 766.952 249.458C774.082 256.588 781.975 261.935 790.378 265.245C789.359 275.685 788.086 285.87 786.813 295.291H828.318C826.79 285.615 825.517 275.685 824.498 265.245C832.901 262.19 840.794 256.842 847.924 249.458C870.077 244.111 887.137 233.671 898.086 218.393C914.892 194.967 911.836 168.995 911.836 167.977ZM724.174 212.028C713.48 197.259 712.207 181.218 712.207 173.579H730.795C735.633 197.768 744.29 219.157 755.239 235.199C741.998 230.106 731.558 222.213 724.174 212.028ZM890.702 212.028C883.318 222.213 872.878 230.106 859.637 235.199C870.841 218.903 879.243 197.768 884.081 173.579H902.669C902.669 181.218 901.142 197.259 890.702 212.028Z" fill="#B29151"/>
<path d="M850.725 331.194H764.151C761.604 331.194 759.567 329.157 759.567 326.611V294.018C759.567 291.472 761.604 289.435 764.151 289.435H850.725C853.271 289.435 855.308 291.472 855.308 294.018V326.611C855.308 329.157 853.271 331.194 850.725 331.194Z" fill="#C19D72"/>
<path d="M751.164 340.87H863.71C866.257 340.87 868.294 338.833 868.294 336.287V326.611C868.294 324.064 866.257 322.027 863.71 322.027H751.164C748.618 322.027 746.581 324.064 746.581 326.611V336.287C746.581 338.578 748.618 340.87 751.164 340.87Z" fill="#A88763"/>
<path d="M827.808 313.116H787.067C785.285 313.116 784.012 311.842 784.012 310.06V303.694C784.012 301.912 785.285 300.639 787.067 300.639H827.808C829.59 300.639 830.863 301.912 830.863 303.694V310.06C830.863 311.842 829.336 313.116 827.808 313.116Z" fill="#B29151"/>
<path d="M394.192 369.977C392.406 369.977 390.752 369.63 389.232 368.937C387.739 368.244 386.512 367.244 385.552 365.937L388.512 362.377C389.286 363.444 390.126 364.244 391.032 364.777C391.966 365.31 392.979 365.577 394.072 365.577C396.979 365.577 398.432 363.857 398.432 360.417V345.937H388.472V341.577H403.632V360.137C403.632 363.444 402.819 365.91 401.192 367.537C399.592 369.164 397.259 369.977 394.192 369.977ZM419.486 369.857C417.673 369.857 416.073 369.524 414.686 368.857C413.299 368.164 412.219 367.124 411.446 365.737C410.673 364.324 410.286 362.55 410.286 360.417V348.217H415.286V359.737C415.286 361.657 415.713 363.097 416.566 364.057C417.446 364.99 418.686 365.457 420.286 365.457C421.459 365.457 422.473 365.217 423.326 364.737C424.206 364.257 424.886 363.537 425.366 362.577C425.873 361.617 426.126 360.43 426.126 359.017V348.217H431.126V369.577H426.366V363.817L427.206 365.577C426.486 366.964 425.433 368.03 424.046 368.777C422.659 369.497 421.139 369.857 419.486 369.857ZM450.833 369.577V365.257L450.553 364.337V356.777C450.553 355.31 450.113 354.177 449.233 353.377C448.353 352.55 447.019 352.137 445.233 352.137C444.033 352.137 442.846 352.324 441.673 352.697C440.526 353.07 439.553 353.59 438.753 354.257L436.793 350.617C437.939 349.737 439.299 349.084 440.873 348.657C442.473 348.204 444.126 347.977 445.833 347.977C448.926 347.977 451.313 348.724 452.993 350.217C454.699 351.684 455.553 353.964 455.553 357.057V369.577H450.833ZM444.113 369.857C442.513 369.857 441.113 369.59 439.913 369.057C438.713 368.497 437.779 367.737 437.113 366.777C436.473 365.79 436.153 364.684 436.153 363.457C436.153 362.257 436.433 361.177 436.993 360.217C437.579 359.257 438.526 358.497 439.833 357.937C441.139 357.377 442.873 357.097 445.033 357.097H451.233V360.417H445.393C443.686 360.417 442.539 360.697 441.953 361.257C441.366 361.79 441.073 362.457 441.073 363.257C441.073 364.164 441.433 364.884 442.153 365.417C442.873 365.95 443.873 366.217 445.153 366.217C446.379 366.217 447.473 365.937 448.433 365.377C449.419 364.817 450.126 363.99 450.553 362.897L451.393 365.897C450.913 367.15 450.046 368.124 448.793 368.817C447.566 369.51 446.006 369.857 444.113 369.857ZM461.969 369.577V348.217H466.729V354.097L466.169 352.377C466.809 350.937 467.809 349.844 469.169 349.097C470.556 348.35 472.276 347.977 474.329 347.977V352.737C474.116 352.684 473.916 352.657 473.729 352.657C473.543 352.63 473.356 352.617 473.169 352.617C471.276 352.617 469.769 353.177 468.649 354.297C467.529 355.39 466.969 357.03 466.969 359.217V369.577H461.969ZM490.208 369.577V365.257L489.928 364.337V356.777C489.928 355.31 489.488 354.177 488.608 353.377C487.728 352.55 486.394 352.137 484.608 352.137C483.408 352.137 482.221 352.324 481.048 352.697C479.901 353.07 478.928 353.59 478.128 354.257L476.168 350.617C477.314 349.737 478.674 349.084 480.248 348.657C481.848 348.204 483.501 347.977 485.208 347.977C488.301 347.977 490.688 348.724 492.368 350.217C494.074 351.684 494.928 353.964 494.928 357.057V369.577H490.208ZM483.488 369.857C481.888 369.857 480.488 369.59 479.288 369.057C478.088 368.497 477.154 367.737 476.488 366.777C475.848 365.79 475.528 364.684 475.528 363.457C475.528 362.257 475.808 361.177 476.368 360.217C476.954 359.257 477.901 358.497 479.208 357.937C480.514 357.377 482.248 357.097 484.408 357.097H490.608V360.417H484.768C483.061 360.417 481.914 360.697 481.328 361.257C480.741 361.79 480.448 362.457 480.448 363.257C480.448 364.164 480.808 364.884 481.528 365.417C482.248 365.95 483.248 366.217 484.528 366.217C485.754 366.217 486.848 365.937 487.808 365.377C488.794 364.817 489.501 363.99 489.928 362.897L490.768 365.897C490.288 367.15 489.421 368.124 488.168 368.817C486.941 369.51 485.381 369.857 483.488 369.857ZM515.359 369.577V343.577L517.639 345.937H509.439V341.577H520.559V369.577H515.359Z" fill="black"/>
<path d="M38.703 419.4C36.9163 419.4 35.263 419.053 33.743 418.36C32.2497 417.667 31.023 416.667 30.063 415.36L33.023 411.8C33.7963 412.867 34.6363 413.667 35.543 414.2C36.4763 414.733 37.4897 415 38.583 415C41.4897 415 42.943 413.28 42.943 409.84V395.36H32.983V391H48.143V409.56C48.143 412.867 47.3297 415.333 45.703 416.96C44.103 418.587 41.7697 419.4 38.703 419.4ZM63.9968 419.28C62.1834 419.28 60.5834 418.947 59.1968 418.28C57.8101 417.587 56.7301 416.547 55.9568 415.16C55.1834 413.747 54.7968 411.973 54.7968 409.84V397.64H59.7968V409.16C59.7968 411.08 60.2234 412.52 61.0768 413.48C61.9568 414.413 63.1968 414.88 64.7968 414.88C65.9701 414.88 66.9834 414.64 67.8368 414.16C68.7168 413.68 69.3968 412.96 69.8768 412C70.3834 411.04 70.6368 409.853 70.6368 408.44V397.64H75.6368V419H70.8768V413.24L71.7168 415C70.9968 416.387 69.9434 417.453 68.5568 418.2C67.1701 418.92 65.6501 419.28 63.9968 419.28ZM95.3433 419V414.68L95.0633 413.76V406.2C95.0633 404.733 94.6233 403.6 93.7433 402.8C92.8633 401.973 91.53 401.56 89.7433 401.56C88.5433 401.56 87.3567 401.747 86.1833 402.12C85.0367 402.493 84.0633 403.013 83.2633 403.68L81.3033 400.04C82.45 399.16 83.81 398.507 85.3833 398.08C86.9833 397.627 88.6367 397.4 90.3433 397.4C93.4367 397.4 95.8233 398.147 97.5033 399.64C99.21 401.107 100.063 403.387 100.063 406.48V419H95.3433ZM88.6233 419.28C87.0233 419.28 85.6233 419.013 84.4233 418.48C83.2233 417.92 82.29 417.16 81.6233 416.2C80.9833 415.213 80.6633 414.107 80.6633 412.88C80.6633 411.68 80.9433 410.6 81.5033 409.64C82.09 408.68 83.0367 407.92 84.3433 407.36C85.65 406.8 87.3833 406.52 89.5433 406.52H95.7433V409.84H89.9033C88.1967 409.84 87.05 410.12 86.4633 410.68C85.8767 411.213 85.5833 411.88 85.5833 412.68C85.5833 413.587 85.9433 414.307 86.6633 414.84C87.3833 415.373 88.3833 415.64 89.6633 415.64C90.89 415.64 91.9833 415.36 92.9433 414.8C93.93 414.24 94.6367 413.413 95.0633 412.32L95.9033 415.32C95.4233 416.573 94.5567 417.547 93.3033 418.24C92.0767 418.933 90.5167 419.28 88.6233 419.28ZM106.48 419V397.64H111.24V403.52L110.68 401.8C111.32 400.36 112.32 399.267 113.68 398.52C115.067 397.773 116.787 397.4 118.84 397.4V402.16C118.627 402.107 118.427 402.08 118.24 402.08C118.054 402.053 117.867 402.04 117.68 402.04C115.787 402.04 114.28 402.6 113.16 403.72C112.04 404.813 111.48 406.453 111.48 408.64V419H106.48ZM134.718 419V414.68L134.438 413.76V406.2C134.438 404.733 133.998 403.6 133.118 402.8C132.238 401.973 130.905 401.56 129.118 401.56C127.918 401.56 126.732 401.747 125.558 402.12C124.412 402.493 123.438 403.013 122.638 403.68L120.678 400.04C121.825 399.16 123.185 398.507 124.758 398.08C126.358 397.627 128.012 397.4 129.718 397.4C132.812 397.4 135.198 398.147 136.878 399.64C138.585 401.107 139.438 403.387 139.438 406.48V419H134.718ZM127.998 419.28C126.398 419.28 124.998 419.013 123.798 418.48C122.598 417.92 121.665 417.16 120.998 416.2C120.358 415.213 120.038 414.107 120.038 412.88C120.038 411.68 120.318 410.6 120.878 409.64C121.465 408.68 122.412 407.92 123.718 407.36C125.025 406.8 126.758 406.52 128.918 406.52H135.118V409.84H129.278C127.572 409.84 126.425 410.12 125.838 410.68C125.252 411.213 124.958 411.88 124.958 412.68C124.958 413.587 125.318 414.307 126.038 414.84C126.758 415.373 127.758 415.64 129.038 415.64C130.265 415.64 131.358 415.36 132.318 414.8C133.305 414.24 134.012 413.413 134.438 412.32L135.278 415.32C134.798 416.573 133.932 417.547 132.678 418.24C131.452 418.933 129.892 419.28 127.998 419.28ZM155.03 419V415.52L166.15 404.96C167.083 404.08 167.777 403.307 168.23 402.64C168.683 401.973 168.977 401.36 169.11 400.8C169.27 400.213 169.35 399.667 169.35 399.16C169.35 397.88 168.91 396.893 168.03 396.2C167.15 395.48 165.857 395.12 164.15 395.12C162.79 395.12 161.55 395.36 160.43 395.84C159.337 396.32 158.39 397.053 157.59 398.04L153.95 395.24C155.043 393.773 156.51 392.64 158.35 391.84C160.217 391.013 162.297 390.6 164.59 390.6C166.617 390.6 168.377 390.933 169.87 391.6C171.39 392.24 172.55 393.16 173.35 394.36C174.177 395.56 174.59 396.987 174.59 398.64C174.59 399.547 174.47 400.453 174.23 401.36C173.99 402.24 173.537 403.173 172.87 404.16C172.203 405.147 171.23 406.253 169.95 407.48L160.39 416.56L159.31 414.6H175.67V419H155.03Z" fill="black"/>
<path d="M741.416 419.4C739.629 419.4 737.976 419.053 736.456 418.36C734.963 417.667 733.736 416.667 732.776 415.36L735.736 411.8C736.509 412.867 737.349 413.667 738.256 414.2C739.189 414.733 740.203 415 741.296 415C744.203 415 745.656 413.28 745.656 409.84V395.36H735.696V391H750.856V409.56C750.856 412.867 750.043 415.333 748.416 416.96C746.816 418.587 744.483 419.4 741.416 419.4ZM766.71 419.28C764.896 419.28 763.296 418.947 761.91 418.28C760.523 417.587 759.443 416.547 758.67 415.16C757.896 413.747 757.51 411.973 757.51 409.84V397.64H762.51V409.16C762.51 411.08 762.936 412.52 763.79 413.48C764.67 414.413 765.91 414.88 767.51 414.88C768.683 414.88 769.696 414.64 770.55 414.16C771.43 413.68 772.11 412.96 772.59 412C773.096 411.04 773.35 409.853 773.35 408.44V397.64H778.35V419H773.59V413.24L774.43 415C773.71 416.387 772.656 417.453 771.27 418.2C769.883 418.92 768.363 419.28 766.71 419.28ZM798.056 419V414.68L797.776 413.76V406.2C797.776 404.733 797.336 403.6 796.456 402.8C795.576 401.973 794.243 401.56 792.456 401.56C791.256 401.56 790.07 401.747 788.896 402.12C787.75 402.493 786.776 403.013 785.976 403.68L784.016 400.04C785.163 399.16 786.523 398.507 788.096 398.08C789.696 397.627 791.35 397.4 793.056 397.4C796.15 397.4 798.536 398.147 800.216 399.64C801.923 401.107 802.776 403.387 802.776 406.48V419H798.056ZM791.336 419.28C789.736 419.28 788.336 419.013 787.136 418.48C785.936 417.92 785.003 417.16 784.336 416.2C783.696 415.213 783.376 414.107 783.376 412.88C783.376 411.68 783.656 410.6 784.216 409.64C784.803 408.68 785.75 407.92 787.056 407.36C788.363 406.8 790.096 406.52 792.256 406.52H798.456V409.84H792.616C790.91 409.84 789.763 410.12 789.176 410.68C788.59 411.213 788.296 411.88 788.296 412.68C788.296 413.587 788.656 414.307 789.376 414.84C790.096 415.373 791.096 415.64 792.376 415.64C793.603 415.64 794.696 415.36 795.656 414.8C796.643 414.24 797.35 413.413 797.776 412.32L798.616 415.32C798.136 416.573 797.27 417.547 796.016 418.24C794.79 418.933 793.23 419.28 791.336 419.28ZM809.193 419V397.64H813.953V403.52L813.393 401.8C814.033 400.36 815.033 399.267 816.393 398.52C817.78 397.773 819.5 397.4 821.553 397.4V402.16C821.34 402.107 821.14 402.08 820.953 402.08C820.766 402.053 820.58 402.04 820.393 402.04C818.5 402.04 816.993 402.6 815.873 403.72C814.753 404.813 814.193 406.453 814.193 408.64V419H809.193ZM837.431 419V414.68L837.151 413.76V406.2C837.151 404.733 836.711 403.6 835.831 402.8C834.951 401.973 833.618 401.56 831.831 401.56C830.631 401.56 829.445 401.747 828.271 402.12C827.125 402.493 826.151 403.013 825.351 403.68L823.391 400.04C824.538 399.16 825.898 398.507 827.471 398.08C829.071 397.627 830.725 397.4 832.431 397.4C835.525 397.4 837.911 398.147 839.591 399.64C841.298 401.107 842.151 403.387 842.151 406.48V419H837.431ZM830.711 419.28C829.111 419.28 827.711 419.013 826.511 418.48C825.311 417.92 824.378 417.16 823.711 416.2C823.071 415.213 822.751 414.107 822.751 412.88C822.751 411.68 823.031 410.6 823.591 409.64C824.178 408.68 825.125 407.92 826.431 407.36C827.738 406.8 829.471 406.52 831.631 406.52H837.831V409.84H831.991C830.285 409.84 829.138 410.12 828.551 410.68C827.965 411.213 827.671 411.88 827.671 412.68C827.671 413.587 828.031 414.307 828.751 414.84C829.471 415.373 830.471 415.64 831.751 415.64C832.978 415.64 834.071 415.36 835.031 414.8C836.018 414.24 836.725 413.413 837.151 412.32L837.991 415.32C837.511 416.573 836.645 417.547 835.391 418.24C834.165 418.933 832.605 419.28 830.711 419.28ZM866.903 419.4C864.929 419.4 862.996 419.12 861.103 418.56C859.236 417.973 857.663 417.173 856.383 416.16L858.623 412.12C859.636 412.947 860.863 413.613 862.303 414.12C863.743 414.627 865.249 414.88 866.823 414.88C868.689 414.88 870.143 414.507 871.183 413.76C872.223 412.987 872.743 411.947 872.743 410.64C872.743 409.36 872.263 408.347 871.303 407.6C870.343 406.853 868.796 406.48 866.663 406.48H864.103V402.92L872.103 393.4L872.783 395.36H857.743V391H876.823V394.48L868.823 404L866.103 402.4H867.663C871.103 402.4 873.676 403.173 875.383 404.72C877.116 406.24 877.983 408.2 877.983 410.6C877.983 412.173 877.583 413.627 876.783 414.96C875.983 416.293 874.756 417.373 873.103 418.2C871.476 419 869.409 419.4 866.903 419.4Z" fill="black"/>
<path d="M394.192 369.977C392.406 369.977 390.752 369.63 389.232 368.937C387.739 368.244 386.512 367.244 385.552 365.937L388.512 362.377C389.286 363.444 390.126 364.244 391.032 364.777C391.966 365.31 392.979 365.577 394.072 365.577C396.979 365.577 398.432 363.857 398.432 360.417V345.937H388.472V341.577H403.632V360.137C403.632 363.444 402.819 365.91 401.192 367.537C399.592 369.164 397.259 369.977 394.192 369.977ZM419.486 369.857C417.673 369.857 416.073 369.524 414.686 368.857C413.299 368.164 412.219 367.124 411.446 365.737C410.673 364.324 410.286 362.55 410.286 360.417V348.217H415.286V359.737C415.286 361.657 415.713 363.097 416.566 364.057C417.446 364.99 418.686 365.457 420.286 365.457C421.459 365.457 422.473 365.217 423.326 364.737C424.206 364.257 424.886 363.537 425.366 362.577C425.873 361.617 426.126 360.43 426.126 359.017V348.217H431.126V369.577H426.366V363.817L427.206 365.577C426.486 366.964 425.433 368.03 424.046 368.777C422.659 369.497 421.139 369.857 419.486 369.857ZM450.833 369.577V365.257L450.553 364.337V356.777C450.553 355.31 450.113 354.177 449.233 353.377C448.353 352.55 447.019 352.137 445.233 352.137C444.033 352.137 442.846 352.324 441.673 352.697C440.526 353.07 439.553 353.59 438.753 354.257L436.793 350.617C437.939 349.737 439.299 349.084 440.873 348.657C442.473 348.204 444.126 347.977 445.833 347.977C448.926 347.977 451.313 348.724 452.993 350.217C454.699 351.684 455.553 353.964 455.553 357.057V369.577H450.833ZM444.113 369.857C442.513 369.857 441.113 369.59 439.913 369.057C438.713 368.497 437.779 367.737 437.113 366.777C436.473 365.79 436.153 364.684 436.153 363.457C436.153 362.257 436.433 361.177 436.993 360.217C437.579 359.257 438.526 358.497 439.833 357.937C441.139 357.377 442.873 357.097 445.033 357.097H451.233V360.417H445.393C443.686 360.417 442.539 360.697 441.953 361.257C441.366 361.79 441.073 362.457 441.073 363.257C441.073 364.164 441.433 364.884 442.153 365.417C442.873 365.95 443.873 366.217 445.153 366.217C446.379 366.217 447.473 365.937 448.433 365.377C449.419 364.817 450.126 363.99 450.553 362.897L451.393 365.897C450.913 367.15 450.046 368.124 448.793 368.817C447.566 369.51 446.006 369.857 444.113 369.857ZM461.969 369.577V348.217H466.729V354.097L466.169 352.377C466.809 350.937 467.809 349.844 469.169 349.097C470.556 348.35 472.276 347.977 474.329 347.977V352.737C474.116 352.684 473.916 352.657 473.729 352.657C473.543 352.63 473.356 352.617 473.169 352.617C471.276 352.617 469.769 353.177 468.649 354.297C467.529 355.39 466.969 357.03 466.969 359.217V369.577H461.969ZM490.208 369.577V365.257L489.928 364.337V356.777C489.928 355.31 489.488 354.177 488.608 353.377C487.728 352.55 486.394 352.137 484.608 352.137C483.408 352.137 482.221 352.324 481.048 352.697C479.901 353.07 478.928 353.59 478.128 354.257L476.168 350.617C477.314 349.737 478.674 349.084 480.248 348.657C481.848 348.204 483.501 347.977 485.208 347.977C488.301 347.977 490.688 348.724 492.368 350.217C494.074 351.684 494.928 353.964 494.928 357.057V369.577H490.208ZM483.488 369.857C481.888 369.857 480.488 369.59 479.288 369.057C478.088 368.497 477.154 367.737 476.488 366.777C475.848 365.79 475.528 364.684 475.528 363.457C475.528 362.257 475.808 361.177 476.368 360.217C476.954 359.257 477.901 358.497 479.208 357.937C480.514 357.377 482.248 357.097 484.408 357.097H490.608V360.417H484.768C483.061 360.417 481.914 360.697 481.328 361.257C480.741 361.79 480.448 362.457 480.448 363.257C480.448 364.164 480.808 364.884 481.528 365.417C482.248 365.95 483.248 366.217 484.528 366.217C485.754 366.217 486.848 365.937 487.808 365.377C488.794 364.817 489.501 363.99 489.928 362.897L490.768 365.897C490.288 367.15 489.421 368.124 488.168 368.817C486.941 369.51 485.381 369.857 483.488 369.857ZM515.359 369.577V343.577L517.639 345.937H509.439V341.577H520.559V369.577H515.359Z" fill="black"/>
<path d="M362.55 418.977C360.577 418.977 358.644 418.697 356.75 418.137C354.884 417.55 353.31 416.75 352.03 415.737L354.27 411.697C355.284 412.524 356.51 413.19 357.95 413.697C359.39 414.204 360.897 414.457 362.47 414.457C364.337 414.457 365.79 414.084 366.83 413.337C367.87 412.564 368.39 411.524 368.39 410.217C368.39 408.937 367.91 407.924 366.95 407.177C365.99 406.43 364.444 406.057 362.31 406.057H359.75V402.497L367.75 392.977L368.43 394.937H353.39V390.577H372.47V394.057L364.47 403.577L361.75 401.977H363.31C366.75 401.977 369.324 402.75 371.03 404.297C372.764 405.817 373.63 407.777 373.63 410.177C373.63 411.75 373.23 413.204 372.43 414.537C371.63 415.87 370.404 416.95 368.75 417.777C367.124 418.577 365.057 418.977 362.55 418.977ZM398.366 418.577L386.126 390.577H391.766L402.686 415.897H399.446L410.486 390.577H415.686L403.486 418.577H398.366ZM426.159 418.857C423.973 418.857 422.026 418.39 420.319 417.457C418.613 416.497 417.266 415.19 416.279 413.537C415.293 411.884 414.799 410.004 414.799 407.897C414.799 405.764 415.293 403.884 416.279 402.257C417.266 400.604 418.613 399.31 420.319 398.377C422.026 397.444 423.973 396.977 426.159 396.977C428.373 396.977 430.333 397.444 432.039 398.377C433.773 399.31 435.119 400.59 436.079 402.217C437.066 403.844 437.559 405.737 437.559 407.897C437.559 410.004 437.066 411.884 436.079 413.537C435.119 415.19 433.773 416.497 432.039 417.457C430.333 418.39 428.373 418.857 426.159 418.857ZM426.159 414.577C427.386 414.577 428.479 414.31 429.439 413.777C430.399 413.244 431.146 412.47 431.679 411.457C432.239 410.444 432.519 409.257 432.519 407.897C432.519 406.51 432.239 405.324 431.679 404.337C431.146 403.324 430.399 402.55 429.439 402.017C428.479 401.484 427.399 401.217 426.199 401.217C424.973 401.217 423.879 401.484 422.919 402.017C421.986 402.55 421.239 403.324 420.679 404.337C420.119 405.324 419.839 406.51 419.839 407.897C419.839 409.257 420.119 410.444 420.679 411.457C421.239 412.47 421.986 413.244 422.919 413.777C423.879 414.31 424.959 414.577 426.159 414.577ZM451.381 418.857C449.567 418.857 447.967 418.524 446.581 417.857C445.194 417.164 444.114 416.124 443.341 414.737C442.567 413.324 442.181 411.55 442.181 409.417V397.217H447.181V408.737C447.181 410.657 447.607 412.097 448.461 413.057C449.341 413.99 450.581 414.457 452.181 414.457C453.354 414.457 454.367 414.217 455.221 413.737C456.101 413.257 456.781 412.537 457.261 411.577C457.767 410.617 458.021 409.43 458.021 408.017V397.217H463.021V418.577H458.261V412.817L459.101 414.577C458.381 415.964 457.327 417.03 455.941 417.777C454.554 418.497 453.034 418.857 451.381 418.857ZM479.367 418.857C477.127 418.857 475.127 418.39 473.367 417.457C471.634 416.497 470.274 415.19 469.287 413.537C468.3 411.884 467.807 410.004 467.807 407.897C467.807 405.764 468.3 403.884 469.287 402.257C470.274 400.604 471.634 399.31 473.367 398.377C475.127 397.444 477.127 396.977 479.367 396.977C481.447 396.977 483.274 397.404 484.847 398.257C486.447 399.084 487.66 400.31 488.487 401.937L484.647 404.177C484.007 403.164 483.22 402.417 482.287 401.937C481.38 401.457 480.394 401.217 479.327 401.217C478.1 401.217 476.994 401.484 476.007 402.017C475.02 402.55 474.247 403.324 473.687 404.337C473.127 405.324 472.847 406.51 472.847 407.897C472.847 409.284 473.127 410.484 473.687 411.497C474.247 412.484 475.02 413.244 476.007 413.777C476.994 414.31 478.1 414.577 479.327 414.577C480.394 414.577 481.38 414.337 482.287 413.857C483.22 413.377 484.007 412.63 484.647 411.617L488.487 413.857C487.66 415.457 486.447 416.697 484.847 417.577C483.274 418.43 481.447 418.857 479.367 418.857ZM504.734 396.977C506.441 396.977 507.961 397.31 509.294 397.977C510.654 398.644 511.721 399.67 512.494 401.057C513.267 402.417 513.654 404.177 513.654 406.337V418.577H508.654V406.977C508.654 405.084 508.201 403.67 507.294 402.737C506.414 401.804 505.174 401.337 503.574 401.337C502.401 401.337 501.361 401.577 500.454 402.057C499.547 402.537 498.841 403.257 498.334 404.217C497.854 405.15 497.614 406.337 497.614 407.777V418.577H492.614V388.897H497.614V402.977L496.534 401.217C497.281 399.857 498.361 398.817 499.774 398.097C501.214 397.35 502.867 396.977 504.734 396.977ZM530.076 418.857C527.703 418.857 525.623 418.39 523.836 417.457C522.076 416.497 520.703 415.19 519.716 413.537C518.756 411.884 518.276 410.004 518.276 407.897C518.276 405.764 518.743 403.884 519.676 402.257C520.636 400.604 521.943 399.31 523.596 398.377C525.276 397.444 527.183 396.977 529.316 396.977C531.396 396.977 533.249 397.43 534.876 398.337C536.503 399.244 537.783 400.524 538.716 402.177C539.649 403.83 540.116 405.777 540.116 408.017C540.116 408.23 540.103 408.47 540.076 408.737C540.076 409.004 540.063 409.257 540.036 409.497H522.236V406.177H537.396L535.436 407.217C535.463 405.99 535.209 404.91 534.676 403.977C534.143 403.044 533.409 402.31 532.476 401.777C531.569 401.244 530.516 400.977 529.316 400.977C528.089 400.977 527.009 401.244 526.076 401.777C525.169 402.31 524.449 403.057 523.916 404.017C523.409 404.95 523.156 406.057 523.156 407.337V408.137C523.156 409.417 523.449 410.55 524.036 411.537C524.623 412.524 525.449 413.284 526.516 413.817C527.583 414.35 528.809 414.617 530.196 414.617C531.396 414.617 532.476 414.43 533.436 414.057C534.396 413.684 535.249 413.097 535.996 412.297L538.676 415.377C537.716 416.497 536.503 417.364 535.036 417.977C533.596 418.564 531.943 418.857 530.076 418.857ZM544.919 418.577V397.217H549.679V403.097L549.119 401.377C549.759 399.937 550.759 398.844 552.119 398.097C553.505 397.35 555.225 396.977 557.279 396.977V401.737C557.065 401.684 556.865 401.657 556.679 401.657C556.492 401.63 556.305 401.617 556.119 401.617C554.225 401.617 552.719 402.177 551.599 403.297C550.479 404.39 549.919 406.03 549.919 408.217V418.577H544.919Z" fill="black"/>
<path d="M1.92441 468V464.52L13.0444 453.96C13.9777 453.08 14.6711 452.307 15.1244 451.64C15.5777 450.973 15.8711 450.36 16.0044 449.8C16.1644 449.213 16.2444 448.667 16.2444 448.16C16.2444 446.88 15.8044 445.893 14.9244 445.2C14.0444 444.48 12.7511 444.12 11.0444 444.12C9.68441 444.12 8.44441 444.36 7.32441 444.84C6.23108 445.32 5.28441 446.053 4.48441 447.04L0.844414 444.24C1.93775 442.773 3.40441 441.64 5.24441 440.84C7.11108 440.013 9.19108 439.6 11.4844 439.6C13.5111 439.6 15.2711 439.933 16.7644 440.6C18.2844 441.24 19.4444 442.16 20.2444 443.36C21.0711 444.56 21.4844 445.987 21.4844 447.64C21.4844 448.547 21.3644 449.453 21.1244 450.36C20.8844 451.24 20.4311 452.173 19.7644 453.16C19.0977 454.147 18.1244 455.253 16.8444 456.48L7.28441 465.56L6.20441 463.6H22.5644V468H1.92441ZM46.9004 468L34.6604 440H40.3004L51.2204 465.32H47.9804L59.0204 440H64.2204L52.0204 468H46.9004ZM74.6935 468.28C72.5068 468.28 70.5601 467.813 68.8535 466.88C67.1468 465.92 65.8001 464.613 64.8135 462.96C63.8268 461.307 63.3335 459.427 63.3335 457.32C63.3335 455.187 63.8268 453.307 64.8135 451.68C65.8001 450.027 67.1468 448.733 68.8535 447.8C70.5601 446.867 72.5068 446.4 74.6935 446.4C76.9068 446.4 78.8668 446.867 80.5735 447.8C82.3068 448.733 83.6535 450.013 84.6135 451.64C85.6001 453.267 86.0935 455.16 86.0935 457.32C86.0935 459.427 85.6001 461.307 84.6135 462.96C83.6535 464.613 82.3068 465.92 80.5735 466.88C78.8668 467.813 76.9068 468.28 74.6935 468.28ZM74.6935 464C75.9201 464 77.0135 463.733 77.9735 463.2C78.9335 462.667 79.6801 461.893 80.2135 460.88C80.7735 459.867 81.0535 458.68 81.0535 457.32C81.0535 455.933 80.7735 454.747 80.2135 453.76C79.6801 452.747 78.9335 451.973 77.9735 451.44C77.0135 450.907 75.9335 450.64 74.7335 450.64C73.5068 450.64 72.4135 450.907 71.4535 451.44C70.5201 451.973 69.7735 452.747 69.2135 453.76C68.6535 454.747 68.3735 455.933 68.3735 457.32C68.3735 458.68 68.6535 459.867 69.2135 460.88C69.7735 461.893 70.5201 462.667 71.4535 463.2C72.4135 463.733 73.4935 464 74.6935 464ZM99.9147 468.28C98.1014 468.28 96.5014 467.947 95.1147 467.28C93.7281 466.587 92.6481 465.547 91.8747 464.16C91.1014 462.747 90.7147 460.973 90.7147 458.84V446.64H95.7147V458.16C95.7147 460.08 96.1414 461.52 96.9947 462.48C97.8747 463.413 99.1147 463.88 100.715 463.88C101.888 463.88 102.901 463.64 103.755 463.16C104.635 462.68 105.315 461.96 105.795 461C106.301 460.04 106.555 458.853 106.555 457.44V446.64H111.555V468H106.795V462.24L107.635 464C106.915 465.387 105.861 466.453 104.475 467.2C103.088 467.92 101.568 468.28 99.9147 468.28ZM127.901 468.28C125.661 468.28 123.661 467.813 121.901 466.88C120.168 465.92 118.808 464.613 117.821 462.96C116.835 461.307 116.341 459.427 116.341 457.32C116.341 455.187 116.835 453.307 117.821 451.68C118.808 450.027 120.168 448.733 121.901 447.8C123.661 446.867 125.661 446.4 127.901 446.4C129.981 446.4 131.808 446.827 133.381 447.68C134.981 448.507 136.195 449.733 137.021 451.36L133.181 453.6C132.541 452.587 131.755 451.84 130.821 451.36C129.915 450.88 128.928 450.64 127.861 450.64C126.635 450.64 125.528 450.907 124.541 451.44C123.555 451.973 122.781 452.747 122.221 453.76C121.661 454.747 121.381 455.933 121.381 457.32C121.381 458.707 121.661 459.907 122.221 460.92C122.781 461.907 123.555 462.667 124.541 463.2C125.528 463.733 126.635 464 127.861 464C128.928 464 129.915 463.76 130.821 463.28C131.755 462.8 132.541 462.053 133.181 461.04L137.021 463.28C136.195 464.88 134.981 466.12 133.381 467C131.808 467.853 129.981 468.28 127.901 468.28ZM153.268 446.4C154.975 446.4 156.495 446.733 157.828 447.4C159.188 448.067 160.255 449.093 161.028 450.48C161.801 451.84 162.188 453.6 162.188 455.76V468H157.188V456.4C157.188 454.507 156.735 453.093 155.828 452.16C154.948 451.227 153.708 450.76 152.108 450.76C150.935 450.76 149.895 451 148.988 451.48C148.081 451.96 147.375 452.68 146.868 453.64C146.388 454.573 146.148 455.76 146.148 457.2V468H141.148V438.32H146.148V452.4L145.068 450.64C145.815 449.28 146.895 448.24 148.308 447.52C149.748 446.773 151.401 446.4 153.268 446.4ZM178.61 468.28C176.237 468.28 174.157 467.813 172.37 466.88C170.61 465.92 169.237 464.613 168.25 462.96C167.29 461.307 166.81 459.427 166.81 457.32C166.81 455.187 167.277 453.307 168.21 451.68C169.17 450.027 170.477 448.733 172.13 447.8C173.81 446.867 175.717 446.4 177.85 446.4C179.93 446.4 181.783 446.853 183.41 447.76C185.037 448.667 186.317 449.947 187.25 451.6C188.183 453.253 188.65 455.2 188.65 457.44C188.65 457.653 188.637 457.893 188.61 458.16C188.61 458.427 188.597 458.68 188.57 458.92H170.77V455.6H185.93L183.97 456.64C183.997 455.413 183.743 454.333 183.21 453.4C182.677 452.467 181.943 451.733 181.01 451.2C180.103 450.667 179.05 450.4 177.85 450.4C176.623 450.4 175.543 450.667 174.61 451.2C173.703 451.733 172.983 452.48 172.45 453.44C171.943 454.373 171.69 455.48 171.69 456.76V457.56C171.69 458.84 171.983 459.973 172.57 460.96C173.157 461.947 173.983 462.707 175.05 463.24C176.117 463.773 177.343 464.04 178.73 464.04C179.93 464.04 181.01 463.853 181.97 463.48C182.93 463.107 183.783 462.52 184.53 461.72L187.21 464.8C186.25 465.92 185.037 466.787 183.57 467.4C182.13 467.987 180.477 468.28 178.61 468.28ZM193.453 468V446.64H198.213V452.52L197.653 450.8C198.293 449.36 199.293 448.267 200.653 447.52C202.04 446.773 203.76 446.4 205.813 446.4V451.16C205.6 451.107 205.4 451.08 205.213 451.08C205.026 451.053 204.84 451.04 204.653 451.04C202.76 451.04 201.253 451.6 200.133 452.72C199.013 453.813 198.453 455.453 198.453 457.64V468H193.453Z" fill="black"/>
<path d="M713.501 468V442L715.781 444.36H707.581V440H718.701V468H713.501ZM745.59 468L733.35 440H738.99L749.91 465.32H746.67L757.71 440H762.91L750.71 468H745.59ZM773.383 468.28C771.196 468.28 769.25 467.813 767.543 466.88C765.836 465.92 764.49 464.613 763.503 462.96C762.516 461.307 762.023 459.427 762.023 457.32C762.023 455.187 762.516 453.307 763.503 451.68C764.49 450.027 765.836 448.733 767.543 447.8C769.25 446.867 771.196 446.4 773.383 446.4C775.596 446.4 777.556 446.867 779.263 447.8C780.996 448.733 782.343 450.013 783.303 451.64C784.29 453.267 784.783 455.16 784.783 457.32C784.783 459.427 784.29 461.307 783.303 462.96C782.343 464.613 780.996 465.92 779.263 466.88C777.556 467.813 775.596 468.28 773.383 468.28ZM773.383 464C774.61 464 775.703 463.733 776.663 463.2C777.623 462.667 778.37 461.893 778.903 460.88C779.463 459.867 779.743 458.68 779.743 457.32C779.743 455.933 779.463 454.747 778.903 453.76C778.37 452.747 777.623 451.973 776.663 451.44C775.703 450.907 774.623 450.64 773.423 450.64C772.196 450.64 771.103 450.907 770.143 451.44C769.21 451.973 768.463 452.747 767.903 453.76C767.343 454.747 767.063 455.933 767.063 457.32C767.063 458.68 767.343 459.867 767.903 460.88C768.463 461.893 769.21 462.667 770.143 463.2C771.103 463.733 772.183 464 773.383 464ZM798.604 468.28C796.791 468.28 795.191 467.947 793.804 467.28C792.418 466.587 791.338 465.547 790.564 464.16C789.791 462.747 789.404 460.973 789.404 458.84V446.64H794.404V458.16C794.404 460.08 794.831 461.52 795.684 462.48C796.564 463.413 797.804 463.88 799.404 463.88C800.578 463.88 801.591 463.64 802.444 463.16C803.324 462.68 804.004 461.96 804.484 461C804.991 460.04 805.244 458.853 805.244 457.44V446.64H810.244V468H805.484V462.24L806.324 464C805.604 465.387 804.551 466.453 803.164 467.2C801.778 467.92 800.258 468.28 798.604 468.28ZM826.591 468.28C824.351 468.28 822.351 467.813 820.591 466.88C818.857 465.92 817.497 464.613 816.511 462.96C815.524 461.307 815.031 459.427 815.031 457.32C815.031 455.187 815.524 453.307 816.511 451.68C817.497 450.027 818.857 448.733 820.591 447.8C822.351 446.867 824.351 446.4 826.591 446.4C828.671 446.4 830.497 446.827 832.071 447.68C833.671 448.507 834.884 449.733 835.711 451.36L831.871 453.6C831.231 452.587 830.444 451.84 829.511 451.36C828.604 450.88 827.617 450.64 826.551 450.64C825.324 450.64 824.217 450.907 823.231 451.44C822.244 451.973 821.471 452.747 820.911 453.76C820.351 454.747 820.071 455.933 820.071 457.32C820.071 458.707 820.351 459.907 820.911 460.92C821.471 461.907 822.244 462.667 823.231 463.2C824.217 463.733 825.324 464 826.551 464C827.617 464 828.604 463.76 829.511 463.28C830.444 462.8 831.231 462.053 831.871 461.04L835.711 463.28C834.884 464.88 833.671 466.12 832.071 467C830.497 467.853 828.671 468.28 826.591 468.28ZM851.958 446.4C853.664 446.4 855.184 446.733 856.518 447.4C857.878 448.067 858.944 449.093 859.718 450.48C860.491 451.84 860.878 453.6 860.878 455.76V468H855.878V456.4C855.878 454.507 855.424 453.093 854.518 452.16C853.638 451.227 852.398 450.76 850.798 450.76C849.624 450.76 848.584 451 847.678 451.48C846.771 451.96 846.064 452.68 845.558 453.64C845.078 454.573 844.838 455.76 844.838 457.2V468H839.838V438.32H844.838V452.4L843.758 450.64C844.504 449.28 845.584 448.24 846.998 447.52C848.438 446.773 850.091 446.4 851.958 446.4ZM877.299 468.28C874.926 468.28 872.846 467.813 871.059 466.88C869.299 465.92 867.926 464.613 866.939 462.96C865.979 461.307 865.499 459.427 865.499 457.32C865.499 455.187 865.966 453.307 866.899 451.68C867.859 450.027 869.166 448.733 870.819 447.8C872.499 446.867 874.406 446.4 876.539 446.4C878.619 446.4 880.473 446.853 882.099 447.76C883.726 448.667 885.006 449.947 885.939 451.6C886.873 453.253 887.339 455.2 887.339 457.44C887.339 457.653 887.326 457.893 887.299 458.16C887.299 458.427 887.286 458.68 887.259 458.92H869.459V455.6H884.619L882.659 456.64C882.686 455.413 882.433 454.333 881.899 453.4C881.366 452.467 880.633 451.733 879.699 451.2C878.793 450.667 877.739 450.4 876.539 450.4C875.313 450.4 874.233 450.667 873.299 451.2C872.393 451.733 871.673 452.48 871.139 453.44C870.633 454.373 870.379 455.48 870.379 456.76V457.56C870.379 458.84 870.673 459.973 871.259 460.96C871.846 461.947 872.673 462.707 873.739 463.24C874.806 463.773 876.033 464.04 877.419 464.04C878.619 464.04 879.699 463.853 880.659 463.48C881.619 463.107 882.473 462.52 883.219 461.72L885.899 464.8C884.939 465.92 883.726 466.787 882.259 467.4C880.819 467.987 879.166 468.28 877.299 468.28ZM892.142 468V446.64H896.902V452.52L896.342 450.8C896.982 449.36 897.982 448.267 899.342 447.52C900.729 446.773 902.449 446.4 904.502 446.4V451.16C904.289 451.107 904.089 451.08 903.902 451.08C903.716 451.053 903.529 451.04 903.342 451.04C901.449 451.04 899.942 451.6 898.822 452.72C897.702 453.813 897.142 455.453 897.142 457.64V468H892.142Z" fill="black"/>
</svg>
