<svg width="114" height="519" viewBox="0 0 114 519" fill="none" xmlns="http://www.w3.org/2000/svg">
<path d="M51.6948 31.1752C56.7205 28.1518 61.9011 19.4772 62.6412 13.2869C63.2149 8.57674 60.7078 4.30259 56.9328 6.02373C50.6219 8.90949 48.4189 24.3366 48.9926 30.3261C49.5835 30.8998 50.4556 31.2211 51.6948 31.1752Z" fill="#BFDDE0"/>
<path d="M56.0434 37.8934C61.8838 38.2204 71.0632 33.9635 75.1652 29.2877C78.292 25.7078 78.6247 20.7567 74.5342 20.0625C67.6955 18.9036 57.1909 30.4065 54.2764 35.6731C54.4428 36.4878 54.9878 37.2394 56.0434 37.8934Z" fill="#BFDDE0"/>
<path d="M54.7755 31.0547C62.9395 43.0854 66.7776 60.6697 52.5725 71.6735C29.0503 89.9117 -16.5654 47.4456 12.298 23.367C28.3103 10.011 45.2634 17.0619 54.7755 31.0547Z" fill="#F7CA4F"/>
<path d="M35.5448 30.8884C39.9796 35.719 34.9998 41.4561 29.8995 40.1882C26.3655 39.3277 23.9616 35.6731 26.2565 32.1563C28.6431 28.5304 32.3263 27.3715 35.5448 30.8884Z" fill="#FCF0E0"/>
<path d="M34.0016 29.7237C36.916 33.4987 32.2231 39.1727 28.2358 38.708C26.8646 38.5531 26.136 37.7557 25.7172 36.5623C25.2927 35.369 25.1722 33.7569 26.3368 32.0645C28.4653 28.9377 32.4009 27.6411 34.0016 29.7237Z" fill="#654337"/>
<path d="M31.4658 29.9188C32.3723 30.613 30.9667 32.2768 29.9856 32.185C29.6529 32.1563 29.4865 31.9612 29.3832 31.6744C29.2915 31.3703 29.3259 31.0089 29.5783 30.5384C30.0201 29.7238 31.047 29.5861 31.4658 29.9188Z" fill="#FEFEFE"/>
<path d="M16.5091 21.2558C20.0374 25.0882 16.0845 29.6664 12.0226 28.6509C9.21719 27.9567 7.301 25.0595 9.1254 22.2655C11.0301 19.3855 13.956 18.4503 16.5091 21.2558Z" fill="#FCF0E0"/>
<path d="M15.2985 20.3378C17.6106 23.3383 13.8642 27.8534 10.6974 27.4748C9.60731 27.3543 9.02212 26.7232 8.68937 25.7708C8.35662 24.8185 8.26482 23.5334 9.18849 22.1909C10.8752 19.701 14.0191 18.674 15.2985 20.3378Z" fill="#654337"/>
<path d="M13.2792 20.487C13.9849 21.032 12.8719 22.3573 12.0974 22.2827C11.8277 22.2655 11.69 22.1163 11.6154 21.8754C11.5409 21.6344 11.5695 21.3476 11.7646 20.9861C12.1146 20.3206 12.9465 20.2116 13.2792 20.487Z" fill="#FEFEFE"/>
<path d="M22.4527 29.1959C22.4413 28.169 20.6742 29.2246 19.8137 28.6222C18.8613 27.9452 19.2228 25.9831 18.5286 26.2241C17.777 26.4765 17.8516 28.2895 19.0564 29.3451C20.462 30.5556 22.47 29.9188 22.4527 29.1959Z" fill="#654337"/>
<path d="M30.9839 45.1795C29.2054 46.7686 26.1992 44.6229 26.2909 42.6322C26.3196 41.938 26.6983 41.5421 27.272 41.2897C27.8572 41.0315 28.6432 40.9225 29.5324 41.4389C31.179 42.3912 31.9649 44.3074 30.9839 45.1795Z" fill="#F7A37F"/>
<path d="M8.06976 29.6664C6.63548 30.9457 4.22016 29.2131 4.29474 27.5953C4.31196 27.0388 4.61028 26.7232 5.08073 26.511C5.54543 26.3102 6.19947 26.2069 6.90513 26.6314C8.23614 27.4002 8.86722 28.955 8.06976 29.6664Z" fill="#F7A37F"/>
<path d="M3.25654 38.5245C2.63693 41.3758 3.31392 40.762 6.22837 40.7448C8.98792 40.7161 10.3361 41.2554 10.1353 41.9668C9.98617 42.5577 10.1812 41.1349 8.05277 41.8176C7.9954 41.743 9.8829 42.4774 9.91159 43.0683C9.96896 43.9748 9.03382 42.9019 7.70854 42.7069C8.38552 43.4297 8.43142 44.8066 8.05277 44.8066C7.82902 44.8181 7.8864 44.0952 7.16352 43.0224C6.48654 41.9955 4.89736 42.6437 3.49751 42.7069C-2.43467 42.9478 3.60077 36.9124 3.25654 38.5245Z" fill="#654337"/>
<path d="M56.4509 71.748C55.7395 70.9965 55.5273 70.4973 55.0626 69.4991C55.7854 68.7762 57.191 66.9633 57.191 67.4337C57.2025 68.7475 58.1721 73.6355 56.4509 71.748Z" fill="#654337"/>
<path d="M33.8984 63.9628C34.0189 65.1102 33.537 68.1279 34.1394 70.7096C34.65 72.97 36.1588 74.8289 37.3866 75.6321C39.1938 76.8082 38.8037 78.2998 38.5455 78.4547C38.3676 78.5752 38.0349 77.531 37.5816 76.986C37.5644 76.9573 36.7498 81.2315 36.3424 76.7164C35.6769 77.9212 34.2427 79.8718 35.4991 76.1599C30.548 70.5432 32.3551 65.9536 32.6133 63.6128C32.642 63.3145 33.8984 63.8423 33.8984 63.9628Z" fill="#654337"/>
<path d="M47.7076 66.2232C47.8281 67.1469 47.3462 69.5909 47.9486 71.6907C48.4649 73.5151 49.9738 75.0125 51.1958 75.6608C53.0087 76.6131 52.6129 77.8352 52.3604 77.9556C52.1768 78.0474 51.8441 77.1983 51.3909 76.7623C51.3794 76.7451 50.5647 80.2046 50.1574 76.55C49.4919 77.5139 48.0576 79.1031 49.3083 76.0968C44.3572 71.5415 46.1701 67.8239 46.4283 65.9364C46.4569 65.6954 47.7076 66.12 47.7076 66.2232Z" fill="#654337"/>
<path d="M16.1134 2.6904C15.6487 -2.14025 20.9612 0.647985 19.9802 2.86825C25.746 6.21872 28.3105 17.888 26.6066 19.2477C26.423 19.3969 26.1992 19.4313 25.9124 19.3108C26.1992 17.7962 26.5033 10.5961 20.9153 4.86476C20.4449 4.37711 19.8712 4.09025 19.2401 3.71734C18.2132 4.37711 16.297 4.4689 16.1134 2.6904Z" fill="#654337"/>
<path d="M38.1554 6.5859C39.5151 1.91589 43.4048 6.4941 41.6722 8.19803C45.7628 13.4532 43.8007 25.243 41.7009 25.8626C41.4886 25.9372 41.2477 25.8741 41.0354 25.6503C41.8673 24.3652 44.8276 17.7962 41.7927 10.3896C41.5517 9.76999 41.1272 9.28234 40.674 8.69715C39.4692 8.9209 37.6562 8.28982 38.1554 6.5859Z" fill="#654337"/>
<path d="M3.49752 46.4474C10.2444 51.9436 20.7031 57.5602 31.6782 51.5821C36.0556 49.1955 42.005 44.1985 44.8736 38.5245C48.4191 31.4736 47.4667 24.6693 47.5585 23.0228C49.6698 24.9218 51.3163 26.6429 53.5538 29.3623C53.2784 40.848 42.3664 53.9229 33.0207 57.9389C23.5258 62.0007 11.977 59.7174 5.66614 53.0336C5.3506 52.7009 3.13034 46.1491 3.49752 46.4474Z" fill="#7D5749"/>
<path d="M26.0327 56.1258C23.1355 56.1258 20.9783 52.9245 19.5555 50.3773C18.213 47.9734 17.0656 47.0669 16.555 47.5833C16.1132 48.0193 17.2492 47.13 17.7139 49.3159C17.8057 49.3331 16.2337 48.0652 15.7059 48.3234C14.8912 48.7307 16.3083 48.702 17.1402 49.7576C15.6026 49.3962 13.5487 50.4174 17.1115 50.6928C20.2038 50.9338 18.5458 57.1069 24.4148 58.2543C25.3557 58.4379 26.3195 56.1258 26.0327 56.1258Z" fill="#654337"/>
<path d="M12.3843 62.9645C19.1369 68.4606 30.0488 68.2656 41.2649 62.7694C53.221 56.8946 57.4435 46.2236 58.0976 36.7746C60.226 41.0774 61.253 45.5753 61.6144 47.3882C61.1612 66.619 44.6326 75.2534 24.9486 72.4422C21.2309 71.9144 12.0228 62.6604 12.3843 62.9645Z" fill="#7D5749"/>
<path d="M54.7871 37.2278C60.266 39.2932 70.2945 37.9966 75.6185 34.7494C79.6689 32.2767 81.4646 27.6583 77.7814 25.7708C71.6083 22.5982 58.1261 30.4351 53.7773 34.583C53.6855 35.3977 53.9896 36.2927 54.7871 37.2278Z" fill="#CAEAED"/>
<path d="M52.63 32.8504C58.3843 31.7775 66.2614 25.438 69.1127 19.896C71.2871 15.685 70.415 10.8084 66.29 11.1125C59.3653 11.6231 51.9358 25.3176 50.381 31.1292C50.731 31.8808 51.4539 32.4717 52.63 32.8504Z" fill="#CAEAED"/>
</svg>
