<svg width="155" height="106" viewBox="0 0 155 106" fill="none" xmlns="http://www.w3.org/2000/svg">
<path d="M0 104.084V6.14453H111.778C119.239 6.14453 125.503 7.14879 130.572 9.15732C135.673 11.1658 139.515 14.0033 142.098 17.6696C144.712 21.336 146.019 25.6559 146.019 30.6294C146.019 34.232 145.222 37.5157 143.628 40.4807C142.066 43.4457 139.866 45.9324 137.028 47.9409C134.191 49.9176 130.875 51.2885 127.081 52.0536V53.0101C131.29 53.1695 135.116 54.2375 138.559 56.2141C142.002 58.1589 144.744 60.8529 146.784 64.2961C148.824 67.7074 149.845 71.7244 149.845 76.3472C149.845 81.7032 148.442 86.4695 145.636 90.646C142.863 94.8224 138.909 98.1062 133.777 100.497C128.644 102.888 122.522 104.084 115.413 104.084H0ZM95.9015 82.851H108.335C112.799 82.851 116.146 82.0221 118.378 80.3642C120.61 78.6745 121.725 76.1878 121.725 72.904C121.725 70.6086 121.199 68.6638 120.147 67.0697C119.095 65.4757 117.597 64.2642 115.652 63.4353C113.739 62.6063 111.428 62.1919 108.718 62.1919H95.9015V82.851ZM95.9015 45.7411H106.805C109.132 45.7411 111.189 45.3745 112.974 44.6412C114.759 43.9079 116.146 42.8559 117.134 41.485C118.155 40.0822 118.665 38.3765 118.665 36.368C118.665 33.3393 117.581 31.0279 115.413 29.4338C113.245 27.8079 110.503 26.9949 107.188 26.9949H95.9015V45.7411Z" fill="#70C3D6"/>
<g filter="url(#filter0_d_873_2269)">
<path d="M3 101.084V3.14453H114.778C122.239 3.14453 128.503 4.14879 133.572 6.15732C138.673 8.16584 142.515 11.0033 145.098 14.6696C147.712 18.336 149.019 22.6559 149.019 27.6294C149.019 31.232 148.222 34.5157 146.628 37.4807C145.066 40.4457 142.866 42.9324 140.028 44.9409C137.191 46.9176 133.875 48.2885 130.081 49.0536V50.0101C134.29 50.1695 138.116 51.2375 141.559 53.2141C145.002 55.1589 147.744 57.8529 149.784 61.2961C151.824 64.7074 152.845 68.7244 152.845 73.3472C152.845 78.7032 151.442 83.4695 148.636 87.646C145.863 91.8224 141.909 95.1062 136.777 97.4973C131.644 99.8884 125.522 101.084 118.413 101.084H3ZM98.9015 79.851H111.335C115.799 79.851 119.146 79.0221 121.378 77.3642C123.61 75.6745 124.725 73.1878 124.725 69.904C124.725 67.6086 124.199 65.6638 123.147 64.0697C122.095 62.4757 120.597 61.2642 118.652 60.4353C116.739 59.6063 114.428 59.1919 111.718 59.1919H98.9015V79.851ZM98.9015 42.7411H109.805C112.132 42.7411 114.189 42.3745 115.974 41.6412C117.759 40.9079 119.146 39.8559 120.134 38.485C121.155 37.0822 121.665 35.3765 121.665 33.368C121.665 30.3393 120.581 28.0279 118.413 26.4338C116.245 24.8079 113.503 23.9949 110.188 23.9949H98.9015V42.7411Z" fill="white"/>
</g>
<g filter="url(#filter1_d_873_2269)">
<g filter="url(#filter2_b_873_2269)">
<path fill-rule="evenodd" clip-rule="evenodd" d="M5 72.9558V99.0839H120.413C127.522 99.0839 133.644 97.8884 138.777 95.4973C143.909 93.1062 147.863 89.8224 150.636 85.646C153.442 81.4695 154.845 76.7032 154.845 71.3472C154.845 66.7244 153.824 62.7074 151.784 59.2961C149.744 55.8529 147.002 53.1589 143.559 51.2141C140.116 49.2375 136.29 48.1695 132.081 48.0101V47.0536C135.875 46.2885 139.191 44.9176 142.028 42.9409C144.866 40.9324 147.066 38.4457 148.628 35.4807C150.222 32.5157 151.019 29.232 151.019 25.6294C151.019 20.6559 149.712 16.336 147.098 12.6696C144.515 9.00327 140.673 6.16584 135.572 4.15732C130.503 2.14879 124.239 1.14453 116.778 1.14453H45.4894L5 72.9558ZM113.335 77.851H100.902V57.1919H113.718C116.428 57.1919 118.739 57.6063 120.652 58.4353C122.597 59.2642 124.095 60.4757 125.147 62.0697C126.199 63.6638 126.725 65.6086 126.725 67.904C126.725 71.1878 125.61 73.6745 123.378 75.3642C121.146 77.0221 117.799 77.851 113.335 77.851ZM111.805 40.7411H100.902V21.9949H112.188C115.503 21.9949 118.245 22.8079 120.413 24.4338C122.581 26.0279 123.665 28.3393 123.665 31.368C123.665 33.3765 123.155 35.0822 122.134 36.485C121.146 37.8559 119.759 38.9079 117.974 39.6412C116.189 40.3745 114.132 40.7411 111.805 40.7411Z" fill="#70C3D6" fill-opacity="0.75"/>
</g>
<path d="M75.4999 9.64455C47.9999 4.14447 15.1662 55.3113 4.99958 90.1446C1.39958 43.3447 28.5007 2.14457 39.5004 1.14455C50.5 0.144531 72.8332 4.47786 75.4999 9.64455Z" fill="#4794C0"/>
<mask id="mask0_873_2269" style="mask-type:alpha" maskUnits="userSpaceOnUse" x="4" y="1" width="72" height="90">
<path d="M75.5 9.64453C48 4.14446 15.1664 55.3113 4.99971 90.1446C1.39971 43.3447 28.4995 1.14453 38.9997 1.14453C49.4999 1.14453 72.8333 4.47784 75.5 9.64453Z" fill="#D9D9D9"/>
</mask>
<g mask="url(#mask0_873_2269)">
<path d="M67.5 7.64453C42 7.64453 14.1672 55.3112 4.00058 90.1445C0.400582 43.3446 26.0005 2.14453 35.5005 2.14453C45.0005 2.14453 63 3.64453 67.5 7.64453Z" fill="#BBE1EA"/>
</g>
</g>
<path d="M20.7598 80.2109H24.7433L27.4833 86.8883H27.6214L30.3615 80.2109H34.3449V92H31.2134V85.1844H31.1213L28.4964 91.9079H26.6083L23.9834 85.1384H23.8913V92H20.7598V80.2109ZM35.8617 92V80.2109H39.0392V84.7009H39.0853C39.2004 84.4016 39.3693 84.1272 39.5918 83.8777C39.8144 83.6245 40.0907 83.423 40.4208 83.2733C40.7508 83.1198 41.1345 83.0431 41.572 83.0431C42.1553 83.0431 42.7099 83.1985 43.2356 83.5093C43.7652 83.8202 44.195 84.3095 44.5251 84.9772C44.8589 85.645 45.0259 86.5123 45.0259 87.5791C45.0259 88.5999 44.8666 89.4461 44.5481 90.1177C44.2334 90.7892 43.8113 91.29 43.2817 91.6201C42.7559 91.9501 42.1784 92.1151 41.549 92.1151C41.1345 92.1151 40.7642 92.048 40.438 91.9137C40.1157 91.7755 39.8394 91.5894 39.6091 91.3553C39.3827 91.1174 39.2081 90.8487 39.0853 90.5494H39.0162V92H35.8617ZM38.9701 87.5791C38.9701 88.0089 39.0258 88.3812 39.1371 88.6958C39.2522 89.0067 39.4134 89.2485 39.6206 89.4211C39.8317 89.59 40.083 89.6744 40.3747 89.6744C40.6664 89.6744 40.9139 89.5919 41.1173 89.4269C41.3245 89.258 41.4818 89.0182 41.5893 88.7074C41.7006 88.3927 41.7562 88.0166 41.7562 87.5791C41.7562 87.1416 41.7006 86.7675 41.5893 86.4566C41.4818 86.1419 41.3245 85.9021 41.1173 85.7371C40.9139 85.5682 40.6664 85.4838 40.3747 85.4838C40.083 85.4838 39.8317 85.5682 39.6206 85.7371C39.4134 85.9021 39.2522 86.1419 39.1371 86.4566C39.0258 86.7675 38.9701 87.1416 38.9701 87.5791ZM48.8193 92.1382C48.2552 92.1382 47.7563 92.0461 47.3227 91.8618C46.8928 91.6738 46.5551 91.3898 46.3095 91.0099C46.0639 90.63 45.9411 90.1464 45.9411 89.5593C45.9411 89.0758 46.0236 88.6632 46.1886 88.3217C46.3537 87.9763 46.5839 87.6942 46.8794 87.4755C47.1749 87.2567 47.5184 87.0898 47.9098 86.9747C48.3051 86.8596 48.731 86.7847 49.1877 86.7502C49.6828 86.7118 50.08 86.6658 50.3793 86.612C50.6825 86.5545 50.9012 86.4758 51.0355 86.376C51.1698 86.2724 51.237 86.1362 51.237 85.9673V85.9443C51.237 85.714 51.1487 85.5375 50.9722 85.4147C50.7957 85.2919 50.5693 85.2305 50.2929 85.2305C49.9898 85.2305 49.7423 85.2977 49.5504 85.432C49.3623 85.5624 49.2491 85.7639 49.2107 86.0364H46.2865C46.3249 85.4991 46.4957 85.0041 46.7988 84.5512C47.1058 84.0946 47.5529 83.73 48.1401 83.4575C48.7272 83.1812 49.4602 83.0431 50.339 83.0431C50.9722 83.0431 51.5402 83.1179 52.0429 83.2676C52.5456 83.4134 52.9735 83.6187 53.3266 83.8835C53.6796 84.1445 53.9482 84.4515 54.1325 84.8045C54.3205 85.1537 54.4145 85.5337 54.4145 85.9443V92H51.4442V90.7566H51.3751C51.1986 91.0867 50.9837 91.3534 50.7304 91.5568C50.481 91.7602 50.1951 91.9079 49.8727 92C49.5542 92.0921 49.2031 92.1382 48.8193 92.1382ZM49.8555 90.1349C50.0972 90.1349 50.3236 90.085 50.5347 89.9853C50.7496 89.8855 50.9242 89.7416 51.0585 89.5535C51.1929 89.3655 51.26 89.1372 51.26 88.8685V88.1317C51.1756 88.1663 51.0854 88.1989 50.9895 88.2296C50.8974 88.2603 50.7976 88.2891 50.6901 88.3159C50.5865 88.3428 50.4752 88.3677 50.3563 88.3908C50.2411 88.4138 50.1203 88.4349 49.9936 88.4541C49.748 88.4924 49.5465 88.5558 49.3892 88.644C49.2357 88.7285 49.1206 88.834 49.0438 88.9606C48.9709 89.0834 48.9344 89.2216 48.9344 89.3751C48.9344 89.6207 49.0208 89.8087 49.1935 89.9392C49.3662 90.0697 49.5868 90.1349 49.8555 90.1349ZM60.1925 92.1612C59.2331 92.1612 58.4118 91.9712 57.7288 91.5913C57.0457 91.2075 56.5218 90.6741 56.1573 89.991C55.7927 89.3041 55.6104 88.5078 55.6104 87.6021C55.6104 86.6965 55.7927 85.9021 56.1573 85.219C56.5218 84.5321 57.0457 83.9986 57.7288 83.6187C58.4118 83.235 59.2331 83.0431 60.1925 83.0431C61.0598 83.0431 61.81 83.2004 62.4432 83.5151C63.0803 83.8259 63.5734 84.2673 63.9226 84.8391C64.2718 85.407 64.4484 86.0748 64.4522 86.8423H61.5049C61.4627 86.3779 61.3284 86.0249 61.102 85.7831C60.8794 85.5375 60.5916 85.4147 60.2385 85.4147C59.9622 85.4147 59.7205 85.4953 59.5132 85.6565C59.306 85.8138 59.1448 86.0537 59.0297 86.376C58.9146 86.6945 58.857 87.0956 58.857 87.5791C58.857 88.0626 58.9146 88.4656 59.0297 88.7879C59.1448 89.1065 59.306 89.3463 59.5132 89.5075C59.7205 89.6648 59.9622 89.7435 60.2385 89.7435C60.4726 89.7435 60.6799 89.6898 60.8602 89.5823C61.0406 89.471 61.1864 89.3099 61.2977 89.0988C61.4128 88.8839 61.4819 88.6229 61.5049 88.3159H64.4522C64.4407 89.0949 64.2622 89.7742 63.9169 90.3537C63.5715 90.9293 63.0822 91.3745 62.449 91.6892C61.8196 92.0038 61.0675 92.1612 60.1925 92.1612ZM68.2269 92.1382C67.6628 92.1382 67.1639 92.0461 66.7303 91.8618C66.3005 91.6738 65.9628 91.3898 65.7172 91.0099C65.4716 90.63 65.3488 90.1464 65.3488 89.5593C65.3488 89.0758 65.4313 88.6632 65.5963 88.3217C65.7613 87.9763 65.9916 87.6942 66.287 87.4755C66.5825 87.2567 66.926 87.0898 67.3174 86.9747C67.7127 86.8596 68.1387 86.7847 68.5954 86.7502C69.0904 86.7118 69.4876 86.6658 69.7869 86.612C70.0901 86.5545 70.3088 86.4758 70.4432 86.376C70.5775 86.2724 70.6446 86.1362 70.6446 85.9673V85.9443C70.6446 85.714 70.5564 85.5375 70.3798 85.4147C70.2033 85.2919 69.9769 85.2305 69.7006 85.2305C69.3974 85.2305 69.1499 85.2977 68.958 85.432C68.77 85.5624 68.6568 85.7639 68.6184 86.0364H65.6941C65.7325 85.4991 65.9033 85.0041 66.2065 84.5512C66.5135 84.0946 66.9605 83.73 67.5477 83.4575C68.1348 83.1812 68.8678 83.0431 69.7466 83.0431C70.3798 83.0431 70.9478 83.1179 71.4505 83.2676C71.9532 83.4134 72.3811 83.6187 72.7342 83.8835C73.0873 84.1445 73.3559 84.4515 73.5401 84.8045C73.7281 85.1537 73.8221 85.5337 73.8221 85.9443V92H70.8519V90.7566H70.7828C70.6063 91.0867 70.3913 91.3534 70.1381 91.5568C69.8886 91.7602 69.6027 91.9079 69.2804 92C68.9618 92.0921 68.6107 92.1382 68.2269 92.1382ZM69.2631 90.1349C69.5049 90.1349 69.7313 90.085 69.9423 89.9853C70.1573 89.8855 70.3319 89.7416 70.4662 89.5535C70.6005 89.3655 70.6677 89.1372 70.6677 88.8685V88.1317C70.5832 88.1663 70.493 88.1989 70.3971 88.2296C70.305 88.2603 70.2052 88.2891 70.0978 88.3159C69.9942 88.3428 69.8829 88.3677 69.7639 88.3908C69.6488 88.4138 69.5279 88.4349 69.4013 88.4541C69.1556 88.4924 68.9542 88.5558 68.7968 88.644C68.6433 88.7285 68.5282 88.834 68.4514 88.9606C68.3785 89.0834 68.3421 89.2216 68.3421 89.3751C68.3421 89.6207 68.4284 89.8087 68.6011 89.9392C68.7738 90.0697 68.9945 90.1349 69.2631 90.1349ZM77.0673 92.1842C76.6221 92.1842 76.2403 92.0288 75.9218 91.7179C75.6071 91.4033 75.4517 91.0214 75.4555 90.5724C75.4517 90.1349 75.6071 89.7608 75.9218 89.4499C76.2403 89.1391 76.6221 88.9837 77.0673 88.9837C77.4894 88.9837 77.8617 89.1391 78.184 89.4499C78.5102 89.7608 78.6753 90.1349 78.6791 90.5724C78.6753 90.8717 78.5966 91.1442 78.4431 91.3898C78.2934 91.6316 78.0977 91.8254 77.8559 91.9712C77.6142 92.1132 77.3513 92.1842 77.0673 92.1842Z" fill="white"/>
<defs>
<filter id="filter0_d_873_2269" x="2" y="3.14453" width="150.845" height="101.939" filterUnits="userSpaceOnUse" color-interpolation-filters="sRGB">
<feFlood flood-opacity="0" result="BackgroundImageFix"/>
<feColorMatrix in="SourceAlpha" type="matrix" values="0 0 0 0 0 0 0 0 0 0 0 0 0 0 0 0 0 0 127 0" result="hardAlpha"/>
<feOffset dx="-1" dy="4"/>
<feComposite in2="hardAlpha" operator="out"/>
<feColorMatrix type="matrix" values="0 0 0 0 0 0 0 0 0 0 0 0 0 0 0 0 0 0 0.25 0"/>
<feBlend mode="normal" in2="BackgroundImageFix" result="effect1_dropShadow_873_2269"/>
<feBlend mode="normal" in="SourceGraphic" in2="effect1_dropShadow_873_2269" result="shape"/>
</filter>
<filter id="filter1_d_873_2269" x="0.672852" y="0" width="154.172" height="102.084" filterUnits="userSpaceOnUse" color-interpolation-filters="sRGB">
<feFlood flood-opacity="0" result="BackgroundImageFix"/>
<feColorMatrix in="SourceAlpha" type="matrix" values="0 0 0 0 0 0 0 0 0 0 0 0 0 0 0 0 0 0 127 0" result="hardAlpha"/>
<feOffset dx="-2" dy="1"/>
<feGaussianBlur stdDeviation="1"/>
<feComposite in2="hardAlpha" operator="out"/>
<feColorMatrix type="matrix" values="0 0 0 0 0 0 0 0 0 0 0 0 0 0 0 0 0 0 0.25 0"/>
<feBlend mode="normal" in2="BackgroundImageFix" result="effect1_dropShadow_873_2269"/>
<feBlend mode="normal" in="SourceGraphic" in2="effect1_dropShadow_873_2269" result="shape"/>
</filter>
<filter id="filter2_b_873_2269" x="-5" y="-8.85547" width="169.845" height="117.939" filterUnits="userSpaceOnUse" color-interpolation-filters="sRGB">
<feFlood flood-opacity="0" result="BackgroundImageFix"/>
<feGaussianBlur in="BackgroundImageFix" stdDeviation="5"/>
<feComposite in2="SourceAlpha" operator="in" result="effect1_backgroundBlur_873_2269"/>
<feBlend mode="normal" in="SourceGraphic" in2="effect1_backgroundBlur_873_2269" result="shape"/>
</filter>
</defs>
</svg>
