<svg width="1440" height="1070" viewBox="0 0 1440 1070" fill="none" xmlns="http://www.w3.org/2000/svg">
<path d="M1122.06 331.5C1492.06 453.5 1471.56 307.5 1497.56 319V-95.5H-69.4446C-121.778 197.333 -225.745 786.3 -222.945 799.5C-219.445 816 91.5555 1188 261.555 1031C431.555 874 348.555 709 581.555 651.5C814.555 594 752.055 209.5 1122.06 331.5Z" fill="#EF94D6"/>
<path d="M279.803 344.483C289.836 361.318 250.594 403.201 192.152 438.031C133.71 472.861 78.2003 487.449 68.1669 470.614C58.1335 453.779 97.3761 411.896 155.818 377.066C214.26 342.235 269.77 327.648 279.803 344.483Z" fill="#EED4B5"/>
<path d="M632.859 425.645C622.443 443.121 630.724 467.257 651.356 479.553C671.987 491.849 697.156 487.649 707.572 470.172C717.988 452.695 709.706 428.56 689.075 416.264C668.444 403.968 643.275 408.168 632.859 425.645Z" fill="#EED4B5"/>
<path d="M1494.97 210.538C1524.57 235.338 1573.31 227.871 1593.97 221.038C1648.97 221.038 1609.11 291.434 1570.89 287.547C1511.89 281.547 1406.03 312.003 1384.39 281.547C1341.39 221.038 1457.97 179.538 1494.97 210.538Z" fill="#EED4B5"/>
<path d="M359 -99.9999C359.853 -100.377 360.776 -100.644 361.753 -100.769L563 -157C571.333 -135.167 593.5 -88 615.5 -74C643 -56.5 725.5 -25.5 642.5 64C559.5 153.5 388.5 88.5001 389 -12.4999C389.366 -86.5218 372.416 -102.131 361.753 -100.769L359 -99.9999Z" fill="#EED4B5"/>
</svg>
